<?xml version="1.0" encoding="UTF-8" standalone="no"?>
<!DOCTYPE svg PUBLIC "-//W3C//DTD SVG 1.1//EN"
 "http://www.w3.org/Graphics/SVG/1.1/DTD/svg11.dtd">
<!-- Generated by graphviz version 2.43.0 (0)
 -->
<!-- Title: PasswordResetTokenDAO\create Pages: 1 -->
<svg width="324pt" height="86pt"
 viewBox="0.00 0.00 324.00 86.00" xmlns="http://www.w3.org/2000/svg" xmlns:xlink="http://www.w3.org/1999/xlink">
<g id="graph0" class="graph" transform="scale(1 1) rotate(0) translate(4 82)">
<title>PasswordResetTokenDAO\create</title>
<!-- Node1 -->
<g id="Node000001" class="node">
<title>Node1</title>
<g id="a_Node000001"><a xlink:title="Crée un nouveau token de réinitialisation de mot de passe.">
<polygon fill="#999999" stroke="#666666" points="140,-54 0,-54 0,-24 140,-24 140,-54"/>
<text text-anchor="start" x="8" y="-42" font-family="Helvetica,sans-Serif" font-size="10.00">PasswordResetTokenDAO</text>
<text text-anchor="middle" x="70" y="-31" font-family="Helvetica,sans-Serif" font-size="10.00">\create</text>
</a>
</g>
</g>
<!-- Node2 -->
<g id="Node000002" class="node">
<title>Node2</title>
<g id="a_Node000002"><a xlink:href="classPasswordResetToken.html#aa5c9b3ce24bc310c126e67f2e3bbca73" target="_top" xlink:title="Génère un nouveau token sécurisé.">
<polygon fill="white" stroke="#666666" points="305,-78 187,-78 187,-48 305,-48 305,-78"/>
<text text-anchor="start" x="195" y="-66" font-family="Helvetica,sans-Serif" font-size="10.00">PasswordResetToken</text>
<text text-anchor="middle" x="246" y="-55" font-family="Helvetica,sans-Serif" font-size="10.00">\genererToken</text>
</a>
</g>
</g>
<!-- Node1&#45;&gt;Node2 -->
<g id="edge1_Node000001_Node000002" class="edge">
<title>Node1&#45;&gt;Node2</title>
<g id="a_edge1_Node000001_Node000002"><a xlink:title=" ">
<path fill="none" stroke="#63b8ff" d="M140.02,-48.52C152.18,-50.2 164.82,-51.94 176.95,-53.61"/>
<polygon fill="#63b8ff" stroke="#63b8ff" points="176.61,-57.1 187,-55 177.57,-50.17 176.61,-57.1"/>
</a>
</g>
</g>
<!-- Node3 -->
<g id="Node000003" class="node">
<title>Node3</title>
<g id="a_Node000003"><a xlink:href="classPasswordResetTokenDAO.html#ad537fa15bf9bf8a9a8fdb016dfdad1c3" target="_top" xlink:title="Invalide tous les tokens d&#39;un utilisateur.">
<polygon fill="white" stroke="#666666" points="316,-30 176,-30 176,0 316,0 316,-30"/>
<text text-anchor="start" x="184" y="-18" font-family="Helvetica,sans-Serif" font-size="10.00">PasswordResetTokenDAO</text>
<text text-anchor="middle" x="246" y="-7" font-family="Helvetica,sans-Serif" font-size="10.00">\invalidateTokensForUser</text>
</a>
</g>
</g>
<!-- Node1&#45;&gt;Node3 -->
<g id="edge2_Node000001_Node000003" class="edge">
<title>Node1&#45;&gt;Node3</title>
<g id="a_edge2_Node000001_Node000003"><a xlink:title=" ">
<path fill="none" stroke="#63b8ff" d="M140.02,-29.48C148.48,-28.31 157.17,-27.11 165.76,-25.93"/>
<polygon fill="#63b8ff" stroke="#63b8ff" points="166.35,-29.38 175.78,-24.55 165.4,-22.45 166.35,-29.38"/>
</a>
</g>
</g>
</g>
</svg>
