<?xml version="1.0" encoding="UTF-8" standalone="no"?>
<!DOCTYPE svg PUBLIC "-//W3C//DTD SVG 1.1//EN"
 "http://www.w3.org/Graphics/SVG/1.1/DTD/svg11.dtd">
<!-- Generated by graphviz version 2.43.0 (0)
 -->
<!-- Title: ChansonDAO\findAllFromUser Pages: 1 -->
<svg width="510pt" height="27pt"
 viewBox="0.00 0.00 510.00 27.00" xmlns="http://www.w3.org/2000/svg" xmlns:xlink="http://www.w3.org/1999/xlink">
<g id="graph0" class="graph" transform="scale(1 1) rotate(0) translate(4 23)">
<title>ChansonDAO\findAllFromUser</title>
<!-- Node1 -->
<g id="Node000001" class="node">
<title>Node1</title>
<g id="a_Node000001"><a xlink:title=" ">
<polygon fill="#999999" stroke="#666666" points="161,-19 0,-19 0,0 161,0 161,-19"/>
<text text-anchor="middle" x="80.5" y="-7" font-family="Helvetica,sans-Serif" font-size="10.00">ChansonDAO\findAllFromUser</text>
</a>
</g>
</g>
<!-- Node2 -->
<g id="Node000002" class="node">
<title>Node2</title>
<g id="a_Node000002"><a xlink:href="classChansonDAO.html#a3c5a1384e8cc52cfe9be658f73e9db98" target="_top" xlink:title=" ">
<polygon fill="white" stroke="#666666" points="345,-19 197,-19 197,0 345,0 345,-19"/>
<text text-anchor="middle" x="271" y="-7" font-family="Helvetica,sans-Serif" font-size="10.00">ChansonDAO\hydrateMany</text>
</a>
</g>
</g>
<!-- Node1&#45;&gt;Node2 -->
<g id="edge1_Node000001_Node000002" class="edge">
<title>Node1&#45;&gt;Node2</title>
<g id="a_edge1_Node000001_Node000002"><a xlink:title=" ">
<path fill="none" stroke="#63b8ff" d="M161.17,-9.5C169.6,-9.5 178.19,-9.5 186.66,-9.5"/>
<polygon fill="#63b8ff" stroke="#63b8ff" points="186.91,-13 196.91,-9.5 186.91,-6 186.91,-13"/>
</a>
</g>
</g>
<!-- Node3 -->
<g id="Node000003" class="node">
<title>Node3</title>
<g id="a_Node000003"><a xlink:href="classChansonDAO.html#aba82b82cc565dac393f403cf9e460508" target="_top" xlink:title=" ">
<polygon fill="white" stroke="#666666" points="502,-19 381,-19 381,0 502,0 502,-19"/>
<text text-anchor="middle" x="441.5" y="-7" font-family="Helvetica,sans-Serif" font-size="10.00">ChansonDAO\hydrate</text>
</a>
</g>
</g>
<!-- Node2&#45;&gt;Node3 -->
<g id="edge2_Node000002_Node000003" class="edge">
<title>Node2&#45;&gt;Node3</title>
<g id="a_edge2_Node000002_Node000003"><a xlink:title=" ">
<path fill="none" stroke="#63b8ff" d="M345.42,-9.5C353.87,-9.5 362.46,-9.5 370.86,-9.5"/>
<polygon fill="#63b8ff" stroke="#63b8ff" points="370.98,-13 380.98,-9.5 370.98,-6 370.98,-13"/>
</a>
</g>
</g>
</g>
</svg>
