<?xml version="1.0" encoding="UTF-8" standalone="no"?>
<!DOCTYPE svg PUBLIC "-//W3C//DTD SVG 1.1//EN"
 "http://www.w3.org/Graphics/SVG/1.1/DTD/svg11.dtd">
<!-- Generated by graphviz version 2.43.0 (0)
 -->
<!-- Title: ChansonDAO\filtrerChanson Pages: 1 -->
<svg width="501pt" height="27pt"
 viewBox="0.00 0.00 501.00 27.00" xmlns="http://www.w3.org/2000/svg" xmlns:xlink="http://www.w3.org/1999/xlink">
<g id="graph0" class="graph" transform="scale(1 1) rotate(0) translate(4 23)">
<title>ChansonDAO\filtrerChanson</title>
<!-- Node1 -->
<g id="Node000001" class="node">
<title>Node1</title>
<g id="a_Node000001"><a xlink:title=" ">
<polygon fill="#999999" stroke="#666666" points="152,-19 0,-19 0,0 152,0 152,-19"/>
<text text-anchor="middle" x="76" y="-7" font-family="Helvetica,sans-Serif" font-size="10.00">ChansonDAO\filtrerChanson</text>
</a>
</g>
</g>
<!-- Node2 -->
<g id="Node000002" class="node">
<title>Node2</title>
<g id="a_Node000002"><a xlink:href="classChansonDAO.html#a3c5a1384e8cc52cfe9be658f73e9db98" target="_top" xlink:title=" ">
<polygon fill="white" stroke="#666666" points="336,-19 188,-19 188,0 336,0 336,-19"/>
<text text-anchor="middle" x="262" y="-7" font-family="Helvetica,sans-Serif" font-size="10.00">ChansonDAO\hydrateMany</text>
</a>
</g>
</g>
<!-- Node1&#45;&gt;Node2 -->
<g id="edge1_Node000001_Node000002" class="edge">
<title>Node1&#45;&gt;Node2</title>
<g id="a_edge1_Node000001_Node000002"><a xlink:title=" ">
<path fill="none" stroke="#63b8ff" d="M152.11,-9.5C160.6,-9.5 169.3,-9.5 177.9,-9.5"/>
<polygon fill="#63b8ff" stroke="#63b8ff" points="177.92,-13 187.92,-9.5 177.92,-6 177.92,-13"/>
</a>
</g>
</g>
<!-- Node3 -->
<g id="Node000003" class="node">
<title>Node3</title>
<g id="a_Node000003"><a xlink:href="classChansonDAO.html#aba82b82cc565dac393f403cf9e460508" target="_top" xlink:title=" ">
<polygon fill="white" stroke="#666666" points="493,-19 372,-19 372,0 493,0 493,-19"/>
<text text-anchor="middle" x="432.5" y="-7" font-family="Helvetica,sans-Serif" font-size="10.00">ChansonDAO\hydrate</text>
</a>
</g>
</g>
<!-- Node2&#45;&gt;Node3 -->
<g id="edge2_Node000002_Node000003" class="edge">
<title>Node2&#45;&gt;Node3</title>
<g id="a_edge2_Node000002_Node000003"><a xlink:title=" ">
<path fill="none" stroke="#63b8ff" d="M336.42,-9.5C344.87,-9.5 353.46,-9.5 361.86,-9.5"/>
<polygon fill="#63b8ff" stroke="#63b8ff" points="361.98,-13 371.98,-9.5 361.98,-6 361.98,-13"/>
</a>
</g>
</g>
</g>
</svg>
