<?xml version="1.0" encoding="UTF-8" standalone="no"?>
<!DOCTYPE svg PUBLIC "-//W3C//DTD SVG 1.1//EN"
 "http://www.w3.org/Graphics/SVG/1.1/DTD/svg11.dtd">
<!-- Generated by graphviz version 2.43.0 (0)
 -->
<!-- Title: Email\sendPasswordResetEmail Pages: 1 -->
<svg width="459pt" height="64pt"
 viewBox="0.00 0.00 459.00 64.00" xmlns="http://www.w3.org/2000/svg" xmlns:xlink="http://www.w3.org/1999/xlink">
<g id="graph0" class="graph" transform="scale(1 1) rotate(0) translate(4 60)">
<title>Email\sendPasswordResetEmail</title>
<!-- Node1 -->
<g id="Node000001" class="node">
<title>Node1</title>
<g id="a_Node000001"><a xlink:title="Envoie un email de réinitialisation de mot de passe.">
<polygon fill="#999999" stroke="#666666" points="172,-37 0,-37 0,-18 172,-18 172,-37"/>
<text text-anchor="middle" x="86" y="-25" font-family="Helvetica,sans-Serif" font-size="10.00">Email\sendPasswordResetEmail</text>
</a>
</g>
</g>
<!-- Node2 -->
<g id="Node000002" class="node">
<title>Node2</title>
<g id="a_Node000002"><a xlink:href="classEmail.html#ae28ae8c6b6977c4fa419438f93f5ea3a" target="_top" xlink:title="Récupère l&#39;URL du site.">
<polygon fill="white" stroke="#666666" points="305,-56 209,-56 209,-37 305,-37 305,-56"/>
<text text-anchor="middle" x="257" y="-44" font-family="Helvetica,sans-Serif" font-size="10.00">Email\getSiteUrl</text>
</a>
</g>
</g>
<!-- Node1&#45;&gt;Node2 -->
<g id="edge1_Node000001_Node000002" class="edge">
<title>Node1&#45;&gt;Node2</title>
<g id="a_edge1_Node000001_Node000002"><a xlink:title=" ">
<path fill="none" stroke="#63b8ff" d="M172,-37.06C181.09,-38.08 190.18,-39.1 198.84,-40.07"/>
<polygon fill="#63b8ff" stroke="#63b8ff" points="198.46,-43.55 208.79,-41.19 199.24,-36.6 198.46,-43.55"/>
</a>
</g>
</g>
<!-- Node3 -->
<g id="Node000003" class="node">
<title>Node3</title>
<g id="a_Node000003"><a xlink:href="classEmail.html#a9aca469b70f5907964a1ee99dc76d787" target="_top" xlink:title="Envoie un email générique.">
<polygon fill="white" stroke="#666666" points="306,-19 208,-19 208,0 306,0 306,-19"/>
<text text-anchor="middle" x="257" y="-7" font-family="Helvetica,sans-Serif" font-size="10.00">Email\sendEmail</text>
</a>
</g>
</g>
<!-- Node1&#45;&gt;Node3 -->
<g id="edge2_Node000001_Node000003" class="edge">
<title>Node1&#45;&gt;Node3</title>
<g id="a_edge2_Node000001_Node000003"><a xlink:title=" ">
<path fill="none" stroke="#63b8ff" d="M172.49,-18.39C181.01,-17.49 189.52,-16.58 197.66,-15.71"/>
<polygon fill="#63b8ff" stroke="#63b8ff" points="198.19,-19.18 207.76,-14.64 197.45,-12.22 198.19,-19.18"/>
</a>
</g>
</g>
<!-- Node4 -->
<g id="Node000004" class="node">
<title>Node4</title>
<g id="a_Node000004"><a xlink:href="classEmail.html#ad45a36acb02ab1c873e93ccbb98de680" target="_top" xlink:title="Crée et configure une instance PHPMailer.">
<polygon fill="white" stroke="#666666" points="451,-19 342,-19 342,0 451,0 451,-19"/>
<text text-anchor="middle" x="396.5" y="-7" font-family="Helvetica,sans-Serif" font-size="10.00">Email\createMailer</text>
</a>
</g>
</g>
<!-- Node3&#45;&gt;Node4 -->
<g id="edge3_Node000003_Node000004" class="edge">
<title>Node3&#45;&gt;Node4</title>
<g id="a_edge3_Node000003_Node000004"><a xlink:title=" ">
<path fill="none" stroke="#63b8ff" d="M306.09,-9.5C314.24,-9.5 322.81,-9.5 331.3,-9.5"/>
<polygon fill="#63b8ff" stroke="#63b8ff" points="331.56,-13 341.56,-9.5 331.56,-6 331.56,-13"/>
</a>
</g>
</g>
</g>
</svg>
