<?xml version="1.0" encoding="UTF-8" standalone="no"?>
<!DOCTYPE svg PUBLIC "-//W3C//DTD SVG 1.1//EN"
 "http://www.w3.org/Graphics/SVG/1.1/DTD/svg11.dtd">
<!-- Generated by graphviz version 2.43.0 (0)
 -->
<!-- Title: Chanson Pages: 1 -->
<svg width="270pt" height="693pt"
 viewBox="0.00 0.00 269.50 693.00" xmlns="http://www.w3.org/2000/svg" xmlns:xlink="http://www.w3.org/1999/xlink">
<g id="graph0" class="graph" transform="scale(1 1) rotate(0) translate(4 689)">
<title>Chanson</title>
<!-- Node1 -->
<g id="Node000001" class="node">
<title>Node1</title>
<g id="a_Node000001"><a xlink:title=" ">
<polygon fill="#999999" stroke="transparent" points="223.5,-319 41.5,-319 41.5,0 223.5,0 223.5,-319"/>
<text text-anchor="start" x="111" y="-306.5" font-family="Helvetica,sans-Serif" font-size="10.00">Chanson</text>
<text text-anchor="start" x="48" y="-291.5" font-family="Helvetica,sans-Serif" font-size="10.00">&#45;</text>
<text text-anchor="start" x="58.5" y="-291.5" font-family="Helvetica,sans-Serif" font-size="10.00">$idChanson</text>
<text text-anchor="start" x="48" y="-276.5" font-family="Helvetica,sans-Serif" font-size="10.00">&#45;</text>
<text text-anchor="start" x="58.5" y="-276.5" font-family="Helvetica,sans-Serif" font-size="10.00">$titreChanson</text>
<text text-anchor="start" x="48" y="-261.5" font-family="Helvetica,sans-Serif" font-size="10.00">&#45;</text>
<text text-anchor="start" x="58.5" y="-261.5" font-family="Helvetica,sans-Serif" font-size="10.00">$dureeChanson</text>
<text text-anchor="start" x="48" y="-246.5" font-family="Helvetica,sans-Serif" font-size="10.00">&#45;</text>
<text text-anchor="start" x="58.5" y="-246.5" font-family="Helvetica,sans-Serif" font-size="10.00">$dateTeleversementChanson</text>
<text text-anchor="start" x="48" y="-231.5" font-family="Helvetica,sans-Serif" font-size="10.00">&#45;</text>
<text text-anchor="start" x="58.5" y="-231.5" font-family="Helvetica,sans-Serif" font-size="10.00">$nbEcouteChanson</text>
<text text-anchor="start" x="48" y="-216.5" font-family="Helvetica,sans-Serif" font-size="10.00">&#45;</text>
<text text-anchor="start" x="58.5" y="-216.5" font-family="Helvetica,sans-Serif" font-size="10.00">$emailPublicateur</text>
<text text-anchor="start" x="48" y="-201.5" font-family="Helvetica,sans-Serif" font-size="10.00">&#45;</text>
<text text-anchor="start" x="58.5" y="-201.5" font-family="Helvetica,sans-Serif" font-size="10.00">$urlAudioChanson</text>
<text text-anchor="start" x="48" y="-186.5" font-family="Helvetica,sans-Serif" font-size="10.00">&#45;</text>
<text text-anchor="start" x="58.5" y="-186.5" font-family="Helvetica,sans-Serif" font-size="10.00">$isLiked</text>
<text text-anchor="start" x="48" y="-171.5" font-family="Helvetica,sans-Serif" font-size="10.00">&#45;</text>
<text text-anchor="start" x="58.5" y="-171.5" font-family="Helvetica,sans-Serif" font-size="10.00">$dateLike</text>
<text text-anchor="start" x="45.5" y="-156.5" font-family="Helvetica,sans-Serif" font-size="10.00">+</text>
<text text-anchor="start" x="58.5" y="-156.5" font-family="Helvetica,sans-Serif" font-size="10.00">__construct()</text>
<text text-anchor="start" x="45.5" y="-141.5" font-family="Helvetica,sans-Serif" font-size="10.00">+</text>
<text text-anchor="start" x="58.5" y="-141.5" font-family="Helvetica,sans-Serif" font-size="10.00">getIdChanson()</text>
<text text-anchor="start" x="45.5" y="-126.5" font-family="Helvetica,sans-Serif" font-size="10.00">+</text>
<text text-anchor="start" x="58.5" y="-126.5" font-family="Helvetica,sans-Serif" font-size="10.00">setIdChanson()</text>
<text text-anchor="start" x="45.5" y="-111.5" font-family="Helvetica,sans-Serif" font-size="10.00">+</text>
<text text-anchor="start" x="58.5" y="-111.5" font-family="Helvetica,sans-Serif" font-size="10.00">getTitreChanson()</text>
<text text-anchor="start" x="45.5" y="-96.5" font-family="Helvetica,sans-Serif" font-size="10.00">+</text>
<text text-anchor="start" x="58.5" y="-96.5" font-family="Helvetica,sans-Serif" font-size="10.00">setTitreChanson()</text>
<text text-anchor="start" x="45.5" y="-81.5" font-family="Helvetica,sans-Serif" font-size="10.00">+</text>
<text text-anchor="start" x="58.5" y="-81.5" font-family="Helvetica,sans-Serif" font-size="10.00">getDureeChanson()</text>
<text text-anchor="start" x="45.5" y="-66.5" font-family="Helvetica,sans-Serif" font-size="10.00">+</text>
<text text-anchor="start" x="58.5" y="-66.5" font-family="Helvetica,sans-Serif" font-size="10.00">setDureeChanson()</text>
<text text-anchor="start" x="45.5" y="-51.5" font-family="Helvetica,sans-Serif" font-size="10.00">+</text>
<text text-anchor="start" x="58.5" y="-51.5" font-family="Helvetica,sans-Serif" font-size="10.00">getDateTeleversementChanson()</text>
<text text-anchor="start" x="45.5" y="-36.5" font-family="Helvetica,sans-Serif" font-size="10.00">+</text>
<text text-anchor="start" x="58.5" y="-36.5" font-family="Helvetica,sans-Serif" font-size="10.00">setDateTeleversementChanson()</text>
<text text-anchor="start" x="45.5" y="-21.5" font-family="Helvetica,sans-Serif" font-size="10.00">+</text>
<text text-anchor="start" x="58.5" y="-21.5" font-family="Helvetica,sans-Serif" font-size="10.00">getNbEcouteChanson()</text>
<text text-anchor="start" x="58.5" y="-6.5" font-family="Helvetica,sans-Serif" font-size="10.00">et 13 de plus...</text>
<polygon fill="#666666" stroke="#666666" points="41.5,-301.5 41.5,-301.5 223.5,-301.5 223.5,-301.5 41.5,-301.5"/>
<polygon fill="#666666" stroke="#666666" points="41.5,-166.5 41.5,-166.5 56.5,-166.5 56.5,-166.5 41.5,-166.5"/>
<polygon fill="#666666" stroke="#666666" points="56.5,-166.5 56.5,-166.5 223.5,-166.5 223.5,-166.5 56.5,-166.5"/>
<polygon fill="none" stroke="#666666" points="41.5,0 41.5,-319 223.5,-319 223.5,0 41.5,0"/>
</a>
</g>
</g>
<!-- Node2 -->
<g id="Node000002" class="node">
<title>Node2</title>
<g id="a_Node000002"><a xlink:href="classAlbum.html" target="_top" xlink:title=" ">
<polygon fill="white" stroke="transparent" points="133,-685 0,-685 0,-366 133,-366 133,-685"/>
<text text-anchor="start" x="51" y="-672.5" font-family="Helvetica,sans-Serif" font-size="10.00">Album</text>
<text text-anchor="start" x="7" y="-657.5" font-family="Helvetica,sans-Serif" font-size="10.00">&#45;</text>
<text text-anchor="start" x="17.5" y="-657.5" font-family="Helvetica,sans-Serif" font-size="10.00">$idAlbum</text>
<text text-anchor="start" x="7" y="-642.5" font-family="Helvetica,sans-Serif" font-size="10.00">&#45;</text>
<text text-anchor="start" x="17.5" y="-642.5" font-family="Helvetica,sans-Serif" font-size="10.00">$nomAlbum</text>
<text text-anchor="start" x="7" y="-627.5" font-family="Helvetica,sans-Serif" font-size="10.00">&#45;</text>
<text text-anchor="start" x="17.5" y="-627.5" font-family="Helvetica,sans-Serif" font-size="10.00">$dateSortieAlbum</text>
<text text-anchor="start" x="7" y="-612.5" font-family="Helvetica,sans-Serif" font-size="10.00">&#45;</text>
<text text-anchor="start" x="17.5" y="-612.5" font-family="Helvetica,sans-Serif" font-size="10.00">$urlPochetteAlbum</text>
<text text-anchor="start" x="7" y="-597.5" font-family="Helvetica,sans-Serif" font-size="10.00">&#45;</text>
<text text-anchor="start" x="17.5" y="-597.5" font-family="Helvetica,sans-Serif" font-size="10.00">$artisteAlbum</text>
<text text-anchor="start" x="7" y="-582.5" font-family="Helvetica,sans-Serif" font-size="10.00">&#45;</text>
<text text-anchor="start" x="17.5" y="-582.5" font-family="Helvetica,sans-Serif" font-size="10.00">$pseudoArtiste</text>
<text text-anchor="start" x="4.5" y="-567.5" font-family="Helvetica,sans-Serif" font-size="10.00">+</text>
<text text-anchor="start" x="17.5" y="-567.5" font-family="Helvetica,sans-Serif" font-size="10.00">getIdAlbum()</text>
<text text-anchor="start" x="4.5" y="-552.5" font-family="Helvetica,sans-Serif" font-size="10.00">+</text>
<text text-anchor="start" x="17.5" y="-552.5" font-family="Helvetica,sans-Serif" font-size="10.00">setIdAlbum()</text>
<text text-anchor="start" x="4.5" y="-537.5" font-family="Helvetica,sans-Serif" font-size="10.00">+</text>
<text text-anchor="start" x="17.5" y="-537.5" font-family="Helvetica,sans-Serif" font-size="10.00">getNomAlbum()</text>
<text text-anchor="start" x="4.5" y="-522.5" font-family="Helvetica,sans-Serif" font-size="10.00">+</text>
<text text-anchor="start" x="17.5" y="-522.5" font-family="Helvetica,sans-Serif" font-size="10.00">setNomAlbum()</text>
<text text-anchor="start" x="4.5" y="-507.5" font-family="Helvetica,sans-Serif" font-size="10.00">+</text>
<text text-anchor="start" x="17.5" y="-507.5" font-family="Helvetica,sans-Serif" font-size="10.00">getTitreAlbum()</text>
<text text-anchor="start" x="4.5" y="-492.5" font-family="Helvetica,sans-Serif" font-size="10.00">+</text>
<text text-anchor="start" x="17.5" y="-492.5" font-family="Helvetica,sans-Serif" font-size="10.00">setTitreAlbum()</text>
<text text-anchor="start" x="4.5" y="-477.5" font-family="Helvetica,sans-Serif" font-size="10.00">+</text>
<text text-anchor="start" x="17.5" y="-477.5" font-family="Helvetica,sans-Serif" font-size="10.00">getDateSortieAlbum()</text>
<text text-anchor="start" x="4.5" y="-462.5" font-family="Helvetica,sans-Serif" font-size="10.00">+</text>
<text text-anchor="start" x="17.5" y="-462.5" font-family="Helvetica,sans-Serif" font-size="10.00">setDateSortieAlbum()</text>
<text text-anchor="start" x="4.5" y="-447.5" font-family="Helvetica,sans-Serif" font-size="10.00">+</text>
<text text-anchor="start" x="17.5" y="-447.5" font-family="Helvetica,sans-Serif" font-size="10.00">getUrlPochetteAlbum()</text>
<text text-anchor="start" x="4.5" y="-432.5" font-family="Helvetica,sans-Serif" font-size="10.00">+</text>
<text text-anchor="start" x="17.5" y="-432.5" font-family="Helvetica,sans-Serif" font-size="10.00">setUrlPochetteAlbum()</text>
<text text-anchor="start" x="4.5" y="-417.5" font-family="Helvetica,sans-Serif" font-size="10.00">+</text>
<text text-anchor="start" x="17.5" y="-417.5" font-family="Helvetica,sans-Serif" font-size="10.00">getArtisteAlbum()</text>
<text text-anchor="start" x="4.5" y="-402.5" font-family="Helvetica,sans-Serif" font-size="10.00">+</text>
<text text-anchor="start" x="17.5" y="-402.5" font-family="Helvetica,sans-Serif" font-size="10.00">setArtisteAlbum()</text>
<text text-anchor="start" x="4.5" y="-387.5" font-family="Helvetica,sans-Serif" font-size="10.00">+</text>
<text text-anchor="start" x="17.5" y="-387.5" font-family="Helvetica,sans-Serif" font-size="10.00">getPseudoArtiste()</text>
<text text-anchor="start" x="4.5" y="-372.5" font-family="Helvetica,sans-Serif" font-size="10.00">+</text>
<text text-anchor="start" x="17.5" y="-372.5" font-family="Helvetica,sans-Serif" font-size="10.00">setPseudoArtiste()</text>
<polygon fill="#666666" stroke="#666666" points="0.5,-667.5 0.5,-667.5 133.5,-667.5 133.5,-667.5 0.5,-667.5"/>
<polygon fill="#666666" stroke="#666666" points="0.5,-577.5 0.5,-577.5 15.5,-577.5 15.5,-577.5 0.5,-577.5"/>
<polygon fill="#666666" stroke="#666666" points="15.5,-577.5 15.5,-577.5 133.5,-577.5 133.5,-577.5 15.5,-577.5"/>
<polygon fill="none" stroke="#666666" points="0,-366 0,-685 133,-685 133,-366 0,-366"/>
</a>
</g>
</g>
<!-- Node2&#45;&gt;Node1 -->
<g id="edge1_Node000001_Node000002" class="edge">
<title>Node2&#45;&gt;Node1</title>
<g id="a_edge1_Node000001_Node000002"><a xlink:title=" ">
<path fill="none" stroke="#63b8ff" d="M86.58,-365.77C88.15,-356.02 89.79,-346.37 91.5,-337 91.87,-334.98 92.25,-332.95 92.63,-330.9"/>
<polygon fill="none" stroke="#63b8ff" points="92.63,-330.89 89.84,-324.24 94.9,-319.11 97.69,-325.76 92.63,-330.89"/>
</a>
</g>
<text text-anchor="middle" x="134.5" y="-340" font-family="Helvetica,sans-Serif" font-size="10.00" fill="grey"> &#45;$albumChanson</text>
</g>
<!-- Node3 -->
<g id="Node000003" class="node">
<title>Node3</title>
<g id="a_Node000003"><a xlink:href="classGenre.html" target="_top" xlink:title=" ">
<polygon fill="white" stroke="transparent" points="248,-587.5 151,-587.5 151,-463.5 248,-463.5 248,-587.5"/>
<text text-anchor="start" x="185" y="-575.5" font-family="Helvetica,sans-Serif" font-size="10.00">Genre</text>
<text text-anchor="start" x="158" y="-560.5" font-family="Helvetica,sans-Serif" font-size="10.00">&#45;</text>
<text text-anchor="start" x="168.5" y="-560.5" font-family="Helvetica,sans-Serif" font-size="10.00">$idGenre</text>
<text text-anchor="start" x="158" y="-545.5" font-family="Helvetica,sans-Serif" font-size="10.00">&#45;</text>
<text text-anchor="start" x="168.5" y="-545.5" font-family="Helvetica,sans-Serif" font-size="10.00">$nomGenre</text>
<text text-anchor="start" x="155.5" y="-530.5" font-family="Helvetica,sans-Serif" font-size="10.00">+</text>
<text text-anchor="start" x="168.5" y="-530.5" font-family="Helvetica,sans-Serif" font-size="10.00">__construct()</text>
<text text-anchor="start" x="155.5" y="-515.5" font-family="Helvetica,sans-Serif" font-size="10.00">+</text>
<text text-anchor="start" x="168.5" y="-515.5" font-family="Helvetica,sans-Serif" font-size="10.00">getIdGenre()</text>
<text text-anchor="start" x="155.5" y="-500.5" font-family="Helvetica,sans-Serif" font-size="10.00">+</text>
<text text-anchor="start" x="168.5" y="-500.5" font-family="Helvetica,sans-Serif" font-size="10.00">setIdGenre()</text>
<text text-anchor="start" x="155.5" y="-485.5" font-family="Helvetica,sans-Serif" font-size="10.00">+</text>
<text text-anchor="start" x="168.5" y="-485.5" font-family="Helvetica,sans-Serif" font-size="10.00">getNomGenre()</text>
<text text-anchor="start" x="155.5" y="-470.5" font-family="Helvetica,sans-Serif" font-size="10.00">+</text>
<text text-anchor="start" x="168.5" y="-470.5" font-family="Helvetica,sans-Serif" font-size="10.00">setNomGenre()</text>
<polygon fill="#666666" stroke="#666666" points="151.5,-570.5 151.5,-570.5 248.5,-570.5 248.5,-570.5 151.5,-570.5"/>
<polygon fill="#666666" stroke="#666666" points="151.5,-540.5 151.5,-540.5 166.5,-540.5 166.5,-540.5 151.5,-540.5"/>
<polygon fill="#666666" stroke="#666666" points="166.5,-540.5 166.5,-540.5 248.5,-540.5 248.5,-540.5 166.5,-540.5"/>
<polygon fill="none" stroke="#666666" points="151,-463.5 151,-587.5 248,-587.5 248,-463.5 151,-463.5"/>
</a>
</g>
</g>
<!-- Node3&#45;&gt;Node1 -->
<g id="edge2_Node000001_Node000003" class="edge">
<title>Node3&#45;&gt;Node1</title>
<g id="a_edge2_Node000001_Node000003"><a xlink:title=" ">
<path fill="none" stroke="#63b8ff" d="M194.4,-463.39C190.81,-426.59 185.26,-378.89 177.5,-337 177.12,-334.97 176.74,-332.93 176.34,-330.88"/>
<polygon fill="none" stroke="#63b8ff" points="176.33,-330.81 171.23,-325.7 173.98,-319.04 179.08,-324.14 176.33,-330.81"/>
</a>
</g>
<text text-anchor="middle" x="220" y="-340" font-family="Helvetica,sans-Serif" font-size="10.00" fill="grey"> &#45;$genreChanson</text>
</g>
</g>
</svg>
