<?xml version="1.0" encoding="UTF-8" standalone="no"?>
<!DOCTYPE svg PUBLIC "-//W3C//DTD SVG 1.1//EN"
 "http://www.w3.org/Graphics/SVG/1.1/DTD/svg11.dtd">
<!-- Generated by graphviz version 2.43.0 (0)
 -->
<!-- Title: ControllerUtilisateur\demanderReinitialisation Pages: 1 -->
<svg width="439pt" height="140pt"
 viewBox="0.00 0.00 439.00 140.00" xmlns="http://www.w3.org/2000/svg" xmlns:xlink="http://www.w3.org/1999/xlink">

<svg id="main" version="1.1" xmlns="http://www.w3.org/2000/svg" xmlns:xlink="http://www.w3.org/1999/xlink" xml:space="preserve" onload="init(evt)">
<style type="text/css"><![CDATA[
.node, .edge {opacity: 0.7;}
.node.selected, .edge.selected {opacity: 1;}
.edge:hover path { stroke: red; }
.edge:hover polygon { stroke: red; fill: red; }
]]></style>
<script type="application/ecmascript" xlink:href="svg.min.js"/>
<svg id="graph" class="graph">
<g id="graph0" class="graph" transform="scale(1 1) rotate(0) translate(4 136)">
<title>ControllerUtilisateur\demanderReinitialisation</title>
<!-- Node1 -->
<g id="Node000001" class="node">
<title>Node1</title>
<g id="a_Node000001"><a xlink:title="Traite la demande de réinitialisation de mot de passe.">
<polygon fill="#999999" stroke="#666666" points="143,-81.5 0,-81.5 0,-51.5 143,-51.5 143,-81.5"/>
<text text-anchor="start" x="8" y="-69.5" font-family="Helvetica,sans-Serif" font-size="10.00">ControllerUtilisateur</text>
<text text-anchor="middle" x="71.5" y="-58.5" font-family="Helvetica,sans-Serif" font-size="10.00">\demanderReinitialisation</text>
</a>
</g>
</g>
<!-- Node2 -->
<g id="Node000002" class="node">
<title>Node2</title>
<g id="a_Node000002"><a xlink:href="classController.html#aed88cab8d9c1a6735fd3aac0993e5021" target="_top" xlink:title="Récupère la connexion PDO.">
<polygon fill="white" stroke="#666666" points="286.5,-132 182.5,-132 182.5,-113 286.5,-113 286.5,-132"/>
<text text-anchor="middle" x="234.5" y="-120" font-family="Helvetica,sans-Serif" font-size="10.00">Controller\getPDO</text>
</a>
</g>
</g>
<!-- Node1&#45;&gt;Node2 -->
<g id="edge1_Node000001_Node000002" class="edge">
<title>Node1&#45;&gt;Node2</title>
<g id="a_edge1_Node000001_Node000002"><a xlink:title=" ">
<path fill="none" stroke="#63b8ff" d="M113.89,-81.53C133.58,-88.61 157.46,-97.1 179,-104.5 183.94,-106.2 189.14,-107.95 194.29,-109.67"/>
<polygon fill="#63b8ff" stroke="#63b8ff" points="193.45,-113.08 204.04,-112.91 195.65,-106.44 193.45,-113.08"/>
</a>
</g>
</g>
<!-- Node3 -->
<g id="Node000003" class="node">
<title>Node3</title>
<g id="a_Node000003"><a xlink:href="classController.html#a0a0442c56d3fede8d9d7c2c24a04839c" target="_top" xlink:title="Récupère les données POST.">
<polygon fill="white" stroke="#666666" points="286.5,-95 182.5,-95 182.5,-76 286.5,-76 286.5,-95"/>
<text text-anchor="middle" x="234.5" y="-83" font-family="Helvetica,sans-Serif" font-size="10.00">Controller\getPost</text>
</a>
</g>
</g>
<!-- Node1&#45;&gt;Node3 -->
<g id="edge2_Node000001_Node000003" class="edge">
<title>Node1&#45;&gt;Node3</title>
<g id="a_edge2_Node000001_Node000003"><a xlink:title=" ">
<path fill="none" stroke="#63b8ff" d="M143.12,-74.83C152.8,-75.98 162.67,-77.14 172.16,-78.26"/>
<polygon fill="#63b8ff" stroke="#63b8ff" points="171.95,-81.76 182.29,-79.46 172.77,-74.81 171.95,-81.76"/>
</a>
</g>
</g>
<!-- Node4 -->
<g id="Node000004" class="node">
<title>Node4</title>
<g id="a_Node000004"><a xlink:href="classController.html#afd7d94db564ae6e196ac7ac0461e0989" target="_top" xlink:title="Récupère l&#39;environnement Twig.">
<polygon fill="white" stroke="#666666" points="431,-38 326,-38 326,-19 431,-19 431,-38"/>
<text text-anchor="middle" x="378.5" y="-26" font-family="Helvetica,sans-Serif" font-size="10.00">Controller\getTwig</text>
</a>
</g>
</g>
<!-- Node1&#45;&gt;Node4 -->
<g id="edge3_Node000001_Node000004" class="edge">
<title>Node1&#45;&gt;Node4</title>
<g id="a_edge3_Node000001_Node000004"><a xlink:title=" ">
<path fill="none" stroke="#63b8ff" d="M143.24,-57.69C195.43,-51.18 265.76,-42.42 315.7,-36.2"/>
<polygon fill="#63b8ff" stroke="#63b8ff" points="316.23,-39.66 325.72,-34.95 315.36,-32.71 316.23,-39.66"/>
</a>
</g>
</g>
<!-- Node5 -->
<g id="Node000005" class="node">
<title>Node5</title>
<g id="a_Node000005"><a xlink:href="classController.html#a566566403ccbb3fcb71380014da08c46" target="_top" xlink:title="Affiche une erreur 405 Méthode non autorisée.">
<polygon fill="white" stroke="#666666" points="290,-19 179,-19 179,0 290,0 290,-19"/>
<text text-anchor="middle" x="234.5" y="-7" font-family="Helvetica,sans-Serif" font-size="10.00">Controller\show405</text>
</a>
</g>
</g>
<!-- Node1&#45;&gt;Node5 -->
<g id="edge4_Node000001_Node000005" class="edge">
<title>Node1&#45;&gt;Node5</title>
<g id="a_edge4_Node000001_Node000005"><a xlink:title=" ">
<path fill="none" stroke="#63b8ff" d="M115.22,-51.37C140.6,-42.39 172.47,-31.11 196.72,-22.52"/>
<polygon fill="#63b8ff" stroke="#63b8ff" points="198.02,-25.77 206.28,-19.14 195.69,-19.17 198.02,-25.77"/>
</a>
</g>
</g>
<!-- Node5&#45;&gt;Node4 -->
<g id="edge5_Node000005_Node000004" class="edge">
<title>Node5&#45;&gt;Node4</title>
<g id="a_edge5_Node000005_Node000004"><a xlink:title=" ">
<path fill="none" stroke="#63b8ff" d="M290.4,-16.85C298.61,-17.94 307.13,-19.08 315.47,-20.2"/>
<polygon fill="#63b8ff" stroke="#63b8ff" points="315.16,-23.69 325.54,-21.55 316.09,-16.75 315.16,-23.69"/>
</a>
</g>
</g>
</g>
</svg>
</svg>

<style type='text/css'>
<![CDATA[
[data-mouse-over-selected='false'] { opacity: 0.7; }
[data-mouse-over-selected='true']  { opacity: 1.0; }
]]>
</style>
<script type="application/ecmascript"><![CDATA[
document.addEventListener('DOMContentLoaded', (event) => {
  highlightEdges();
  highlightAdjacentNodes();
});
]]></script>
</svg>
