<?xml version="1.0" encoding="UTF-8" standalone="no"?>
<!DOCTYPE svg PUBLIC "-//W3C//DTD SVG 1.1//EN"
 "http://www.w3.org/Graphics/SVG/1.1/DTD/svg11.dtd">
<!-- Generated by graphviz version 2.43.0 (0)
 -->
<!-- Title: Controller\getPost Pages: 1 -->
<svg width="291pt" height="230pt"
 viewBox="0.00 0.00 291.00 230.00" xmlns="http://www.w3.org/2000/svg" xmlns:xlink="http://www.w3.org/1999/xlink">
<g id="graph0" class="graph" transform="scale(1 1) rotate(0) translate(4 226)">
<title>Controller\getPost</title>
<!-- Node1 -->
<g id="Node000001" class="node">
<title>Node1</title>
<g id="a_Node000001"><a xlink:title="Récupère les données POST.">
<polygon fill="#999999" stroke="#666666" points="283,-120.5 179,-120.5 179,-101.5 283,-101.5 283,-120.5"/>
<text text-anchor="middle" x="231" y="-108.5" font-family="Helvetica,sans-Serif" font-size="10.00">Controller\getPost</text>
</a>
</g>
</g>
<!-- Node2 -->
<g id="Node000002" class="node">
<title>Node2</title>
<g id="a_Node000002"><a xlink:href="classControllerNewsletter.html#abf7e574941e852179163eb9830dda5cf" target="_top" xlink:title="Traite l&#39;inscription à la newsletter.">
<polygon fill="white" stroke="#666666" points="130.5,-222 12.5,-222 12.5,-192 130.5,-192 130.5,-222"/>
<text text-anchor="start" x="20.5" y="-210" font-family="Helvetica,sans-Serif" font-size="10.00">ControllerNewsletter</text>
<text text-anchor="middle" x="71.5" y="-199" font-family="Helvetica,sans-Serif" font-size="10.00">\ajouter</text>
</a>
</g>
</g>
<!-- Node1&#45;&gt;Node2 -->
<g id="edge1_Node000001_Node000002" class="edge">
<title>Node1&#45;&gt;Node2</title>
<g id="a_edge1_Node000001_Node000002"><a xlink:title=" ">
<path fill="none" stroke="#63b8ff" d="M213.44,-127.89C196.88,-143.96 170.06,-167.87 143,-183 137.02,-186.34 130.49,-189.33 123.9,-191.97"/>
<polygon fill="#63b8ff" stroke="#63b8ff" points="216.05,-130.23 220.7,-120.71 211.13,-125.25 216.05,-130.23"/>
</a>
</g>
</g>
<!-- Node3 -->
<g id="Node000003" class="node">
<title>Node3</title>
<g id="a_Node000003"><a xlink:href="classControllerUtilisateur.html#a0e6ff8b903944ba1de24d13278ec3082" target="_top" xlink:title="Traite la demande de réinitialisation de mot de passe.">
<polygon fill="white" stroke="#666666" points="143,-174 0,-174 0,-144 143,-144 143,-174"/>
<text text-anchor="start" x="8" y="-162" font-family="Helvetica,sans-Serif" font-size="10.00">ControllerUtilisateur</text>
<text text-anchor="middle" x="71.5" y="-151" font-family="Helvetica,sans-Serif" font-size="10.00">\demanderReinitialisation</text>
</a>
</g>
</g>
<!-- Node1&#45;&gt;Node3 -->
<g id="edge2_Node000001_Node000003" class="edge">
<title>Node1&#45;&gt;Node3</title>
<g id="a_edge2_Node000001_Node000003"><a xlink:title=" ">
<path fill="none" stroke="#63b8ff" d="M188.84,-123.54C168.36,-129.79 143.44,-137.38 121.93,-143.94"/>
<polygon fill="#63b8ff" stroke="#63b8ff" points="189.96,-126.86 198.51,-120.6 187.92,-120.17 189.96,-126.86"/>
</a>
</g>
</g>
<!-- Node4 -->
<g id="Node000004" class="node">
<title>Node4</title>
<g id="a_Node000004"><a xlink:href="classControllerUtilisateur.html#afd558d0616f1e5fca72af8f49ef5de3e" target="_top" xlink:title="Gère la connexion (authentification) d&#39;un utilisateur.">
<polygon fill="white" stroke="#666666" points="129.5,-126 13.5,-126 13.5,-96 129.5,-96 129.5,-126"/>
<text text-anchor="start" x="21.5" y="-114" font-family="Helvetica,sans-Serif" font-size="10.00">ControllerUtilisateur</text>
<text text-anchor="middle" x="71.5" y="-103" font-family="Helvetica,sans-Serif" font-size="10.00">\signin</text>
</a>
</g>
</g>
<!-- Node1&#45;&gt;Node4 -->
<g id="edge3_Node000001_Node000004" class="edge">
<title>Node1&#45;&gt;Node4</title>
<g id="a_edge3_Node000001_Node000004"><a xlink:title=" ">
<path fill="none" stroke="#63b8ff" d="M168.72,-111C155.86,-111 142.35,-111 129.65,-111"/>
<polygon fill="#63b8ff" stroke="#63b8ff" points="168.86,-114.5 178.86,-111 168.86,-107.5 168.86,-114.5"/>
</a>
</g>
</g>
<!-- Node5 -->
<g id="Node000005" class="node">
<title>Node5</title>
<g id="a_Node000005"><a xlink:href="classControllerUtilisateur.html#a6a37c32b8d27a485a0706ac537fcf191" target="_top" xlink:title="Gère l&#39;inscription d&#39;un nouvel utilisateur.">
<polygon fill="white" stroke="#666666" points="129.5,-78 13.5,-78 13.5,-48 129.5,-48 129.5,-78"/>
<text text-anchor="start" x="21.5" y="-66" font-family="Helvetica,sans-Serif" font-size="10.00">ControllerUtilisateur</text>
<text text-anchor="middle" x="71.5" y="-55" font-family="Helvetica,sans-Serif" font-size="10.00">\signup</text>
</a>
</g>
</g>
<!-- Node1&#45;&gt;Node5 -->
<g id="edge4_Node000001_Node000005" class="edge">
<title>Node1&#45;&gt;Node5</title>
<g id="a_edge4_Node000001_Node000005"><a xlink:title=" ">
<path fill="none" stroke="#63b8ff" d="M188.84,-98.46C168.36,-92.21 143.44,-84.62 121.93,-78.06"/>
<polygon fill="#63b8ff" stroke="#63b8ff" points="187.92,-101.83 198.51,-101.4 189.96,-95.14 187.92,-101.83"/>
</a>
</g>
</g>
<!-- Node6 -->
<g id="Node000006" class="node">
<title>Node6</title>
<g id="a_Node000006"><a xlink:href="classControllerUtilisateur.html#ac23258d9876caad56dba0ffcb0669d53" target="_top" xlink:title="Traite la réinitialisation du mot de passe.">
<polygon fill="white" stroke="#666666" points="133,-30 10,-30 10,0 133,0 133,-30"/>
<text text-anchor="start" x="18" y="-18" font-family="Helvetica,sans-Serif" font-size="10.00">ControllerUtilisateur</text>
<text text-anchor="middle" x="71.5" y="-7" font-family="Helvetica,sans-Serif" font-size="10.00">\traiterReinitialisation</text>
</a>
</g>
</g>
<!-- Node1&#45;&gt;Node6 -->
<g id="edge5_Node000001_Node000006" class="edge">
<title>Node1&#45;&gt;Node6</title>
<g id="a_edge5_Node000001_Node000006"><a xlink:title=" ">
<path fill="none" stroke="#63b8ff" d="M213.44,-94.11C196.88,-78.04 170.06,-54.13 143,-39 137.02,-35.66 130.49,-32.67 123.9,-30.03"/>
<polygon fill="#63b8ff" stroke="#63b8ff" points="211.13,-96.75 220.7,-101.29 216.05,-91.77 211.13,-96.75"/>
</a>
</g>
</g>
</g>
</svg>
