<?xml version="1.0" encoding="UTF-8" standalone="no"?>
<!DOCTYPE svg PUBLIC "-//W3C//DTD SVG 1.1//EN"
 "http://www.w3.org/Graphics/SVG/1.1/DTD/svg11.dtd">
<!-- Generated by graphviz version 2.43.0 (0)
 -->
<!-- Title: ControllerPlaylist\afficher Pages: 1 -->
<svg width="422pt" height="103pt"
 viewBox="0.00 0.00 422.00 103.00" xmlns="http://www.w3.org/2000/svg" xmlns:xlink="http://www.w3.org/1999/xlink">
<g id="graph0" class="graph" transform="scale(1 1) rotate(0) translate(4 99)">
<title>ControllerPlaylist\afficher</title>
<!-- Node1 -->
<g id="Node000001" class="node">
<title>Node1</title>
<g id="a_Node000001"><a xlink:title="Affiche une playlist avec ses chansons.">
<polygon fill="#999999" stroke="#666666" points="101,-62.5 0,-62.5 0,-32.5 101,-32.5 101,-62.5"/>
<text text-anchor="start" x="8" y="-50.5" font-family="Helvetica,sans-Serif" font-size="10.00">ControllerPlaylist</text>
<text text-anchor="middle" x="50.5" y="-39.5" font-family="Helvetica,sans-Serif" font-size="10.00">\afficher</text>
</a>
</g>
</g>
<!-- Node2 -->
<g id="Node000002" class="node">
<title>Node2</title>
<g id="a_Node000002"><a xlink:href="classController.html#afd7d94db564ae6e196ac7ac0461e0989" target="_top" xlink:title="Récupère l&#39;environnement Twig.">
<polygon fill="white" stroke="#666666" points="252,-95 147,-95 147,-76 252,-76 252,-95"/>
<text text-anchor="middle" x="199.5" y="-83" font-family="Helvetica,sans-Serif" font-size="10.00">Controller\getTwig</text>
</a>
</g>
</g>
<!-- Node1&#45;&gt;Node2 -->
<g id="edge1_Node000001_Node000002" class="edge">
<title>Node1&#45;&gt;Node2</title>
<g id="a_edge1_Node000001_Node000002"><a xlink:title=" ">
<path fill="none" stroke="#63b8ff" d="M101.27,-60.37C117.55,-64.57 135.56,-69.23 151.62,-73.38"/>
<polygon fill="#63b8ff" stroke="#63b8ff" points="150.78,-76.78 161.33,-75.89 152.53,-70 150.78,-76.78"/>
</a>
</g>
</g>
<!-- Node3 -->
<g id="Node000003" class="node">
<title>Node3</title>
<g id="a_Node000003"><a xlink:href="classController.html#a56c96fd35f673f4d5084ef7ad0cd395c" target="_top" xlink:title="Redirige vers un contrôleur et une méthode donnés.">
<polygon fill="white" stroke="#666666" points="414,-38 298,-38 298,-19 414,-19 414,-38"/>
<text text-anchor="middle" x="356" y="-26" font-family="Helvetica,sans-Serif" font-size="10.00">Controller\redirectTo</text>
</a>
</g>
</g>
<!-- Node1&#45;&gt;Node3 -->
<g id="edge2_Node000001_Node000003" class="edge">
<title>Node1&#45;&gt;Node3</title>
<g id="a_edge2_Node000001_Node000003"><a xlink:title=" ">
<path fill="none" stroke="#63b8ff" d="M101.28,-44.38C152.1,-41.2 231.31,-36.24 287.7,-32.71"/>
<polygon fill="#63b8ff" stroke="#63b8ff" points="288.19,-36.19 297.95,-32.07 287.75,-29.2 288.19,-36.19"/>
</a>
</g>
</g>
<!-- Node4 -->
<g id="Node000004" class="node">
<title>Node4</title>
<g id="a_Node000004"><a xlink:href="classController.html#a769e4e81d545b126413501bb3f3e77c3" target="_top" xlink:title="Exige que l&#39;utilisateur soit authentifié.">
<polygon fill="white" stroke="#666666" points="262,-19 137,-19 137,0 262,0 262,-19"/>
<text text-anchor="middle" x="199.5" y="-7" font-family="Helvetica,sans-Serif" font-size="10.00">Controller\requireAuth</text>
</a>
</g>
</g>
<!-- Node1&#45;&gt;Node4 -->
<g id="edge3_Node000001_Node000004" class="edge">
<title>Node1&#45;&gt;Node4</title>
<g id="a_edge3_Node000001_Node000004"><a xlink:title=" ">
<path fill="none" stroke="#63b8ff" d="M101.27,-34.63C117.55,-30.43 135.56,-25.77 151.62,-21.62"/>
<polygon fill="#63b8ff" stroke="#63b8ff" points="152.53,-25 161.33,-19.11 150.78,-18.22 152.53,-25"/>
</a>
</g>
</g>
<!-- Node4&#45;&gt;Node3 -->
<g id="edge4_Node000004_Node000003" class="edge">
<title>Node4&#45;&gt;Node3</title>
<g id="a_edge4_Node000004_Node000003"><a xlink:title=" ">
<path fill="none" stroke="#63b8ff" d="M262.01,-17.06C270.47,-18.11 279.21,-19.18 287.77,-20.23"/>
<polygon fill="#63b8ff" stroke="#63b8ff" points="287.37,-23.71 297.72,-21.46 288.22,-16.76 287.37,-23.71"/>
</a>
</g>
</g>
</g>
</svg>
