<?xml version="1.0" encoding="UTF-8" standalone="no"?>
<!DOCTYPE svg PUBLIC "-//W3C//DTD SVG 1.1//EN"
 "http://www.w3.org/Graphics/SVG/1.1/DTD/svg11.dtd">
<!-- Generated by graphviz version 2.43.0 (0)
 -->
<!-- Title: AlbumDAO\hydrate Pages: 1 -->
<svg width="489pt" height="144pt"
 viewBox="0.00 0.00 489.00 144.00" xmlns="http://www.w3.org/2000/svg" xmlns:xlink="http://www.w3.org/1999/xlink">

<svg id="main" version="1.1" xmlns="http://www.w3.org/2000/svg" xmlns:xlink="http://www.w3.org/1999/xlink" xml:space="preserve" onload="init(evt)">
<style type="text/css"><![CDATA[
.node, .edge {opacity: 0.7;}
.node.selected, .edge.selected {opacity: 1;}
.edge:hover path { stroke: red; }
.edge:hover polygon { stroke: red; fill: red; }
]]></style>
<script type="application/ecmascript" xlink:href="svg.min.js"/>
<svg id="graph" class="graph">
<g id="graph0" class="graph" transform="scale(1 1) rotate(0) translate(4 140)">
<title>AlbumDAO\hydrate</title>
<!-- Node1 -->
<g id="Node000001" class="node">
<title>Node1</title>
<g id="a_Node000001"><a xlink:title="Hydrate un album à partir d&#39;un tableau associatif.">
<polygon fill="#999999" stroke="#666666" points="481,-99 371,-99 371,-80 481,-80 481,-99"/>
<text text-anchor="middle" x="426" y="-87" font-family="Helvetica,sans-Serif" font-size="10.00">AlbumDAO\hydrate</text>
</a>
</g>
</g>
<!-- Node2 -->
<g id="Node000002" class="node">
<title>Node2</title>
<g id="a_Node000002"><a xlink:href="classAlbumDAO.html#ac37fa93cbe2fd44bb015e73a971f94ec" target="_top" xlink:title="Récupère un album par son identifiant.">
<polygon fill="white" stroke="#666666" points="302.5,-136 211.5,-136 211.5,-117 302.5,-117 302.5,-136"/>
<text text-anchor="middle" x="257" y="-124" font-family="Helvetica,sans-Serif" font-size="10.00">AlbumDAO\find</text>
</a>
</g>
</g>
<!-- Node1&#45;&gt;Node2 -->
<g id="edge1_Node000001_Node000002" class="edge">
<title>Node1&#45;&gt;Node2</title>
<g id="a_edge1_Node000001_Node000002"><a xlink:title=" ">
<path fill="none" stroke="#63b8ff" d="M372.1,-101.22C349.23,-106.29 322.81,-112.14 301.15,-116.94"/>
<polygon fill="#63b8ff" stroke="#63b8ff" points="372.99,-104.61 381.99,-99.03 371.47,-97.77 372.99,-104.61"/>
</a>
</g>
</g>
<!-- Node3 -->
<g id="Node000003" class="node">
<title>Node3</title>
<g id="a_Node000003"><a xlink:href="classAlbumDAO.html#a4d8baca5809c251ee2c06ab01f1e60d8" target="_top" xlink:title="Récupère les albums les plus écoutés.">
<polygon fill="white" stroke="#666666" points="335,-99 179,-99 179,-80 335,-80 335,-99"/>
<text text-anchor="middle" x="257" y="-87" font-family="Helvetica,sans-Serif" font-size="10.00">AlbumDAO\findMostListened</text>
</a>
</g>
</g>
<!-- Node1&#45;&gt;Node3 -->
<g id="edge2_Node000001_Node000003" class="edge">
<title>Node1&#45;&gt;Node3</title>
<g id="a_edge2_Node000001_Node000003"><a xlink:title=" ">
<path fill="none" stroke="#63b8ff" d="M360.68,-89.5C352.27,-89.5 343.59,-89.5 335,-89.5"/>
<polygon fill="#63b8ff" stroke="#63b8ff" points="360.78,-93 370.78,-89.5 360.78,-86 360.78,-93"/>
</a>
</g>
</g>
<!-- Node4 -->
<g id="Node000004" class="node">
<title>Node4</title>
<g id="a_Node000004"><a xlink:href="classAlbumDAO.html#a630a91c9a8e86ab85772dd0461c8f235" target="_top" xlink:title="Hydrate plusieurs albums à partir d&#39;un tableau de tableaux associatifs.">
<polygon fill="white" stroke="#666666" points="325.5,-62 188.5,-62 188.5,-43 325.5,-43 325.5,-62"/>
<text text-anchor="middle" x="257" y="-50" font-family="Helvetica,sans-Serif" font-size="10.00">AlbumDAO\hydrateMany</text>
</a>
</g>
</g>
<!-- Node1&#45;&gt;Node4 -->
<g id="edge3_Node000001_Node000004" class="edge">
<title>Node1&#45;&gt;Node4</title>
<g id="a_edge3_Node000001_Node000004"><a xlink:title=" ">
<path fill="none" stroke="#63b8ff" d="M372.1,-77.78C349.23,-72.71 322.81,-66.86 301.15,-62.06"/>
<polygon fill="#63b8ff" stroke="#63b8ff" points="371.47,-81.23 381.99,-79.97 372.99,-74.39 371.47,-81.23"/>
</a>
</g>
</g>
<!-- Node5 -->
<g id="Node000005" class="node">
<title>Node5</title>
<g id="a_Node000005"><a xlink:href="classAlbumDAO.html#a994a65f33e2f7764e7547a2e7409855f" target="_top" xlink:title="Récupère tous les albums de la base de données.">
<polygon fill="white" stroke="#666666" points="123.5,-105 19.5,-105 19.5,-86 123.5,-86 123.5,-105"/>
<text text-anchor="middle" x="71.5" y="-93" font-family="Helvetica,sans-Serif" font-size="10.00">AlbumDAO\findAll</text>
</a>
</g>
</g>
<!-- Node4&#45;&gt;Node5 -->
<g id="edge4_Node000004_Node000005" class="edge">
<title>Node4&#45;&gt;Node5</title>
<g id="a_edge4_Node000004_Node000005"><a xlink:title=" ">
<path fill="none" stroke="#63b8ff" d="M205.31,-64.38C176.26,-71.19 140.29,-79.62 113.11,-85.98"/>
<polygon fill="#63b8ff" stroke="#63b8ff" points="206.34,-67.73 215.28,-62.04 204.74,-60.92 206.34,-67.73"/>
</a>
</g>
</g>
<!-- Node6 -->
<g id="Node000006" class="node">
<title>Node6</title>
<g id="a_Node000006"><a xlink:href="classAlbumDAO.html#ab01d941e55482986f0ebe0988915335d" target="_top" xlink:title="Récupère les albums d&#39;un artiste en utilisant son email.">
<polygon fill="white" stroke="#666666" points="143,-67.5 0,-67.5 0,-37.5 143,-37.5 143,-67.5"/>
<text text-anchor="start" x="8" y="-55.5" font-family="Helvetica,sans-Serif" font-size="10.00">AlbumDAO\findAllByArtist</text>
<text text-anchor="middle" x="71.5" y="-44.5" font-family="Helvetica,sans-Serif" font-size="10.00">Email</text>
</a>
</g>
</g>
<!-- Node4&#45;&gt;Node6 -->
<g id="edge5_Node000004_Node000006" class="edge">
<title>Node4&#45;&gt;Node6</title>
<g id="a_edge5_Node000004_Node000006"><a xlink:title=" ">
<path fill="none" stroke="#63b8ff" d="M178.33,-52.5C166.7,-52.5 154.77,-52.5 143.29,-52.5"/>
<polygon fill="#63b8ff" stroke="#63b8ff" points="178.45,-56 188.45,-52.5 178.45,-49 178.45,-56"/>
</a>
</g>
</g>
<!-- Node7 -->
<g id="Node000007" class="node">
<title>Node7</title>
<g id="a_Node000007"><a xlink:href="classAlbumDAO.html#a2cefe4747ac3d75c28c42f390b4d3787" target="_top" xlink:title="Récupère les albums d&#39;un artiste en utilisant son pseudo.">
<polygon fill="white" stroke="#666666" points="139.5,-19 3.5,-19 3.5,0 139.5,0 139.5,-19"/>
<text text-anchor="middle" x="71.5" y="-7" font-family="Helvetica,sans-Serif" font-size="10.00">AlbumDAO\findByArtiste</text>
</a>
</g>
</g>
<!-- Node4&#45;&gt;Node7 -->
<g id="edge6_Node000004_Node000007" class="edge">
<title>Node4&#45;&gt;Node7</title>
<g id="a_edge6_Node000004_Node000007"><a xlink:title=" ">
<path fill="none" stroke="#63b8ff" d="M205.31,-40.62C176.26,-33.81 140.29,-25.38 113.11,-19.02"/>
<polygon fill="#63b8ff" stroke="#63b8ff" points="204.74,-44.08 215.28,-42.96 206.34,-37.27 204.74,-44.08"/>
</a>
</g>
</g>
</g>
</svg>
</svg>

<style type='text/css'>
<![CDATA[
[data-mouse-over-selected='false'] { opacity: 0.7; }
[data-mouse-over-selected='true']  { opacity: 1.0; }
]]>
</style>
<script type="application/ecmascript"><![CDATA[
document.addEventListener('DOMContentLoaded', (event) => {
  highlightEdges();
  highlightAdjacentNodes();
});
]]></script>
</svg>
