<?xml version="1.0" encoding="UTF-8" standalone="no"?>
<!DOCTYPE svg PUBLIC "-//W3C//DTD SVG 1.1//EN"
 "http://www.w3.org/Graphics/SVG/1.1/DTD/svg11.dtd">
<!-- Generated by graphviz version 2.43.0 (0)
 -->
<!-- Title: PlaylistDAO Pages: 1 -->
<svg width="165pt" height="267pt"
 viewBox="0.00 0.00 165.00 267.00" xmlns="http://www.w3.org/2000/svg" xmlns:xlink="http://www.w3.org/1999/xlink">
<g id="graph0" class="graph" transform="scale(1 1) rotate(0) translate(4 263)">
<title>PlaylistDAO</title>
<!-- Node1 -->
<g id="Node000001" class="node">
<title>Node1</title>
<g id="a_Node000001"><a xlink:title=" ">
<polygon fill="#999999" stroke="transparent" points="157,-259 0,-259 0,0 157,0 157,-259"/>
<text text-anchor="start" x="50" y="-246.5" font-family="Helvetica,sans-Serif" font-size="10.00">PlaylistDAO</text>
<text text-anchor="start" x="7" y="-231.5" font-family="Helvetica,sans-Serif" font-size="10.00">&#45;</text>
<text text-anchor="start" x="17.5" y="-231.5" font-family="Helvetica,sans-Serif" font-size="10.00">$pdo</text>
<text text-anchor="start" x="4.5" y="-216.5" font-family="Helvetica,sans-Serif" font-size="10.00">+</text>
<text text-anchor="start" x="17.5" y="-216.5" font-family="Helvetica,sans-Serif" font-size="10.00">__construct()</text>
<text text-anchor="start" x="4.5" y="-201.5" font-family="Helvetica,sans-Serif" font-size="10.00">+</text>
<text text-anchor="start" x="17.5" y="-201.5" font-family="Helvetica,sans-Serif" font-size="10.00">findAll()</text>
<text text-anchor="start" x="4.5" y="-186.5" font-family="Helvetica,sans-Serif" font-size="10.00">+</text>
<text text-anchor="start" x="17.5" y="-186.5" font-family="Helvetica,sans-Serif" font-size="10.00">findFromUser()</text>
<text text-anchor="start" x="4.5" y="-171.5" font-family="Helvetica,sans-Serif" font-size="10.00">+</text>
<text text-anchor="start" x="17.5" y="-171.5" font-family="Helvetica,sans-Serif" font-size="10.00">findAllFromUser()</text>
<text text-anchor="start" x="4.5" y="-156.5" font-family="Helvetica,sans-Serif" font-size="10.00">+</text>
<text text-anchor="start" x="17.5" y="-156.5" font-family="Helvetica,sans-Serif" font-size="10.00">hydrate()</text>
<text text-anchor="start" x="4.5" y="-141.5" font-family="Helvetica,sans-Serif" font-size="10.00">+</text>
<text text-anchor="start" x="17.5" y="-141.5" font-family="Helvetica,sans-Serif" font-size="10.00">hydrateMany()</text>
<text text-anchor="start" x="4.5" y="-126.5" font-family="Helvetica,sans-Serif" font-size="10.00">+</text>
<text text-anchor="start" x="17.5" y="-126.5" font-family="Helvetica,sans-Serif" font-size="10.00">getChansonsByPlaylist()</text>
<text text-anchor="start" x="4.5" y="-111.5" font-family="Helvetica,sans-Serif" font-size="10.00">+</text>
<text text-anchor="start" x="17.5" y="-111.5" font-family="Helvetica,sans-Serif" font-size="10.00">getPdo()</text>
<text text-anchor="start" x="4.5" y="-96.5" font-family="Helvetica,sans-Serif" font-size="10.00">+</text>
<text text-anchor="start" x="17.5" y="-96.5" font-family="Helvetica,sans-Serif" font-size="10.00">setPdo()</text>
<text text-anchor="start" x="4.5" y="-81.5" font-family="Helvetica,sans-Serif" font-size="10.00">+</text>
<text text-anchor="start" x="17.5" y="-81.5" font-family="Helvetica,sans-Serif" font-size="10.00">creerPlaylist()</text>
<text text-anchor="start" x="4.5" y="-66.5" font-family="Helvetica,sans-Serif" font-size="10.00">+</text>
<text text-anchor="start" x="17.5" y="-66.5" font-family="Helvetica,sans-Serif" font-size="10.00">getPlaylistIdsForChansons()</text>
<text text-anchor="start" x="4.5" y="-51.5" font-family="Helvetica,sans-Serif" font-size="10.00">+</text>
<text text-anchor="start" x="17.5" y="-51.5" font-family="Helvetica,sans-Serif" font-size="10.00">supprimerChansonPlaylist()</text>
<text text-anchor="start" x="4.5" y="-36.5" font-family="Helvetica,sans-Serif" font-size="10.00">+</text>
<text text-anchor="start" x="17.5" y="-36.5" font-family="Helvetica,sans-Serif" font-size="10.00">ajouterChansonPlaylist()</text>
<text text-anchor="start" x="4.5" y="-21.5" font-family="Helvetica,sans-Serif" font-size="10.00">+</text>
<text text-anchor="start" x="17.5" y="-21.5" font-family="Helvetica,sans-Serif" font-size="10.00">supprimerPlaylist()</text>
<text text-anchor="start" x="4.5" y="-6.5" font-family="Helvetica,sans-Serif" font-size="10.00">+</text>
<text text-anchor="start" x="17.5" y="-6.5" font-family="Helvetica,sans-Serif" font-size="10.00">recupererPochetteAuto()</text>
<polygon fill="#666666" stroke="#666666" points="0.5,-241.5 0.5,-241.5 157.5,-241.5 157.5,-241.5 0.5,-241.5"/>
<polygon fill="#666666" stroke="#666666" points="0.5,-226.5 0.5,-226.5 15.5,-226.5 15.5,-226.5 0.5,-226.5"/>
<polygon fill="#666666" stroke="#666666" points="15.5,-226.5 15.5,-226.5 157.5,-226.5 157.5,-226.5 15.5,-226.5"/>
<polygon fill="none" stroke="#666666" points="0,0 0,-259 157,-259 157,0 0,0"/>
</a>
</g>
</g>
</g>
</svg>
