<?xml version="1.0" encoding="UTF-8" standalone="no"?>
<!DOCTYPE svg PUBLIC "-//W3C//DTD SVG 1.1//EN"
 "http://www.w3.org/Graphics/SVG/1.1/DTD/svg11.dtd">
<!-- Generated by graphviz version 2.43.0 (0)
 -->
<!-- Title: ControllerUtilisateur\traiterReinitialisation Pages: 1 -->
<svg width="419pt" height="101pt"
 viewBox="0.00 0.00 419.00 101.00" xmlns="http://www.w3.org/2000/svg" xmlns:xlink="http://www.w3.org/1999/xlink">
<g id="graph0" class="graph" transform="scale(1 1) rotate(0) translate(4 97)">
<title>ControllerUtilisateur\traiterReinitialisation</title>
<!-- Node1 -->
<g id="Node000001" class="node">
<title>Node1</title>
<g id="a_Node000001"><a xlink:title="Traite la réinitialisation du mot de passe.">
<polygon fill="#999999" stroke="#666666" points="123,-61.5 0,-61.5 0,-31.5 123,-31.5 123,-61.5"/>
<text text-anchor="start" x="8" y="-49.5" font-family="Helvetica,sans-Serif" font-size="10.00">ControllerUtilisateur</text>
<text text-anchor="middle" x="61.5" y="-38.5" font-family="Helvetica,sans-Serif" font-size="10.00">\traiterReinitialisation</text>
</a>
</g>
</g>
<!-- Node2 -->
<g id="Node000002" class="node">
<title>Node2</title>
<g id="a_Node000002"><a xlink:href="classController.html#aed88cab8d9c1a6735fd3aac0993e5021" target="_top" xlink:title="Récupère la connexion PDO.">
<polygon fill="white" stroke="#666666" points="266.5,-93 162.5,-93 162.5,-74 266.5,-74 266.5,-93"/>
<text text-anchor="middle" x="214.5" y="-81" font-family="Helvetica,sans-Serif" font-size="10.00">Controller\getPDO</text>
</a>
</g>
</g>
<!-- Node1&#45;&gt;Node2 -->
<g id="edge1_Node000001_Node000002" class="edge">
<title>Node1&#45;&gt;Node2</title>
<g id="a_edge1_Node000001_Node000002"><a xlink:title=" ">
<path fill="none" stroke="#63b8ff" d="M123.05,-61.34C136.91,-64.73 151.47,-68.3 164.76,-71.56"/>
<polygon fill="#63b8ff" stroke="#63b8ff" points="164.1,-75 174.64,-73.98 165.76,-68.2 164.1,-75"/>
</a>
</g>
</g>
<!-- Node3 -->
<g id="Node000003" class="node">
<title>Node3</title>
<g id="a_Node000003"><a xlink:href="classController.html#a0a0442c56d3fede8d9d7c2c24a04839c" target="_top" xlink:title="Récupère les données POST.">
<polygon fill="white" stroke="#666666" points="266.5,-56 162.5,-56 162.5,-37 266.5,-37 266.5,-56"/>
<text text-anchor="middle" x="214.5" y="-44" font-family="Helvetica,sans-Serif" font-size="10.00">Controller\getPost</text>
</a>
</g>
</g>
<!-- Node1&#45;&gt;Node3 -->
<g id="edge2_Node000001_Node000003" class="edge">
<title>Node1&#45;&gt;Node3</title>
<g id="a_edge2_Node000001_Node000003"><a xlink:title=" ">
<path fill="none" stroke="#63b8ff" d="M123.05,-46.5C132.57,-46.5 142.42,-46.5 151.96,-46.5"/>
<polygon fill="#63b8ff" stroke="#63b8ff" points="152.16,-50 162.16,-46.5 152.16,-43 152.16,-50"/>
</a>
</g>
</g>
<!-- Node4 -->
<g id="Node000004" class="node">
<title>Node4</title>
<g id="a_Node000004"><a xlink:href="classController.html#a566566403ccbb3fcb71380014da08c46" target="_top" xlink:title="Affiche une erreur 405 Méthode non autorisée.">
<polygon fill="white" stroke="#666666" points="270,-19 159,-19 159,0 270,0 270,-19"/>
<text text-anchor="middle" x="214.5" y="-7" font-family="Helvetica,sans-Serif" font-size="10.00">Controller\show405</text>
</a>
</g>
</g>
<!-- Node1&#45;&gt;Node4 -->
<g id="edge3_Node000001_Node000004" class="edge">
<title>Node1&#45;&gt;Node4</title>
<g id="a_edge3_Node000001_Node000004"><a xlink:title=" ">
<path fill="none" stroke="#63b8ff" d="M123.05,-31.66C136.91,-28.27 151.47,-24.7 164.76,-21.44"/>
<polygon fill="#63b8ff" stroke="#63b8ff" points="165.76,-24.8 174.64,-19.02 164.1,-18 165.76,-24.8"/>
</a>
</g>
</g>
<!-- Node5 -->
<g id="Node000005" class="node">
<title>Node5</title>
<g id="a_Node000005"><a xlink:href="classController.html#afd7d94db564ae6e196ac7ac0461e0989" target="_top" xlink:title="Récupère l&#39;environnement Twig.">
<polygon fill="white" stroke="#666666" points="411,-19 306,-19 306,0 411,0 411,-19"/>
<text text-anchor="middle" x="358.5" y="-7" font-family="Helvetica,sans-Serif" font-size="10.00">Controller\getTwig</text>
</a>
</g>
</g>
<!-- Node4&#45;&gt;Node5 -->
<g id="edge4_Node000004_Node000005" class="edge">
<title>Node4&#45;&gt;Node5</title>
<g id="a_edge4_Node000004_Node000005"><a xlink:title=" ">
<path fill="none" stroke="#63b8ff" d="M270.4,-9.5C278.61,-9.5 287.13,-9.5 295.47,-9.5"/>
<polygon fill="#63b8ff" stroke="#63b8ff" points="295.54,-13 305.54,-9.5 295.54,-6 295.54,-13"/>
</a>
</g>
</g>
</g>
</svg>
