<?xml version="1.0" encoding="UTF-8" standalone="no"?>
<!DOCTYPE svg PUBLIC "-//W3C//DTD SVG 1.1//EN"
 "http://www.w3.org/Graphics/SVG/1.1/DTD/svg11.dtd">
<!-- Generated by graphviz version 2.43.0 (0)
 -->
<!-- Title: ControllerAdmin\modifier Pages: 1 -->
<svg width="621pt" height="141pt"
 viewBox="0.00 0.00 621.00 141.00" xmlns="http://www.w3.org/2000/svg" xmlns:xlink="http://www.w3.org/1999/xlink">
<g id="graph0" class="graph" transform="scale(1 1) rotate(0) translate(4 137)">
<title>ControllerAdmin\modifier</title>
<!-- Node1 -->
<g id="Node000001" class="node">
<title>Node1</title>
<g id="a_Node000001"><a xlink:title="Modifie un utilisateur existant.">
<polygon fill="#999999" stroke="#666666" points="140,-76 0,-76 0,-57 140,-57 140,-76"/>
<text text-anchor="middle" x="70" y="-64" font-family="Helvetica,sans-Serif" font-size="10.00">ControllerAdmin\modifier</text>
</a>
</g>
</g>
<!-- Node2 -->
<g id="Node000002" class="node">
<title>Node2</title>
<g id="a_Node000002"><a xlink:href="classController.html#aed88cab8d9c1a6735fd3aac0993e5021" target="_top" xlink:title="Récupère la connexion PDO.">
<polygon fill="white" stroke="#666666" points="290,-133 186,-133 186,-114 290,-114 290,-133"/>
<text text-anchor="middle" x="238" y="-121" font-family="Helvetica,sans-Serif" font-size="10.00">Controller\getPDO</text>
</a>
</g>
</g>
<!-- Node1&#45;&gt;Node2 -->
<g id="edge1_Node000001_Node000002" class="edge">
<title>Node1&#45;&gt;Node2</title>
<g id="a_edge1_Node000001_Node000002"><a xlink:title=" ">
<path fill="none" stroke="#63b8ff" d="M98.78,-76.04C126.43,-85.53 169.05,-100.17 199.65,-110.67"/>
<polygon fill="#63b8ff" stroke="#63b8ff" points="198.53,-113.99 209.12,-113.93 200.8,-107.37 198.53,-113.99"/>
</a>
</g>
</g>
<!-- Node3 -->
<g id="Node000003" class="node">
<title>Node3</title>
<g id="a_Node000003"><a xlink:href="classController.html#afd7d94db564ae6e196ac7ac0461e0989" target="_top" xlink:title="Récupère l&#39;environnement Twig.">
<polygon fill="white" stroke="#666666" points="451,-57 346,-57 346,-38 451,-38 451,-57"/>
<text text-anchor="middle" x="398.5" y="-45" font-family="Helvetica,sans-Serif" font-size="10.00">Controller\getTwig</text>
</a>
</g>
</g>
<!-- Node1&#45;&gt;Node3 -->
<g id="edge2_Node000001_Node000003" class="edge">
<title>Node1&#45;&gt;Node3</title>
<g id="a_edge2_Node000001_Node000003"><a xlink:title=" ">
<path fill="none" stroke="#63b8ff" d="M140.24,-62.47C198.13,-59.1 279.94,-54.34 335.66,-51.1"/>
<polygon fill="#63b8ff" stroke="#63b8ff" points="335.97,-54.59 345.75,-50.51 335.56,-47.6 335.97,-54.59"/>
</a>
</g>
</g>
<!-- Node4 -->
<g id="Node000004" class="node">
<title>Node4</title>
<g id="a_Node000004"><a xlink:href="classController.html#a56c96fd35f673f4d5084ef7ad0cd395c" target="_top" xlink:title="Redirige vers un contrôleur et une méthode donnés.">
<polygon fill="white" stroke="#666666" points="613,-57 497,-57 497,-38 613,-38 613,-57"/>
<text text-anchor="middle" x="555" y="-45" font-family="Helvetica,sans-Serif" font-size="10.00">Controller\redirectTo</text>
</a>
</g>
</g>
<!-- Node1&#45;&gt;Node4 -->
<g id="edge3_Node000001_Node000004" class="edge">
<title>Node1&#45;&gt;Node4</title>
<g id="a_edge3_Node000001_Node000004"><a xlink:title=" ">
<path fill="none" stroke="#63b8ff" d="M140.31,-71.21C218.49,-75.43 349.32,-79.19 461,-66.5 475.36,-64.87 490.8,-62.12 504.89,-59.22"/>
<polygon fill="#63b8ff" stroke="#63b8ff" points="505.83,-62.6 514.88,-57.09 504.37,-55.75 505.83,-62.6"/>
</a>
</g>
</g>
<!-- Node5 -->
<g id="Node000005" class="node">
<title>Node5</title>
<g id="a_Node000005"><a xlink:href="classController.html#a3c8ca59e4609ef5e27e868a91f5ce090" target="_top" xlink:title="Exige que l&#39;utilisateur ait un rôle spécifique.">
<polygon fill="white" stroke="#666666" points="300,-19 176,-19 176,0 300,0 300,-19"/>
<text text-anchor="middle" x="238" y="-7" font-family="Helvetica,sans-Serif" font-size="10.00">Controller\requireRole</text>
</a>
</g>
</g>
<!-- Node1&#45;&gt;Node5 -->
<g id="edge4_Node000001_Node000005" class="edge">
<title>Node1&#45;&gt;Node5</title>
<g id="a_edge4_Node000001_Node000005"><a xlink:title=" ">
<path fill="none" stroke="#63b8ff" d="M98.78,-56.96C126.43,-47.47 169.05,-32.83 199.65,-22.33"/>
<polygon fill="#63b8ff" stroke="#63b8ff" points="200.8,-25.63 209.12,-19.07 198.53,-19.01 200.8,-25.63"/>
</a>
</g>
</g>
<!-- Node5&#45;&gt;Node3 -->
<g id="edge5_Node000005_Node000003" class="edge">
<title>Node5&#45;&gt;Node3</title>
<g id="a_edge5_Node000005_Node000003"><a xlink:title=" ">
<path fill="none" stroke="#63b8ff" d="M279,-19.09C299.91,-24.1 325.71,-30.29 347.89,-35.61"/>
<polygon fill="#63b8ff" stroke="#63b8ff" points="347.25,-39.05 357.79,-37.98 348.88,-32.24 347.25,-39.05"/>
</a>
</g>
</g>
<!-- Node6 -->
<g id="Node000006" class="node">
<title>Node6</title>
<g id="a_Node000006"><a xlink:href="classController.html#a769e4e81d545b126413501bb3f3e77c3" target="_top" xlink:title="Exige que l&#39;utilisateur soit authentifié.">
<polygon fill="white" stroke="#666666" points="461,-20 336,-20 336,-1 461,-1 461,-20"/>
<text text-anchor="middle" x="398.5" y="-8" font-family="Helvetica,sans-Serif" font-size="10.00">Controller\requireAuth</text>
</a>
</g>
</g>
<!-- Node5&#45;&gt;Node6 -->
<g id="edge6_Node000005_Node000006" class="edge">
<title>Node5&#45;&gt;Node6</title>
<g id="a_edge6_Node000005_Node000006"><a xlink:title=" ">
<path fill="none" stroke="#63b8ff" d="M300.28,-9.89C308.58,-9.94 317.16,-9.99 325.62,-10.05"/>
<polygon fill="#63b8ff" stroke="#63b8ff" points="325.84,-13.55 335.86,-10.11 325.88,-6.55 325.84,-13.55"/>
</a>
</g>
</g>
<!-- Node6&#45;&gt;Node4 -->
<g id="edge7_Node000006_Node000004" class="edge">
<title>Node6&#45;&gt;Node4</title>
<g id="a_edge7_Node000006_Node000004"><a xlink:title=" ">
<path fill="none" stroke="#63b8ff" d="M439.29,-20.03C459.12,-24.78 483.31,-30.57 504.35,-35.61"/>
<polygon fill="#63b8ff" stroke="#63b8ff" points="503.54,-39.01 514.08,-37.94 505.17,-32.21 503.54,-39.01"/>
</a>
</g>
</g>
</g>
</svg>
