<?xml version="1.0" encoding="UTF-8" standalone="no"?>
<!DOCTYPE svg PUBLIC "-//W3C//DTD SVG 1.1//EN"
 "http://www.w3.org/Graphics/SVG/1.1/DTD/svg11.dtd">
<!-- Generated by graphviz version 2.43.0 (0)
 -->
<!-- Title: Utilisateur\getDateDeNaissanceUtilisateur Pages: 1 -->
<svg width="343pt" height="64pt"
 viewBox="0.00 0.00 343.00 64.00" xmlns="http://www.w3.org/2000/svg" xmlns:xlink="http://www.w3.org/1999/xlink">
<g id="graph0" class="graph" transform="scale(1 1) rotate(0) translate(4 60)">
<title>Utilisateur\getDateDeNaissanceUtilisateur</title>
<!-- Node1 -->
<g id="Node000001" class="node">
<title>Node1</title>
<g id="a_Node000001"><a xlink:title="Getter pour la date de naissance de l&#39;utilisateur.">
<polygon fill="#999999" stroke="#666666" points="335,-42.5 162,-42.5 162,-12.5 335,-12.5 335,-42.5"/>
<text text-anchor="start" x="170" y="-30.5" font-family="Helvetica,sans-Serif" font-size="10.00">Utilisateur\getDateDeNaissance</text>
<text text-anchor="middle" x="248.5" y="-19.5" font-family="Helvetica,sans-Serif" font-size="10.00">Utilisateur</text>
</a>
</g>
</g>
<!-- Node2 -->
<g id="Node000002" class="node">
<title>Node2</title>
<g id="a_Node000002"><a xlink:href="classUtilisateurDAO.html#aa5a57157f00d003aae66738846c900f5" target="_top" xlink:title="Crée un nouvel utilisateur dans la base de données.">
<polygon fill="white" stroke="#666666" points="124.5,-56 1.5,-56 1.5,-37 124.5,-37 124.5,-56"/>
<text text-anchor="middle" x="63" y="-44" font-family="Helvetica,sans-Serif" font-size="10.00">UtilisateurDAO\create</text>
</a>
</g>
</g>
<!-- Node1&#45;&gt;Node2 -->
<g id="edge1_Node000001_Node000002" class="edge">
<title>Node1&#45;&gt;Node2</title>
<g id="a_edge1_Node000001_Node000002"><a xlink:title=" ">
<path fill="none" stroke="#63b8ff" d="M151.86,-37.4C142.59,-38.36 133.37,-39.32 124.58,-40.23"/>
<polygon fill="#63b8ff" stroke="#63b8ff" points="152.34,-40.87 161.93,-36.36 151.62,-33.91 152.34,-40.87"/>
</a>
</g>
</g>
<!-- Node3 -->
<g id="Node000003" class="node">
<title>Node3</title>
<g id="a_Node000003"><a xlink:href="classUtilisateurDAO.html#a8fe8ba6718c1488ce18bf42b2aea94c8" target="_top" xlink:title="Met à jour un utilisateur dans la base de données.">
<polygon fill="white" stroke="#666666" points="126,-19 0,-19 0,0 126,0 126,-19"/>
<text text-anchor="middle" x="63" y="-7" font-family="Helvetica,sans-Serif" font-size="10.00">UtilisateurDAO\update</text>
</a>
</g>
</g>
<!-- Node1&#45;&gt;Node3 -->
<g id="edge2_Node000001_Node000003" class="edge">
<title>Node1&#45;&gt;Node3</title>
<g id="a_edge2_Node000001_Node000003"><a xlink:title=" ">
<path fill="none" stroke="#63b8ff" d="M151.74,-18.11C143.07,-17.26 134.44,-16.41 126.18,-15.6"/>
<polygon fill="#63b8ff" stroke="#63b8ff" points="151.63,-21.61 161.93,-19.11 152.32,-14.65 151.63,-21.61"/>
</a>
</g>
</g>
</g>
</svg>
