<?xml version="1.0" encoding="UTF-8" standalone="no"?>
<!DOCTYPE svg PUBLIC "-//W3C//DTD SVG 1.1//EN"
 "http://www.w3.org/Graphics/SVG/1.1/DTD/svg11.dtd">
<!-- Generated by graphviz version 2.43.0 (0)
 -->
<!-- Title: PasswordResetTokenDAO\findActiveTokensByEmail Pages: 1 -->
<svg width="502pt" height="38pt"
 viewBox="0.00 0.00 502.00 38.00" xmlns="http://www.w3.org/2000/svg" xmlns:xlink="http://www.w3.org/1999/xlink">
<g id="graph0" class="graph" transform="scale(1 1) rotate(0) translate(4 34)">
<title>PasswordResetTokenDAO\findActiveTokensByEmail</title>
<!-- Node1 -->
<g id="Node000001" class="node">
<title>Node1</title>
<g id="a_Node000001"><a xlink:title="Recherche tous les tokens actifs d&#39;un utilisateur.">
<polygon fill="#999999" stroke="#666666" points="142,-30 0,-30 0,0 142,0 142,-30"/>
<text text-anchor="start" x="8" y="-18" font-family="Helvetica,sans-Serif" font-size="10.00">PasswordResetTokenDAO</text>
<text text-anchor="middle" x="71" y="-7" font-family="Helvetica,sans-Serif" font-size="10.00">\findActiveTokensByEmail</text>
</a>
</g>
</g>
<!-- Node2 -->
<g id="Node000002" class="node">
<title>Node2</title>
<g id="a_Node000002"><a xlink:href="classPasswordResetTokenDAO.html#a185a43008c8ea15777108ceb9b287da2" target="_top" xlink:title="Hydrate un tableau de lignes en tableau d&#39;objets PasswordResetToken.">
<polygon fill="white" stroke="#666666" points="318,-30 178,-30 178,0 318,0 318,-30"/>
<text text-anchor="start" x="186" y="-18" font-family="Helvetica,sans-Serif" font-size="10.00">PasswordResetTokenDAO</text>
<text text-anchor="middle" x="248" y="-7" font-family="Helvetica,sans-Serif" font-size="10.00">\hydrateAll</text>
</a>
</g>
</g>
<!-- Node1&#45;&gt;Node2 -->
<g id="edge1_Node000001_Node000002" class="edge">
<title>Node1&#45;&gt;Node2</title>
<g id="a_edge1_Node000001_Node000002"><a xlink:title=" ">
<path fill="none" stroke="#63b8ff" d="M142.17,-15C150.65,-15 159.35,-15 167.94,-15"/>
<polygon fill="#63b8ff" stroke="#63b8ff" points="167.95,-18.5 177.95,-15 167.95,-11.5 167.95,-18.5"/>
</a>
</g>
</g>
<!-- Node3 -->
<g id="Node000003" class="node">
<title>Node3</title>
<g id="a_Node000003"><a xlink:href="classPasswordResetTokenDAO.html#aed9bcc714f5962e07fa3a9be9ab20f7c" target="_top" xlink:title="Hydrate un tableau de données en objet PasswordResetToken.">
<polygon fill="white" stroke="#666666" points="494,-30 354,-30 354,0 494,0 494,-30"/>
<text text-anchor="start" x="362" y="-18" font-family="Helvetica,sans-Serif" font-size="10.00">PasswordResetTokenDAO</text>
<text text-anchor="middle" x="424" y="-7" font-family="Helvetica,sans-Serif" font-size="10.00">\hydrate</text>
</a>
</g>
</g>
<!-- Node2&#45;&gt;Node3 -->
<g id="edge2_Node000002_Node000003" class="edge">
<title>Node2&#45;&gt;Node3</title>
<g id="a_edge2_Node000002_Node000003"><a xlink:title=" ">
<path fill="none" stroke="#63b8ff" d="M318.02,-15C326.48,-15 335.17,-15 343.76,-15"/>
<polygon fill="#63b8ff" stroke="#63b8ff" points="343.78,-18.5 353.78,-15 343.78,-11.5 343.78,-18.5"/>
</a>
</g>
</g>
</g>
</svg>
