<?xml version="1.0" encoding="UTF-8" standalone="no"?>
<!DOCTYPE svg PUBLIC "-//W3C//DTD SVG 1.1//EN"
 "http://www.w3.org/Graphics/SVG/1.1/DTD/svg11.dtd">
<!-- Generated by graphviz version 2.43.0 (0)
 -->
<!-- Title: ControllerAlbum\afficherFormulaireAjout Pages: 1 -->
<svg width="617pt" height="82pt"
 viewBox="0.00 0.00 617.00 81.53" xmlns="http://www.w3.org/2000/svg" xmlns:xlink="http://www.w3.org/1999/xlink">
<g id="graph0" class="graph" transform="scale(1 1) rotate(0) translate(4 77.53)">
<title>ControllerAlbum\afficherFormulaireAjout</title>
<!-- Node1 -->
<g id="Node000001" class="node">
<title>Node1</title>
<g id="a_Node000001"><a xlink:title="Affiche le formulaire d&#39;ajout d&#39;album.">
<polygon fill="#999999" stroke="#666666" points="136,-62.5 0,-62.5 0,-32.5 136,-32.5 136,-62.5"/>
<text text-anchor="start" x="8" y="-50.5" font-family="Helvetica,sans-Serif" font-size="10.00">ControllerAlbum\afficher</text>
<text text-anchor="middle" x="68" y="-39.5" font-family="Helvetica,sans-Serif" font-size="10.00">FormulaireAjout</text>
</a>
</g>
</g>
<!-- Node2 -->
<g id="Node000002" class="node">
<title>Node2</title>
<g id="a_Node000002"><a xlink:href="classController.html#afd7d94db564ae6e196ac7ac0461e0989" target="_top" xlink:title="Récupère l&#39;environnement Twig.">
<polygon fill="white" stroke="#666666" points="447,-57 342,-57 342,-38 447,-38 447,-57"/>
<text text-anchor="middle" x="394.5" y="-45" font-family="Helvetica,sans-Serif" font-size="10.00">Controller\getTwig</text>
</a>
</g>
</g>
<!-- Node1&#45;&gt;Node2 -->
<g id="edge1_Node000001_Node000002" class="edge">
<title>Node1&#45;&gt;Node2</title>
<g id="a_edge1_Node000001_Node000002"><a xlink:title=" ">
<path fill="none" stroke="#63b8ff" d="M136.24,-47.5C193.73,-47.5 275.81,-47.5 331.69,-47.5"/>
<polygon fill="#63b8ff" stroke="#63b8ff" points="331.8,-51 341.8,-47.5 331.8,-44 331.8,-51"/>
</a>
</g>
</g>
<!-- Node3 -->
<g id="Node000003" class="node">
<title>Node3</title>
<g id="a_Node000003"><a xlink:href="classController.html#a56c96fd35f673f4d5084ef7ad0cd395c" target="_top" xlink:title="Redirige vers un contrôleur et une méthode donnés.">
<polygon fill="white" stroke="#666666" points="609,-57 493,-57 493,-38 609,-38 609,-57"/>
<text text-anchor="middle" x="551" y="-45" font-family="Helvetica,sans-Serif" font-size="10.00">Controller\redirectTo</text>
</a>
</g>
</g>
<!-- Node1&#45;&gt;Node3 -->
<g id="edge2_Node000001_Node000003" class="edge">
<title>Node1&#45;&gt;Node3</title>
<g id="a_edge2_Node000001_Node000003"><a xlink:title=" ">
<path fill="none" stroke="#63b8ff" d="M136.21,-57.66C148.11,-59.16 160.4,-60.53 172,-61.5 298.25,-72.02 330.96,-79.24 457,-66.5 471.78,-65.01 487.68,-62.21 502.07,-59.21"/>
<polygon fill="#63b8ff" stroke="#63b8ff" points="503.22,-62.54 512.26,-57.01 501.74,-55.7 503.22,-62.54"/>
</a>
</g>
</g>
<!-- Node4 -->
<g id="Node000004" class="node">
<title>Node4</title>
<g id="a_Node000004"><a xlink:href="classController.html#a3c8ca59e4609ef5e27e868a91f5ce090" target="_top" xlink:title="Exige que l&#39;utilisateur ait un rôle spécifique.">
<polygon fill="white" stroke="#666666" points="296,-19 172,-19 172,0 296,0 296,-19"/>
<text text-anchor="middle" x="234" y="-7" font-family="Helvetica,sans-Serif" font-size="10.00">Controller\requireRole</text>
</a>
</g>
</g>
<!-- Node1&#45;&gt;Node4 -->
<g id="edge3_Node000001_Node000004" class="edge">
<title>Node1&#45;&gt;Node4</title>
<g id="a_edge3_Node000001_Node000004"><a xlink:title=" ">
<path fill="none" stroke="#63b8ff" d="M133.82,-32.48C149.83,-28.77 166.75,-24.85 182,-21.32"/>
<polygon fill="#63b8ff" stroke="#63b8ff" points="182.8,-24.72 191.75,-19.06 181.22,-17.9 182.8,-24.72"/>
</a>
</g>
</g>
<!-- Node4&#45;&gt;Node2 -->
<g id="edge4_Node000004_Node000002" class="edge">
<title>Node4&#45;&gt;Node2</title>
<g id="a_edge4_Node000004_Node000002"><a xlink:title=" ">
<path fill="none" stroke="#63b8ff" d="M275,-19.09C295.91,-24.1 321.71,-30.29 343.89,-35.61"/>
<polygon fill="#63b8ff" stroke="#63b8ff" points="343.25,-39.05 353.79,-37.98 344.88,-32.24 343.25,-39.05"/>
</a>
</g>
</g>
<!-- Node5 -->
<g id="Node000005" class="node">
<title>Node5</title>
<g id="a_Node000005"><a xlink:href="classController.html#a769e4e81d545b126413501bb3f3e77c3" target="_top" xlink:title="Exige que l&#39;utilisateur soit authentifié.">
<polygon fill="white" stroke="#666666" points="457,-20 332,-20 332,-1 457,-1 457,-20"/>
<text text-anchor="middle" x="394.5" y="-8" font-family="Helvetica,sans-Serif" font-size="10.00">Controller\requireAuth</text>
</a>
</g>
</g>
<!-- Node4&#45;&gt;Node5 -->
<g id="edge5_Node000004_Node000005" class="edge">
<title>Node4&#45;&gt;Node5</title>
<g id="a_edge5_Node000004_Node000005"><a xlink:title=" ">
<path fill="none" stroke="#63b8ff" d="M296.28,-9.89C304.58,-9.94 313.16,-9.99 321.62,-10.05"/>
<polygon fill="#63b8ff" stroke="#63b8ff" points="321.84,-13.55 331.86,-10.11 321.88,-6.55 321.84,-13.55"/>
</a>
</g>
</g>
<!-- Node5&#45;&gt;Node3 -->
<g id="edge6_Node000005_Node000003" class="edge">
<title>Node5&#45;&gt;Node3</title>
<g id="a_edge6_Node000005_Node000003"><a xlink:title=" ">
<path fill="none" stroke="#63b8ff" d="M435.29,-20.03C455.12,-24.78 479.31,-30.57 500.35,-35.61"/>
<polygon fill="#63b8ff" stroke="#63b8ff" points="499.54,-39.01 510.08,-37.94 501.17,-32.21 499.54,-39.01"/>
</a>
</g>
</g>
</g>
</svg>
