<?xml version="1.0" encoding="UTF-8" standalone="no"?>
<!DOCTYPE svg PUBLIC "-//W3C//DTD SVG 1.1//EN"
 "http://www.w3.org/Graphics/SVG/1.1/DTD/svg11.dtd">
<!-- Generated by graphviz version 2.43.0 (0)
 -->
<!-- Title: Battle Pages: 1 -->
<svg width="451pt" height="1145pt"
 viewBox="0.00 0.00 451.00 1145.00" xmlns="http://www.w3.org/2000/svg" xmlns:xlink="http://www.w3.org/1999/xlink">
<g id="graph0" class="graph" transform="scale(1 1) rotate(0) translate(4 1141)">
<title>Battle</title>
<!-- Node1 -->
<g id="Node000001" class="node">
<title>Node1</title>
<g id="a_Node000001"><a xlink:title="Classe représentant une battle musicale.">
<polygon fill="#999999" stroke="transparent" points="280.5,-364 144.5,-364 144.5,0 280.5,0 280.5,-364"/>
<text text-anchor="start" x="197.5" y="-352" font-family="Helvetica,sans-Serif" font-size="10.00">Battle</text>
<text text-anchor="start" x="148.5" y="-337" font-family="Helvetica,sans-Serif" font-size="10.00">+</text>
<text text-anchor="start" x="161.5" y="-337" font-family="Helvetica,sans-Serif" font-size="10.00">$votesCreateur</text>
<text text-anchor="start" x="148.5" y="-322" font-family="Helvetica,sans-Serif" font-size="10.00">+</text>
<text text-anchor="start" x="161.5" y="-322" font-family="Helvetica,sans-Serif" font-size="10.00">$votesParticipant</text>
<text text-anchor="start" x="151" y="-307" font-family="Helvetica,sans-Serif" font-size="10.00">&#45;</text>
<text text-anchor="start" x="161.5" y="-307" font-family="Helvetica,sans-Serif" font-size="10.00">$idBattle</text>
<text text-anchor="start" x="151" y="-292" font-family="Helvetica,sans-Serif" font-size="10.00">&#45;</text>
<text text-anchor="start" x="161.5" y="-292" font-family="Helvetica,sans-Serif" font-size="10.00">$titreBattle</text>
<text text-anchor="start" x="151" y="-277" font-family="Helvetica,sans-Serif" font-size="10.00">&#45;</text>
<text text-anchor="start" x="161.5" y="-277" font-family="Helvetica,sans-Serif" font-size="10.00">$dateDebutBattle</text>
<text text-anchor="start" x="151" y="-262" font-family="Helvetica,sans-Serif" font-size="10.00">&#45;</text>
<text text-anchor="start" x="161.5" y="-262" font-family="Helvetica,sans-Serif" font-size="10.00">$dateFinBattle</text>
<text text-anchor="start" x="151" y="-247" font-family="Helvetica,sans-Serif" font-size="10.00">&#45;</text>
<text text-anchor="start" x="161.5" y="-247" font-family="Helvetica,sans-Serif" font-size="10.00">$statutBattle</text>
<text text-anchor="start" x="151" y="-232" font-family="Helvetica,sans-Serif" font-size="10.00">&#45;</text>
<text text-anchor="start" x="161.5" y="-232" font-family="Helvetica,sans-Serif" font-size="10.00">$emailCreateurBattle</text>
<text text-anchor="start" x="151" y="-217" font-family="Helvetica,sans-Serif" font-size="10.00">&#45;</text>
<text text-anchor="start" x="161.5" y="-217" font-family="Helvetica,sans-Serif" font-size="10.00">$emailParticipantBattle</text>
<text text-anchor="start" x="151" y="-202" font-family="Helvetica,sans-Serif" font-size="10.00">&#45;</text>
<text text-anchor="start" x="161.5" y="-202" font-family="Helvetica,sans-Serif" font-size="10.00">$idChansonCreateur</text>
<text text-anchor="start" x="151" y="-187" font-family="Helvetica,sans-Serif" font-size="10.00">&#45;</text>
<text text-anchor="start" x="161.5" y="-187" font-family="Helvetica,sans-Serif" font-size="10.00">$idChansonParticipant</text>
<text text-anchor="start" x="151" y="-172" font-family="Helvetica,sans-Serif" font-size="10.00">&#45;</text>
<text text-anchor="start" x="161.5" y="-172" font-family="Helvetica,sans-Serif" font-size="10.00">$dejaVote</text>
<text text-anchor="start" x="148.5" y="-157" font-family="Helvetica,sans-Serif" font-size="10.00">+</text>
<text text-anchor="start" x="161.5" y="-157" font-family="Helvetica,sans-Serif" font-size="10.00">__construct()</text>
<text text-anchor="start" x="148.5" y="-142" font-family="Helvetica,sans-Serif" font-size="10.00">+</text>
<text text-anchor="start" x="161.5" y="-142" font-family="Helvetica,sans-Serif" font-size="10.00">getIdBattle()</text>
<text text-anchor="start" x="148.5" y="-127" font-family="Helvetica,sans-Serif" font-size="10.00">+</text>
<text text-anchor="start" x="161.5" y="-127" font-family="Helvetica,sans-Serif" font-size="10.00">setIdBattle()</text>
<text text-anchor="start" x="148.5" y="-112" font-family="Helvetica,sans-Serif" font-size="10.00">+</text>
<text text-anchor="start" x="161.5" y="-112" font-family="Helvetica,sans-Serif" font-size="10.00">getTitreBattle()</text>
<text text-anchor="start" x="148.5" y="-97" font-family="Helvetica,sans-Serif" font-size="10.00">+</text>
<text text-anchor="start" x="161.5" y="-97" font-family="Helvetica,sans-Serif" font-size="10.00">setTitreBattle()</text>
<text text-anchor="start" x="148.5" y="-82" font-family="Helvetica,sans-Serif" font-size="10.00">+</text>
<text text-anchor="start" x="161.5" y="-82" font-family="Helvetica,sans-Serif" font-size="10.00">getDateDebutBattle()</text>
<text text-anchor="start" x="148.5" y="-67" font-family="Helvetica,sans-Serif" font-size="10.00">+</text>
<text text-anchor="start" x="161.5" y="-67" font-family="Helvetica,sans-Serif" font-size="10.00">setDateDebutBattle()</text>
<text text-anchor="start" x="148.5" y="-52" font-family="Helvetica,sans-Serif" font-size="10.00">+</text>
<text text-anchor="start" x="161.5" y="-52" font-family="Helvetica,sans-Serif" font-size="10.00">getDateFinBattle()</text>
<text text-anchor="start" x="148.5" y="-37" font-family="Helvetica,sans-Serif" font-size="10.00">+</text>
<text text-anchor="start" x="161.5" y="-37" font-family="Helvetica,sans-Serif" font-size="10.00">setDateFinBattle()</text>
<text text-anchor="start" x="148.5" y="-22" font-family="Helvetica,sans-Serif" font-size="10.00">+</text>
<text text-anchor="start" x="161.5" y="-22" font-family="Helvetica,sans-Serif" font-size="10.00">getStatutBattle()</text>
<text text-anchor="start" x="161.5" y="-7" font-family="Helvetica,sans-Serif" font-size="10.00">et 23 de plus...</text>
<polygon fill="#666666" stroke="#666666" points="144.5,-347 144.5,-347 280.5,-347 280.5,-347 144.5,-347"/>
<polygon fill="#666666" stroke="#666666" points="144.5,-167 144.5,-167 159.5,-167 159.5,-167 144.5,-167"/>
<polygon fill="#666666" stroke="#666666" points="159.5,-167 159.5,-167 280.5,-167 280.5,-167 159.5,-167"/>
<polygon fill="none" stroke="#666666" points="144.5,0 144.5,-364 280.5,-364 280.5,0 144.5,0"/>
</a>
</g>
</g>
<!-- Node2 -->
<g id="Node000002" class="node">
<title>Node2</title>
<g id="a_Node000002"><a xlink:href="classUtilisateur.html" target="_top" xlink:title=" ">
<polygon fill="white" stroke="transparent" points="199.5,-771 35.5,-771 35.5,-422 199.5,-422 199.5,-771"/>
<text text-anchor="start" x="91.5" y="-758.5" font-family="Helvetica,sans-Serif" font-size="10.00">Utilisateur</text>
<text text-anchor="start" x="42" y="-743.5" font-family="Helvetica,sans-Serif" font-size="10.00">&#45;</text>
<text text-anchor="start" x="52.5" y="-743.5" font-family="Helvetica,sans-Serif" font-size="10.00">$emailUtilisateur</text>
<text text-anchor="start" x="42" y="-728.5" font-family="Helvetica,sans-Serif" font-size="10.00">&#45;</text>
<text text-anchor="start" x="52.5" y="-728.5" font-family="Helvetica,sans-Serif" font-size="10.00">$nomUtilisateur</text>
<text text-anchor="start" x="42" y="-713.5" font-family="Helvetica,sans-Serif" font-size="10.00">&#45;</text>
<text text-anchor="start" x="52.5" y="-713.5" font-family="Helvetica,sans-Serif" font-size="10.00">$pseudoUtilisateur</text>
<text text-anchor="start" x="42" y="-698.5" font-family="Helvetica,sans-Serif" font-size="10.00">&#45;</text>
<text text-anchor="start" x="52.5" y="-698.5" font-family="Helvetica,sans-Serif" font-size="10.00">$motDePasseUtilisateur</text>
<text text-anchor="start" x="42" y="-683.5" font-family="Helvetica,sans-Serif" font-size="10.00">&#45;</text>
<text text-anchor="start" x="52.5" y="-683.5" font-family="Helvetica,sans-Serif" font-size="10.00">$dateDeNaissanceUtilisateur</text>
<text text-anchor="start" x="42" y="-668.5" font-family="Helvetica,sans-Serif" font-size="10.00">&#45;</text>
<text text-anchor="start" x="52.5" y="-668.5" font-family="Helvetica,sans-Serif" font-size="10.00">$dateInscriptionUtilisateur</text>
<text text-anchor="start" x="42" y="-653.5" font-family="Helvetica,sans-Serif" font-size="10.00">&#45;</text>
<text text-anchor="start" x="52.5" y="-653.5" font-family="Helvetica,sans-Serif" font-size="10.00">$statutUtilisateur</text>
<text text-anchor="start" x="42" y="-638.5" font-family="Helvetica,sans-Serif" font-size="10.00">&#45;</text>
<text text-anchor="start" x="52.5" y="-638.5" font-family="Helvetica,sans-Serif" font-size="10.00">$estAbonnee</text>
<text text-anchor="start" x="42" y="-623.5" font-family="Helvetica,sans-Serif" font-size="10.00">&#45;</text>
<text text-anchor="start" x="52.5" y="-623.5" font-family="Helvetica,sans-Serif" font-size="10.00">$descriptionUtilisateur</text>
<text text-anchor="start" x="42" y="-608.5" font-family="Helvetica,sans-Serif" font-size="10.00">&#45;</text>
<text text-anchor="start" x="52.5" y="-608.5" font-family="Helvetica,sans-Serif" font-size="10.00">$siteWebUtilisateur</text>
<text text-anchor="start" x="52.5" y="-593.5" font-family="Helvetica,sans-Serif" font-size="10.00">et 6 de plus...</text>
<text text-anchor="start" x="39.5" y="-578.5" font-family="Helvetica,sans-Serif" font-size="10.00">+</text>
<text text-anchor="start" x="52.5" y="-578.5" font-family="Helvetica,sans-Serif" font-size="10.00">__construct()</text>
<text text-anchor="start" x="39.5" y="-563.5" font-family="Helvetica,sans-Serif" font-size="10.00">+</text>
<text text-anchor="start" x="52.5" y="-563.5" font-family="Helvetica,sans-Serif" font-size="10.00">getGenreUtilisateur()</text>
<text text-anchor="start" x="39.5" y="-548.5" font-family="Helvetica,sans-Serif" font-size="10.00">+</text>
<text text-anchor="start" x="52.5" y="-548.5" font-family="Helvetica,sans-Serif" font-size="10.00">setGenreUtilisateur()</text>
<text text-anchor="start" x="39.5" y="-533.5" font-family="Helvetica,sans-Serif" font-size="10.00">+</text>
<text text-anchor="start" x="52.5" y="-533.5" font-family="Helvetica,sans-Serif" font-size="10.00">getNomUtilisateur()</text>
<text text-anchor="start" x="39.5" y="-518.5" font-family="Helvetica,sans-Serif" font-size="10.00">+</text>
<text text-anchor="start" x="52.5" y="-518.5" font-family="Helvetica,sans-Serif" font-size="10.00">setNomUtilisateur()</text>
<text text-anchor="start" x="39.5" y="-503.5" font-family="Helvetica,sans-Serif" font-size="10.00">+</text>
<text text-anchor="start" x="52.5" y="-503.5" font-family="Helvetica,sans-Serif" font-size="10.00">getEmailUtilisateur()</text>
<text text-anchor="start" x="39.5" y="-488.5" font-family="Helvetica,sans-Serif" font-size="10.00">+</text>
<text text-anchor="start" x="52.5" y="-488.5" font-family="Helvetica,sans-Serif" font-size="10.00">setEmailUtilisateur()</text>
<text text-anchor="start" x="39.5" y="-473.5" font-family="Helvetica,sans-Serif" font-size="10.00">+</text>
<text text-anchor="start" x="52.5" y="-473.5" font-family="Helvetica,sans-Serif" font-size="10.00">getPseudoUtilisateur()</text>
<text text-anchor="start" x="39.5" y="-458.5" font-family="Helvetica,sans-Serif" font-size="10.00">+</text>
<text text-anchor="start" x="52.5" y="-458.5" font-family="Helvetica,sans-Serif" font-size="10.00">setPseudoUtilisateur()</text>
<text text-anchor="start" x="39.5" y="-443.5" font-family="Helvetica,sans-Serif" font-size="10.00">+</text>
<text text-anchor="start" x="52.5" y="-443.5" font-family="Helvetica,sans-Serif" font-size="10.00">getMotDePasseUtilisateur()</text>
<text text-anchor="start" x="52.5" y="-428.5" font-family="Helvetica,sans-Serif" font-size="10.00">et 27 de plus...</text>
<polygon fill="#666666" stroke="#666666" points="35.5,-753.5 35.5,-753.5 199.5,-753.5 199.5,-753.5 35.5,-753.5"/>
<polygon fill="#666666" stroke="#666666" points="35.5,-588.5 35.5,-588.5 50.5,-588.5 50.5,-588.5 35.5,-588.5"/>
<polygon fill="#666666" stroke="#666666" points="50.5,-588.5 50.5,-588.5 199.5,-588.5 199.5,-588.5 50.5,-588.5"/>
<polygon fill="none" stroke="#666666" points="35.5,-422 35.5,-771 199.5,-771 199.5,-422 35.5,-422"/>
</a>
</g>
</g>
<!-- Node2&#45;&gt;Node1 -->
<g id="edge1_Node000001_Node000002" class="edge">
<title>Node2&#45;&gt;Node1</title>
<g id="a_edge1_Node000001_Node000002"><a xlink:title=" ">
<path fill="none" stroke="#63b8ff" d="M157.51,-421.76C160.97,-406.73 164.49,-391.47 167.98,-376.29"/>
<polygon fill="none" stroke="#63b8ff" points="168.09,-375.85 165.53,-369.1 170.78,-364.15 173.33,-370.9 168.09,-375.85"/>
</a>
</g>
<text text-anchor="middle" x="196" y="-396" font-family="Helvetica,sans-Serif" font-size="10.00" fill="grey"> &#45;$createur</text>
<text text-anchor="middle" x="196" y="-385" font-family="Helvetica,sans-Serif" font-size="10.00" fill="grey">&#45;$participant</text>
</g>
<!-- Node3 -->
<g id="Node000003" class="node">
<title>Node3</title>
<g id="a_Node000003"><a xlink:href="classGenre.html" target="_top" xlink:title=" ">
<polygon fill="white" stroke="transparent" points="253,-1039.5 156,-1039.5 156,-915.5 253,-915.5 253,-1039.5"/>
<text text-anchor="start" x="190" y="-1027.5" font-family="Helvetica,sans-Serif" font-size="10.00">Genre</text>
<text text-anchor="start" x="163" y="-1012.5" font-family="Helvetica,sans-Serif" font-size="10.00">&#45;</text>
<text text-anchor="start" x="173.5" y="-1012.5" font-family="Helvetica,sans-Serif" font-size="10.00">$idGenre</text>
<text text-anchor="start" x="163" y="-997.5" font-family="Helvetica,sans-Serif" font-size="10.00">&#45;</text>
<text text-anchor="start" x="173.5" y="-997.5" font-family="Helvetica,sans-Serif" font-size="10.00">$nomGenre</text>
<text text-anchor="start" x="160.5" y="-982.5" font-family="Helvetica,sans-Serif" font-size="10.00">+</text>
<text text-anchor="start" x="173.5" y="-982.5" font-family="Helvetica,sans-Serif" font-size="10.00">__construct()</text>
<text text-anchor="start" x="160.5" y="-967.5" font-family="Helvetica,sans-Serif" font-size="10.00">+</text>
<text text-anchor="start" x="173.5" y="-967.5" font-family="Helvetica,sans-Serif" font-size="10.00">getIdGenre()</text>
<text text-anchor="start" x="160.5" y="-952.5" font-family="Helvetica,sans-Serif" font-size="10.00">+</text>
<text text-anchor="start" x="173.5" y="-952.5" font-family="Helvetica,sans-Serif" font-size="10.00">setIdGenre()</text>
<text text-anchor="start" x="160.5" y="-937.5" font-family="Helvetica,sans-Serif" font-size="10.00">+</text>
<text text-anchor="start" x="173.5" y="-937.5" font-family="Helvetica,sans-Serif" font-size="10.00">getNomGenre()</text>
<text text-anchor="start" x="160.5" y="-922.5" font-family="Helvetica,sans-Serif" font-size="10.00">+</text>
<text text-anchor="start" x="173.5" y="-922.5" font-family="Helvetica,sans-Serif" font-size="10.00">setNomGenre()</text>
<polygon fill="#666666" stroke="#666666" points="156.5,-1022.5 156.5,-1022.5 253.5,-1022.5 253.5,-1022.5 156.5,-1022.5"/>
<polygon fill="#666666" stroke="#666666" points="156.5,-992.5 156.5,-992.5 171.5,-992.5 171.5,-992.5 156.5,-992.5"/>
<polygon fill="#666666" stroke="#666666" points="171.5,-992.5 171.5,-992.5 253.5,-992.5 253.5,-992.5 171.5,-992.5"/>
<polygon fill="none" stroke="#666666" points="156,-915.5 156,-1039.5 253,-1039.5 253,-915.5 156,-915.5"/>
</a>
</g>
</g>
<!-- Node3&#45;&gt;Node2 -->
<g id="edge2_Node000002_Node000003" class="edge">
<title>Node3&#45;&gt;Node2</title>
<g id="a_edge2_Node000002_Node000003"><a xlink:title=" ">
<path fill="none" stroke="#63b8ff" d="M186.59,-915.12C177.03,-881.31 165.43,-838.51 156.5,-800 155.2,-794.41 153.92,-788.72 152.64,-782.98"/>
<polygon fill="none" stroke="#63b8ff" points="152.61,-782.84 147.42,-777.83 150.05,-771.11 155.24,-776.12 152.61,-782.84"/>
</a>
</g>
<text text-anchor="middle" x="202.5" y="-792" font-family="Helvetica,sans-Serif" font-size="10.00" fill="grey"> &#45;$genreUtilisateur</text>
</g>
<!-- Node5 -->
<g id="Node000005" class="node">
<title>Node5</title>
<g id="a_Node000005"><a xlink:href="classChanson.html" target="_top" xlink:title=" ">
<polygon fill="white" stroke="transparent" points="399.5,-756 217.5,-756 217.5,-437 399.5,-437 399.5,-756"/>
<text text-anchor="start" x="287" y="-743.5" font-family="Helvetica,sans-Serif" font-size="10.00">Chanson</text>
<text text-anchor="start" x="224" y="-728.5" font-family="Helvetica,sans-Serif" font-size="10.00">&#45;</text>
<text text-anchor="start" x="234.5" y="-728.5" font-family="Helvetica,sans-Serif" font-size="10.00">$idChanson</text>
<text text-anchor="start" x="224" y="-713.5" font-family="Helvetica,sans-Serif" font-size="10.00">&#45;</text>
<text text-anchor="start" x="234.5" y="-713.5" font-family="Helvetica,sans-Serif" font-size="10.00">$titreChanson</text>
<text text-anchor="start" x="224" y="-698.5" font-family="Helvetica,sans-Serif" font-size="10.00">&#45;</text>
<text text-anchor="start" x="234.5" y="-698.5" font-family="Helvetica,sans-Serif" font-size="10.00">$dureeChanson</text>
<text text-anchor="start" x="224" y="-683.5" font-family="Helvetica,sans-Serif" font-size="10.00">&#45;</text>
<text text-anchor="start" x="234.5" y="-683.5" font-family="Helvetica,sans-Serif" font-size="10.00">$dateTeleversementChanson</text>
<text text-anchor="start" x="224" y="-668.5" font-family="Helvetica,sans-Serif" font-size="10.00">&#45;</text>
<text text-anchor="start" x="234.5" y="-668.5" font-family="Helvetica,sans-Serif" font-size="10.00">$nbEcouteChanson</text>
<text text-anchor="start" x="224" y="-653.5" font-family="Helvetica,sans-Serif" font-size="10.00">&#45;</text>
<text text-anchor="start" x="234.5" y="-653.5" font-family="Helvetica,sans-Serif" font-size="10.00">$emailPublicateur</text>
<text text-anchor="start" x="224" y="-638.5" font-family="Helvetica,sans-Serif" font-size="10.00">&#45;</text>
<text text-anchor="start" x="234.5" y="-638.5" font-family="Helvetica,sans-Serif" font-size="10.00">$urlAudioChanson</text>
<text text-anchor="start" x="224" y="-623.5" font-family="Helvetica,sans-Serif" font-size="10.00">&#45;</text>
<text text-anchor="start" x="234.5" y="-623.5" font-family="Helvetica,sans-Serif" font-size="10.00">$isLiked</text>
<text text-anchor="start" x="224" y="-608.5" font-family="Helvetica,sans-Serif" font-size="10.00">&#45;</text>
<text text-anchor="start" x="234.5" y="-608.5" font-family="Helvetica,sans-Serif" font-size="10.00">$dateLike</text>
<text text-anchor="start" x="221.5" y="-593.5" font-family="Helvetica,sans-Serif" font-size="10.00">+</text>
<text text-anchor="start" x="234.5" y="-593.5" font-family="Helvetica,sans-Serif" font-size="10.00">__construct()</text>
<text text-anchor="start" x="221.5" y="-578.5" font-family="Helvetica,sans-Serif" font-size="10.00">+</text>
<text text-anchor="start" x="234.5" y="-578.5" font-family="Helvetica,sans-Serif" font-size="10.00">getIdChanson()</text>
<text text-anchor="start" x="221.5" y="-563.5" font-family="Helvetica,sans-Serif" font-size="10.00">+</text>
<text text-anchor="start" x="234.5" y="-563.5" font-family="Helvetica,sans-Serif" font-size="10.00">setIdChanson()</text>
<text text-anchor="start" x="221.5" y="-548.5" font-family="Helvetica,sans-Serif" font-size="10.00">+</text>
<text text-anchor="start" x="234.5" y="-548.5" font-family="Helvetica,sans-Serif" font-size="10.00">getTitreChanson()</text>
<text text-anchor="start" x="221.5" y="-533.5" font-family="Helvetica,sans-Serif" font-size="10.00">+</text>
<text text-anchor="start" x="234.5" y="-533.5" font-family="Helvetica,sans-Serif" font-size="10.00">setTitreChanson()</text>
<text text-anchor="start" x="221.5" y="-518.5" font-family="Helvetica,sans-Serif" font-size="10.00">+</text>
<text text-anchor="start" x="234.5" y="-518.5" font-family="Helvetica,sans-Serif" font-size="10.00">getDureeChanson()</text>
<text text-anchor="start" x="221.5" y="-503.5" font-family="Helvetica,sans-Serif" font-size="10.00">+</text>
<text text-anchor="start" x="234.5" y="-503.5" font-family="Helvetica,sans-Serif" font-size="10.00">setDureeChanson()</text>
<text text-anchor="start" x="221.5" y="-488.5" font-family="Helvetica,sans-Serif" font-size="10.00">+</text>
<text text-anchor="start" x="234.5" y="-488.5" font-family="Helvetica,sans-Serif" font-size="10.00">getDateTeleversementChanson()</text>
<text text-anchor="start" x="221.5" y="-473.5" font-family="Helvetica,sans-Serif" font-size="10.00">+</text>
<text text-anchor="start" x="234.5" y="-473.5" font-family="Helvetica,sans-Serif" font-size="10.00">setDateTeleversementChanson()</text>
<text text-anchor="start" x="221.5" y="-458.5" font-family="Helvetica,sans-Serif" font-size="10.00">+</text>
<text text-anchor="start" x="234.5" y="-458.5" font-family="Helvetica,sans-Serif" font-size="10.00">getNbEcouteChanson()</text>
<text text-anchor="start" x="234.5" y="-443.5" font-family="Helvetica,sans-Serif" font-size="10.00">et 13 de plus...</text>
<polygon fill="#666666" stroke="#666666" points="217.5,-738.5 217.5,-738.5 399.5,-738.5 399.5,-738.5 217.5,-738.5"/>
<polygon fill="#666666" stroke="#666666" points="217.5,-603.5 217.5,-603.5 232.5,-603.5 232.5,-603.5 217.5,-603.5"/>
<polygon fill="#666666" stroke="#666666" points="232.5,-603.5 232.5,-603.5 399.5,-603.5 399.5,-603.5 232.5,-603.5"/>
<polygon fill="none" stroke="#666666" points="217.5,-437 217.5,-756 399.5,-756 399.5,-437 217.5,-437"/>
</a>
</g>
</g>
<!-- Node3&#45;&gt;Node5 -->
<g id="edge6_Node000005_Node000003" class="edge">
<title>Node3&#45;&gt;Node5</title>
<g id="a_edge6_Node000005_Node000003"><a xlink:title=" ">
<path fill="none" stroke="#63b8ff" d="M221.32,-915.19C232.33,-875.06 247.31,-820.51 261.73,-767.93"/>
<polygon fill="none" stroke="#63b8ff" points="261.82,-767.61 259.55,-760.77 265,-756.04 267.27,-762.89 261.82,-767.61"/>
</a>
</g>
<text text-anchor="middle" x="294" y="-792" font-family="Helvetica,sans-Serif" font-size="10.00" fill="grey"> &#45;$genreChanson</text>
</g>
<!-- Node4 -->
<g id="Node000004" class="node">
<title>Node4</title>
<g id="a_Node000004"><a xlink:href="classRole.html" target="_top" xlink:title=" ">
<polygon fill="white" stroke="transparent" points="99,-1069.5 0,-1069.5 0,-885.5 99,-885.5 99,-1069.5"/>
<text text-anchor="start" x="39" y="-1057.5" font-family="Helvetica,sans-Serif" font-size="10.00">Role</text>
<text text-anchor="start" x="7" y="-1042.5" font-family="Helvetica,sans-Serif" font-size="10.00">&#45;</text>
<text text-anchor="start" x="17.5" y="-1042.5" font-family="Helvetica,sans-Serif" font-size="10.00">$idRole</text>
<text text-anchor="start" x="7" y="-1027.5" font-family="Helvetica,sans-Serif" font-size="10.00">&#45;</text>
<text text-anchor="start" x="17.5" y="-1027.5" font-family="Helvetica,sans-Serif" font-size="10.00">$typeRole</text>
<text text-anchor="start" x="7" y="-1012.5" font-family="Helvetica,sans-Serif" font-size="10.00">&#45;</text>
<text text-anchor="start" x="17.5" y="-1012.5" font-family="Helvetica,sans-Serif" font-size="10.00">$libelleRole</text>
<text text-anchor="start" x="4.5" y="-997.5" font-family="Helvetica,sans-Serif" font-size="10.00">+</text>
<text text-anchor="start" x="17.5" y="-997.5" font-family="Helvetica,sans-Serif" font-size="10.00">__construct()</text>
<text text-anchor="start" x="4.5" y="-982.5" font-family="Helvetica,sans-Serif" font-size="10.00">+</text>
<text text-anchor="start" x="17.5" y="-982.5" font-family="Helvetica,sans-Serif" font-size="10.00">getIdRole()</text>
<text text-anchor="start" x="4.5" y="-967.5" font-family="Helvetica,sans-Serif" font-size="10.00">+</text>
<text text-anchor="start" x="17.5" y="-967.5" font-family="Helvetica,sans-Serif" font-size="10.00">setIdRole()</text>
<text text-anchor="start" x="4.5" y="-952.5" font-family="Helvetica,sans-Serif" font-size="10.00">+</text>
<text text-anchor="start" x="17.5" y="-952.5" font-family="Helvetica,sans-Serif" font-size="10.00">getRoleEnum()</text>
<text text-anchor="start" x="4.5" y="-937.5" font-family="Helvetica,sans-Serif" font-size="10.00">+</text>
<text text-anchor="start" x="17.5" y="-937.5" font-family="Helvetica,sans-Serif" font-size="10.00">getTypeRole()</text>
<text text-anchor="start" x="4.5" y="-922.5" font-family="Helvetica,sans-Serif" font-size="10.00">+</text>
<text text-anchor="start" x="17.5" y="-922.5" font-family="Helvetica,sans-Serif" font-size="10.00">setTypeRole()</text>
<text text-anchor="start" x="4.5" y="-907.5" font-family="Helvetica,sans-Serif" font-size="10.00">+</text>
<text text-anchor="start" x="17.5" y="-907.5" font-family="Helvetica,sans-Serif" font-size="10.00">getLibelleRole()</text>
<text text-anchor="start" x="4.5" y="-892.5" font-family="Helvetica,sans-Serif" font-size="10.00">+</text>
<text text-anchor="start" x="17.5" y="-892.5" font-family="Helvetica,sans-Serif" font-size="10.00">setLibelleRole()</text>
<polygon fill="#666666" stroke="#666666" points="0.5,-1052.5 0.5,-1052.5 99.5,-1052.5 99.5,-1052.5 0.5,-1052.5"/>
<polygon fill="#666666" stroke="#666666" points="0.5,-1007.5 0.5,-1007.5 15.5,-1007.5 15.5,-1007.5 0.5,-1007.5"/>
<polygon fill="#666666" stroke="#666666" points="15.5,-1007.5 15.5,-1007.5 99.5,-1007.5 99.5,-1007.5 15.5,-1007.5"/>
<polygon fill="none" stroke="#666666" points="0,-885.5 0,-1069.5 99,-1069.5 99,-885.5 0,-885.5"/>
</a>
</g>
</g>
<!-- Node4&#45;&gt;Node2 -->
<g id="edge3_Node000002_Node000004" class="edge">
<title>Node4&#45;&gt;Node2</title>
<g id="a_edge3_Node000002_Node000004"><a xlink:title=" ">
<path fill="none" stroke="#63b8ff" d="M43.96,-885.37C43.68,-854.57 45.13,-820.12 50.5,-789 50.83,-787.06 51.19,-785.12 51.55,-783.17"/>
<polygon fill="none" stroke="#63b8ff" points="51.61,-782.91 48.89,-776.23 54.01,-771.15 56.73,-777.83 51.61,-782.91"/>
</a>
</g>
<text text-anchor="middle" x="92" y="-792" font-family="Helvetica,sans-Serif" font-size="10.00" fill="grey"> &#45;$roleUtilisateur</text>
</g>
<!-- Node5&#45;&gt;Node1 -->
<g id="edge4_Node000001_Node000005" class="edge">
<title>Node5&#45;&gt;Node1</title>
<g id="a_edge4_Node000001_Node000005"><a xlink:title=" ">
<path fill="none" stroke="#63b8ff" d="M271.59,-436.9C266.93,-416.88 262.12,-396.22 257.36,-375.74"/>
<polygon fill="none" stroke="#63b8ff" points="257.35,-375.73 252.1,-370.8 254.63,-364.05 259.89,-368.98 257.35,-375.73"/>
</a>
</g>
<text text-anchor="middle" x="322" y="-396" font-family="Helvetica,sans-Serif" font-size="10.00" fill="grey"> &#45;$chansonCreateurObj</text>
<text text-anchor="middle" x="322" y="-385" font-family="Helvetica,sans-Serif" font-size="10.00" fill="grey">&#45;$chansonParticipantObj</text>
</g>
<!-- Node6 -->
<g id="Node000006" class="node">
<title>Node6</title>
<g id="a_Node000006"><a xlink:href="classAlbum.html" target="_top" xlink:title=" ">
<polygon fill="white" stroke="transparent" points="443,-1137 310,-1137 310,-818 443,-818 443,-1137"/>
<text text-anchor="start" x="361" y="-1124.5" font-family="Helvetica,sans-Serif" font-size="10.00">Album</text>
<text text-anchor="start" x="317" y="-1109.5" font-family="Helvetica,sans-Serif" font-size="10.00">&#45;</text>
<text text-anchor="start" x="327.5" y="-1109.5" font-family="Helvetica,sans-Serif" font-size="10.00">$idAlbum</text>
<text text-anchor="start" x="317" y="-1094.5" font-family="Helvetica,sans-Serif" font-size="10.00">&#45;</text>
<text text-anchor="start" x="327.5" y="-1094.5" font-family="Helvetica,sans-Serif" font-size="10.00">$nomAlbum</text>
<text text-anchor="start" x="317" y="-1079.5" font-family="Helvetica,sans-Serif" font-size="10.00">&#45;</text>
<text text-anchor="start" x="327.5" y="-1079.5" font-family="Helvetica,sans-Serif" font-size="10.00">$dateSortieAlbum</text>
<text text-anchor="start" x="317" y="-1064.5" font-family="Helvetica,sans-Serif" font-size="10.00">&#45;</text>
<text text-anchor="start" x="327.5" y="-1064.5" font-family="Helvetica,sans-Serif" font-size="10.00">$urlPochetteAlbum</text>
<text text-anchor="start" x="317" y="-1049.5" font-family="Helvetica,sans-Serif" font-size="10.00">&#45;</text>
<text text-anchor="start" x="327.5" y="-1049.5" font-family="Helvetica,sans-Serif" font-size="10.00">$artisteAlbum</text>
<text text-anchor="start" x="317" y="-1034.5" font-family="Helvetica,sans-Serif" font-size="10.00">&#45;</text>
<text text-anchor="start" x="327.5" y="-1034.5" font-family="Helvetica,sans-Serif" font-size="10.00">$pseudoArtiste</text>
<text text-anchor="start" x="314.5" y="-1019.5" font-family="Helvetica,sans-Serif" font-size="10.00">+</text>
<text text-anchor="start" x="327.5" y="-1019.5" font-family="Helvetica,sans-Serif" font-size="10.00">getIdAlbum()</text>
<text text-anchor="start" x="314.5" y="-1004.5" font-family="Helvetica,sans-Serif" font-size="10.00">+</text>
<text text-anchor="start" x="327.5" y="-1004.5" font-family="Helvetica,sans-Serif" font-size="10.00">setIdAlbum()</text>
<text text-anchor="start" x="314.5" y="-989.5" font-family="Helvetica,sans-Serif" font-size="10.00">+</text>
<text text-anchor="start" x="327.5" y="-989.5" font-family="Helvetica,sans-Serif" font-size="10.00">getNomAlbum()</text>
<text text-anchor="start" x="314.5" y="-974.5" font-family="Helvetica,sans-Serif" font-size="10.00">+</text>
<text text-anchor="start" x="327.5" y="-974.5" font-family="Helvetica,sans-Serif" font-size="10.00">setNomAlbum()</text>
<text text-anchor="start" x="314.5" y="-959.5" font-family="Helvetica,sans-Serif" font-size="10.00">+</text>
<text text-anchor="start" x="327.5" y="-959.5" font-family="Helvetica,sans-Serif" font-size="10.00">getTitreAlbum()</text>
<text text-anchor="start" x="314.5" y="-944.5" font-family="Helvetica,sans-Serif" font-size="10.00">+</text>
<text text-anchor="start" x="327.5" y="-944.5" font-family="Helvetica,sans-Serif" font-size="10.00">setTitreAlbum()</text>
<text text-anchor="start" x="314.5" y="-929.5" font-family="Helvetica,sans-Serif" font-size="10.00">+</text>
<text text-anchor="start" x="327.5" y="-929.5" font-family="Helvetica,sans-Serif" font-size="10.00">getDateSortieAlbum()</text>
<text text-anchor="start" x="314.5" y="-914.5" font-family="Helvetica,sans-Serif" font-size="10.00">+</text>
<text text-anchor="start" x="327.5" y="-914.5" font-family="Helvetica,sans-Serif" font-size="10.00">setDateSortieAlbum()</text>
<text text-anchor="start" x="314.5" y="-899.5" font-family="Helvetica,sans-Serif" font-size="10.00">+</text>
<text text-anchor="start" x="327.5" y="-899.5" font-family="Helvetica,sans-Serif" font-size="10.00">getUrlPochetteAlbum()</text>
<text text-anchor="start" x="314.5" y="-884.5" font-family="Helvetica,sans-Serif" font-size="10.00">+</text>
<text text-anchor="start" x="327.5" y="-884.5" font-family="Helvetica,sans-Serif" font-size="10.00">setUrlPochetteAlbum()</text>
<text text-anchor="start" x="314.5" y="-869.5" font-family="Helvetica,sans-Serif" font-size="10.00">+</text>
<text text-anchor="start" x="327.5" y="-869.5" font-family="Helvetica,sans-Serif" font-size="10.00">getArtisteAlbum()</text>
<text text-anchor="start" x="314.5" y="-854.5" font-family="Helvetica,sans-Serif" font-size="10.00">+</text>
<text text-anchor="start" x="327.5" y="-854.5" font-family="Helvetica,sans-Serif" font-size="10.00">setArtisteAlbum()</text>
<text text-anchor="start" x="314.5" y="-839.5" font-family="Helvetica,sans-Serif" font-size="10.00">+</text>
<text text-anchor="start" x="327.5" y="-839.5" font-family="Helvetica,sans-Serif" font-size="10.00">getPseudoArtiste()</text>
<text text-anchor="start" x="314.5" y="-824.5" font-family="Helvetica,sans-Serif" font-size="10.00">+</text>
<text text-anchor="start" x="327.5" y="-824.5" font-family="Helvetica,sans-Serif" font-size="10.00">setPseudoArtiste()</text>
<polygon fill="#666666" stroke="#666666" points="310.5,-1119.5 310.5,-1119.5 443.5,-1119.5 443.5,-1119.5 310.5,-1119.5"/>
<polygon fill="#666666" stroke="#666666" points="310.5,-1029.5 310.5,-1029.5 325.5,-1029.5 325.5,-1029.5 310.5,-1029.5"/>
<polygon fill="#666666" stroke="#666666" points="325.5,-1029.5 325.5,-1029.5 443.5,-1029.5 443.5,-1029.5 325.5,-1029.5"/>
<polygon fill="none" stroke="#666666" points="310,-818 310,-1137 443,-1137 443,-818 310,-818"/>
</a>
</g>
</g>
<!-- Node6&#45;&gt;Node5 -->
<g id="edge5_Node000005_Node000006" class="edge">
<title>Node6&#45;&gt;Node5</title>
<g id="a_edge5_Node000005_Node000006"><a xlink:title=" ">
<path fill="none" stroke="#63b8ff" d="M359.25,-818C357.77,-808.17 356.18,-798.44 354.5,-789 353.27,-782.1 351.94,-775.08 350.54,-767.99"/>
<polygon fill="none" stroke="#63b8ff" points="350.5,-767.79 345.39,-762.7 348.12,-756.03 353.23,-761.12 350.5,-767.79"/>
</a>
</g>
<text text-anchor="middle" x="398.5" y="-792" font-family="Helvetica,sans-Serif" font-size="10.00" fill="grey"> &#45;$albumChanson</text>
</g>
</g>
</svg>
