<?xml version="1.0" encoding="UTF-8" standalone="no"?>
<!DOCTYPE svg PUBLIC "-//W3C//DTD SVG 1.1//EN"
 "http://www.w3.org/Graphics/SVG/1.1/DTD/svg11.dtd">
<!-- Generated by graphviz version 2.43.0 (0)
 -->
<!-- Title: PlaylistDAO\findAllFromUser Pages: 1 -->
<svg width="492pt" height="27pt"
 viewBox="0.00 0.00 492.00 27.00" xmlns="http://www.w3.org/2000/svg" xmlns:xlink="http://www.w3.org/1999/xlink">
<g id="graph0" class="graph" transform="scale(1 1) rotate(0) translate(4 23)">
<title>PlaylistDAO\findAllFromUser</title>
<!-- Node1 -->
<g id="Node000001" class="node">
<title>Node1</title>
<g id="a_Node000001"><a xlink:title=" ">
<polygon fill="#999999" stroke="#666666" points="155,-19 0,-19 0,0 155,0 155,-19"/>
<text text-anchor="middle" x="77.5" y="-7" font-family="Helvetica,sans-Serif" font-size="10.00">PlaylistDAO\findAllFromUser</text>
</a>
</g>
</g>
<!-- Node2 -->
<g id="Node000002" class="node">
<title>Node2</title>
<g id="a_Node000002"><a xlink:href="classPlaylistDAO.html#afa7db4b103cb838090dd54439e504876" target="_top" xlink:title=" ">
<polygon fill="white" stroke="#666666" points="333,-19 191,-19 191,0 333,0 333,-19"/>
<text text-anchor="middle" x="262" y="-7" font-family="Helvetica,sans-Serif" font-size="10.00">PlaylistDAO\hydrateMany</text>
</a>
</g>
</g>
<!-- Node1&#45;&gt;Node2 -->
<g id="edge1_Node000001_Node000002" class="edge">
<title>Node1&#45;&gt;Node2</title>
<g id="a_edge1_Node000001_Node000002"><a xlink:title=" ">
<path fill="none" stroke="#63b8ff" d="M155.1,-9.5C163.66,-9.5 172.39,-9.5 180.98,-9.5"/>
<polygon fill="#63b8ff" stroke="#63b8ff" points="180.99,-13 190.99,-9.5 180.99,-6 180.99,-13"/>
</a>
</g>
</g>
<!-- Node3 -->
<g id="Node000003" class="node">
<title>Node3</title>
<g id="a_Node000003"><a xlink:href="classPlaylistDAO.html#a25ff61176e176159b6ecc9a846222bf3" target="_top" xlink:title=" ">
<polygon fill="white" stroke="#666666" points="484,-19 369,-19 369,0 484,0 484,-19"/>
<text text-anchor="middle" x="426.5" y="-7" font-family="Helvetica,sans-Serif" font-size="10.00">PlaylistDAO\hydrate</text>
</a>
</g>
</g>
<!-- Node2&#45;&gt;Node3 -->
<g id="edge2_Node000002_Node000003" class="edge">
<title>Node2&#45;&gt;Node3</title>
<g id="a_edge2_Node000002_Node000003"><a xlink:title=" ">
<path fill="none" stroke="#63b8ff" d="M333.33,-9.5C341.75,-9.5 350.32,-9.5 358.68,-9.5"/>
<polygon fill="#63b8ff" stroke="#63b8ff" points="358.76,-13 368.76,-9.5 358.76,-6 358.76,-13"/>
</a>
</g>
</g>
</g>
</svg>
