<?xml version="1.0" encoding="UTF-8" standalone="no"?>
<!DOCTYPE svg PUBLIC "-//W3C//DTD SVG 1.1//EN"
 "http://www.w3.org/Graphics/SVG/1.1/DTD/svg11.dtd">
<!-- Generated by graphviz version 2.43.0 (0)
 -->
<!-- Title: PlaylistDAO\hydrate Pages: 1 -->
<svg width="493pt" height="82pt"
 viewBox="0.00 0.00 493.00 82.00" xmlns="http://www.w3.org/2000/svg" xmlns:xlink="http://www.w3.org/1999/xlink">
<g id="graph0" class="graph" transform="scale(1 1) rotate(0) translate(4 78)">
<title>PlaylistDAO\hydrate</title>
<!-- Node1 -->
<g id="Node000001" class="node">
<title>Node1</title>
<g id="a_Node000001"><a xlink:title=" ">
<polygon fill="#999999" stroke="#666666" points="485,-55 370,-55 370,-36 485,-36 485,-55"/>
<text text-anchor="middle" x="427.5" y="-43" font-family="Helvetica,sans-Serif" font-size="10.00">PlaylistDAO\hydrate</text>
</a>
</g>
</g>
<!-- Node2 -->
<g id="Node000002" class="node">
<title>Node2</title>
<g id="a_Node000002"><a xlink:href="classPlaylistDAO.html#afeeac5735a3dc8cba5021f2e9d29d632" target="_top" xlink:title=" ">
<polygon fill="white" stroke="#666666" points="334,-74 191,-74 191,-55 334,-55 334,-74"/>
<text text-anchor="middle" x="262.5" y="-62" font-family="Helvetica,sans-Serif" font-size="10.00">PlaylistDAO\findFromUser</text>
</a>
</g>
</g>
<!-- Node1&#45;&gt;Node2 -->
<g id="edge1_Node000001_Node000002" class="edge">
<title>Node1&#45;&gt;Node2</title>
<g id="a_edge1_Node000001_Node000002"><a xlink:title=" ">
<path fill="none" stroke="#63b8ff" d="M359.74,-53.28C351.26,-54.27 342.56,-55.28 334.03,-56.28"/>
<polygon fill="#63b8ff" stroke="#63b8ff" points="360.42,-56.73 369.95,-52.09 359.61,-49.77 360.42,-56.73"/>
</a>
</g>
</g>
<!-- Node3 -->
<g id="Node000003" class="node">
<title>Node3</title>
<g id="a_Node000003"><a xlink:href="classPlaylistDAO.html#afa7db4b103cb838090dd54439e504876" target="_top" xlink:title=" ">
<polygon fill="white" stroke="#666666" points="333.5,-37 191.5,-37 191.5,-18 333.5,-18 333.5,-37"/>
<text text-anchor="middle" x="262.5" y="-25" font-family="Helvetica,sans-Serif" font-size="10.00">PlaylistDAO\hydrateMany</text>
</a>
</g>
</g>
<!-- Node1&#45;&gt;Node3 -->
<g id="edge2_Node000001_Node000003" class="edge">
<title>Node1&#45;&gt;Node3</title>
<g id="a_edge2_Node000001_Node000003"><a xlink:title=" ">
<path fill="none" stroke="#63b8ff" d="M359.94,-38.15C351.3,-37.2 342.43,-36.22 333.74,-35.26"/>
<polygon fill="#63b8ff" stroke="#63b8ff" points="359.62,-41.64 369.95,-39.25 360.39,-34.68 359.62,-41.64"/>
</a>
</g>
</g>
<!-- Node4 -->
<g id="Node000004" class="node">
<title>Node4</title>
<g id="a_Node000004"><a xlink:href="classPlaylistDAO.html#a4f0fdf9b3055400b089e61d753c95c6d" target="_top" xlink:title="Récupère toutes les playlists de la base de données.">
<polygon fill="white" stroke="#666666" points="131.5,-56 23.5,-56 23.5,-37 131.5,-37 131.5,-56"/>
<text text-anchor="middle" x="77.5" y="-44" font-family="Helvetica,sans-Serif" font-size="10.00">PlaylistDAO\findAll</text>
</a>
</g>
</g>
<!-- Node3&#45;&gt;Node4 -->
<g id="edge3_Node000003_Node000004" class="edge">
<title>Node3&#45;&gt;Node4</title>
<g id="a_edge3_Node000003_Node000004"><a xlink:title=" ">
<path fill="none" stroke="#63b8ff" d="M180.98,-35.86C164.32,-37.59 147.16,-39.37 131.77,-40.97"/>
<polygon fill="#63b8ff" stroke="#63b8ff" points="181.69,-39.31 191.27,-34.79 180.96,-32.34 181.69,-39.31"/>
</a>
</g>
</g>
<!-- Node5 -->
<g id="Node000005" class="node">
<title>Node5</title>
<g id="a_Node000005"><a xlink:href="classPlaylistDAO.html#a4a22371143f7658da44783b31447e71f" target="_top" xlink:title=" ">
<polygon fill="white" stroke="#666666" points="155,-19 0,-19 0,0 155,0 155,-19"/>
<text text-anchor="middle" x="77.5" y="-7" font-family="Helvetica,sans-Serif" font-size="10.00">PlaylistDAO\findAllFromUser</text>
</a>
</g>
</g>
<!-- Node3&#45;&gt;Node5 -->
<g id="edge4_Node000003_Node000005" class="edge">
<title>Node3&#45;&gt;Node5</title>
<g id="a_edge4_Node000003_Node000005"><a xlink:title=" ">
<path fill="none" stroke="#63b8ff" d="M181.22,-19.6C172.59,-18.75 163.83,-17.89 155.24,-17.05"/>
<polygon fill="#63b8ff" stroke="#63b8ff" points="180.98,-23.1 191.27,-20.59 181.66,-16.13 180.98,-23.1"/>
</a>
</g>
</g>
</g>
</svg>
