<?xml version="1.0" encoding="UTF-8" standalone="no"?>
<!DOCTYPE svg PUBLIC "-//W3C//DTD SVG 1.1//EN"
 "http://www.w3.org/Graphics/SVG/1.1/DTD/svg11.dtd">
<!-- Generated by graphviz version 2.43.0 (0)
 -->
<!-- Title: UtilisateurDAO\hydrate Pages: 1 -->
<svg width="529pt" height="119pt"
 viewBox="0.00 0.00 529.00 119.00" xmlns="http://www.w3.org/2000/svg" xmlns:xlink="http://www.w3.org/1999/xlink">
<g id="graph0" class="graph" transform="scale(1 1) rotate(0) translate(4 115)">
<title>UtilisateurDAO\hydrate</title>
<!-- Node1 -->
<g id="Node000001" class="node">
<title>Node1</title>
<g id="a_Node000001"><a xlink:title="Hydrate un tableau de données en une instance de Utilisateur.">
<polygon fill="#999999" stroke="#666666" points="521,-74 391,-74 391,-55 521,-55 521,-74"/>
<text text-anchor="middle" x="456" y="-62" font-family="Helvetica,sans-Serif" font-size="10.00">UtilisateurDAO\hydrate</text>
</a>
</g>
</g>
<!-- Node2 -->
<g id="Node000002" class="node">
<title>Node2</title>
<g id="a_Node000002"><a xlink:href="classUtilisateurDAO.html#a36e6fb6c12395f1a4841b47db810f59c" target="_top" xlink:title="Récupère un utilisateur par son adresse email.">
<polygon fill="white" stroke="#666666" points="331,-111 221,-111 221,-92 331,-92 331,-111"/>
<text text-anchor="middle" x="276" y="-99" font-family="Helvetica,sans-Serif" font-size="10.00">UtilisateurDAO\find</text>
</a>
</g>
</g>
<!-- Node1&#45;&gt;Node2 -->
<g id="edge1_Node000001_Node000002" class="edge">
<title>Node1&#45;&gt;Node2</title>
<g id="a_edge1_Node000001_Node000002"><a xlink:title=" ">
<path fill="none" stroke="#63b8ff" d="M399.27,-76.08C374.75,-81.18 346.28,-87.1 322.99,-91.94"/>
<polygon fill="#63b8ff" stroke="#63b8ff" points="400.08,-79.49 409.16,-74.03 398.66,-72.64 400.08,-79.49"/>
</a>
</g>
</g>
<!-- Node4 -->
<g id="Node000004" class="node">
<title>Node4</title>
<g id="a_Node000004"><a xlink:href="classUtilisateurDAO.html#aa0501a4f4c6226839d08b32bb02e3326" target="_top" xlink:title="Récupère un utilisateur par son pseudo.">
<polygon fill="white" stroke="#666666" points="355,-74 197,-74 197,-55 355,-55 355,-74"/>
<text text-anchor="middle" x="276" y="-62" font-family="Helvetica,sans-Serif" font-size="10.00">UtilisateurDAO\findByPseudo</text>
</a>
</g>
</g>
<!-- Node1&#45;&gt;Node4 -->
<g id="edge3_Node000001_Node000004" class="edge">
<title>Node1&#45;&gt;Node4</title>
<g id="a_edge3_Node000001_Node000004"><a xlink:title=" ">
<path fill="none" stroke="#63b8ff" d="M380.74,-64.5C372.25,-64.5 363.57,-64.5 355.03,-64.5"/>
<polygon fill="#63b8ff" stroke="#63b8ff" points="380.99,-68 390.99,-64.5 380.99,-61 380.99,-68"/>
</a>
</g>
</g>
<!-- Node5 -->
<g id="Node000005" class="node">
<title>Node5</title>
<g id="a_Node000005"><a xlink:href="classUtilisateurDAO.html#ac3dabdb7502fad39bf2a68f38252f0a7" target="_top" xlink:title="Hydrate plusieurs utilisateurs à partir d&#39;un tableau de données.">
<polygon fill="white" stroke="#666666" points="347.5,-37 204.5,-37 204.5,-18 347.5,-18 347.5,-37"/>
<text text-anchor="middle" x="276" y="-25" font-family="Helvetica,sans-Serif" font-size="10.00">UtilisateurDAO\hydrateAll</text>
</a>
</g>
</g>
<!-- Node1&#45;&gt;Node5 -->
<g id="edge4_Node000001_Node000005" class="edge">
<title>Node1&#45;&gt;Node5</title>
<g id="a_edge4_Node000001_Node000005"><a xlink:title=" ">
<path fill="none" stroke="#63b8ff" d="M399.27,-52.92C374.75,-47.82 346.28,-41.9 322.99,-37.06"/>
<polygon fill="#63b8ff" stroke="#63b8ff" points="398.66,-56.36 409.16,-54.97 400.08,-49.51 398.66,-56.36"/>
</a>
</g>
</g>
<!-- Node3 -->
<g id="Node000003" class="node">
<title>Node3</title>
<g id="a_Node000003"><a xlink:href="classUtilisateurDAO.html#aacee8c8f28355f2ec4d94c4679abadb7" target="_top" xlink:title="Récupère une liste d&#39;artistes populaires, en priorisant ceux du même genre que l&#39;utilisateur donné.">
<polygon fill="white" stroke="#666666" points="161,-102 0,-102 0,-83 161,-83 161,-102"/>
<text text-anchor="middle" x="80.5" y="-90" font-family="Helvetica,sans-Serif" font-size="10.00">UtilisateurDAO\findAllArtistes</text>
</a>
</g>
</g>
<!-- Node2&#45;&gt;Node3 -->
<g id="edge2_Node000002_Node000003" class="edge">
<title>Node2&#45;&gt;Node3</title>
<g id="a_edge2_Node000002_Node000003"><a xlink:title=" ">
<path fill="none" stroke="#63b8ff" d="M210.67,-98.51C194.87,-97.77 177.77,-96.98 161.33,-96.21"/>
<polygon fill="#63b8ff" stroke="#63b8ff" points="210.69,-102.01 220.84,-98.98 211.02,-95.02 210.69,-102.01"/>
</a>
</g>
</g>
<!-- Node5&#45;&gt;Node3 -->
<g id="edge6_Node000005_Node000003" class="edge">
<title>Node5&#45;&gt;Node3</title>
<g id="a_edge6_Node000005_Node000003"><a xlink:title=" ">
<path fill="none" stroke="#63b8ff" d="M218.08,-39.63C210.9,-41.66 203.72,-43.95 197,-46.5 180.08,-52.91 177.62,-58.35 161,-65.5 145.6,-72.13 128,-78.25 113.27,-82.98"/>
<polygon fill="#63b8ff" stroke="#63b8ff" points="219.07,-42.98 227.82,-37.01 217.25,-36.22 219.07,-42.98"/>
</a>
</g>
</g>
<!-- Node6 -->
<g id="Node000006" class="node">
<title>Node6</title>
<g id="a_Node000006"><a xlink:href="classUtilisateurDAO.html#ab94b718fb47dbde9cc7507526999dca4" target="_top" xlink:title="Récupère tous les utilisateurs de la base de données.">
<polygon fill="white" stroke="#666666" points="142,-56 19,-56 19,-37 142,-37 142,-56"/>
<text text-anchor="middle" x="80.5" y="-44" font-family="Helvetica,sans-Serif" font-size="10.00">UtilisateurDAO\findAll</text>
</a>
</g>
</g>
<!-- Node5&#45;&gt;Node6 -->
<g id="edge5_Node000005_Node000006" class="edge">
<title>Node5&#45;&gt;Node6</title>
<g id="a_edge5_Node000005_Node000006"><a xlink:title=" ">
<path fill="none" stroke="#63b8ff" d="M194.16,-35.44C176.74,-37.15 158.6,-38.93 142.11,-40.55"/>
<polygon fill="#63b8ff" stroke="#63b8ff" points="194.71,-38.9 204.32,-34.44 194.03,-31.93 194.71,-38.9"/>
</a>
</g>
</g>
<!-- Node7 -->
<g id="Node000007" class="node">
<title>Node7</title>
<g id="a_Node000007"><a xlink:href="classUtilisateurDAO.html#a53e0280dbd11e8bc64ca78062290028c" target="_top" xlink:title="Récupère les artistes en tendance sur la plateforme.">
<polygon fill="white" stroke="#666666" points="156.5,-19 4.5,-19 4.5,0 156.5,0 156.5,-19"/>
<text text-anchor="middle" x="80.5" y="-7" font-family="Helvetica,sans-Serif" font-size="10.00">UtilisateurDAO\findTrending</text>
</a>
</g>
</g>
<!-- Node5&#45;&gt;Node7 -->
<g id="edge7_Node000005_Node000007" class="edge">
<title>Node5&#45;&gt;Node7</title>
<g id="a_edge7_Node000005_Node000007"><a xlink:title=" ">
<path fill="none" stroke="#63b8ff" d="M194,-19.96C181.59,-18.81 168.82,-17.62 156.55,-16.48"/>
<polygon fill="#63b8ff" stroke="#63b8ff" points="194.04,-23.48 204.32,-20.93 194.69,-16.51 194.04,-23.48"/>
</a>
</g>
</g>
</g>
</svg>
