<?xml version="1.0" encoding="UTF-8" standalone="no"?>
<!DOCTYPE svg PUBLIC "-//W3C//DTD SVG 1.1//EN"
 "http://www.w3.org/Graphics/SVG/1.1/DTD/svg11.dtd">
<!-- Generated by graphviz version 2.43.0 (0)
 -->
<!-- Title: AlbumDAO\findByArtiste Pages: 1 -->
<svg width="463pt" height="27pt"
 viewBox="0.00 0.00 463.00 27.00" xmlns="http://www.w3.org/2000/svg" xmlns:xlink="http://www.w3.org/1999/xlink">
<g id="graph0" class="graph" transform="scale(1 1) rotate(0) translate(4 23)">
<title>AlbumDAO\findByArtiste</title>
<!-- Node1 -->
<g id="Node000001" class="node">
<title>Node1</title>
<g id="a_Node000001"><a xlink:title="Récupère les albums d&#39;un artiste en utilisant son pseudo.">
<polygon fill="#999999" stroke="#666666" points="136,-19 0,-19 0,0 136,0 136,-19"/>
<text text-anchor="middle" x="68" y="-7" font-family="Helvetica,sans-Serif" font-size="10.00">AlbumDAO\findByArtiste</text>
</a>
</g>
</g>
<!-- Node2 -->
<g id="Node000002" class="node">
<title>Node2</title>
<g id="a_Node000002"><a xlink:href="classAlbumDAO.html#a630a91c9a8e86ab85772dd0461c8f235" target="_top" xlink:title="Hydrate plusieurs albums à partir d&#39;un tableau de tableaux associatifs.">
<polygon fill="white" stroke="#666666" points="309,-19 172,-19 172,0 309,0 309,-19"/>
<text text-anchor="middle" x="240.5" y="-7" font-family="Helvetica,sans-Serif" font-size="10.00">AlbumDAO\hydrateMany</text>
</a>
</g>
</g>
<!-- Node1&#45;&gt;Node2 -->
<g id="edge1_Node000001_Node000002" class="edge">
<title>Node1&#45;&gt;Node2</title>
<g id="a_edge1_Node000001_Node000002"><a xlink:title=" ">
<path fill="none" stroke="#63b8ff" d="M136.39,-9.5C144.66,-9.5 153.16,-9.5 161.58,-9.5"/>
<polygon fill="#63b8ff" stroke="#63b8ff" points="161.77,-13 171.77,-9.5 161.77,-6 161.77,-13"/>
</a>
</g>
</g>
<!-- Node3 -->
<g id="Node000003" class="node">
<title>Node3</title>
<g id="a_Node000003"><a xlink:href="classAlbumDAO.html#a46b67cb5e8f7a16329720a866aff9e17" target="_top" xlink:title="Hydrate un album à partir d&#39;un tableau associatif.">
<polygon fill="white" stroke="#666666" points="455,-19 345,-19 345,0 455,0 455,-19"/>
<text text-anchor="middle" x="400" y="-7" font-family="Helvetica,sans-Serif" font-size="10.00">AlbumDAO\hydrate</text>
</a>
</g>
</g>
<!-- Node2&#45;&gt;Node3 -->
<g id="edge2_Node000002_Node000003" class="edge">
<title>Node2&#45;&gt;Node3</title>
<g id="a_edge2_Node000002_Node000003"><a xlink:title=" ">
<path fill="none" stroke="#63b8ff" d="M309.21,-9.5C317.63,-9.5 326.21,-9.5 334.58,-9.5"/>
<polygon fill="#63b8ff" stroke="#63b8ff" points="334.65,-13 344.65,-9.5 334.65,-6 334.65,-13"/>
</a>
</g>
</g>
</g>
</svg>
