<?xml version="1.0" encoding="UTF-8" standalone="no"?>
<!DOCTYPE svg PUBLIC "-//W3C//DTD SVG 1.1//EN"
 "http://www.w3.org/Graphics/SVG/1.1/DTD/svg11.dtd">
<!-- Generated by graphviz version 2.43.0 (0)
 -->
<!-- Title: Utilisateur Pages: 1 -->
<svg width="235pt" height="588pt"
 viewBox="0.00 0.00 234.50 588.00" xmlns="http://www.w3.org/2000/svg" xmlns:xlink="http://www.w3.org/1999/xlink">
<g id="graph0" class="graph" transform="scale(1 1) rotate(0) translate(4 584)">
<title>Utilisateur</title>
<!-- Node1 -->
<g id="Node000001" class="node">
<title>Node1</title>
<g id="a_Node000001"><a xlink:title=" ">
<polygon fill="#999999" stroke="transparent" points="188.5,-349 24.5,-349 24.5,0 188.5,0 188.5,-349"/>
<text text-anchor="start" x="80.5" y="-336.5" font-family="Helvetica,sans-Serif" font-size="10.00">Utilisateur</text>
<text text-anchor="start" x="31" y="-321.5" font-family="Helvetica,sans-Serif" font-size="10.00">&#45;</text>
<text text-anchor="start" x="41.5" y="-321.5" font-family="Helvetica,sans-Serif" font-size="10.00">$emailUtilisateur</text>
<text text-anchor="start" x="31" y="-306.5" font-family="Helvetica,sans-Serif" font-size="10.00">&#45;</text>
<text text-anchor="start" x="41.5" y="-306.5" font-family="Helvetica,sans-Serif" font-size="10.00">$nomUtilisateur</text>
<text text-anchor="start" x="31" y="-291.5" font-family="Helvetica,sans-Serif" font-size="10.00">&#45;</text>
<text text-anchor="start" x="41.5" y="-291.5" font-family="Helvetica,sans-Serif" font-size="10.00">$pseudoUtilisateur</text>
<text text-anchor="start" x="31" y="-276.5" font-family="Helvetica,sans-Serif" font-size="10.00">&#45;</text>
<text text-anchor="start" x="41.5" y="-276.5" font-family="Helvetica,sans-Serif" font-size="10.00">$motDePasseUtilisateur</text>
<text text-anchor="start" x="31" y="-261.5" font-family="Helvetica,sans-Serif" font-size="10.00">&#45;</text>
<text text-anchor="start" x="41.5" y="-261.5" font-family="Helvetica,sans-Serif" font-size="10.00">$dateDeNaissanceUtilisateur</text>
<text text-anchor="start" x="31" y="-246.5" font-family="Helvetica,sans-Serif" font-size="10.00">&#45;</text>
<text text-anchor="start" x="41.5" y="-246.5" font-family="Helvetica,sans-Serif" font-size="10.00">$dateInscriptionUtilisateur</text>
<text text-anchor="start" x="31" y="-231.5" font-family="Helvetica,sans-Serif" font-size="10.00">&#45;</text>
<text text-anchor="start" x="41.5" y="-231.5" font-family="Helvetica,sans-Serif" font-size="10.00">$statutUtilisateur</text>
<text text-anchor="start" x="31" y="-216.5" font-family="Helvetica,sans-Serif" font-size="10.00">&#45;</text>
<text text-anchor="start" x="41.5" y="-216.5" font-family="Helvetica,sans-Serif" font-size="10.00">$estAbonnee</text>
<text text-anchor="start" x="31" y="-201.5" font-family="Helvetica,sans-Serif" font-size="10.00">&#45;</text>
<text text-anchor="start" x="41.5" y="-201.5" font-family="Helvetica,sans-Serif" font-size="10.00">$descriptionUtilisateur</text>
<text text-anchor="start" x="31" y="-186.5" font-family="Helvetica,sans-Serif" font-size="10.00">&#45;</text>
<text text-anchor="start" x="41.5" y="-186.5" font-family="Helvetica,sans-Serif" font-size="10.00">$siteWebUtilisateur</text>
<text text-anchor="start" x="41.5" y="-171.5" font-family="Helvetica,sans-Serif" font-size="10.00">et 6 de plus...</text>
<text text-anchor="start" x="28.5" y="-156.5" font-family="Helvetica,sans-Serif" font-size="10.00">+</text>
<text text-anchor="start" x="41.5" y="-156.5" font-family="Helvetica,sans-Serif" font-size="10.00">__construct()</text>
<text text-anchor="start" x="28.5" y="-141.5" font-family="Helvetica,sans-Serif" font-size="10.00">+</text>
<text text-anchor="start" x="41.5" y="-141.5" font-family="Helvetica,sans-Serif" font-size="10.00">getGenreUtilisateur()</text>
<text text-anchor="start" x="28.5" y="-126.5" font-family="Helvetica,sans-Serif" font-size="10.00">+</text>
<text text-anchor="start" x="41.5" y="-126.5" font-family="Helvetica,sans-Serif" font-size="10.00">setGenreUtilisateur()</text>
<text text-anchor="start" x="28.5" y="-111.5" font-family="Helvetica,sans-Serif" font-size="10.00">+</text>
<text text-anchor="start" x="41.5" y="-111.5" font-family="Helvetica,sans-Serif" font-size="10.00">getNomUtilisateur()</text>
<text text-anchor="start" x="28.5" y="-96.5" font-family="Helvetica,sans-Serif" font-size="10.00">+</text>
<text text-anchor="start" x="41.5" y="-96.5" font-family="Helvetica,sans-Serif" font-size="10.00">setNomUtilisateur()</text>
<text text-anchor="start" x="28.5" y="-81.5" font-family="Helvetica,sans-Serif" font-size="10.00">+</text>
<text text-anchor="start" x="41.5" y="-81.5" font-family="Helvetica,sans-Serif" font-size="10.00">getEmailUtilisateur()</text>
<text text-anchor="start" x="28.5" y="-66.5" font-family="Helvetica,sans-Serif" font-size="10.00">+</text>
<text text-anchor="start" x="41.5" y="-66.5" font-family="Helvetica,sans-Serif" font-size="10.00">setEmailUtilisateur()</text>
<text text-anchor="start" x="28.5" y="-51.5" font-family="Helvetica,sans-Serif" font-size="10.00">+</text>
<text text-anchor="start" x="41.5" y="-51.5" font-family="Helvetica,sans-Serif" font-size="10.00">getPseudoUtilisateur()</text>
<text text-anchor="start" x="28.5" y="-36.5" font-family="Helvetica,sans-Serif" font-size="10.00">+</text>
<text text-anchor="start" x="41.5" y="-36.5" font-family="Helvetica,sans-Serif" font-size="10.00">setPseudoUtilisateur()</text>
<text text-anchor="start" x="28.5" y="-21.5" font-family="Helvetica,sans-Serif" font-size="10.00">+</text>
<text text-anchor="start" x="41.5" y="-21.5" font-family="Helvetica,sans-Serif" font-size="10.00">getMotDePasseUtilisateur()</text>
<text text-anchor="start" x="41.5" y="-6.5" font-family="Helvetica,sans-Serif" font-size="10.00">et 27 de plus...</text>
<polygon fill="#666666" stroke="#666666" points="24.5,-331.5 24.5,-331.5 188.5,-331.5 188.5,-331.5 24.5,-331.5"/>
<polygon fill="#666666" stroke="#666666" points="24.5,-166.5 24.5,-166.5 39.5,-166.5 39.5,-166.5 24.5,-166.5"/>
<polygon fill="#666666" stroke="#666666" points="39.5,-166.5 39.5,-166.5 188.5,-166.5 188.5,-166.5 39.5,-166.5"/>
<polygon fill="none" stroke="#666666" points="24.5,0 24.5,-349 188.5,-349 188.5,0 24.5,0"/>
</a>
</g>
</g>
<!-- Node2 -->
<g id="Node000002" class="node">
<title>Node2</title>
<g id="a_Node000002"><a xlink:href="classGenre.html" target="_top" xlink:title=" ">
<polygon fill="white" stroke="transparent" points="97,-550 0,-550 0,-426 97,-426 97,-550"/>
<text text-anchor="start" x="34" y="-538" font-family="Helvetica,sans-Serif" font-size="10.00">Genre</text>
<text text-anchor="start" x="7" y="-523" font-family="Helvetica,sans-Serif" font-size="10.00">&#45;</text>
<text text-anchor="start" x="17.5" y="-523" font-family="Helvetica,sans-Serif" font-size="10.00">$idGenre</text>
<text text-anchor="start" x="7" y="-508" font-family="Helvetica,sans-Serif" font-size="10.00">&#45;</text>
<text text-anchor="start" x="17.5" y="-508" font-family="Helvetica,sans-Serif" font-size="10.00">$nomGenre</text>
<text text-anchor="start" x="4.5" y="-493" font-family="Helvetica,sans-Serif" font-size="10.00">+</text>
<text text-anchor="start" x="17.5" y="-493" font-family="Helvetica,sans-Serif" font-size="10.00">__construct()</text>
<text text-anchor="start" x="4.5" y="-478" font-family="Helvetica,sans-Serif" font-size="10.00">+</text>
<text text-anchor="start" x="17.5" y="-478" font-family="Helvetica,sans-Serif" font-size="10.00">getIdGenre()</text>
<text text-anchor="start" x="4.5" y="-463" font-family="Helvetica,sans-Serif" font-size="10.00">+</text>
<text text-anchor="start" x="17.5" y="-463" font-family="Helvetica,sans-Serif" font-size="10.00">setIdGenre()</text>
<text text-anchor="start" x="4.5" y="-448" font-family="Helvetica,sans-Serif" font-size="10.00">+</text>
<text text-anchor="start" x="17.5" y="-448" font-family="Helvetica,sans-Serif" font-size="10.00">getNomGenre()</text>
<text text-anchor="start" x="4.5" y="-433" font-family="Helvetica,sans-Serif" font-size="10.00">+</text>
<text text-anchor="start" x="17.5" y="-433" font-family="Helvetica,sans-Serif" font-size="10.00">setNomGenre()</text>
<polygon fill="#666666" stroke="#666666" points="0.5,-533 0.5,-533 97.5,-533 97.5,-533 0.5,-533"/>
<polygon fill="#666666" stroke="#666666" points="0.5,-503 0.5,-503 15.5,-503 15.5,-503 0.5,-503"/>
<polygon fill="#666666" stroke="#666666" points="15.5,-503 15.5,-503 97.5,-503 97.5,-503 15.5,-503"/>
<polygon fill="none" stroke="#666666" points="0,-426 0,-550 97,-550 97,-426 0,-426"/>
</a>
</g>
</g>
<!-- Node2&#45;&gt;Node1 -->
<g id="edge1_Node000001_Node000002" class="edge">
<title>Node2&#45;&gt;Node1</title>
<g id="a_edge1_Node000001_Node000002"><a xlink:title=" ">
<path fill="none" stroke="#63b8ff" d="M46.37,-426C46.55,-407.01 47.61,-386.06 50.5,-367 50.79,-365.06 51.1,-363.12 51.42,-361.16"/>
<polygon fill="none" stroke="#63b8ff" points="51.47,-360.91 48.58,-354.3 53.57,-349.09 56.46,-355.7 51.47,-360.91"/>
</a>
</g>
<text text-anchor="middle" x="96.5" y="-370" font-family="Helvetica,sans-Serif" font-size="10.00" fill="grey"> &#45;$genreUtilisateur</text>
</g>
<!-- Node3 -->
<g id="Node000003" class="node">
<title>Node3</title>
<g id="a_Node000003"><a xlink:href="classRole.html" target="_top" xlink:title=" ">
<polygon fill="white" stroke="transparent" points="214,-580 115,-580 115,-396 214,-396 214,-580"/>
<text text-anchor="start" x="154" y="-568" font-family="Helvetica,sans-Serif" font-size="10.00">Role</text>
<text text-anchor="start" x="122" y="-553" font-family="Helvetica,sans-Serif" font-size="10.00">&#45;</text>
<text text-anchor="start" x="132.5" y="-553" font-family="Helvetica,sans-Serif" font-size="10.00">$idRole</text>
<text text-anchor="start" x="122" y="-538" font-family="Helvetica,sans-Serif" font-size="10.00">&#45;</text>
<text text-anchor="start" x="132.5" y="-538" font-family="Helvetica,sans-Serif" font-size="10.00">$typeRole</text>
<text text-anchor="start" x="122" y="-523" font-family="Helvetica,sans-Serif" font-size="10.00">&#45;</text>
<text text-anchor="start" x="132.5" y="-523" font-family="Helvetica,sans-Serif" font-size="10.00">$libelleRole</text>
<text text-anchor="start" x="119.5" y="-508" font-family="Helvetica,sans-Serif" font-size="10.00">+</text>
<text text-anchor="start" x="132.5" y="-508" font-family="Helvetica,sans-Serif" font-size="10.00">__construct()</text>
<text text-anchor="start" x="119.5" y="-493" font-family="Helvetica,sans-Serif" font-size="10.00">+</text>
<text text-anchor="start" x="132.5" y="-493" font-family="Helvetica,sans-Serif" font-size="10.00">getIdRole()</text>
<text text-anchor="start" x="119.5" y="-478" font-family="Helvetica,sans-Serif" font-size="10.00">+</text>
<text text-anchor="start" x="132.5" y="-478" font-family="Helvetica,sans-Serif" font-size="10.00">setIdRole()</text>
<text text-anchor="start" x="119.5" y="-463" font-family="Helvetica,sans-Serif" font-size="10.00">+</text>
<text text-anchor="start" x="132.5" y="-463" font-family="Helvetica,sans-Serif" font-size="10.00">getRoleEnum()</text>
<text text-anchor="start" x="119.5" y="-448" font-family="Helvetica,sans-Serif" font-size="10.00">+</text>
<text text-anchor="start" x="132.5" y="-448" font-family="Helvetica,sans-Serif" font-size="10.00">getTypeRole()</text>
<text text-anchor="start" x="119.5" y="-433" font-family="Helvetica,sans-Serif" font-size="10.00">+</text>
<text text-anchor="start" x="132.5" y="-433" font-family="Helvetica,sans-Serif" font-size="10.00">setTypeRole()</text>
<text text-anchor="start" x="119.5" y="-418" font-family="Helvetica,sans-Serif" font-size="10.00">+</text>
<text text-anchor="start" x="132.5" y="-418" font-family="Helvetica,sans-Serif" font-size="10.00">getLibelleRole()</text>
<text text-anchor="start" x="119.5" y="-403" font-family="Helvetica,sans-Serif" font-size="10.00">+</text>
<text text-anchor="start" x="132.5" y="-403" font-family="Helvetica,sans-Serif" font-size="10.00">setLibelleRole()</text>
<polygon fill="#666666" stroke="#666666" points="115.5,-563 115.5,-563 214.5,-563 214.5,-563 115.5,-563"/>
<polygon fill="#666666" stroke="#666666" points="115.5,-518 115.5,-518 130.5,-518 130.5,-518 115.5,-518"/>
<polygon fill="#666666" stroke="#666666" points="130.5,-518 130.5,-518 214.5,-518 214.5,-518 130.5,-518"/>
<polygon fill="none" stroke="#666666" points="115,-396 115,-580 214,-580 214,-396 115,-396"/>
</a>
</g>
</g>
<!-- Node3&#45;&gt;Node1 -->
<g id="edge2_Node000001_Node000003" class="edge">
<title>Node3&#45;&gt;Node1</title>
<g id="a_edge2_Node000001_Node000003"><a xlink:title=" ">
<path fill="none" stroke="#63b8ff" d="M147.85,-395.92C146.05,-386.16 144.24,-376.37 142.5,-367 142.12,-364.97 141.74,-362.93 141.36,-360.88"/>
<polygon fill="none" stroke="#63b8ff" points="141.35,-360.82 136.32,-355.66 139.16,-349.03 144.19,-354.19 141.35,-360.82"/>
</a>
</g>
<text text-anchor="middle" x="185" y="-370" font-family="Helvetica,sans-Serif" font-size="10.00" fill="grey"> &#45;$roleUtilisateur</text>
</g>
</g>
</svg>
