<?xml version="1.0" encoding="UTF-8" standalone="no"?>
<!DOCTYPE svg PUBLIC "-//W3C//DTD SVG 1.1//EN"
 "http://www.w3.org/Graphics/SVG/1.1/DTD/svg11.dtd">
<!-- Generated by graphviz version 2.43.0 (0)
 -->
<!-- Title: ControllerUtilisateur\inscription Pages: 1 -->
<svg width="597pt" height="141pt"
 viewBox="0.00 0.00 597.00 141.00" xmlns="http://www.w3.org/2000/svg" xmlns:xlink="http://www.w3.org/1999/xlink">
<g id="graph0" class="graph" transform="scale(1 1) rotate(0) translate(4 137)">
<title>ControllerUtilisateur\inscription</title>
<!-- Node1 -->
<g id="Node000001" class="node">
<title>Node1</title>
<g id="a_Node000001"><a xlink:title="Gère la création d&#39;un nouvel utilisateur par l&#39;administrateur.">
<polygon fill="#999999" stroke="#666666" points="116,-81.5 0,-81.5 0,-51.5 116,-51.5 116,-81.5"/>
<text text-anchor="start" x="8" y="-69.5" font-family="Helvetica,sans-Serif" font-size="10.00">ControllerUtilisateur</text>
<text text-anchor="middle" x="58" y="-58.5" font-family="Helvetica,sans-Serif" font-size="10.00">\inscription</text>
</a>
</g>
</g>
<!-- Node2 -->
<g id="Node000002" class="node">
<title>Node2</title>
<g id="a_Node000002"><a xlink:href="classController.html#aed88cab8d9c1a6735fd3aac0993e5021" target="_top" xlink:title="Récupère la connexion PDO.">
<polygon fill="white" stroke="#666666" points="266,-133 162,-133 162,-114 266,-114 266,-133"/>
<text text-anchor="middle" x="214" y="-121" font-family="Helvetica,sans-Serif" font-size="10.00">Controller\getPDO</text>
</a>
</g>
</g>
<!-- Node1&#45;&gt;Node2 -->
<g id="edge1_Node000001_Node000002" class="edge">
<title>Node1&#45;&gt;Node2</title>
<g id="a_edge1_Node000001_Node000002"><a xlink:title=" ">
<path fill="none" stroke="#63b8ff" d="M99.86,-81.63C124.04,-90.57 154.35,-101.79 177.51,-110.37"/>
<polygon fill="#63b8ff" stroke="#63b8ff" points="176.37,-113.67 186.96,-113.86 178.8,-107.11 176.37,-113.67"/>
</a>
</g>
</g>
<!-- Node3 -->
<g id="Node000003" class="node">
<title>Node3</title>
<g id="a_Node000003"><a xlink:href="classController.html#afd7d94db564ae6e196ac7ac0461e0989" target="_top" xlink:title="Récupère l&#39;environnement Twig.">
<polygon fill="white" stroke="#666666" points="427,-57 322,-57 322,-38 427,-38 427,-57"/>
<text text-anchor="middle" x="374.5" y="-45" font-family="Helvetica,sans-Serif" font-size="10.00">Controller\getTwig</text>
</a>
</g>
</g>
<!-- Node1&#45;&gt;Node3 -->
<g id="edge2_Node000001_Node000003" class="edge">
<title>Node1&#45;&gt;Node3</title>
<g id="a_edge2_Node000001_Node000003"><a xlink:title=" ">
<path fill="none" stroke="#63b8ff" d="M116.32,-63.04C171.53,-59.7 254.79,-54.67 311.52,-51.24"/>
<polygon fill="#63b8ff" stroke="#63b8ff" points="312.02,-54.72 321.79,-50.62 311.6,-47.73 312.02,-54.72"/>
</a>
</g>
</g>
<!-- Node4 -->
<g id="Node000004" class="node">
<title>Node4</title>
<g id="a_Node000004"><a xlink:href="classController.html#a56c96fd35f673f4d5084ef7ad0cd395c" target="_top" xlink:title="Redirige vers un contrôleur et une méthode donnés.">
<polygon fill="white" stroke="#666666" points="589,-57 473,-57 473,-38 589,-38 589,-57"/>
<text text-anchor="middle" x="531" y="-45" font-family="Helvetica,sans-Serif" font-size="10.00">Controller\redirectTo</text>
</a>
</g>
</g>
<!-- Node1&#45;&gt;Node4 -->
<g id="edge3_Node000001_Node000004" class="edge">
<title>Node1&#45;&gt;Node4</title>
<g id="a_edge3_Node000001_Node000004"><a xlink:title=" ">
<path fill="none" stroke="#63b8ff" d="M116.22,-70.51C190.46,-74.79 323.87,-79.36 437,-66.5 451.36,-64.87 466.8,-62.12 480.89,-59.22"/>
<polygon fill="#63b8ff" stroke="#63b8ff" points="481.83,-62.6 490.88,-57.09 480.37,-55.75 481.83,-62.6"/>
</a>
</g>
</g>
<!-- Node5 -->
<g id="Node000005" class="node">
<title>Node5</title>
<g id="a_Node000005"><a xlink:href="classController.html#a3c8ca59e4609ef5e27e868a91f5ce090" target="_top" xlink:title="Exige que l&#39;utilisateur ait un rôle spécifique.">
<polygon fill="white" stroke="#666666" points="276,-19 152,-19 152,0 276,0 276,-19"/>
<text text-anchor="middle" x="214" y="-7" font-family="Helvetica,sans-Serif" font-size="10.00">Controller\requireRole</text>
</a>
</g>
</g>
<!-- Node1&#45;&gt;Node5 -->
<g id="edge4_Node000001_Node000005" class="edge">
<title>Node1&#45;&gt;Node5</title>
<g id="a_edge4_Node000001_Node000005"><a xlink:title=" ">
<path fill="none" stroke="#63b8ff" d="M99.86,-51.37C124.04,-42.43 154.35,-31.21 177.51,-22.63"/>
<polygon fill="#63b8ff" stroke="#63b8ff" points="178.8,-25.89 186.96,-19.14 176.37,-19.33 178.8,-25.89"/>
</a>
</g>
</g>
<!-- Node5&#45;&gt;Node3 -->
<g id="edge5_Node000005_Node000003" class="edge">
<title>Node5&#45;&gt;Node3</title>
<g id="a_edge5_Node000005_Node000003"><a xlink:title=" ">
<path fill="none" stroke="#63b8ff" d="M255,-19.09C275.91,-24.1 301.71,-30.29 323.89,-35.61"/>
<polygon fill="#63b8ff" stroke="#63b8ff" points="323.25,-39.05 333.79,-37.98 324.88,-32.24 323.25,-39.05"/>
</a>
</g>
</g>
<!-- Node6 -->
<g id="Node000006" class="node">
<title>Node6</title>
<g id="a_Node000006"><a xlink:href="classController.html#a769e4e81d545b126413501bb3f3e77c3" target="_top" xlink:title="Exige que l&#39;utilisateur soit authentifié.">
<polygon fill="white" stroke="#666666" points="437,-20 312,-20 312,-1 437,-1 437,-20"/>
<text text-anchor="middle" x="374.5" y="-8" font-family="Helvetica,sans-Serif" font-size="10.00">Controller\requireAuth</text>
</a>
</g>
</g>
<!-- Node5&#45;&gt;Node6 -->
<g id="edge6_Node000005_Node000006" class="edge">
<title>Node5&#45;&gt;Node6</title>
<g id="a_edge6_Node000005_Node000006"><a xlink:title=" ">
<path fill="none" stroke="#63b8ff" d="M276.28,-9.89C284.58,-9.94 293.16,-9.99 301.62,-10.05"/>
<polygon fill="#63b8ff" stroke="#63b8ff" points="301.84,-13.55 311.86,-10.11 301.88,-6.55 301.84,-13.55"/>
</a>
</g>
</g>
<!-- Node6&#45;&gt;Node4 -->
<g id="edge7_Node000006_Node000004" class="edge">
<title>Node6&#45;&gt;Node4</title>
<g id="a_edge7_Node000006_Node000004"><a xlink:title=" ">
<path fill="none" stroke="#63b8ff" d="M415.29,-20.03C435.12,-24.78 459.31,-30.57 480.35,-35.61"/>
<polygon fill="#63b8ff" stroke="#63b8ff" points="479.54,-39.01 490.08,-37.94 481.17,-32.21 479.54,-39.01"/>
</a>
</g>
</g>
</g>
</svg>
