<?xml version="1.0" encoding="UTF-8" standalone="no"?>
<!DOCTYPE svg PUBLIC "-//W3C//DTD SVG 1.1//EN"
 "http://www.w3.org/Graphics/SVG/1.1/DTD/svg11.dtd">
<!-- Generated by graphviz version 2.43.0 (0)
 -->
<!-- Title: ControllerNewsletter\ajouter Pages: 1 -->
<svg width="278pt" height="138pt"
 viewBox="0.00 0.00 278.00 138.00" xmlns="http://www.w3.org/2000/svg" xmlns:xlink="http://www.w3.org/1999/xlink">

<svg id="main" version="1.1" xmlns="http://www.w3.org/2000/svg" xmlns:xlink="http://www.w3.org/1999/xlink" xml:space="preserve" onload="init(evt)">
<style type="text/css"><![CDATA[
.node, .edge {opacity: 0.7;}
.node.selected, .edge.selected {opacity: 1;}
.edge:hover path { stroke: red; }
.edge:hover polygon { stroke: red; fill: red; }
]]></style>
<script type="application/ecmascript" xlink:href="svg.min.js"/>
<svg id="graph" class="graph">
<g id="graph0" class="graph" transform="scale(1 1) rotate(0) translate(4 134)">
<title>ControllerNewsletter\ajouter</title>
<!-- Node1 -->
<g id="Node000001" class="node">
<title>Node1</title>
<g id="a_Node000001"><a xlink:title="Traite l&#39;inscription à la newsletter.">
<polygon fill="#999999" stroke="#666666" points="118,-79.5 0,-79.5 0,-49.5 118,-49.5 118,-79.5"/>
<text text-anchor="start" x="8" y="-67.5" font-family="Helvetica,sans-Serif" font-size="10.00">ControllerNewsletter</text>
<text text-anchor="middle" x="59" y="-56.5" font-family="Helvetica,sans-Serif" font-size="10.00">\ajouter</text>
</a>
</g>
</g>
<!-- Node2 -->
<g id="Node000002" class="node">
<title>Node2</title>
<g id="a_Node000002"><a xlink:href="classController.html#aed88cab8d9c1a6735fd3aac0993e5021" target="_top" xlink:title="Récupère la connexion PDO.">
<polygon fill="white" stroke="#666666" points="264,-130 160,-130 160,-111 264,-111 264,-130"/>
<text text-anchor="middle" x="212" y="-118" font-family="Helvetica,sans-Serif" font-size="10.00">Controller\getPDO</text>
</a>
</g>
</g>
<!-- Node1&#45;&gt;Node2 -->
<g id="edge1_Node000001_Node000002" class="edge">
<title>Node1&#45;&gt;Node2</title>
<g id="a_edge1_Node000001_Node000002"><a xlink:title=" ">
<path fill="none" stroke="#63b8ff" d="M95.46,-79.6C112.95,-86.85 134.45,-95.47 154,-102.5 158.94,-104.28 164.15,-106.05 169.34,-107.76"/>
<polygon fill="#63b8ff" stroke="#63b8ff" points="168.6,-111.2 179.2,-110.94 170.75,-104.54 168.6,-111.2"/>
</a>
</g>
</g>
<!-- Node3 -->
<g id="Node000003" class="node">
<title>Node3</title>
<g id="a_Node000003"><a xlink:href="classController.html#a0a0442c56d3fede8d9d7c2c24a04839c" target="_top" xlink:title="Récupère les données POST.">
<polygon fill="white" stroke="#666666" points="264,-93 160,-93 160,-74 264,-74 264,-93"/>
<text text-anchor="middle" x="212" y="-81" font-family="Helvetica,sans-Serif" font-size="10.00">Controller\getPost</text>
</a>
</g>
</g>
<!-- Node1&#45;&gt;Node3 -->
<g id="edge2_Node000001_Node000003" class="edge">
<title>Node1&#45;&gt;Node3</title>
<g id="a_edge2_Node000001_Node000003"><a xlink:title=" ">
<path fill="none" stroke="#63b8ff" d="M118.38,-71.85C128.59,-73.13 139.24,-74.47 149.53,-75.76"/>
<polygon fill="#63b8ff" stroke="#63b8ff" points="149.31,-79.26 159.66,-77.04 150.18,-72.32 149.31,-79.26"/>
</a>
</g>
</g>
<!-- Node4 -->
<g id="Node000004" class="node">
<title>Node4</title>
<g id="a_Node000004"><a xlink:href="classController.html#afd7d94db564ae6e196ac7ac0461e0989" target="_top" xlink:title="Récupère l&#39;environnement Twig.">
<polygon fill="white" stroke="#666666" points="264.5,-56 159.5,-56 159.5,-37 264.5,-37 264.5,-56"/>
<text text-anchor="middle" x="212" y="-44" font-family="Helvetica,sans-Serif" font-size="10.00">Controller\getTwig</text>
</a>
</g>
</g>
<!-- Node1&#45;&gt;Node4 -->
<g id="edge3_Node000001_Node000004" class="edge">
<title>Node1&#45;&gt;Node4</title>
<g id="a_edge3_Node000001_Node000004"><a xlink:title=" ">
<path fill="none" stroke="#63b8ff" d="M118.38,-57.54C128.46,-56.34 138.98,-55.09 149.15,-53.87"/>
<polygon fill="#63b8ff" stroke="#63b8ff" points="149.66,-57.34 159.18,-52.68 148.83,-50.39 149.66,-57.34"/>
</a>
</g>
</g>
<!-- Node5 -->
<g id="Node000005" class="node">
<title>Node5</title>
<g id="a_Node000005"><a xlink:href="classController.html#a56c96fd35f673f4d5084ef7ad0cd395c" target="_top" xlink:title="Redirige vers un contrôleur et une méthode donnés.">
<polygon fill="white" stroke="#666666" points="270,-19 154,-19 154,0 270,0 270,-19"/>
<text text-anchor="middle" x="212" y="-7" font-family="Helvetica,sans-Serif" font-size="10.00">Controller\redirectTo</text>
</a>
</g>
</g>
<!-- Node1&#45;&gt;Node5 -->
<g id="edge4_Node000001_Node000005" class="edge">
<title>Node1&#45;&gt;Node5</title>
<g id="a_edge4_Node000001_Node000005"><a xlink:title=" ">
<path fill="none" stroke="#63b8ff" d="M98.28,-49.4C115.28,-42.81 135.57,-35.1 154,-28.5 159.73,-26.45 165.8,-24.35 171.77,-22.33"/>
<polygon fill="#63b8ff" stroke="#63b8ff" points="173.26,-25.52 181.62,-19.02 171.03,-18.88 173.26,-25.52"/>
</a>
</g>
</g>
</g>
</svg>
</svg>

<style type='text/css'>
<![CDATA[
[data-mouse-over-selected='false'] { opacity: 0.7; }
[data-mouse-over-selected='true']  { opacity: 1.0; }
]]>
</style>
<script type="application/ecmascript"><![CDATA[
document.addEventListener('DOMContentLoaded', (event) => {
  highlightEdges();
  highlightAdjacentNodes();
});
]]></script>
</svg>
