<?xml version="1.0" encoding="UTF-8" standalone="no"?>
<!DOCTYPE svg PUBLIC "-//W3C//DTD SVG 1.1//EN"
 "http://www.w3.org/Graphics/SVG/1.1/DTD/svg11.dtd">
<!-- Generated by graphviz version 2.43.0 (0)
 -->
<!-- Title: Controller\requireAuth Pages: 1 -->
<!--zoomable 376 -->

<svg id="main" version="1.1" xmlns="http://www.w3.org/2000/svg" xmlns:xlink="http://www.w3.org/1999/xlink" xml:space="preserve" onload="init(evt)">
<style type="text/css"><![CDATA[
.node, .edge {opacity: 0.7;}
.node.selected, .edge.selected {opacity: 1;}
.edge:hover path { stroke: red; }
.edge:hover polygon { stroke: red; fill: red; }
]]></style>

<defs>
  <circle id="rim" cx="0" cy="0" r="7"/>
  <circle id="rim2" cx="0" cy="0" r="3.5"/>
  <g id="zoomPlus">
    <use xlink:href="#rim" fill="#404040"><set attributeName="fill" to="#808080" begin="zoomplus.mouseover" end="zoomplus.mouseout"/></use>
    <path d="M-4,0h8M0,-4v8" fill="none" stroke="white" stroke-width="1.5" pointer-events="none"/>
  </g>
  <g id="zoomMin">
    <use xlink:href="#rim" fill="#404040"><set attributeName="fill" to="#808080" begin="zoomminus.mouseover" end="zoomminus.mouseout"/></use>
    <path d="M-4,0h8" fill="none" stroke="white" stroke-width="1.5" pointer-events="none"/>
  </g>
  <g id="arrowUp" transform="translate(30 24)">
    <use xlink:href="#rim"/>
    <path pointer-events="none" fill="none" stroke="white" stroke-width="1.5" d="M0,-3.0v7 M-2.5,-0.5L0,-3.0L2.5,-0.5"/>
  </g>
  <g id="arrowRight" transform="rotate(90) translate(36 -43)">
    <use xlink:href="#rim"/>
    <path pointer-events="none" fill="none" stroke="white" stroke-width="1.5" d="M0,-3.0v7 M-2.5,-0.5L0,-3.0L2.5,-0.5"/>
  </g>
  <g id="arrowDown" transform="rotate(180) translate(-30 -48)">
    <use xlink:href="#rim"/>
    <path pointer-events="none" fill="none" stroke="white" stroke-width="1.5" d="M0,-3.0v7 M-2.5,-0.5L0,-3.0L2.5,-0.5"/>
  </g>
  <g id="arrowLeft" transform="rotate(270) translate(-36 17)">
    <use xlink:href="#rim"/>
    <path pointer-events="none" fill="none" stroke="white" stroke-width="1.5" d="M0,-3.0v7 M-2.5,-0.5L0,-3.0L2.5,-0.5"/>
  </g>
  <g id="resetDef">
    <use xlink:href="#rim2" fill="#404040"><set attributeName="fill" to="#808080" begin="reset.mouseover" end="reset.mouseout"/></use>
  </g>
</defs>
<script type="application/ecmascript">
var viewWidth = 530;
var viewHeight = 376;
var sectionId = 'dynsection-10';
</script>
<script type="application/ecmascript" xlink:href="svg.min.js"/>
<svg id="graph" class="graph">
<g id="viewport">
<title>Controller\requireAuth</title>
<!-- Node1 -->
<g id="Node000001" class="node">
<title>Node1</title>
<g id="a_Node000001"><a xlink:title="Exige que l&#39;utilisateur soit authentifié.">
<polygon fill="#999999" stroke="#666666" points="522,-254.5 397,-254.5 397,-235.5 522,-235.5 522,-254.5"/>
<text text-anchor="middle" x="459.5" y="-242.5" font-family="Helvetica,sans-Serif" font-size="10.00">Controller\requireAuth</text>
</a>
</g>
</g>
<!-- Node2 -->
<g id="Node000002" class="node">
<title>Node2</title>
<g id="a_Node000002"><a xlink:href="classControllerMusique.html#ab0c0de405d848d94f0293426acb27b1b" target="_top" xlink:title="Affiche la page &quot;Ma Musique&quot; de l&#39;utilisateur connecté.">
<polygon fill="white" stroke="#666666" points="354,-367.5 208,-367.5 208,-348.5 354,-348.5 354,-367.5"/>
<text text-anchor="middle" x="281" y="-355.5" font-family="Helvetica,sans-Serif" font-size="10.00">ControllerMusique\afficher</text>
</a>
</g>
</g>
<!-- Node1&#45;&gt;Node2 -->
<g id="edge1_Node000001_Node000002" class="edge">
<title>Node1&#45;&gt;Node2</title>
<g id="a_edge1_Node000001_Node000002"><a xlink:title=" ">
<path fill="none" stroke="#63b8ff" d="M445.17,-262.67C428.06,-284.06 396.33,-319.62 361,-339 353.95,-342.87 346.12,-345.95 338.21,-348.41"/>
<polygon fill="#63b8ff" stroke="#63b8ff" points="447.98,-264.75 451.38,-254.71 442.47,-260.44 447.98,-264.75"/>
</a>
</g>
</g>
<!-- Node3 -->
<g id="Node000003" class="node">
<title>Node3</title>
<g id="a_Node000003"><a xlink:href="classControllerPlaylist.html#ad828a0ec70e2f2bba065f0e640519e4c" target="_top" xlink:title="Affiche une playlist avec ses chansons.">
<polygon fill="white" stroke="#666666" points="331.5,-330 230.5,-330 230.5,-300 331.5,-300 331.5,-330"/>
<text text-anchor="start" x="238.5" y="-318" font-family="Helvetica,sans-Serif" font-size="10.00">ControllerPlaylist</text>
<text text-anchor="middle" x="281" y="-307" font-family="Helvetica,sans-Serif" font-size="10.00">\afficher</text>
</a>
</g>
</g>
<!-- Node1&#45;&gt;Node3 -->
<g id="edge2_Node000001_Node000003" class="edge">
<title>Node1&#45;&gt;Node3</title>
<g id="a_edge2_Node000001_Node000003"><a xlink:title=" ">
<path fill="none" stroke="#63b8ff" d="M431.06,-259.27C411.77,-268.96 385.2,-281.67 361,-291 351.64,-294.61 341.49,-298.04 331.68,-301.12"/>
<polygon fill="#63b8ff" stroke="#63b8ff" points="432.83,-262.29 440.16,-254.64 429.66,-256.05 432.83,-262.29"/>
</a>
</g>
</g>
<!-- Node4 -->
<g id="Node000004" class="node">
<title>Node4</title>
<g id="a_Node000004"><a xlink:href="classControllerUtilisateur.html#ae68e0eb8063f09dbf9f36e2ea994f311" target="_top" xlink:title="Affiche la page des chansons aimées (likées) par l&#39;utilisateur connecté.">
<polygon fill="white" stroke="#666666" points="339,-282 223,-282 223,-252 339,-252 339,-282"/>
<text text-anchor="start" x="231" y="-270" font-family="Helvetica,sans-Serif" font-size="10.00">ControllerUtilisateur</text>
<text text-anchor="middle" x="281" y="-259" font-family="Helvetica,sans-Serif" font-size="10.00">\afficherMesLikes</text>
</a>
</g>
</g>
<!-- Node1&#45;&gt;Node4 -->
<g id="edge3_Node000001_Node000004" class="edge">
<title>Node1&#45;&gt;Node4</title>
<g id="a_edge3_Node000001_Node000004"><a xlink:title=" ">
<path fill="none" stroke="#63b8ff" d="M386.55,-253.97C370.8,-255.93 354.34,-257.98 339.26,-259.86"/>
<polygon fill="#63b8ff" stroke="#63b8ff" points="387.28,-257.4 396.77,-252.69 386.41,-250.46 387.28,-257.4"/>
</a>
</g>
</g>
<!-- Node5 -->
<g id="Node000005" class="node">
<title>Node5</title>
<g id="a_Node000005"><a xlink:href="classController.html#a75d9e91b7784fcc5c826e5f9fd79956d" target="_top" xlink:title="Exige que l&#39;utilisateur ait un des rôles spécifiés.">
<polygon fill="white" stroke="#666666" points="352.5,-233.5 209.5,-233.5 209.5,-214.5 352.5,-214.5 352.5,-233.5"/>
<text text-anchor="middle" x="281" y="-221.5" font-family="Helvetica,sans-Serif" font-size="10.00">Controller\requireAnyRole</text>
</a>
</g>
</g>
<!-- Node1&#45;&gt;Node5 -->
<g id="edge4_Node000001_Node000005" class="edge">
<title>Node1&#45;&gt;Node5</title>
<g id="a_edge4_Node000001_Node000005"><a xlink:title=" ">
<path fill="none" stroke="#63b8ff" d="M386.63,-236.45C375.45,-235.12 363.91,-233.75 352.76,-232.42"/>
<polygon fill="#63b8ff" stroke="#63b8ff" points="386.43,-239.95 396.77,-237.66 387.25,-233 386.43,-239.95"/>
</a>
</g>
</g>
<!-- Node6 -->
<g id="Node000006" class="node">
<title>Node6</title>
<g id="a_Node000006"><a xlink:href="classController.html#a3c8ca59e4609ef5e27e868a91f5ce090" target="_top" xlink:title="Exige que l&#39;utilisateur ait un rôle spécifique.">
<polygon fill="white" stroke="#666666" points="343,-196.5 219,-196.5 219,-177.5 343,-177.5 343,-196.5"/>
<text text-anchor="middle" x="281" y="-184.5" font-family="Helvetica,sans-Serif" font-size="10.00">Controller\requireRole</text>
</a>
</g>
</g>
<!-- Node1&#45;&gt;Node6 -->
<g id="edge5_Node000001_Node000006" class="edge">
<title>Node1&#45;&gt;Node6</title>
<g id="a_edge5_Node000001_Node000006"><a xlink:title=" ">
<path fill="none" stroke="#63b8ff" d="M427.8,-231.39C408.81,-223.31 383.78,-213.25 361,-206 349.98,-202.49 337.91,-199.28 326.6,-196.54"/>
<polygon fill="#63b8ff" stroke="#63b8ff" points="426.57,-234.68 437.14,-235.42 429.34,-228.25 426.57,-234.68"/>
</a>
</g>
</g>
<!-- Node16 -->
<g id="Node000016" class="node">
<title>Node16</title>
<g id="a_Node000016"><a xlink:href="classControllerChanson.html#a577d75f91bfaf5101534761c8a9cfd73" target="_top" xlink:title="Bascule l&#39;état &quot;j&#39;aime&quot; d&#39;une chanson pour l&#39;utilisateur connecté.">
<polygon fill="white" stroke="#666666" points="361,-159.5 201,-159.5 201,-140.5 361,-140.5 361,-159.5"/>
<text text-anchor="middle" x="281" y="-147.5" font-family="Helvetica,sans-Serif" font-size="10.00">ControllerChanson\toggleLike</text>
</a>
</g>
</g>
<!-- Node1&#45;&gt;Node16 -->
<g id="edge15_Node000001_Node000016" class="edge">
<title>Node1&#45;&gt;Node16</title>
<g id="a_edge15_Node000001_Node000016"><a xlink:title=" ">
<path fill="none" stroke="#63b8ff" d="M441.73,-228.22C423.44,-210.86 392.52,-184.19 361,-169 352.99,-165.14 344.14,-162.03 335.35,-159.54"/>
<polygon fill="#63b8ff" stroke="#63b8ff" points="439.59,-231.02 449.21,-235.47 444.47,-226 439.59,-231.02"/>
</a>
</g>
</g>
<!-- Node7 -->
<g id="Node000007" class="node">
<title>Node7</title>
<g id="a_Node000007"><a xlink:href="classControllerAdmin.html#a112f35682ab86e6256d923e59b49a125" target="_top" xlink:title="Affiche le tableau de bord de l&#39;administrateur.">
<polygon fill="white" stroke="#666666" points="150.5,-362.5 14.5,-362.5 14.5,-343.5 150.5,-343.5 150.5,-362.5"/>
<text text-anchor="middle" x="82.5" y="-350.5" font-family="Helvetica,sans-Serif" font-size="10.00">ControllerAdmin\afficher</text>
</a>
</g>
</g>
<!-- Node6&#45;&gt;Node7 -->
<g id="edge6_Node000006_Node000007" class="edge">
<title>Node6&#45;&gt;Node7</title>
<g id="a_edge6_Node000006_Node000007"><a xlink:title=" ">
<path fill="none" stroke="#63b8ff" d="M209.6,-199.34C206.51,-201.27 203.62,-203.48 201,-206 158.42,-246.98 207.72,-293.17 165,-334 160.8,-338.02 155.92,-341.24 150.68,-343.82"/>
<polygon fill="#63b8ff" stroke="#63b8ff" points="211.47,-202.32 218.73,-194.61 208.25,-196.1 211.47,-202.32"/>
</a>
</g>
</g>
<!-- Node8 -->
<g id="Node000008" class="node">
<title>Node8</title>
<g id="a_Node000008"><a xlink:href="classControllerAlbum.html#a6302c1b131eead7adc950353217b4a8c" target="_top" xlink:title="Affiche le formulaire d&#39;ajout d&#39;album.">
<polygon fill="white" stroke="#666666" points="150.5,-325 14.5,-325 14.5,-295 150.5,-295 150.5,-325"/>
<text text-anchor="start" x="22.5" y="-313" font-family="Helvetica,sans-Serif" font-size="10.00">ControllerAlbum\afficher</text>
<text text-anchor="middle" x="82.5" y="-302" font-family="Helvetica,sans-Serif" font-size="10.00">FormulaireAjout</text>
</a>
</g>
</g>
<!-- Node6&#45;&gt;Node8 -->
<g id="edge7_Node000006_Node000008" class="edge">
<title>Node6&#45;&gt;Node8</title>
<g id="a_edge7_Node000006_Node000008"><a xlink:title=" ">
<path fill="none" stroke="#63b8ff" d="M209.38,-200.21C206.42,-201.92 203.61,-203.84 201,-206 170.98,-230.88 194.39,-260.37 165,-286 160.66,-289.78 155.76,-292.97 150.56,-295.65"/>
<polygon fill="#63b8ff" stroke="#63b8ff" points="211.17,-203.23 218.62,-195.69 208.09,-196.94 211.17,-203.23"/>
</a>
</g>
</g>
<!-- Node9 -->
<g id="Node000009" class="node">
<title>Node9</title>
<g id="a_Node000009"><a xlink:href="classControllerAlbum.html#a2fb955c9315c73e221f81baff694f4d2" target="_top" xlink:title="Traite l&#39;ajout d&#39;un nouvel album ou l&#39;ajout de chansons à un album existant.">
<polygon fill="white" stroke="#666666" points="165,-276.5 0,-276.5 0,-257.5 165,-257.5 165,-276.5"/>
<text text-anchor="middle" x="82.5" y="-264.5" font-family="Helvetica,sans-Serif" font-size="10.00">ControllerAlbum\ajouterAlbum</text>
</a>
</g>
</g>
<!-- Node6&#45;&gt;Node9 -->
<g id="edge8_Node000006_Node000009" class="edge">
<title>Node6&#45;&gt;Node9</title>
<g id="a_edge8_Node000006_Node000009"><a xlink:title=" ">
<path fill="none" stroke="#63b8ff" d="M211.79,-200.34C208.04,-202.01 204.41,-203.89 201,-206 179.82,-219.13 186.31,-236.07 165,-249 159.43,-252.38 153.29,-255.13 146.97,-257.37"/>
<polygon fill="#63b8ff" stroke="#63b8ff" points="213.3,-203.51 221.33,-196.6 210.74,-196.99 213.3,-203.51"/>
</a>
</g>
</g>
<!-- Node10 -->
<g id="Node000010" class="node">
<title>Node10</title>
<g id="a_Node000010"><a xlink:href="classControllerAdmin.html#a18818beb5443fb827766f982ff9b4762" target="_top" xlink:title="Consulte les détails d&#39;un utilisateur.">
<polygon fill="white" stroke="#666666" points="154.5,-239.5 10.5,-239.5 10.5,-220.5 154.5,-220.5 154.5,-239.5"/>
<text text-anchor="middle" x="82.5" y="-227.5" font-family="Helvetica,sans-Serif" font-size="10.00">ControllerAdmin\consulter</text>
</a>
</g>
</g>
<!-- Node6&#45;&gt;Node10 -->
<g id="edge9_Node000006_Node000010" class="edge">
<title>Node6&#45;&gt;Node10</title>
<g id="a_edge9_Node000006_Node000010"><a xlink:title=" ">
<path fill="none" stroke="#63b8ff" d="M226.54,-198.7C195.29,-205.54 156.34,-214.06 126.99,-220.48"/>
<polygon fill="#63b8ff" stroke="#63b8ff" points="227.37,-202.1 236.39,-196.54 225.87,-195.26 227.37,-202.1"/>
</a>
</g>
</g>
<!-- Node11 -->
<g id="Node000011" class="node">
<title>Node11</title>
<g id="a_Node000011"><a xlink:href="classControllerUtilisateur.html#abbfd16bafa283856d06476b006239871" target="_top" xlink:title="Gère la création d&#39;un nouvel utilisateur par l&#39;administrateur.">
<polygon fill="white" stroke="#666666" points="140.5,-202 24.5,-202 24.5,-172 140.5,-172 140.5,-202"/>
<text text-anchor="start" x="32.5" y="-190" font-family="Helvetica,sans-Serif" font-size="10.00">ControllerUtilisateur</text>
<text text-anchor="middle" x="82.5" y="-179" font-family="Helvetica,sans-Serif" font-size="10.00">\inscription</text>
</a>
</g>
</g>
<!-- Node6&#45;&gt;Node11 -->
<g id="edge10_Node000006_Node000011" class="edge">
<title>Node6&#45;&gt;Node11</title>
<g id="a_edge10_Node000006_Node000011"><a xlink:title=" ">
<path fill="none" stroke="#63b8ff" d="M208.76,-187C186.32,-187 161.85,-187 140.54,-187"/>
<polygon fill="#63b8ff" stroke="#63b8ff" points="208.9,-190.5 218.9,-187 208.9,-183.5 208.9,-190.5"/>
</a>
</g>
</g>
<!-- Node12 -->
<g id="Node000012" class="node">
<title>Node12</title>
<g id="a_Node000012"><a xlink:href="classControllerAdmin.html#a65506a5e6ff98256bd5c39307db816f0" target="_top" xlink:title="Modifie un utilisateur existant.">
<polygon fill="white" stroke="#666666" points="152.5,-153.5 12.5,-153.5 12.5,-134.5 152.5,-134.5 152.5,-153.5"/>
<text text-anchor="middle" x="82.5" y="-141.5" font-family="Helvetica,sans-Serif" font-size="10.00">ControllerAdmin\modifier</text>
</a>
</g>
</g>
<!-- Node6&#45;&gt;Node12 -->
<g id="edge11_Node000006_Node000012" class="edge">
<title>Node6&#45;&gt;Node12</title>
<g id="a_edge11_Node000006_Node000012"><a xlink:title=" ">
<path fill="none" stroke="#63b8ff" d="M226.54,-175.3C195.29,-168.46 156.34,-159.94 126.99,-153.52"/>
<polygon fill="#63b8ff" stroke="#63b8ff" points="225.87,-178.74 236.39,-177.46 227.37,-171.9 225.87,-178.74"/>
</a>
</g>
</g>
<!-- Node13 -->
<g id="Node000013" class="node">
<title>Node13</title>
<g id="a_Node000013"><a xlink:href="classControllerAlbum.html#a39a4e1d517fac239f47665a9e8110cdd" target="_top" xlink:title="Modifie les informations d&#39;une chanson.">
<polygon fill="white" stroke="#666666" points="152.5,-116 12.5,-116 12.5,-86 152.5,-86 152.5,-116"/>
<text text-anchor="start" x="20.5" y="-104" font-family="Helvetica,sans-Serif" font-size="10.00">ControllerAlbum\modifier</text>
<text text-anchor="middle" x="82.5" y="-93" font-family="Helvetica,sans-Serif" font-size="10.00">Chanson</text>
</a>
</g>
</g>
<!-- Node6&#45;&gt;Node13 -->
<g id="edge12_Node000006_Node000013" class="edge">
<title>Node6&#45;&gt;Node13</title>
<g id="a_edge12_Node000006_Node000013"><a xlink:title=" ">
<path fill="none" stroke="#63b8ff" d="M209.85,-173.7C206.79,-172.28 203.82,-170.72 201,-169 179.74,-156 185.77,-139.78 165,-126 159.2,-122.15 152.79,-118.88 146.18,-116.09"/>
<polygon fill="#63b8ff" stroke="#63b8ff" points="208.71,-177.01 219.29,-177.49 211.32,-170.51 208.71,-177.01"/>
</a>
</g>
</g>
<!-- Node14 -->
<g id="Node000014" class="node">
<title>Node14</title>
<g id="a_Node000014"><a xlink:href="classControllerAdmin.html#a21a27101a5c5e6a978ec048813cbbcf1" target="_top" xlink:title="Supprime un utilisateur spécifique.">
<polygon fill="white" stroke="#666666" points="157,-67.5 8,-67.5 8,-48.5 157,-48.5 157,-67.5"/>
<text text-anchor="middle" x="82.5" y="-55.5" font-family="Helvetica,sans-Serif" font-size="10.00">ControllerAdmin\supprimer</text>
</a>
</g>
</g>
<!-- Node6&#45;&gt;Node14 -->
<g id="edge13_Node000006_Node000014" class="edge">
<title>Node6&#45;&gt;Node14</title>
<g id="a_edge13_Node000006_Node000014"><a xlink:title=" ">
<path fill="none" stroke="#63b8ff" d="M209.72,-175.14C206.62,-173.36 203.69,-171.32 201,-169 167.73,-140.35 198.2,-105.73 165,-77 160.61,-73.2 155.6,-70.12 150.27,-67.63"/>
<polygon fill="#63b8ff" stroke="#63b8ff" points="208.29,-178.34 218.82,-179.55 211.34,-172.04 208.29,-178.34"/>
</a>
</g>
</g>
<!-- Node15 -->
<g id="Node000015" class="node">
<title>Node15</title>
<g id="a_Node000015"><a xlink:href="classControllerAlbum.html#aad96094767cc4b5a0520a29b22f7c77d" target="_top" xlink:title="Supprime une chanson (action réservée à l&#39;artiste propriétaire).">
<polygon fill="white" stroke="#666666" points="157,-30 8,-30 8,0 157,0 157,-30"/>
<text text-anchor="start" x="16" y="-18" font-family="Helvetica,sans-Serif" font-size="10.00">ControllerAlbum\supprimer</text>
<text text-anchor="middle" x="82.5" y="-7" font-family="Helvetica,sans-Serif" font-size="10.00">Chanson</text>
</a>
</g>
</g>
<!-- Node6&#45;&gt;Node15 -->
<g id="edge14_Node000006_Node000015" class="edge">
<title>Node6&#45;&gt;Node15</title>
<g id="a_edge14_Node000006_Node000015"><a xlink:title=" ">
<path fill="none" stroke="#63b8ff" d="M209.61,-175.58C206.52,-173.68 203.63,-171.5 201,-169 157.91,-127.93 206.55,-82.62 165,-40 161.28,-36.18 157,-32.95 152.38,-30.2"/>
<polygon fill="#63b8ff" stroke="#63b8ff" points="208.25,-178.82 218.75,-180.22 211.42,-172.57 208.25,-178.82"/>
</a>
</g>
</g>
</g>
</svg>

<g id="navigator" transform="translate(0 0)" fill="#404254">
  <rect fill="#f2f5e9" fill-opacity="0.5" stroke="#606060" stroke-width=".5" x="0" y="0" width="60" height="60"/>
  <use id="zoomplus" xlink:href="#zoomPlus" x="17" y="9" onmousedown="handleZoom(evt,'in')"/>
  <use id="zoomminus" xlink:href="#zoomMin" x="42" y="9" onmousedown="handleZoom(evt,'out')"/>
  <use id="reset" xlink:href="#resetDef" x="30" y="36" onmousedown="handleReset()"/>
   <use id="arrowup" xlink:href="#arrowUp" x="0" y="0" onmousedown="handlePan(0,-1)"/>
  <use id="arrowright" xlink:href="#arrowRight" x="0" y="0" onmousedown="handlePan(1,0)"/>
  <use id="arrowdown" xlink:href="#arrowDown" x="0" y="0" onmousedown="handlePan(0,1)"/>
  <use id="arrowleft" xlink:href="#arrowLeft" x="0" y="0" onmousedown="handlePan(-1,0)"/>
</g>
<svg viewBox="0 0 15 15" width="100%" height="30px" preserveAspectRatio="xMaxYMin meet">
 <g id="arrow_out" transform="scale(0.3 0.3)">
  <a xlink:href="classController_a769e4e81d545b126413501bb3f3e77c3_icgraph_org.svg" target="_base">
   <rect id="button" ry="5" rx="5" y="6" x="6" height="38" width="38"
        fill="#f2f5e9" fill-opacity="0.5" stroke="#606060" stroke-width="1.0"/>
   <path id="arrow"
     d="M 11.500037,31.436501 C 11.940474,20.09759 22.043105,11.32322 32.158766,21.979434 L 37.068811,17.246167 C 37.068811,17.246167 37.088388,32 37.088388,32 L 22.160133,31.978069 C 22.160133,31.978069 26.997745,27.140456 26.997745,27.140456 C 18.528582,18.264221 13.291696,25.230495 11.500037,31.436501 z"
     style="fill:#404040;"/>
  </a>
 </g>
</svg>

<style type='text/css'>
<![CDATA[
[data-mouse-over-selected='false'] { opacity: 0.7; }
[data-mouse-over-selected='true']  { opacity: 1.0; }
]]>
</style>
<script type="application/ecmascript"><![CDATA[
document.addEventListener('DOMContentLoaded', (event) => {
  highlightEdges();
  highlightAdjacentNodes();
});
]]></script>
</svg>
