<?xml version="1.0" encoding="UTF-8" standalone="no"?>
<!DOCTYPE svg PUBLIC "-//W3C//DTD SVG 1.1//EN"
 "http://www.w3.org/Graphics/SVG/1.1/DTD/svg11.dtd">
<!-- Generated by graphviz version 2.43.0 (0)
 -->
<!-- Title: ControllerAlbum Pages: 1 -->
<svg width="152pt" height="562pt"
 viewBox="0.00 0.00 152.00 562.00" xmlns="http://www.w3.org/2000/svg" xmlns:xlink="http://www.w3.org/1999/xlink">
<g id="graph0" class="graph" transform="scale(1 1) rotate(0) translate(4 558)">
<title>ControllerAlbum</title>
<!-- Node1 -->
<g id="Node000001" class="node">
<title>Node1</title>
<g id="a_Node000001"><a xlink:title="Contrôleur dédié à la gestion des albums.">
<polygon fill="#999999" stroke="transparent" points="144,-169 0,-169 0,0 144,0 144,-169"/>
<text text-anchor="start" x="32" y="-156.5" font-family="Helvetica,sans-Serif" font-size="10.00">ControllerAlbum</text>
<text text-anchor="start" x="70" y="-141.5" font-family="Helvetica,sans-Serif" font-size="10.00"> </text>
<text text-anchor="start" x="4" y="-126.5" font-family="Helvetica,sans-Serif" font-size="10.00">+</text>
<text text-anchor="start" x="17" y="-126.5" font-family="Helvetica,sans-Serif" font-size="10.00">__construct()</text>
<text text-anchor="start" x="4" y="-111.5" font-family="Helvetica,sans-Serif" font-size="10.00">+</text>
<text text-anchor="start" x="17" y="-111.5" font-family="Helvetica,sans-Serif" font-size="10.00">afficher()</text>
<text text-anchor="start" x="4" y="-96.5" font-family="Helvetica,sans-Serif" font-size="10.00">+</text>
<text text-anchor="start" x="17" y="-96.5" font-family="Helvetica,sans-Serif" font-size="10.00">lister()</text>
<text text-anchor="start" x="4" y="-81.5" font-family="Helvetica,sans-Serif" font-size="10.00">+</text>
<text text-anchor="start" x="17" y="-81.5" font-family="Helvetica,sans-Serif" font-size="10.00">listerTableau()</text>
<text text-anchor="start" x="4" y="-66.5" font-family="Helvetica,sans-Serif" font-size="10.00">+</text>
<text text-anchor="start" x="17" y="-66.5" font-family="Helvetica,sans-Serif" font-size="10.00">afficherFormulaireAjout()</text>
<text text-anchor="start" x="4" y="-51.5" font-family="Helvetica,sans-Serif" font-size="10.00">+</text>
<text text-anchor="start" x="17" y="-51.5" font-family="Helvetica,sans-Serif" font-size="10.00">ajouterAlbum()</text>
<text text-anchor="start" x="4" y="-36.5" font-family="Helvetica,sans-Serif" font-size="10.00">+</text>
<text text-anchor="start" x="17" y="-36.5" font-family="Helvetica,sans-Serif" font-size="10.00">afficherDetails()</text>
<text text-anchor="start" x="4" y="-21.5" font-family="Helvetica,sans-Serif" font-size="10.00">+</text>
<text text-anchor="start" x="17" y="-21.5" font-family="Helvetica,sans-Serif" font-size="10.00">modifierChanson()</text>
<text text-anchor="start" x="4" y="-6.5" font-family="Helvetica,sans-Serif" font-size="10.00">+</text>
<text text-anchor="start" x="17" y="-6.5" font-family="Helvetica,sans-Serif" font-size="10.00">supprimerChanson()</text>
<polygon fill="#666666" stroke="#666666" points="0,-151.5 0,-151.5 144,-151.5 144,-151.5 0,-151.5"/>
<polygon fill="#666666" stroke="#666666" points="0,-136.5 0,-136.5 144,-136.5 144,-136.5 0,-136.5"/>
<polygon fill="none" stroke="#666666" points="0,0 0,-169 144,-169 144,0 0,0"/>
</a>
</g>
</g>
<!-- Node2 -->
<g id="Node000002" class="node">
<title>Node2</title>
<g id="a_Node000002"><a xlink:href="classController.html" target="_top" xlink:title="Classe de base pour tous les contrôleurs de l&#39;application.">
<polygon fill="white" stroke="transparent" points="124,-554 20,-554 20,-205 124,-205 124,-554"/>
<text text-anchor="start" x="47.5" y="-541.5" font-family="Helvetica,sans-Serif" font-size="10.00">Controller</text>
<text text-anchor="start" x="26.5" y="-526.5" font-family="Helvetica,sans-Serif" font-size="10.00">&#45;</text>
<text text-anchor="start" x="37" y="-526.5" font-family="Helvetica,sans-Serif" font-size="10.00">$pdo</text>
<text text-anchor="start" x="26.5" y="-511.5" font-family="Helvetica,sans-Serif" font-size="10.00">&#45;</text>
<text text-anchor="start" x="37" y="-511.5" font-family="Helvetica,sans-Serif" font-size="10.00">$loader</text>
<text text-anchor="start" x="26.5" y="-496.5" font-family="Helvetica,sans-Serif" font-size="10.00">&#45;</text>
<text text-anchor="start" x="37" y="-496.5" font-family="Helvetica,sans-Serif" font-size="10.00">$twig</text>
<text text-anchor="start" x="26.5" y="-481.5" font-family="Helvetica,sans-Serif" font-size="10.00">&#45;</text>
<text text-anchor="start" x="37" y="-481.5" font-family="Helvetica,sans-Serif" font-size="10.00">$get</text>
<text text-anchor="start" x="26.5" y="-466.5" font-family="Helvetica,sans-Serif" font-size="10.00">&#45;</text>
<text text-anchor="start" x="37" y="-466.5" font-family="Helvetica,sans-Serif" font-size="10.00">$post</text>
<text text-anchor="start" x="24" y="-451.5" font-family="Helvetica,sans-Serif" font-size="10.00">+</text>
<text text-anchor="start" x="37" y="-451.5" font-family="Helvetica,sans-Serif" font-size="10.00">__construct()</text>
<text text-anchor="start" x="24" y="-436.5" font-family="Helvetica,sans-Serif" font-size="10.00">+</text>
<text text-anchor="start" x="37" y="-436.5" font-family="Helvetica,sans-Serif" font-size="10.00">call()</text>
<text text-anchor="start" x="24" y="-421.5" font-family="Helvetica,sans-Serif" font-size="10.00">+</text>
<text text-anchor="start" x="37" y="-421.5" font-family="Helvetica,sans-Serif" font-size="10.00">getPDO()</text>
<text text-anchor="start" x="24" y="-406.5" font-family="Helvetica,sans-Serif" font-size="10.00">+</text>
<text text-anchor="start" x="37" y="-406.5" font-family="Helvetica,sans-Serif" font-size="10.00">setPDO()</text>
<text text-anchor="start" x="24" y="-391.5" font-family="Helvetica,sans-Serif" font-size="10.00">+</text>
<text text-anchor="start" x="37" y="-391.5" font-family="Helvetica,sans-Serif" font-size="10.00">getLoader()</text>
<text text-anchor="start" x="24" y="-376.5" font-family="Helvetica,sans-Serif" font-size="10.00">+</text>
<text text-anchor="start" x="37" y="-376.5" font-family="Helvetica,sans-Serif" font-size="10.00">setLoader()</text>
<text text-anchor="start" x="24" y="-361.5" font-family="Helvetica,sans-Serif" font-size="10.00">+</text>
<text text-anchor="start" x="37" y="-361.5" font-family="Helvetica,sans-Serif" font-size="10.00">getTwig()</text>
<text text-anchor="start" x="24" y="-346.5" font-family="Helvetica,sans-Serif" font-size="10.00">+</text>
<text text-anchor="start" x="37" y="-346.5" font-family="Helvetica,sans-Serif" font-size="10.00">setTwig()</text>
<text text-anchor="start" x="24" y="-331.5" font-family="Helvetica,sans-Serif" font-size="10.00">+</text>
<text text-anchor="start" x="37" y="-331.5" font-family="Helvetica,sans-Serif" font-size="10.00">getGet()</text>
<text text-anchor="start" x="24" y="-316.5" font-family="Helvetica,sans-Serif" font-size="10.00">+</text>
<text text-anchor="start" x="37" y="-316.5" font-family="Helvetica,sans-Serif" font-size="10.00">setGet()</text>
<text text-anchor="start" x="24" y="-301.5" font-family="Helvetica,sans-Serif" font-size="10.00">+</text>
<text text-anchor="start" x="37" y="-301.5" font-family="Helvetica,sans-Serif" font-size="10.00">getPost()</text>
<text text-anchor="start" x="24" y="-286.5" font-family="Helvetica,sans-Serif" font-size="10.00">+</text>
<text text-anchor="start" x="37" y="-286.5" font-family="Helvetica,sans-Serif" font-size="10.00">setPost()</text>
<text text-anchor="start" x="24" y="-271.5" font-family="Helvetica,sans-Serif" font-size="10.00">#</text>
<text text-anchor="start" x="37" y="-271.5" font-family="Helvetica,sans-Serif" font-size="10.00">requireAuth()</text>
<text text-anchor="start" x="24" y="-256.5" font-family="Helvetica,sans-Serif" font-size="10.00">#</text>
<text text-anchor="start" x="37" y="-256.5" font-family="Helvetica,sans-Serif" font-size="10.00">requireRole()</text>
<text text-anchor="start" x="24" y="-241.5" font-family="Helvetica,sans-Serif" font-size="10.00">#</text>
<text text-anchor="start" x="37" y="-241.5" font-family="Helvetica,sans-Serif" font-size="10.00">redirectTo()</text>
<text text-anchor="start" x="24" y="-226.5" font-family="Helvetica,sans-Serif" font-size="10.00">#</text>
<text text-anchor="start" x="37" y="-226.5" font-family="Helvetica,sans-Serif" font-size="10.00">show405()</text>
<text text-anchor="start" x="24" y="-211.5" font-family="Helvetica,sans-Serif" font-size="10.00">#</text>
<text text-anchor="start" x="37" y="-211.5" font-family="Helvetica,sans-Serif" font-size="10.00">requireAnyRole()</text>
<polygon fill="#666666" stroke="#666666" points="20,-536.5 20,-536.5 124,-536.5 124,-536.5 20,-536.5"/>
<polygon fill="#666666" stroke="#666666" points="20,-461.5 20,-461.5 35,-461.5 35,-461.5 20,-461.5"/>
<polygon fill="#666666" stroke="#666666" points="35,-461.5 35,-461.5 124,-461.5 124,-461.5 35,-461.5"/>
<polygon fill="none" stroke="#666666" points="20,-205 20,-554 124,-554 124,-205 20,-205"/>
</a>
</g>
</g>
<!-- Node2&#45;&gt;Node1 -->
<g id="edge1_Node000001_Node000002" class="edge">
<title>Node2&#45;&gt;Node1</title>
<g id="a_edge1_Node000001_Node000002"><a xlink:title=" ">
<path fill="none" stroke="#63b8ff" d="M65.45,-194.45C65.55,-185.81 65.67,-177.35 65.83,-169.22"/>
<polygon fill="none" stroke="#63b8ff" points="61.95,-194.64 65.36,-204.67 68.95,-194.71 61.95,-194.64"/>
</a>
</g>
</g>
<!-- Node2&#45;&gt;Node1 -->
<g id="edge2_Node000001_Node000002" class="edge">
<title>Node2&#45;&gt;Node1</title>
<g id="a_edge2_Node000001_Node000002"><a xlink:title=" ">
<path fill="none" stroke="#63b8ff" d="M78.55,-194.45C78.45,-185.81 78.33,-177.35 78.17,-169.22"/>
<polygon fill="none" stroke="#63b8ff" points="75.05,-194.71 78.64,-204.67 82.05,-194.64 75.05,-194.71"/>
</a>
</g>
</g>
</g>
</svg>
