<?xml version="1.0" encoding="UTF-8" standalone="no"?>
<!DOCTYPE svg PUBLIC "-//W3C//DTD SVG 1.1//EN"
 "http://www.w3.org/Graphics/SVG/1.1/DTD/svg11.dtd">
<!-- Generated by graphviz version 2.43.0 (0)
 -->
<!-- Title: ControllerAlbum\afficher Pages: 1 -->
<svg width="296pt" height="64pt"
 viewBox="0.00 0.00 296.00 64.00" xmlns="http://www.w3.org/2000/svg" xmlns:xlink="http://www.w3.org/1999/xlink">
<g id="graph0" class="graph" transform="scale(1 1) rotate(0) translate(4 60)">
<title>ControllerAlbum\afficher</title>
<!-- Node1 -->
<g id="Node000001" class="node">
<title>Node1</title>
<g id="a_Node000001"><a xlink:title="Affiche les détails d&#39;un album avec ses chansons.">
<polygon fill="#999999" stroke="#666666" points="136,-37 0,-37 0,-18 136,-18 136,-37"/>
<text text-anchor="middle" x="68" y="-25" font-family="Helvetica,sans-Serif" font-size="10.00">ControllerAlbum\afficher</text>
</a>
</g>
</g>
<!-- Node2 -->
<g id="Node000002" class="node">
<title>Node2</title>
<g id="a_Node000002"><a xlink:href="classController.html#afd7d94db564ae6e196ac7ac0461e0989" target="_top" xlink:title="Récupère l&#39;environnement Twig.">
<polygon fill="white" stroke="#666666" points="282.5,-56 177.5,-56 177.5,-37 282.5,-37 282.5,-56"/>
<text text-anchor="middle" x="230" y="-44" font-family="Helvetica,sans-Serif" font-size="10.00">Controller\getTwig</text>
</a>
</g>
</g>
<!-- Node1&#45;&gt;Node2 -->
<g id="edge1_Node000001_Node000002" class="edge">
<title>Node1&#45;&gt;Node2</title>
<g id="a_edge1_Node000001_Node000002"><a xlink:title=" ">
<path fill="none" stroke="#63b8ff" d="M136.39,-35.5C146.64,-36.72 157.17,-37.97 167.29,-39.17"/>
<polygon fill="#63b8ff" stroke="#63b8ff" points="166.9,-42.65 177.25,-40.35 167.73,-35.7 166.9,-42.65"/>
</a>
</g>
</g>
<!-- Node3 -->
<g id="Node000003" class="node">
<title>Node3</title>
<g id="a_Node000003"><a xlink:href="classController.html#a56c96fd35f673f4d5084ef7ad0cd395c" target="_top" xlink:title="Redirige vers un contrôleur et une méthode donnés.">
<polygon fill="white" stroke="#666666" points="288,-19 172,-19 172,0 288,0 288,-19"/>
<text text-anchor="middle" x="230" y="-7" font-family="Helvetica,sans-Serif" font-size="10.00">Controller\redirectTo</text>
</a>
</g>
</g>
<!-- Node1&#45;&gt;Node3 -->
<g id="edge2_Node000001_Node000003" class="edge">
<title>Node1&#45;&gt;Node3</title>
<g id="a_edge2_Node000001_Node000003"><a xlink:title=" ">
<path fill="none" stroke="#63b8ff" d="M136.39,-19.92C144.77,-18.98 153.34,-18.01 161.72,-17.07"/>
<polygon fill="#63b8ff" stroke="#63b8ff" points="162.27,-20.53 171.81,-15.93 161.48,-13.57 162.27,-20.53"/>
</a>
</g>
</g>
</g>
</svg>
