<?xml version="1.0" encoding="UTF-8" standalone="no"?>
<!DOCTYPE svg PUBLIC "-//W3C//DTD SVG 1.1//EN"
 "http://www.w3.org/Graphics/SVG/1.1/DTD/svg11.dtd">
<!-- Generated by graphviz version 2.43.0 (0)
 -->
<!-- Title: FichierDAO\findAll Pages: 1 -->
<svg width="433pt" height="27pt"
 viewBox="0.00 0.00 433.00 27.00" xmlns="http://www.w3.org/2000/svg" xmlns:xlink="http://www.w3.org/1999/xlink">
<g id="graph0" class="graph" transform="scale(1 1) rotate(0) translate(4 23)">
<title>FichierDAO\findAll</title>
<!-- Node1 -->
<g id="Node000001" class="node">
<title>Node1</title>
<g id="a_Node000001"><a xlink:title="Récupère tous les fichiers de la base de données.">
<polygon fill="#999999" stroke="#666666" points="104,-19 0,-19 0,0 104,0 104,-19"/>
<text text-anchor="middle" x="52" y="-7" font-family="Helvetica,sans-Serif" font-size="10.00">FichierDAO\findAll</text>
</a>
</g>
</g>
<!-- Node2 -->
<g id="Node000002" class="node">
<title>Node2</title>
<g id="a_Node000002"><a xlink:href="classFichierDAO.html#a791671a5db0cb10654eaf424b4158f08" target="_top" xlink:title=" ">
<polygon fill="white" stroke="#666666" points="278,-19 140,-19 140,0 278,0 278,-19"/>
<text text-anchor="middle" x="209" y="-7" font-family="Helvetica,sans-Serif" font-size="10.00">FichierDAO\hydrateMany</text>
</a>
</g>
</g>
<!-- Node1&#45;&gt;Node2 -->
<g id="edge1_Node000001_Node000002" class="edge">
<title>Node1&#45;&gt;Node2</title>
<g id="a_edge1_Node000001_Node000002"><a xlink:title=" ">
<path fill="none" stroke="#63b8ff" d="M104.18,-9.5C112.36,-9.5 120.98,-9.5 129.61,-9.5"/>
<polygon fill="#63b8ff" stroke="#63b8ff" points="129.73,-13 139.73,-9.5 129.73,-6 129.73,-13"/>
</a>
</g>
</g>
<!-- Node3 -->
<g id="Node000003" class="node">
<title>Node3</title>
<g id="a_Node000003"><a xlink:href="classFichierDAO.html#ab118896eccb1cdd07e9ae4d4ceefb459" target="_top" xlink:title=" ">
<polygon fill="white" stroke="#666666" points="425,-19 314,-19 314,0 425,0 425,-19"/>
<text text-anchor="middle" x="369.5" y="-7" font-family="Helvetica,sans-Serif" font-size="10.00">FichierDAO\hydrate</text>
</a>
</g>
</g>
<!-- Node2&#45;&gt;Node3 -->
<g id="edge2_Node000002_Node000003" class="edge">
<title>Node2&#45;&gt;Node3</title>
<g id="a_edge2_Node000002_Node000003"><a xlink:title=" ">
<path fill="none" stroke="#63b8ff" d="M278.14,-9.5C286.61,-9.5 295.25,-9.5 303.67,-9.5"/>
<polygon fill="#63b8ff" stroke="#63b8ff" points="303.8,-13 313.8,-9.5 303.8,-6 303.8,-13"/>
</a>
</g>
</g>
</g>
</svg>
