<?xml version="1.0" encoding="UTF-8" standalone="no"?>
<!DOCTYPE svg PUBLIC "-//W3C//DTD SVG 1.1//EN"
 "http://www.w3.org/Graphics/SVG/1.1/DTD/svg11.dtd">
<!-- Generated by graphviz version 2.43.0 (0)
 -->
<!-- Title: ChansonDAO\hydrateMany Pages: 1 -->
<svg width="353pt" height="235pt"
 viewBox="0.00 0.00 353.00 234.50" xmlns="http://www.w3.org/2000/svg" xmlns:xlink="http://www.w3.org/1999/xlink">

<svg id="main" version="1.1" xmlns="http://www.w3.org/2000/svg" xmlns:xlink="http://www.w3.org/1999/xlink" xml:space="preserve" onload="init(evt)">
<style type="text/css"><![CDATA[
.node, .edge {opacity: 0.7;}
.node.selected, .edge.selected {opacity: 1;}
.edge:hover path { stroke: red; }
.edge:hover polygon { stroke: red; fill: red; }
]]></style>
<script type="application/ecmascript" xlink:href="svg.min.js"/>
<svg id="graph" class="graph">
<g id="graph0" class="graph" transform="scale(1 1) rotate(0) translate(4 230.5)">
<title>ChansonDAO\hydrateMany</title>
<!-- Node1 -->
<g id="Node000001" class="node">
<title>Node1</title>
<g id="a_Node000001"><a xlink:title=" ">
<polygon fill="#999999" stroke="#666666" points="345,-133.5 197,-133.5 197,-114.5 345,-114.5 345,-133.5"/>
<text text-anchor="middle" x="271" y="-121.5" font-family="Helvetica,sans-Serif" font-size="10.00">ChansonDAO\hydrateMany</text>
</a>
</g>
</g>
<!-- Node2 -->
<g id="Node000002" class="node">
<title>Node2</title>
<g id="a_Node000002"><a xlink:href="classChansonDAO.html#af2522bc396a36979dbab1604ed7ee15c" target="_top" xlink:title=" ">
<polygon fill="white" stroke="#666666" points="156.5,-226.5 4.5,-226.5 4.5,-207.5 156.5,-207.5 156.5,-226.5"/>
<text text-anchor="middle" x="80.5" y="-214.5" font-family="Helvetica,sans-Serif" font-size="10.00">ChansonDAO\filtrerChanson</text>
</a>
</g>
</g>
<!-- Node1&#45;&gt;Node2 -->
<g id="edge1_Node000001_Node000002" class="edge">
<title>Node1&#45;&gt;Node2</title>
<g id="a_edge1_Node000001_Node000002"><a xlink:title=" ">
<path fill="none" stroke="#63b8ff" d="M251.39,-140.13C230.69,-157.25 195.58,-183.86 161,-199 153.22,-202.41 144.72,-205.2 136.27,-207.49"/>
<polygon fill="#63b8ff" stroke="#63b8ff" points="253.69,-142.77 259.09,-133.65 249.18,-137.41 253.69,-142.77"/>
</a>
</g>
</g>
<!-- Node3 -->
<g id="Node000003" class="node">
<title>Node3</title>
<g id="a_Node000003"><a xlink:href="classChansonDAO.html#ada2ec15fd8bf73fc2ed30325cbd8bef6" target="_top" xlink:title="Récupère toutes les chansons de la base de données.">
<polygon fill="white" stroke="#666666" points="137.5,-189.5 23.5,-189.5 23.5,-170.5 137.5,-170.5 137.5,-189.5"/>
<text text-anchor="middle" x="80.5" y="-177.5" font-family="Helvetica,sans-Serif" font-size="10.00">ChansonDAO\findAll</text>
</a>
</g>
</g>
<!-- Node1&#45;&gt;Node3 -->
<g id="edge2_Node000001_Node000003" class="edge">
<title>Node1&#45;&gt;Node3</title>
<g id="a_edge2_Node000001_Node000003"><a xlink:title=" ">
<path fill="none" stroke="#63b8ff" d="M235.57,-137.12C214.28,-144.95 186.28,-154.76 161,-162 150.39,-165.04 138.86,-167.9 127.97,-170.4"/>
<polygon fill="#63b8ff" stroke="#63b8ff" points="236.99,-140.33 245.15,-133.56 234.55,-133.77 236.99,-140.33"/>
</a>
</g>
</g>
<!-- Node4 -->
<g id="Node000004" class="node">
<title>Node4</title>
<g id="a_Node000004"><a xlink:href="classChansonDAO.html#a35e91d1d120b298571c35c00b0142884" target="_top" xlink:title=" ">
<polygon fill="white" stroke="#666666" points="161,-152.5 0,-152.5 0,-133.5 161,-133.5 161,-152.5"/>
<text text-anchor="middle" x="80.5" y="-140.5" font-family="Helvetica,sans-Serif" font-size="10.00">ChansonDAO\findAllFromUser</text>
</a>
</g>
</g>
<!-- Node1&#45;&gt;Node4 -->
<g id="edge3_Node000001_Node000004" class="edge">
<title>Node1&#45;&gt;Node4</title>
<g id="a_edge3_Node000001_Node000004"><a xlink:title=" ">
<path fill="none" stroke="#63b8ff" d="M186.89,-132.38C178.35,-133.24 169.68,-134.11 161.17,-134.97"/>
<polygon fill="#63b8ff" stroke="#63b8ff" points="187.25,-135.86 196.85,-131.37 186.55,-128.89 187.25,-135.86"/>
</a>
</g>
</g>
<!-- Node5 -->
<g id="Node000005" class="node">
<title>Node5</title>
<g id="a_Node000005"><a xlink:href="classChansonDAO.html#a96d28dc22bbfae9f3dd6370f1d87a489" target="_top" xlink:title=" ">
<polygon fill="white" stroke="#666666" points="152,-115.5 9,-115.5 9,-96.5 152,-96.5 152,-115.5"/>
<text text-anchor="middle" x="80.5" y="-103.5" font-family="Helvetica,sans-Serif" font-size="10.00">ChansonDAO\findTrending</text>
</a>
</g>
</g>
<!-- Node1&#45;&gt;Node5 -->
<g id="edge4_Node000001_Node000005" class="edge">
<title>Node1&#45;&gt;Node5</title>
<g id="a_edge4_Node000001_Node000005"><a xlink:title=" ">
<path fill="none" stroke="#63b8ff" d="M186.77,-116.05C175.21,-114.95 163.43,-113.82 152.13,-112.74"/>
<polygon fill="#63b8ff" stroke="#63b8ff" points="186.56,-119.55 196.85,-117.01 187.23,-112.58 186.56,-119.55"/>
</a>
</g>
</g>
<!-- Node6 -->
<g id="Node000006" class="node">
<title>Node6</title>
<g id="a_Node000006"><a xlink:href="classChansonDAO.html#a6c84de03aba88179e451db46e84356e3" target="_top" xlink:title=" ">
<polygon fill="white" stroke="#666666" points="155.5,-78 5.5,-78 5.5,-48 155.5,-48 155.5,-78"/>
<text text-anchor="start" x="13.5" y="-66" font-family="Helvetica,sans-Serif" font-size="10.00">ChansonDAO\rechercherPar</text>
<text text-anchor="middle" x="80.5" y="-55" font-family="Helvetica,sans-Serif" font-size="10.00">Album</text>
</a>
</g>
</g>
<!-- Node1&#45;&gt;Node6 -->
<g id="edge5_Node000001_Node000006" class="edge">
<title>Node1&#45;&gt;Node6</title>
<g id="a_edge5_Node000001_Node000006"><a xlink:title=" ">
<path fill="none" stroke="#63b8ff" d="M231.58,-111.16C210.72,-104.23 184.47,-95.57 161,-88 150.95,-84.76 140.16,-81.33 129.88,-78.09"/>
<polygon fill="#63b8ff" stroke="#63b8ff" points="230.76,-114.58 241.35,-114.41 232.97,-107.93 230.76,-114.58"/>
</a>
</g>
</g>
<!-- Node7 -->
<g id="Node000007" class="node">
<title>Node7</title>
<g id="a_Node000007"><a xlink:href="classChansonDAO.html#a0dd0bcfda435e1410f21d29e912e3969" target="_top" xlink:title=" ">
<polygon fill="white" stroke="#666666" points="155.5,-30 5.5,-30 5.5,0 155.5,0 155.5,-30"/>
<text text-anchor="start" x="13.5" y="-18" font-family="Helvetica,sans-Serif" font-size="10.00">ChansonDAO\rechercherPar</text>
<text text-anchor="middle" x="80.5" y="-7" font-family="Helvetica,sans-Serif" font-size="10.00">Titre</text>
</a>
</g>
</g>
<!-- Node1&#45;&gt;Node7 -->
<g id="edge6_Node000001_Node000007" class="edge">
<title>Node1&#45;&gt;Node7</title>
<g id="a_edge6_Node000001_Node000007"><a xlink:title=" ">
<path fill="none" stroke="#63b8ff" d="M252.86,-107.3C232.5,-88.3 196.77,-57.52 161,-39 154.47,-35.62 147.39,-32.63 140.23,-30.02"/>
<polygon fill="#63b8ff" stroke="#63b8ff" points="250.7,-110.07 260.36,-114.42 255.52,-105 250.7,-110.07"/>
</a>
</g>
</g>
</g>
</svg>
</svg>

<style type='text/css'>
<![CDATA[
[data-mouse-over-selected='false'] { opacity: 0.7; }
[data-mouse-over-selected='true']  { opacity: 1.0; }
]]>
</style>
<script type="application/ecmascript"><![CDATA[
document.addEventListener('DOMContentLoaded', (event) => {
  highlightEdges();
  highlightAdjacentNodes();
});
]]></script>
</svg>
