<?xml version="1.0" encoding="UTF-8" standalone="no"?>
<!DOCTYPE svg PUBLIC "-//W3C//DTD SVG 1.1//EN"
 "http://www.w3.org/Graphics/SVG/1.1/DTD/svg11.dtd">
<!-- Generated by graphviz version 2.43.0 (0)
 -->
<!-- Title: PasswordResetTokenDAO\hydrate Pages: 1 -->
<svg width="502pt" height="134pt"
 viewBox="0.00 0.00 502.00 134.00" xmlns="http://www.w3.org/2000/svg" xmlns:xlink="http://www.w3.org/1999/xlink">
<g id="graph0" class="graph" transform="scale(1 1) rotate(0) translate(4 130)">
<title>PasswordResetTokenDAO\hydrate</title>
<!-- Node1 -->
<g id="Node000001" class="node">
<title>Node1</title>
<g id="a_Node000001"><a xlink:title="Hydrate un tableau de données en objet PasswordResetToken.">
<polygon fill="#999999" stroke="#666666" points="494,-78 354,-78 354,-48 494,-48 494,-78"/>
<text text-anchor="start" x="362" y="-66" font-family="Helvetica,sans-Serif" font-size="10.00">PasswordResetTokenDAO</text>
<text text-anchor="middle" x="424" y="-55" font-family="Helvetica,sans-Serif" font-size="10.00">\hydrate</text>
</a>
</g>
</g>
<!-- Node2 -->
<g id="Node000002" class="node">
<title>Node2</title>
<g id="a_Node000002"><a xlink:href="classPasswordResetTokenDAO.html#ac7f06283af0c2d9da9d834118fabdf91" target="_top" xlink:title="Recherche un token par sa valeur.">
<polygon fill="white" stroke="#666666" points="318,-126 178,-126 178,-96 318,-96 318,-126"/>
<text text-anchor="start" x="186" y="-114" font-family="Helvetica,sans-Serif" font-size="10.00">PasswordResetTokenDAO</text>
<text text-anchor="middle" x="248" y="-103" font-family="Helvetica,sans-Serif" font-size="10.00">\findByToken</text>
</a>
</g>
</g>
<!-- Node1&#45;&gt;Node2 -->
<g id="edge1_Node000001_Node000002" class="edge">
<title>Node1&#45;&gt;Node2</title>
<g id="a_edge1_Node000001_Node000002"><a xlink:title=" ">
<path fill="none" stroke="#63b8ff" d="M358.77,-80.72C340.57,-85.74 320.94,-91.15 303.38,-96"/>
<polygon fill="#63b8ff" stroke="#63b8ff" points="359.71,-84.09 368.42,-78.06 357.85,-77.34 359.71,-84.09"/>
</a>
</g>
</g>
<!-- Node3 -->
<g id="Node000003" class="node">
<title>Node3</title>
<g id="a_Node000003"><a xlink:href="classPasswordResetTokenDAO.html#ac23252f47751b85a08a5cec3cdde6914" target="_top" xlink:title="Recherche un token valide par sa valeur.">
<polygon fill="white" stroke="#666666" points="318,-78 178,-78 178,-48 318,-48 318,-78"/>
<text text-anchor="start" x="186" y="-66" font-family="Helvetica,sans-Serif" font-size="10.00">PasswordResetTokenDAO</text>
<text text-anchor="middle" x="248" y="-55" font-family="Helvetica,sans-Serif" font-size="10.00">\findValidToken</text>
</a>
</g>
</g>
<!-- Node1&#45;&gt;Node3 -->
<g id="edge2_Node000001_Node000003" class="edge">
<title>Node1&#45;&gt;Node3</title>
<g id="a_edge2_Node000001_Node000003"><a xlink:title=" ">
<path fill="none" stroke="#63b8ff" d="M343.97,-63C335.38,-63 326.68,-63 318.22,-63"/>
<polygon fill="#63b8ff" stroke="#63b8ff" points="343.98,-66.5 353.98,-63 343.98,-59.5 343.98,-66.5"/>
</a>
</g>
</g>
<!-- Node4 -->
<g id="Node000004" class="node">
<title>Node4</title>
<g id="a_Node000004"><a xlink:href="classPasswordResetTokenDAO.html#a185a43008c8ea15777108ceb9b287da2" target="_top" xlink:title="Hydrate un tableau de lignes en tableau d&#39;objets PasswordResetToken.">
<polygon fill="white" stroke="#666666" points="318,-30 178,-30 178,0 318,0 318,-30"/>
<text text-anchor="start" x="186" y="-18" font-family="Helvetica,sans-Serif" font-size="10.00">PasswordResetTokenDAO</text>
<text text-anchor="middle" x="248" y="-7" font-family="Helvetica,sans-Serif" font-size="10.00">\hydrateAll</text>
</a>
</g>
</g>
<!-- Node1&#45;&gt;Node4 -->
<g id="edge3_Node000001_Node000004" class="edge">
<title>Node1&#45;&gt;Node4</title>
<g id="a_edge3_Node000001_Node000004"><a xlink:title=" ">
<path fill="none" stroke="#63b8ff" d="M358.77,-45.28C340.57,-40.26 320.94,-34.85 303.38,-30"/>
<polygon fill="#63b8ff" stroke="#63b8ff" points="357.85,-48.66 368.42,-47.94 359.71,-41.91 357.85,-48.66"/>
</a>
</g>
</g>
<!-- Node5 -->
<g id="Node000005" class="node">
<title>Node5</title>
<g id="a_Node000005"><a xlink:href="classPasswordResetTokenDAO.html#af4f3c2de76e734e051501d857b493d97" target="_top" xlink:title="Recherche tous les tokens actifs d&#39;un utilisateur.">
<polygon fill="white" stroke="#666666" points="142,-30 0,-30 0,0 142,0 142,-30"/>
<text text-anchor="start" x="8" y="-18" font-family="Helvetica,sans-Serif" font-size="10.00">PasswordResetTokenDAO</text>
<text text-anchor="middle" x="71" y="-7" font-family="Helvetica,sans-Serif" font-size="10.00">\findActiveTokensByEmail</text>
</a>
</g>
</g>
<!-- Node4&#45;&gt;Node5 -->
<g id="edge4_Node000004_Node000005" class="edge">
<title>Node4&#45;&gt;Node5</title>
<g id="a_edge4_Node000004_Node000005"><a xlink:title=" ">
<path fill="none" stroke="#63b8ff" d="M167.83,-15C159.25,-15 150.56,-15 142.1,-15"/>
<polygon fill="#63b8ff" stroke="#63b8ff" points="167.84,-18.5 177.84,-15 167.84,-11.5 167.84,-18.5"/>
</a>
</g>
</g>
</g>
</svg>
