<?xml version="1.0" encoding="UTF-8" standalone="no"?>
<!DOCTYPE svg PUBLIC "-//W3C//DTD SVG 1.1//EN"
 "http://www.w3.org/Graphics/SVG/1.1/DTD/svg11.dtd">
<!-- Generated by graphviz version 2.43.0 (0)
 -->
<!-- Title: Controller\redirectTo Pages: 1 -->
<svg width="693pt" height="813pt"
 viewBox="0.00 0.00 693.00 812.55" xmlns="http://www.w3.org/2000/svg" xmlns:xlink="http://www.w3.org/1999/xlink">
<g id="graph0" class="graph" transform="scale(1 1) rotate(0) translate(4 808.55)">
<title>Controller\redirectTo</title>
<!-- Node1 -->
<g id="Node000001" class="node">
<title>Node1</title>
<g id="a_Node000001"><a xlink:title="Redirige vers un contrôleur et une méthode donnés.">
<polygon fill="#999999" stroke="#666666" points="685,-471.55 569,-471.55 569,-452.55 685,-452.55 685,-471.55"/>
<text text-anchor="middle" x="627" y="-459.55" font-family="Helvetica,sans-Serif" font-size="10.00">Controller\redirectTo</text>
</a>
</g>
</g>
<!-- Node2 -->
<g id="Node000002" class="node">
<title>Node2</title>
<g id="a_Node000002"><a xlink:href="classControllerAlbum.html#a46666ff20720511ff22d00c3a866fda1" target="_top" xlink:title="Affiche les détails d&#39;un album avec ses chansons.">
<polygon fill="white" stroke="#666666" points="533,-804.55 397,-804.55 397,-785.55 533,-785.55 533,-804.55"/>
<text text-anchor="middle" x="465" y="-792.55" font-family="Helvetica,sans-Serif" font-size="10.00">ControllerAlbum\afficher</text>
</a>
</g>
</g>
<!-- Node1&#45;&gt;Node2 -->
<g id="edge1_Node000001_Node000002" class="edge">
<title>Node1&#45;&gt;Node2</title>
<g id="a_edge1_Node000001_Node000002"><a xlink:title=" ">
<path fill="none" stroke="#63b8ff" d="M626.37,-481.86C626.28,-537.05 618.16,-693.96 533,-777.05 529.55,-780.41 525.55,-783.16 521.24,-785.41"/>
<polygon fill="#63b8ff" stroke="#63b8ff" points="629.87,-481.66 626.29,-471.69 622.87,-481.71 629.87,-481.66"/>
</a>
</g>
</g>
<!-- Node3 -->
<g id="Node000003" class="node">
<title>Node3</title>
<g id="a_Node000003"><a xlink:href="classControllerHome.html#adb7bf84cd80f92a3d93932c4f66a7ff8" target="_top" xlink:title="Affiche la page d&#39;accueil selon le rôle de l&#39;utilisateur.">
<polygon fill="white" stroke="#666666" points="532,-767.55 398,-767.55 398,-748.55 532,-748.55 532,-767.55"/>
<text text-anchor="middle" x="465" y="-755.55" font-family="Helvetica,sans-Serif" font-size="10.00">ControllerHome\afficher</text>
</a>
</g>
</g>
<!-- Node1&#45;&gt;Node3 -->
<g id="edge2_Node000001_Node000003" class="edge">
<title>Node1&#45;&gt;Node3</title>
<g id="a_edge2_Node000001_Node000003"><a xlink:title=" ">
<path fill="none" stroke="#63b8ff" d="M624.92,-481.77C621.18,-531.15 604.66,-661.34 533,-734.05 526.76,-740.38 518.72,-745.05 510.4,-748.49"/>
<polygon fill="#63b8ff" stroke="#63b8ff" points="628.42,-481.98 625.59,-471.77 621.43,-481.51 628.42,-481.98"/>
</a>
</g>
</g>
<!-- Node4 -->
<g id="Node000004" class="node">
<title>Node4</title>
<g id="a_Node000004"><a xlink:href="classControllerPlaylist.html#ad828a0ec70e2f2bba065f0e640519e4c" target="_top" xlink:title="Affiche une playlist avec ses chansons.">
<polygon fill="white" stroke="#666666" points="331.5,-358.05 230.5,-358.05 230.5,-328.05 331.5,-328.05 331.5,-358.05"/>
<text text-anchor="start" x="238.5" y="-346.05" font-family="Helvetica,sans-Serif" font-size="10.00">ControllerPlaylist</text>
<text text-anchor="middle" x="281" y="-335.05" font-family="Helvetica,sans-Serif" font-size="10.00">\afficher</text>
</a>
</g>
</g>
<!-- Node1&#45;&gt;Node4 -->
<g id="edge3_Node000001_Node000004" class="edge">
<title>Node1&#45;&gt;Node4</title>
<g id="a_edge3_Node000001_Node000004"><a xlink:title=" ">
<path fill="none" stroke="#63b8ff" d="M620.12,-442.64C609.09,-410.12 581.88,-345.56 533,-319.05 479.87,-290.22 457.12,-312.84 397,-319.05 375.39,-321.28 351.86,-325.81 331.75,-330.33"/>
<polygon fill="#63b8ff" stroke="#63b8ff" points="616.85,-443.9 623.25,-452.34 623.51,-441.75 616.85,-443.9"/>
</a>
</g>
</g>
<!-- Node5 -->
<g id="Node000005" class="node">
<title>Node5</title>
<g id="a_Node000005"><a xlink:href="classControllerAlbum.html#a667cf5cf6637e7b5765fd60668ed1c2e" target="_top" xlink:title="Affiche les détails d&#39;un album avec vue différenciée selon le rôle.">
<polygon fill="white" stroke="#666666" points="533,-692.05 397,-692.05 397,-662.05 533,-662.05 533,-692.05"/>
<text text-anchor="start" x="405" y="-680.05" font-family="Helvetica,sans-Serif" font-size="10.00">ControllerAlbum\afficher</text>
<text text-anchor="middle" x="465" y="-669.05" font-family="Helvetica,sans-Serif" font-size="10.00">Details</text>
</a>
</g>
</g>
<!-- Node1&#45;&gt;Node5 -->
<g id="edge4_Node000001_Node000005" class="edge">
<title>Node1&#45;&gt;Node5</title>
<g id="a_edge4_Node000001_Node000005"><a xlink:title=" ">
<path fill="none" stroke="#63b8ff" d="M621.08,-481.58C610.78,-518.73 583.62,-600.15 533,-648.05 527.11,-653.62 519.97,-658.22 512.59,-661.99"/>
<polygon fill="#63b8ff" stroke="#63b8ff" points="624.55,-482.12 623.74,-471.55 617.79,-480.32 624.55,-482.12"/>
</a>
</g>
</g>
<!-- Node6 -->
<g id="Node000006" class="node">
<title>Node6</title>
<g id="a_Node000006"><a xlink:href="classControllerAlbum.html#a6302c1b131eead7adc950353217b4a8c" target="_top" xlink:title="Affiche le formulaire d&#39;ajout d&#39;album.">
<polygon fill="white" stroke="#666666" points="150.5,-681.05 14.5,-681.05 14.5,-651.05 150.5,-651.05 150.5,-681.05"/>
<text text-anchor="start" x="22.5" y="-669.05" font-family="Helvetica,sans-Serif" font-size="10.00">ControllerAlbum\afficher</text>
<text text-anchor="middle" x="82.5" y="-658.05" font-family="Helvetica,sans-Serif" font-size="10.00">FormulaireAjout</text>
</a>
</g>
</g>
<!-- Node1&#45;&gt;Node6 -->
<g id="edge5_Node000001_Node000006" class="edge">
<title>Node1&#45;&gt;Node6</title>
<g id="a_edge5_Node000001_Node000006"><a xlink:title=" ">
<path fill="none" stroke="#63b8ff" d="M625.3,-481.81C622.4,-529.35 607.69,-649.96 533,-701.05 472.43,-742.47 259.45,-704.44 149.82,-681.12"/>
<polygon fill="#63b8ff" stroke="#63b8ff" points="628.8,-481.78 625.8,-471.62 621.81,-481.43 628.8,-481.78"/>
</a>
</g>
</g>
<!-- Node7 -->
<g id="Node000007" class="node">
<title>Node7</title>
<g id="a_Node000007"><a xlink:href="classControllerUtilisateur.html#a6178dff94504f04a3cc4538711ed071a" target="_top" xlink:title="Affiche le profil public d&#39;un artiste.">
<polygon fill="white" stroke="#666666" points="523,-606.05 407,-606.05 407,-576.05 523,-576.05 523,-606.05"/>
<text text-anchor="start" x="415" y="-594.05" font-family="Helvetica,sans-Serif" font-size="10.00">ControllerUtilisateur</text>
<text text-anchor="middle" x="465" y="-583.05" font-family="Helvetica,sans-Serif" font-size="10.00">\afficherProfilArtiste</text>
</a>
</g>
</g>
<!-- Node1&#45;&gt;Node7 -->
<g id="edge6_Node000001_Node000007" class="edge">
<title>Node1&#45;&gt;Node7</title>
<g id="a_edge6_Node000001_Node000007"><a xlink:title=" ">
<path fill="none" stroke="#63b8ff" d="M614.29,-480.15C598.45,-503.32 568.1,-543.3 533,-567.05 527.99,-570.44 522.44,-573.41 516.74,-576"/>
<polygon fill="#63b8ff" stroke="#63b8ff" points="617.35,-481.87 619.99,-471.61 611.53,-477.99 617.35,-481.87"/>
</a>
</g>
</g>
<!-- Node8 -->
<g id="Node000008" class="node">
<title>Node8</title>
<g id="a_Node000008"><a xlink:href="classControllerNewsletter.html#abf7e574941e852179163eb9830dda5cf" target="_top" xlink:title="Traite l&#39;inscription à la newsletter.">
<polygon fill="white" stroke="#666666" points="524,-558.05 406,-558.05 406,-528.05 524,-528.05 524,-558.05"/>
<text text-anchor="start" x="414" y="-546.05" font-family="Helvetica,sans-Serif" font-size="10.00">ControllerNewsletter</text>
<text text-anchor="middle" x="465" y="-535.05" font-family="Helvetica,sans-Serif" font-size="10.00">\ajouter</text>
</a>
</g>
</g>
<!-- Node1&#45;&gt;Node8 -->
<g id="edge7_Node000001_Node000008" class="edge">
<title>Node1&#45;&gt;Node8</title>
<g id="a_edge7_Node000001_Node000008"><a xlink:title=" ">
<path fill="none" stroke="#63b8ff" d="M601.44,-476.68C582.9,-487.5 556.69,-502.33 533,-514.05 523.34,-518.82 512.71,-523.62 502.82,-527.91"/>
<polygon fill="#63b8ff" stroke="#63b8ff" points="603.29,-479.65 610.14,-471.57 599.74,-473.62 603.29,-479.65"/>
</a>
</g>
</g>
<!-- Node9 -->
<g id="Node000009" class="node">
<title>Node9</title>
<g id="a_Node000009"><a xlink:href="classControllerAlbum.html#a2fb955c9315c73e221f81baff694f4d2" target="_top" xlink:title="Traite l&#39;ajout d&#39;un nouvel album ou l&#39;ajout de chansons à un album existant.">
<polygon fill="white" stroke="#666666" points="165,-578.55 0,-578.55 0,-559.55 165,-559.55 165,-578.55"/>
<text text-anchor="middle" x="82.5" y="-566.55" font-family="Helvetica,sans-Serif" font-size="10.00">ControllerAlbum\ajouterAlbum</text>
</a>
</g>
</g>
<!-- Node1&#45;&gt;Node9 -->
<g id="edge8_Node000001_Node000009" class="edge">
<title>Node1&#45;&gt;Node9</title>
<g id="a_edge8_Node000001_Node000009"><a xlink:title=" ">
<path fill="none" stroke="#63b8ff" d="M620.97,-481.33C610.88,-515.55 584.59,-586.04 533,-615.05 386,-697.72 168.86,-609.08 103.08,-578.57"/>
<polygon fill="#63b8ff" stroke="#63b8ff" points="624.37,-482.16 623.69,-471.59 617.63,-480.28 624.37,-482.16"/>
</a>
</g>
</g>
<!-- Node10 -->
<g id="Node000010" class="node">
<title>Node10</title>
<g id="a_Node000010"><a xlink:href="classControllerHome.html#a8acaecf68fe7f546b15c42265066f894" target="_top" xlink:title="Affiche la page de connexion.">
<polygon fill="white" stroke="#666666" points="532.5,-471.55 397.5,-471.55 397.5,-452.55 532.5,-452.55 532.5,-471.55"/>
<text text-anchor="middle" x="465" y="-459.55" font-family="Helvetica,sans-Serif" font-size="10.00">ControllerHome\connect</text>
</a>
</g>
</g>
<!-- Node1&#45;&gt;Node10 -->
<g id="edge9_Node000001_Node000010" class="edge">
<title>Node1&#45;&gt;Node10</title>
<g id="a_edge9_Node000001_Node000010"><a xlink:title=" ">
<path fill="none" stroke="#63b8ff" d="M558.43,-462.05C549.92,-462.05 541.22,-462.05 532.72,-462.05"/>
<polygon fill="#63b8ff" stroke="#63b8ff" points="558.69,-465.55 568.69,-462.05 558.69,-458.55 558.69,-465.55"/>
</a>
</g>
</g>
<!-- Node11 -->
<g id="Node000011" class="node">
<title>Node11</title>
<g id="a_Node000011"><a xlink:href="classControllerAdmin.html#a18818beb5443fb827766f982ff9b4762" target="_top" xlink:title="Consulte les détails d&#39;un utilisateur.">
<polygon fill="white" stroke="#666666" points="154.5,-477.55 10.5,-477.55 10.5,-458.55 154.5,-458.55 154.5,-477.55"/>
<text text-anchor="middle" x="82.5" y="-465.55" font-family="Helvetica,sans-Serif" font-size="10.00">ControllerAdmin\consulter</text>
</a>
</g>
</g>
<!-- Node1&#45;&gt;Node11 -->
<g id="edge10_Node000001_Node000011" class="edge">
<title>Node1&#45;&gt;Node11</title>
<g id="a_edge10_Node000001_Node000011"><a xlink:title=" ">
<path fill="none" stroke="#63b8ff" d="M578.07,-473.76C563.68,-476.76 547.78,-479.55 533,-481.05 399.79,-494.52 243.33,-484.1 154.55,-475.76"/>
<polygon fill="#63b8ff" stroke="#63b8ff" points="579.22,-477.09 588.26,-471.56 577.74,-470.25 579.22,-477.09"/>
</a>
</g>
</g>
<!-- Node12 -->
<g id="Node000012" class="node">
<title>Node12</title>
<g id="a_Node000012"><a xlink:href="classControllerUtilisateur.html#abbfd16bafa283856d06476b006239871" target="_top" xlink:title="Gère la création d&#39;un nouvel utilisateur par l&#39;administrateur.">
<polygon fill="white" stroke="#666666" points="140.5,-409.05 24.5,-409.05 24.5,-379.05 140.5,-379.05 140.5,-409.05"/>
<text text-anchor="start" x="32.5" y="-397.05" font-family="Helvetica,sans-Serif" font-size="10.00">ControllerUtilisateur</text>
<text text-anchor="middle" x="82.5" y="-386.05" font-family="Helvetica,sans-Serif" font-size="10.00">\inscription</text>
</a>
</g>
</g>
<!-- Node1&#45;&gt;Node12 -->
<g id="edge11_Node000001_Node000012" class="edge">
<title>Node1&#45;&gt;Node12</title>
<g id="a_edge11_Node000001_Node000012"><a xlink:title=" ">
<path fill="none" stroke="#63b8ff" d="M570.56,-450.56C558.23,-448.22 545.19,-445.9 533,-444.05 392.69,-422.7 226.43,-406.57 140.81,-398.93"/>
<polygon fill="#63b8ff" stroke="#63b8ff" points="570.23,-454.06 580.72,-452.52 571.56,-447.19 570.23,-454.06"/>
</a>
</g>
</g>
<!-- Node13 -->
<g id="Node000013" class="node">
<title>Node13</title>
<g id="a_Node000013"><a xlink:href="classControllerUtilisateur.html#a9147d85a5cd222f72ec15b66035151e1" target="_top" xlink:title="Déconnecte l&#39;utilisateur et détruit la session.">
<polygon fill="white" stroke="#666666" points="523,-358.05 407,-358.05 407,-328.05 523,-328.05 523,-358.05"/>
<text text-anchor="start" x="415" y="-346.05" font-family="Helvetica,sans-Serif" font-size="10.00">ControllerUtilisateur</text>
<text text-anchor="middle" x="465" y="-335.05" font-family="Helvetica,sans-Serif" font-size="10.00">\logout</text>
</a>
</g>
</g>
<!-- Node1&#45;&gt;Node13 -->
<g id="edge12_Node000001_Node000013" class="edge">
<title>Node1&#45;&gt;Node13</title>
<g id="a_edge12_Node000001_Node000013"><a xlink:title=" ">
<path fill="none" stroke="#63b8ff" d="M611.49,-444.62C594.36,-424.93 564.25,-392.91 533,-372.05 525.09,-366.77 516.07,-362.09 507.26,-358.12"/>
<polygon fill="#63b8ff" stroke="#63b8ff" points="609.04,-447.15 618.2,-452.48 614.36,-442.6 609.04,-447.15"/>
</a>
</g>
</g>
<!-- Node14 -->
<g id="Node000014" class="node">
<title>Node14</title>
<g id="a_Node000014"><a xlink:href="classControllerAdmin.html#a65506a5e6ff98256bd5c39307db816f0" target="_top" xlink:title="Modifie un utilisateur existant.">
<polygon fill="white" stroke="#666666" points="152.5,-331.55 12.5,-331.55 12.5,-312.55 152.5,-312.55 152.5,-331.55"/>
<text text-anchor="middle" x="82.5" y="-319.55" font-family="Helvetica,sans-Serif" font-size="10.00">ControllerAdmin\modifier</text>
</a>
</g>
</g>
<!-- Node1&#45;&gt;Node14 -->
<g id="edge13_Node000001_Node000014" class="edge">
<title>Node1&#45;&gt;Node14</title>
<g id="a_edge13_Node000001_Node000014"><a xlink:title=" ">
<path fill="none" stroke="#63b8ff" d="M597.89,-447.83C579.77,-439.21 555.48,-428.64 533,-422.05 389.47,-379.97 345.35,-406.21 201,-367.05 166.43,-357.67 127.93,-341.84 104.72,-331.67"/>
<polygon fill="#63b8ff" stroke="#63b8ff" points="596.74,-451.17 607.26,-452.38 599.8,-444.87 596.74,-451.17"/>
</a>
</g>
</g>
<!-- Node15 -->
<g id="Node000015" class="node">
<title>Node15</title>
<g id="a_Node000015"><a xlink:href="classControllerAlbum.html#a39a4e1d517fac239f47665a9e8110cdd" target="_top" xlink:title="Modifie les informations d&#39;une chanson.">
<polygon fill="white" stroke="#666666" points="152.5,-189.05 12.5,-189.05 12.5,-159.05 152.5,-159.05 152.5,-189.05"/>
<text text-anchor="start" x="20.5" y="-177.05" font-family="Helvetica,sans-Serif" font-size="10.00">ControllerAlbum\modifier</text>
<text text-anchor="middle" x="82.5" y="-166.05" font-family="Helvetica,sans-Serif" font-size="10.00">Chanson</text>
</a>
</g>
</g>
<!-- Node1&#45;&gt;Node15 -->
<g id="edge14_Node000001_Node000015" class="edge">
<title>Node1&#45;&gt;Node15</title>
<g id="a_edge14_Node000001_Node000015"><a xlink:title=" ">
<path fill="none" stroke="#63b8ff" d="M621.49,-442.41C611.39,-401.77 583.76,-307 533,-244.05 474.17,-171.09 450.3,-150.5 361,-122.05 293.25,-100.46 270.57,-107.34 201,-122.05 167.61,-129.11 132.16,-146.3 109.04,-159"/>
<polygon fill="#63b8ff" stroke="#63b8ff" points="618.14,-443.46 623.88,-452.36 624.95,-441.82 618.14,-443.46"/>
</a>
</g>
</g>
<!-- Node16 -->
<g id="Node000016" class="node">
<title>Node16</title>
<g id="a_Node000016"><a xlink:href="classController.html#a769e4e81d545b126413501bb3f3e77c3" target="_top" xlink:title="Exige que l&#39;utilisateur soit authentifié.">
<polygon fill="white" stroke="#666666" points="527.5,-271.55 402.5,-271.55 402.5,-252.55 527.5,-252.55 527.5,-271.55"/>
<text text-anchor="middle" x="465" y="-259.55" font-family="Helvetica,sans-Serif" font-size="10.00">Controller\requireAuth</text>
</a>
</g>
</g>
<!-- Node1&#45;&gt;Node16 -->
<g id="edge15_Node000001_Node000016" class="edge">
<title>Node1&#45;&gt;Node16</title>
<g id="a_edge15_Node000001_Node000016"><a xlink:title=" ">
<path fill="none" stroke="#63b8ff" d="M620.89,-442.77C610.41,-406.88 583.17,-329.54 533,-286.05 525.72,-279.73 516.65,-275.04 507.57,-271.56"/>
<polygon fill="#63b8ff" stroke="#63b8ff" points="617.54,-443.8 623.61,-452.49 624.29,-441.92 617.54,-443.8"/>
</a>
</g>
</g>
<!-- Node22 -->
<g id="Node000022" class="node">
<title>Node22</title>
<g id="a_Node000022"><a xlink:href="classControllerAdmin.html#a21a27101a5c5e6a978ec048813cbbcf1" target="_top" xlink:title="Supprime un utilisateur spécifique.">
<polygon fill="white" stroke="#666666" points="157,-122.55 8,-122.55 8,-103.55 157,-103.55 157,-122.55"/>
<text text-anchor="middle" x="82.5" y="-110.55" font-family="Helvetica,sans-Serif" font-size="10.00">ControllerAdmin\supprimer</text>
</a>
</g>
</g>
<!-- Node1&#45;&gt;Node22 -->
<g id="edge31_Node000001_Node000022" class="edge">
<title>Node1&#45;&gt;Node22</title>
<g id="a_edge31_Node000001_Node000022"><a xlink:title=" ">
<path fill="none" stroke="#63b8ff" d="M623.25,-442.23C613.84,-377.43 580.89,-173.58 533,-131.05 411.25,-22.9 189.65,-78.98 111.61,-103.51"/>
<polygon fill="#63b8ff" stroke="#63b8ff" points="619.81,-442.92 624.69,-452.33 626.74,-441.94 619.81,-442.92"/>
</a>
</g>
</g>
<!-- Node23 -->
<g id="Node000023" class="node">
<title>Node23</title>
<g id="a_Node000023"><a xlink:href="classControllerAlbum.html#aad96094767cc4b5a0520a29b22f7c77d" target="_top" xlink:title="Supprime une chanson (action réservée à l&#39;artiste propriétaire).">
<polygon fill="white" stroke="#666666" points="157,-50.05 8,-50.05 8,-20.05 157,-20.05 157,-50.05"/>
<text text-anchor="start" x="16" y="-38.05" font-family="Helvetica,sans-Serif" font-size="10.00">ControllerAlbum\supprimer</text>
<text text-anchor="middle" x="82.5" y="-27.05" font-family="Helvetica,sans-Serif" font-size="10.00">Chanson</text>
</a>
</g>
</g>
<!-- Node1&#45;&gt;Node23 -->
<g id="edge32_Node000001_Node000023" class="edge">
<title>Node1&#45;&gt;Node23</title>
<g id="a_edge32_Node000001_Node000023"><a xlink:title=" ">
<path fill="none" stroke="#63b8ff" d="M624.34,-442.19C617.82,-369.25 591.37,-117.83 533,-68.05 422.11,26.52 234.65,0.95 140.73,-20"/>
<polygon fill="#63b8ff" stroke="#63b8ff" points="620.87,-442.64 625.22,-452.3 627.84,-442.04 620.87,-442.64"/>
</a>
</g>
</g>
<!-- Node16&#45;&gt;Node4 -->
<g id="edge17_Node000016_Node000004" class="edge">
<title>Node16&#45;&gt;Node4</title>
<g id="a_edge17_Node000016_Node000004"><a xlink:title=" ">
<path fill="none" stroke="#63b8ff" d="M419.64,-275.1C411.85,-278.18 403.99,-281.83 397,-286.05 378.42,-297.26 379.85,-308.29 361,-319.05 352.04,-324.16 341.86,-328.3 331.87,-331.6"/>
<polygon fill="#63b8ff" stroke="#63b8ff" points="420.9,-278.37 429.07,-271.63 418.47,-271.81 420.9,-278.37"/>
</a>
</g>
</g>
<!-- Node17 -->
<g id="Node000017" class="node">
<title>Node17</title>
<g id="a_Node000017"><a xlink:href="classControllerMusique.html#ab0c0de405d848d94f0293426acb27b1b" target="_top" xlink:title="Affiche la page &quot;Ma Musique&quot; de l&#39;utilisateur connecté.">
<polygon fill="white" stroke="#666666" points="354,-272.55 208,-272.55 208,-253.55 354,-253.55 354,-272.55"/>
<text text-anchor="middle" x="281" y="-260.55" font-family="Helvetica,sans-Serif" font-size="10.00">ControllerMusique\afficher</text>
</a>
</g>
</g>
<!-- Node16&#45;&gt;Node17 -->
<g id="edge16_Node000016_Node000017" class="edge">
<title>Node16&#45;&gt;Node17</title>
<g id="a_edge16_Node000016_Node000017"><a xlink:title=" ">
<path fill="none" stroke="#63b8ff" d="M392.07,-262.44C379.63,-262.51 366.69,-262.58 354.24,-262.65"/>
<polygon fill="#63b8ff" stroke="#63b8ff" points="392.4,-265.94 402.38,-262.39 392.36,-258.94 392.4,-265.94"/>
</a>
</g>
</g>
<!-- Node18 -->
<g id="Node000018" class="node">
<title>Node18</title>
<g id="a_Node000018"><a xlink:href="classControllerUtilisateur.html#ae68e0eb8063f09dbf9f36e2ea994f311" target="_top" xlink:title="Affiche la page des chansons aimées (likées) par l&#39;utilisateur connecté.">
<polygon fill="white" stroke="#666666" points="339,-198.05 223,-198.05 223,-168.05 339,-168.05 339,-198.05"/>
<text text-anchor="start" x="231" y="-186.05" font-family="Helvetica,sans-Serif" font-size="10.00">ControllerUtilisateur</text>
<text text-anchor="middle" x="281" y="-175.05" font-family="Helvetica,sans-Serif" font-size="10.00">\afficherMesLikes</text>
</a>
</g>
</g>
<!-- Node16&#45;&gt;Node18 -->
<g id="edge18_Node000016_Node000018" class="edge">
<title>Node16&#45;&gt;Node18</title>
<g id="a_edge18_Node000016_Node000018"><a xlink:title=" ">
<path fill="none" stroke="#63b8ff" d="M439.32,-247.53C418.82,-235.85 388.64,-219.56 361,-208.05 352.5,-204.51 343.31,-201.17 334.31,-198.17"/>
<polygon fill="#63b8ff" stroke="#63b8ff" points="437.6,-250.58 448.02,-252.53 441.09,-244.51 437.6,-250.58"/>
</a>
</g>
</g>
<!-- Node19 -->
<g id="Node000019" class="node">
<title>Node19</title>
<g id="a_Node000019"><a xlink:href="classController.html#a75d9e91b7784fcc5c826e5f9fd79956d" target="_top" xlink:title="Exige que l&#39;utilisateur ait un des rôles spécifiés.">
<polygon fill="white" stroke="#666666" points="352.5,-149.55 209.5,-149.55 209.5,-130.55 352.5,-130.55 352.5,-149.55"/>
<text text-anchor="middle" x="281" y="-137.55" font-family="Helvetica,sans-Serif" font-size="10.00">Controller\requireAnyRole</text>
</a>
</g>
</g>
<!-- Node16&#45;&gt;Node19 -->
<g id="edge19_Node000016_Node000019" class="edge">
<title>Node16&#45;&gt;Node19</title>
<g id="a_edge19_Node000016_Node000019"><a xlink:title=" ">
<path fill="none" stroke="#63b8ff" d="M451.12,-244.05C433.49,-220.77 399.56,-180.65 361,-159.05 354.11,-155.19 346.45,-152.1 338.69,-149.65"/>
<polygon fill="#63b8ff" stroke="#63b8ff" points="448.5,-246.39 457.26,-252.35 454.13,-242.23 448.5,-246.39"/>
</a>
</g>
</g>
<!-- Node20 -->
<g id="Node000020" class="node">
<title>Node20</title>
<g id="a_Node000020"><a xlink:href="classController.html#a3c8ca59e4609ef5e27e868a91f5ce090" target="_top" xlink:title="Exige que l&#39;utilisateur ait un rôle spécifique.">
<polygon fill="white" stroke="#666666" points="343,-235.55 219,-235.55 219,-216.55 343,-216.55 343,-235.55"/>
<text text-anchor="middle" x="281" y="-223.55" font-family="Helvetica,sans-Serif" font-size="10.00">Controller\requireRole</text>
</a>
</g>
</g>
<!-- Node16&#45;&gt;Node20 -->
<g id="edge20_Node000016_Node000020" class="edge">
<title>Node16&#45;&gt;Node20</title>
<g id="a_edge20_Node000016_Node000020"><a xlink:title=" ">
<path fill="none" stroke="#63b8ff" d="M405.85,-250.54C381.46,-245.72 353.42,-240.17 330.2,-235.58"/>
<polygon fill="#63b8ff" stroke="#63b8ff" points="405.22,-253.99 415.71,-252.49 406.57,-247.12 405.22,-253.99"/>
</a>
</g>
</g>
<!-- Node24 -->
<g id="Node000024" class="node">
<title>Node24</title>
<g id="a_Node000024"><a xlink:href="classControllerChanson.html#a577d75f91bfaf5101534761c8a9cfd73" target="_top" xlink:title="Bascule l&#39;état &quot;j&#39;aime&quot; d&#39;une chanson pour l&#39;utilisateur connecté.">
<polygon fill="white" stroke="#666666" points="361,-309.55 201,-309.55 201,-290.55 361,-290.55 361,-309.55"/>
<text text-anchor="middle" x="281" y="-297.55" font-family="Helvetica,sans-Serif" font-size="10.00">ControllerChanson\toggleLike</text>
</a>
</g>
</g>
<!-- Node16&#45;&gt;Node24 -->
<g id="edge30_Node000016_Node000024" class="edge">
<title>Node16&#45;&gt;Node24</title>
<g id="a_edge30_Node000016_Node000024"><a xlink:title=" ">
<path fill="none" stroke="#63b8ff" d="M408.05,-273.73C382.24,-279.12 351.99,-285.43 327.6,-290.53"/>
<polygon fill="#63b8ff" stroke="#63b8ff" points="409,-277.11 418.07,-271.64 407.57,-270.25 409,-277.11"/>
</a>
</g>
</g>
<!-- Node20&#45;&gt;Node6 -->
<g id="edge22_Node000020_Node000006" class="edge">
<title>Node20&#45;&gt;Node6</title>
<g id="a_edge22_Node000020_Node000006"><a xlink:title=" ">
<path fill="none" stroke="#63b8ff" d="M209.69,-237.43C206.5,-239.6 203.57,-242.12 201,-245.05 150.48,-302.68 198.75,-519.24 165,-588.05 151.98,-614.6 125.96,-636.97 106.81,-650.85"/>
<polygon fill="#63b8ff" stroke="#63b8ff" points="211.59,-240.39 218.67,-232.5 208.22,-234.25 211.59,-240.39"/>
</a>
</g>
</g>
<!-- Node20&#45;&gt;Node9 -->
<g id="edge23_Node000020_Node000009" class="edge">
<title>Node20&#45;&gt;Node9</title>
<g id="a_edge23_Node000020_Node000009"><a xlink:title=" ">
<path fill="none" stroke="#63b8ff" d="M209.84,-237.57C206.61,-239.7 203.63,-242.17 201,-245.05 127.58,-325.26 213.76,-389.85 165,-487.05 149.07,-518.8 116.21,-545.84 97.44,-559.51"/>
<polygon fill="#63b8ff" stroke="#63b8ff" points="211.74,-240.52 218.89,-232.71 208.42,-234.36 211.74,-240.52"/>
</a>
</g>
</g>
<!-- Node20&#45;&gt;Node11 -->
<g id="edge24_Node000020_Node000011" class="edge">
<title>Node20&#45;&gt;Node11</title>
<g id="a_edge24_Node000020_Node000011"><a xlink:title=" ">
<path fill="none" stroke="#63b8ff" d="M209.85,-237.87C206.64,-239.93 203.66,-242.3 201,-245.05 146.33,-301.43 210.17,-353.8 165,-418.05 151.54,-437.19 128.18,-450.42 109.91,-458.43"/>
<polygon fill="#63b8ff" stroke="#63b8ff" points="211.58,-240.91 218.79,-233.15 208.31,-234.72 211.58,-240.91"/>
</a>
</g>
</g>
<!-- Node20&#45;&gt;Node12 -->
<g id="edge25_Node000020_Node000012" class="edge">
<title>Node20&#45;&gt;Node12</title>
<g id="a_edge25_Node000020_Node000012"><a xlink:title=" ">
<path fill="none" stroke="#63b8ff" d="M209.66,-238.77C206.58,-240.61 203.67,-242.69 201,-245.05 166.86,-275.23 193.53,-305.51 165,-341.05 152.11,-357.1 132.99,-369.89 116.52,-378.88"/>
<polygon fill="#63b8ff" stroke="#63b8ff" points="211.35,-241.84 218.73,-234.24 208.22,-235.58 211.35,-241.84"/>
</a>
</g>
</g>
<!-- Node20&#45;&gt;Node14 -->
<g id="edge26_Node000020_Node000014" class="edge">
<title>Node20&#45;&gt;Node14</title>
<g id="a_edge26_Node000020_Node000014"><a xlink:title=" ">
<path fill="none" stroke="#63b8ff" d="M219.18,-238.41C212.94,-240.34 206.78,-242.55 201,-245.05 158.91,-263.24 115.27,-296.24 95.06,-312.49"/>
<polygon fill="#63b8ff" stroke="#63b8ff" points="220.36,-241.71 229.01,-235.58 218.43,-234.98 220.36,-241.71"/>
</a>
</g>
</g>
<!-- Node20&#45;&gt;Node15 -->
<g id="edge27_Node000020_Node000015" class="edge">
<title>Node20&#45;&gt;Node15</title>
<g id="a_edge27_Node000020_Node000015"><a xlink:title=" ">
<path fill="none" stroke="#63b8ff" d="M228.97,-214.07C219.65,-211.8 210.02,-209.4 201,-207.05 179.47,-201.44 155.84,-194.88 135.44,-189.09"/>
<polygon fill="#63b8ff" stroke="#63b8ff" points="228.38,-217.53 238.92,-216.48 230.03,-210.73 228.38,-217.53"/>
</a>
</g>
</g>
<!-- Node21 -->
<g id="Node000021" class="node">
<title>Node21</title>
<g id="a_Node000021"><a xlink:href="classControllerAdmin.html#a112f35682ab86e6256d923e59b49a125" target="_top" xlink:title="Affiche le tableau de bord de l&#39;administrateur.">
<polygon fill="white" stroke="#666666" points="150.5,-235.55 14.5,-235.55 14.5,-216.55 150.5,-216.55 150.5,-235.55"/>
<text text-anchor="middle" x="82.5" y="-223.55" font-family="Helvetica,sans-Serif" font-size="10.00">ControllerAdmin\afficher</text>
</a>
</g>
</g>
<!-- Node20&#45;&gt;Node21 -->
<g id="edge21_Node000020_Node000021" class="edge">
<title>Node20&#45;&gt;Node21</title>
<g id="a_edge21_Node000020_Node000021"><a xlink:title=" ">
<path fill="none" stroke="#63b8ff" d="M208.84,-226.05C189.88,-226.05 169.45,-226.05 150.71,-226.05"/>
<polygon fill="#63b8ff" stroke="#63b8ff" points="208.9,-229.55 218.9,-226.05 208.9,-222.55 208.9,-229.55"/>
</a>
</g>
</g>
<!-- Node20&#45;&gt;Node22 -->
<g id="edge28_Node000020_Node000022" class="edge">
<title>Node20&#45;&gt;Node22</title>
<g id="a_edge28_Node000020_Node000022"><a xlink:title=" ">
<path fill="none" stroke="#63b8ff" d="M209.54,-212.28C206.56,-210.71 203.69,-208.98 201,-207.05 176.64,-189.59 187.59,-169.73 165,-150.05 150.71,-137.59 131.53,-128.6 115.37,-122.61"/>
<polygon fill="#63b8ff" stroke="#63b8ff" points="208.23,-215.52 218.79,-216.45 211.12,-209.15 208.23,-215.52"/>
</a>
</g>
</g>
<!-- Node20&#45;&gt;Node23 -->
<g id="edge29_Node000020_Node000023" class="edge">
<title>Node20&#45;&gt;Node23</title>
<g id="a_edge29_Node000020_Node000023"><a xlink:title=" ">
<path fill="none" stroke="#63b8ff" d="M209.71,-213.59C206.6,-211.69 203.67,-209.52 201,-207.05 162.67,-171.49 195.53,-137.49 165,-95.05 151.35,-76.08 129.89,-60.62 112.41,-50.15"/>
<polygon fill="#63b8ff" stroke="#63b8ff" points="208.41,-216.85 218.91,-218.26 211.58,-210.61 208.41,-216.85"/>
</a>
</g>
</g>
</g>
</svg>
