<?xml version="1.0" encoding="UTF-8" standalone="no"?>
<!DOCTYPE svg PUBLIC "-//W3C//DTD SVG 1.1//EN"
 "http://www.w3.org/Graphics/SVG/1.1/DTD/svg11.dtd">
<!-- Generated by graphviz version 2.43.0 (0)
 -->
<!-- Title: Email\getSiteUrl Pages: 1 -->
<svg width="468pt" height="212pt"
 viewBox="0.00 0.00 468.00 212.00" xmlns="http://www.w3.org/2000/svg" xmlns:xlink="http://www.w3.org/1999/xlink">
<g id="graph0" class="graph" transform="scale(1 1) rotate(0) translate(4 208)">
<title>Email\getSiteUrl</title>
<!-- Node1 -->
<g id="Node000001" class="node">
<title>Node1</title>
<g id="a_Node000001"><a xlink:title="Récupère l&#39;URL du site.">
<polygon fill="#999999" stroke="#666666" points="460,-111 364,-111 364,-92 460,-92 460,-111"/>
<text text-anchor="middle" x="412" y="-99" font-family="Helvetica,sans-Serif" font-size="10.00">Email\getSiteUrl</text>
</a>
</g>
</g>
<!-- Node2 -->
<g id="Node000002" class="node">
<title>Node2</title>
<g id="a_Node000002"><a xlink:href="classEmail.html#a8c71ec8d159d28e642c37888d94d7aa2" target="_top" xlink:title="Envoie un email de confirmation d&#39;inscription.">
<polygon fill="white" stroke="#666666" points="322.5,-204 161.5,-204 161.5,-185 322.5,-185 322.5,-204"/>
<text text-anchor="middle" x="242" y="-192" font-family="Helvetica,sans-Serif" font-size="10.00">Email\sendConfirmationEmail</text>
</a>
</g>
</g>
<!-- Node1&#45;&gt;Node2 -->
<g id="edge1_Node000001_Node000002" class="edge">
<title>Node1&#45;&gt;Node2</title>
<g id="a_edge1_Node000001_Node000002"><a xlink:title=" ">
<path fill="none" stroke="#63b8ff" d="M396.86,-118.77C381.68,-136.11 355.95,-162.24 328,-176.5 321.28,-179.93 313.95,-182.7 306.49,-184.95"/>
<polygon fill="#63b8ff" stroke="#63b8ff" points="399.61,-120.94 403.43,-111.05 394.28,-116.4 399.61,-120.94"/>
</a>
</g>
</g>
<!-- Node3 -->
<g id="Node000003" class="node">
<title>Node3</title>
<g id="a_Node000003"><a xlink:href="classEmail.html#a0912c368e838674b441f50dafdeb9201" target="_top" xlink:title="Envoie un email de contact (depuis le formulaire de contact)">
<polygon fill="white" stroke="#666666" points="310,-167 174,-167 174,-148 310,-148 310,-167"/>
<text text-anchor="middle" x="242" y="-155" font-family="Helvetica,sans-Serif" font-size="10.00">Email\sendContactEmail</text>
</a>
</g>
</g>
<!-- Node1&#45;&gt;Node3 -->
<g id="edge2_Node000001_Node000003" class="edge">
<title>Node1&#45;&gt;Node3</title>
<g id="a_edge2_Node000001_Node000003"><a xlink:title=" ">
<path fill="none" stroke="#63b8ff" d="M383.77,-115.82C367.86,-123.71 347.19,-133.16 328,-139.5 318.12,-142.76 307.39,-145.58 296.98,-147.94"/>
<polygon fill="#63b8ff" stroke="#63b8ff" points="385.66,-118.78 393.01,-111.15 382.5,-112.53 385.66,-118.78"/>
</a>
</g>
</g>
<!-- Node4 -->
<g id="Node000004" class="node">
<title>Node4</title>
<g id="a_Node000004"><a xlink:href="classEmail.html#a1ebc55f26145ec1d583b272e84c9c480" target="_top" xlink:title="Envoie un email de newsletter.">
<polygon fill="white" stroke="#666666" points="318,-130 166,-130 166,-111 318,-111 318,-130"/>
<text text-anchor="middle" x="242" y="-118" font-family="Helvetica,sans-Serif" font-size="10.00">Email\sendNewsletterEmail</text>
</a>
</g>
</g>
<!-- Node1&#45;&gt;Node4 -->
<g id="edge3_Node000001_Node000004" class="edge">
<title>Node1&#45;&gt;Node4</title>
<g id="a_edge3_Node000001_Node000004"><a xlink:title=" ">
<path fill="none" stroke="#63b8ff" d="M353.53,-108C342.15,-109.29 330.05,-110.66 318.18,-112"/>
<polygon fill="#63b8ff" stroke="#63b8ff" points="354.21,-111.44 363.76,-106.84 353.43,-104.49 354.21,-111.44"/>
</a>
</g>
</g>
<!-- Node6 -->
<g id="Node000006" class="node">
<title>Node6</title>
<g id="a_Node000006"><a xlink:href="classEmail.html#a0ee4dc977a9847d4d23c72a2e708337e" target="_top" xlink:title="Envoie un email de notification (nouvel album, nouveau follower, etc.)">
<polygon fill="white" stroke="#666666" points="319.5,-93 164.5,-93 164.5,-74 319.5,-74 319.5,-93"/>
<text text-anchor="middle" x="242" y="-81" font-family="Helvetica,sans-Serif" font-size="10.00">Email\sendNotificationEmail</text>
</a>
</g>
</g>
<!-- Node1&#45;&gt;Node6 -->
<g id="edge5_Node000001_Node000006" class="edge">
<title>Node1&#45;&gt;Node6</title>
<g id="a_edge5_Node000001_Node000006"><a xlink:title=" ">
<path fill="none" stroke="#63b8ff" d="M353.56,-95.35C342.68,-94.18 331.13,-92.94 319.77,-91.73"/>
<polygon fill="#63b8ff" stroke="#63b8ff" points="353.44,-98.85 363.76,-96.44 354.19,-91.89 353.44,-98.85"/>
</a>
</g>
</g>
<!-- Node7 -->
<g id="Node000007" class="node">
<title>Node7</title>
<g id="a_Node000007"><a xlink:href="classEmail.html#a71c29bcbebc4fb0e32b9bd382c334cbc" target="_top" xlink:title="Envoie un email de réinitialisation de mot de passe.">
<polygon fill="white" stroke="#666666" points="328,-56 156,-56 156,-37 328,-37 328,-56"/>
<text text-anchor="middle" x="242" y="-44" font-family="Helvetica,sans-Serif" font-size="10.00">Email\sendPasswordResetEmail</text>
</a>
</g>
</g>
<!-- Node1&#45;&gt;Node7 -->
<g id="edge6_Node000001_Node000007" class="edge">
<title>Node1&#45;&gt;Node7</title>
<g id="a_edge6_Node000001_Node000007"><a xlink:title=" ">
<path fill="none" stroke="#63b8ff" d="M382.41,-87.5C366.64,-80.19 346.55,-71.54 328,-65.5 316.93,-61.9 304.83,-58.74 293.32,-56.09"/>
<polygon fill="#63b8ff" stroke="#63b8ff" points="381.08,-90.74 391.62,-91.84 384.07,-84.41 381.08,-90.74"/>
</a>
</g>
</g>
<!-- Node8 -->
<g id="Node000008" class="node">
<title>Node8</title>
<g id="a_Node000008"><a xlink:href="classEmail.html#a67accca2885af8491566d685127f069c" target="_top" xlink:title="Envoie un email de bienvenue à un nouvel utilisateur.">
<polygon fill="white" stroke="#666666" points="313.5,-19 170.5,-19 170.5,0 313.5,0 313.5,-19"/>
<text text-anchor="middle" x="242" y="-7" font-family="Helvetica,sans-Serif" font-size="10.00">Email\sendWelcomeEmail</text>
</a>
</g>
</g>
<!-- Node1&#45;&gt;Node8 -->
<g id="edge7_Node000001_Node000008" class="edge">
<title>Node1&#45;&gt;Node8</title>
<g id="a_edge7_Node000001_Node000008"><a xlink:title=" ">
<path fill="none" stroke="#63b8ff" d="M396.48,-84.5C381.17,-67.68 355.49,-42.48 328,-28.5 320.32,-24.59 311.84,-21.48 303.31,-19.01"/>
<polygon fill="#63b8ff" stroke="#63b8ff" points="393.88,-86.83 403.13,-92 399.12,-82.19 393.88,-86.83"/>
</a>
</g>
</g>
<!-- Node5 -->
<g id="Node000005" class="node">
<title>Node5</title>
<g id="a_Node000005"><a xlink:href="classEmail.html#ace294aab67bdd1728f4b95ead374f3d9" target="_top" xlink:title="Envoie un email en masse à plusieurs destinataires (pour la newsletter)">
<polygon fill="white" stroke="#666666" points="120,-130 0,-130 0,-111 120,-111 120,-130"/>
<text text-anchor="middle" x="60" y="-118" font-family="Helvetica,sans-Serif" font-size="10.00">Email\sendBulkEmail</text>
</a>
</g>
</g>
<!-- Node4&#45;&gt;Node5 -->
<g id="edge4_Node000004_Node000005" class="edge">
<title>Node4&#45;&gt;Node5</title>
<g id="a_edge4_Node000004_Node000005"><a xlink:title=" ">
<path fill="none" stroke="#63b8ff" d="M155.84,-120.5C143.72,-120.5 131.48,-120.5 120.01,-120.5"/>
<polygon fill="#63b8ff" stroke="#63b8ff" points="155.97,-124 165.97,-120.5 155.97,-117 155.97,-124"/>
</a>
</g>
</g>
<!-- Node9 -->
<g id="Node000009" class="node">
<title>Node9</title>
<g id="a_Node000009"><a xlink:href="classEmail.html#a84786f0307c864ddd7cfb12acba129b3" target="_top" xlink:title="Fonction de test simple de la classe Email avec un nom et un email factices.">
<polygon fill="white" stroke="#666666" points="107,-19 13,-19 13,0 107,0 107,-19"/>
<text text-anchor="middle" x="60" y="-7" font-family="Helvetica,sans-Serif" font-size="10.00">Email\testEmail</text>
</a>
</g>
</g>
<!-- Node8&#45;&gt;Node9 -->
<g id="edge8_Node000008_Node000009" class="edge">
<title>Node8&#45;&gt;Node9</title>
<g id="a_edge8_Node000008_Node000009"><a xlink:title=" ">
<path fill="none" stroke="#63b8ff" d="M160.31,-9.5C142.07,-9.5 123.3,-9.5 107.07,-9.5"/>
<polygon fill="#63b8ff" stroke="#63b8ff" points="160.38,-13 170.38,-9.5 160.38,-6 160.38,-13"/>
</a>
</g>
</g>
</g>
</svg>
