<?xml version="1.0" encoding="UTF-8" standalone="no"?>
<!DOCTYPE svg PUBLIC "-//W3C//DTD SVG 1.1//EN"
 "http://www.w3.org/Graphics/SVG/1.1/DTD/svg11.dtd">
<!-- Generated by graphviz version 2.43.0 (0)
 -->
<!-- Title: Email\testEmail Pages: 1 -->
<svg width="560pt" height="64pt"
 viewBox="0.00 0.00 560.00 64.00" xmlns="http://www.w3.org/2000/svg" xmlns:xlink="http://www.w3.org/1999/xlink">
<g id="graph0" class="graph" transform="scale(1 1) rotate(0) translate(4 60)">
<title>Email\testEmail</title>
<!-- Node1 -->
<g id="Node000001" class="node">
<title>Node1</title>
<g id="a_Node000001"><a xlink:title="Fonction de test simple de la classe Email avec un nom et un email factices.">
<polygon fill="#999999" stroke="#666666" points="94,-37 0,-37 0,-18 94,-18 94,-37"/>
<text text-anchor="middle" x="47" y="-25" font-family="Helvetica,sans-Serif" font-size="10.00">Email\testEmail</text>
</a>
</g>
</g>
<!-- Node2 -->
<g id="Node000002" class="node">
<title>Node2</title>
<g id="a_Node000002"><a xlink:href="classEmail.html#a67accca2885af8491566d685127f069c" target="_top" xlink:title="Envoie un email de bienvenue à un nouvel utilisateur.">
<polygon fill="white" stroke="#666666" points="273,-37 130,-37 130,-18 273,-18 273,-37"/>
<text text-anchor="middle" x="201.5" y="-25" font-family="Helvetica,sans-Serif" font-size="10.00">Email\sendWelcomeEmail</text>
</a>
</g>
</g>
<!-- Node1&#45;&gt;Node2 -->
<g id="edge1_Node000001_Node000002" class="edge">
<title>Node1&#45;&gt;Node2</title>
<g id="a_edge1_Node000001_Node000002"><a xlink:title=" ">
<path fill="none" stroke="#63b8ff" d="M94.17,-27.5C102.23,-27.5 110.83,-27.5 119.52,-27.5"/>
<polygon fill="#63b8ff" stroke="#63b8ff" points="119.72,-31 129.72,-27.5 119.72,-24 119.72,-31"/>
</a>
</g>
</g>
<!-- Node3 -->
<g id="Node000003" class="node">
<title>Node3</title>
<g id="a_Node000003"><a xlink:href="classEmail.html#ae28ae8c6b6977c4fa419438f93f5ea3a" target="_top" xlink:title="Récupère l&#39;URL du site.">
<polygon fill="white" stroke="#666666" points="406,-56 310,-56 310,-37 406,-37 406,-56"/>
<text text-anchor="middle" x="358" y="-44" font-family="Helvetica,sans-Serif" font-size="10.00">Email\getSiteUrl</text>
</a>
</g>
</g>
<!-- Node2&#45;&gt;Node3 -->
<g id="edge2_Node000002_Node000003" class="edge">
<title>Node2&#45;&gt;Node3</title>
<g id="a_edge2_Node000002_Node000003"><a xlink:title=" ">
<path fill="none" stroke="#63b8ff" d="M273.42,-36.22C282.31,-37.32 291.32,-38.42 299.97,-39.49"/>
<polygon fill="#63b8ff" stroke="#63b8ff" points="299.56,-42.96 309.92,-40.71 300.42,-36.02 299.56,-42.96"/>
</a>
</g>
</g>
<!-- Node4 -->
<g id="Node000004" class="node">
<title>Node4</title>
<g id="a_Node000004"><a xlink:href="classEmail.html#a9aca469b70f5907964a1ee99dc76d787" target="_top" xlink:title="Envoie un email générique.">
<polygon fill="white" stroke="#666666" points="407,-19 309,-19 309,0 407,0 407,-19"/>
<text text-anchor="middle" x="358" y="-7" font-family="Helvetica,sans-Serif" font-size="10.00">Email\sendEmail</text>
</a>
</g>
</g>
<!-- Node2&#45;&gt;Node4 -->
<g id="edge3_Node000002_Node000004" class="edge">
<title>Node2&#45;&gt;Node4</title>
<g id="a_edge3_Node000002_Node000004"><a xlink:title=" ">
<path fill="none" stroke="#63b8ff" d="M273.42,-19.24C281.79,-18.26 290.25,-17.28 298.42,-16.32"/>
<polygon fill="#63b8ff" stroke="#63b8ff" points="299.05,-19.77 308.58,-15.14 298.24,-12.82 299.05,-19.77"/>
</a>
</g>
</g>
<!-- Node5 -->
<g id="Node000005" class="node">
<title>Node5</title>
<g id="a_Node000005"><a xlink:href="classEmail.html#ad45a36acb02ab1c873e93ccbb98de680" target="_top" xlink:title="Crée et configure une instance PHPMailer.">
<polygon fill="white" stroke="#666666" points="552,-19 443,-19 443,0 552,0 552,-19"/>
<text text-anchor="middle" x="497.5" y="-7" font-family="Helvetica,sans-Serif" font-size="10.00">Email\createMailer</text>
</a>
</g>
</g>
<!-- Node4&#45;&gt;Node5 -->
<g id="edge4_Node000004_Node000005" class="edge">
<title>Node4&#45;&gt;Node5</title>
<g id="a_edge4_Node000004_Node000005"><a xlink:title=" ">
<path fill="none" stroke="#63b8ff" d="M407.09,-9.5C415.24,-9.5 423.81,-9.5 432.3,-9.5"/>
<polygon fill="#63b8ff" stroke="#63b8ff" points="432.56,-13 442.56,-9.5 432.56,-6 432.56,-13"/>
</a>
</g>
</g>
</g>
</svg>
