<?xml version="1.0" encoding="UTF-8" standalone="no"?>
<!DOCTYPE svg PUBLIC "-//W3C//DTD SVG 1.1//EN"
 "http://www.w3.org/Graphics/SVG/1.1/DTD/svg11.dtd">
<!-- Generated by graphviz version 2.43.0 (0)
 -->
<!-- Title: Controller\show405 Pages: 1 -->
<svg width="298pt" height="182pt"
 viewBox="0.00 0.00 298.00 182.00" xmlns="http://www.w3.org/2000/svg" xmlns:xlink="http://www.w3.org/1999/xlink">
<g id="graph0" class="graph" transform="scale(1 1) rotate(0) translate(4 178)">
<title>Controller\show405</title>
<!-- Node1 -->
<g id="Node000001" class="node">
<title>Node1</title>
<g id="a_Node000001"><a xlink:title="Affiche une erreur 405 Méthode non autorisée.">
<polygon fill="#999999" stroke="#666666" points="290,-96.5 179,-96.5 179,-77.5 290,-77.5 290,-96.5"/>
<text text-anchor="middle" x="234.5" y="-84.5" font-family="Helvetica,sans-Serif" font-size="10.00">Controller\show405</text>
</a>
</g>
</g>
<!-- Node2 -->
<g id="Node000002" class="node">
<title>Node2</title>
<g id="a_Node000002"><a xlink:href="classControllerUtilisateur.html#a0e6ff8b903944ba1de24d13278ec3082" target="_top" xlink:title="Traite la demande de réinitialisation de mot de passe.">
<polygon fill="white" stroke="#666666" points="143,-174 0,-174 0,-144 143,-144 143,-174"/>
<text text-anchor="start" x="8" y="-162" font-family="Helvetica,sans-Serif" font-size="10.00">ControllerUtilisateur</text>
<text text-anchor="middle" x="71.5" y="-151" font-family="Helvetica,sans-Serif" font-size="10.00">\demanderReinitialisation</text>
</a>
</g>
</g>
<!-- Node1&#45;&gt;Node2 -->
<g id="edge1_Node000001_Node000002" class="edge">
<title>Node1&#45;&gt;Node2</title>
<g id="a_edge1_Node000001_Node000002"><a xlink:title=" ">
<path fill="none" stroke="#63b8ff" d="M208.05,-101.91C190.2,-112 165.59,-125.24 143,-135 135.76,-138.13 127.97,-141.13 120.3,-143.88"/>
<polygon fill="#63b8ff" stroke="#63b8ff" points="210.27,-104.67 217.21,-96.66 206.79,-98.59 210.27,-104.67"/>
</a>
</g>
</g>
<!-- Node3 -->
<g id="Node000003" class="node">
<title>Node3</title>
<g id="a_Node000003"><a xlink:href="classControllerUtilisateur.html#afd558d0616f1e5fca72af8f49ef5de3e" target="_top" xlink:title="Gère la connexion (authentification) d&#39;un utilisateur.">
<polygon fill="white" stroke="#666666" points="129.5,-126 13.5,-126 13.5,-96 129.5,-96 129.5,-126"/>
<text text-anchor="start" x="21.5" y="-114" font-family="Helvetica,sans-Serif" font-size="10.00">ControllerUtilisateur</text>
<text text-anchor="middle" x="71.5" y="-103" font-family="Helvetica,sans-Serif" font-size="10.00">\signin</text>
</a>
</g>
</g>
<!-- Node1&#45;&gt;Node3 -->
<g id="edge2_Node000001_Node000003" class="edge">
<title>Node1&#45;&gt;Node3</title>
<g id="a_edge2_Node000001_Node000003"><a xlink:title=" ">
<path fill="none" stroke="#63b8ff" d="M168.77,-96.65C155.85,-98.58 142.35,-100.59 129.7,-102.47"/>
<polygon fill="#63b8ff" stroke="#63b8ff" points="169.62,-100.06 178.99,-95.13 168.59,-93.14 169.62,-100.06"/>
</a>
</g>
</g>
<!-- Node4 -->
<g id="Node000004" class="node">
<title>Node4</title>
<g id="a_Node000004"><a xlink:href="classControllerUtilisateur.html#a6a37c32b8d27a485a0706ac537fcf191" target="_top" xlink:title="Gère l&#39;inscription d&#39;un nouvel utilisateur.">
<polygon fill="white" stroke="#666666" points="129.5,-78 13.5,-78 13.5,-48 129.5,-48 129.5,-78"/>
<text text-anchor="start" x="21.5" y="-66" font-family="Helvetica,sans-Serif" font-size="10.00">ControllerUtilisateur</text>
<text text-anchor="middle" x="71.5" y="-55" font-family="Helvetica,sans-Serif" font-size="10.00">\signup</text>
</a>
</g>
</g>
<!-- Node1&#45;&gt;Node4 -->
<g id="edge3_Node000001_Node000004" class="edge">
<title>Node1&#45;&gt;Node4</title>
<g id="a_edge3_Node000001_Node000004"><a xlink:title=" ">
<path fill="none" stroke="#63b8ff" d="M168.77,-77.35C155.85,-75.42 142.35,-73.41 129.7,-71.53"/>
<polygon fill="#63b8ff" stroke="#63b8ff" points="168.59,-80.86 178.99,-78.87 169.62,-73.94 168.59,-80.86"/>
</a>
</g>
</g>
<!-- Node5 -->
<g id="Node000005" class="node">
<title>Node5</title>
<g id="a_Node000005"><a xlink:href="classControllerUtilisateur.html#ac23258d9876caad56dba0ffcb0669d53" target="_top" xlink:title="Traite la réinitialisation du mot de passe.">
<polygon fill="white" stroke="#666666" points="133,-30 10,-30 10,0 133,0 133,-30"/>
<text text-anchor="start" x="18" y="-18" font-family="Helvetica,sans-Serif" font-size="10.00">ControllerUtilisateur</text>
<text text-anchor="middle" x="71.5" y="-7" font-family="Helvetica,sans-Serif" font-size="10.00">\traiterReinitialisation</text>
</a>
</g>
</g>
<!-- Node1&#45;&gt;Node5 -->
<g id="edge4_Node000001_Node000005" class="edge">
<title>Node1&#45;&gt;Node5</title>
<g id="a_edge4_Node000001_Node000005"><a xlink:title=" ">
<path fill="none" stroke="#63b8ff" d="M208.05,-72.09C190.2,-62 165.59,-48.76 143,-39 135.76,-35.87 127.97,-32.87 120.3,-30.12"/>
<polygon fill="#63b8ff" stroke="#63b8ff" points="206.79,-75.41 217.21,-77.34 210.27,-69.33 206.79,-75.41"/>
</a>
</g>
</g>
</g>
</svg>
