<?xml version="1.0" encoding="UTF-8" standalone="no"?>
<!DOCTYPE svg PUBLIC "-//W3C//DTD SVG 1.1//EN"
 "http://www.w3.org/Graphics/SVG/1.1/DTD/svg11.dtd">
<!-- Generated by graphviz version 2.43.0 (0)
 -->
<!-- Title: ControllerAdmin Pages: 1 -->
<svg width="112pt" height="502pt"
 viewBox="0.00 0.00 112.00 502.00" xmlns="http://www.w3.org/2000/svg" xmlns:xlink="http://www.w3.org/1999/xlink">
<g id="graph0" class="graph" transform="scale(1 1) rotate(0) translate(4 498)">
<title>ControllerAdmin</title>
<!-- Node1 -->
<g id="Node000001" class="node">
<title>Node1</title>
<g id="a_Node000001"><a xlink:title="Contrôleur dédié à la gestion de l&#39;administration.">
<polygon fill="#999999" stroke="transparent" points="97,-109 7,-109 7,0 97,0 97,-109"/>
<text text-anchor="start" x="12" y="-96.5" font-family="Helvetica,sans-Serif" font-size="10.00">ControllerAdmin</text>
<text text-anchor="start" x="50" y="-81.5" font-family="Helvetica,sans-Serif" font-size="10.00"> </text>
<text text-anchor="start" x="12" y="-66.5" font-family="Helvetica,sans-Serif" font-size="10.00">+</text>
<text text-anchor="start" x="26" y="-66.5" font-family="Helvetica,sans-Serif" font-size="10.00">__construct()</text>
<text text-anchor="start" x="12" y="-51.5" font-family="Helvetica,sans-Serif" font-size="10.00">+</text>
<text text-anchor="start" x="26" y="-51.5" font-family="Helvetica,sans-Serif" font-size="10.00">afficher()</text>
<text text-anchor="start" x="12" y="-36.5" font-family="Helvetica,sans-Serif" font-size="10.00">+</text>
<text text-anchor="start" x="26" y="-36.5" font-family="Helvetica,sans-Serif" font-size="10.00">supprimer()</text>
<text text-anchor="start" x="12" y="-21.5" font-family="Helvetica,sans-Serif" font-size="10.00">+</text>
<text text-anchor="start" x="26" y="-21.5" font-family="Helvetica,sans-Serif" font-size="10.00">consulter()</text>
<text text-anchor="start" x="12" y="-6.5" font-family="Helvetica,sans-Serif" font-size="10.00">+</text>
<text text-anchor="start" x="26" y="-6.5" font-family="Helvetica,sans-Serif" font-size="10.00">modifier()</text>
<polygon fill="#666666" stroke="#666666" points="7,-91.5 7,-91.5 97,-91.5 97,-91.5 7,-91.5"/>
<polygon fill="#666666" stroke="#666666" points="7,-76.5 7,-76.5 97,-76.5 97,-76.5 7,-76.5"/>
<polygon fill="none" stroke="#666666" points="7,0 7,-109 97,-109 97,0 7,0"/>
</a>
</g>
</g>
<!-- Node2 -->
<g id="Node000002" class="node">
<title>Node2</title>
<g id="a_Node000002"><a xlink:href="classController.html" target="_top" xlink:title="Classe de base pour tous les contrôleurs de l&#39;application.">
<polygon fill="white" stroke="transparent" points="104,-494 0,-494 0,-145 104,-145 104,-494"/>
<text text-anchor="start" x="27.5" y="-481.5" font-family="Helvetica,sans-Serif" font-size="10.00">Controller</text>
<text text-anchor="start" x="6.5" y="-466.5" font-family="Helvetica,sans-Serif" font-size="10.00">&#45;</text>
<text text-anchor="start" x="17" y="-466.5" font-family="Helvetica,sans-Serif" font-size="10.00">$pdo</text>
<text text-anchor="start" x="6.5" y="-451.5" font-family="Helvetica,sans-Serif" font-size="10.00">&#45;</text>
<text text-anchor="start" x="17" y="-451.5" font-family="Helvetica,sans-Serif" font-size="10.00">$loader</text>
<text text-anchor="start" x="6.5" y="-436.5" font-family="Helvetica,sans-Serif" font-size="10.00">&#45;</text>
<text text-anchor="start" x="17" y="-436.5" font-family="Helvetica,sans-Serif" font-size="10.00">$twig</text>
<text text-anchor="start" x="6.5" y="-421.5" font-family="Helvetica,sans-Serif" font-size="10.00">&#45;</text>
<text text-anchor="start" x="17" y="-421.5" font-family="Helvetica,sans-Serif" font-size="10.00">$get</text>
<text text-anchor="start" x="6.5" y="-406.5" font-family="Helvetica,sans-Serif" font-size="10.00">&#45;</text>
<text text-anchor="start" x="17" y="-406.5" font-family="Helvetica,sans-Serif" font-size="10.00">$post</text>
<text text-anchor="start" x="4" y="-391.5" font-family="Helvetica,sans-Serif" font-size="10.00">+</text>
<text text-anchor="start" x="17" y="-391.5" font-family="Helvetica,sans-Serif" font-size="10.00">__construct()</text>
<text text-anchor="start" x="4" y="-376.5" font-family="Helvetica,sans-Serif" font-size="10.00">+</text>
<text text-anchor="start" x="17" y="-376.5" font-family="Helvetica,sans-Serif" font-size="10.00">call()</text>
<text text-anchor="start" x="4" y="-361.5" font-family="Helvetica,sans-Serif" font-size="10.00">+</text>
<text text-anchor="start" x="17" y="-361.5" font-family="Helvetica,sans-Serif" font-size="10.00">getPDO()</text>
<text text-anchor="start" x="4" y="-346.5" font-family="Helvetica,sans-Serif" font-size="10.00">+</text>
<text text-anchor="start" x="17" y="-346.5" font-family="Helvetica,sans-Serif" font-size="10.00">setPDO()</text>
<text text-anchor="start" x="4" y="-331.5" font-family="Helvetica,sans-Serif" font-size="10.00">+</text>
<text text-anchor="start" x="17" y="-331.5" font-family="Helvetica,sans-Serif" font-size="10.00">getLoader()</text>
<text text-anchor="start" x="4" y="-316.5" font-family="Helvetica,sans-Serif" font-size="10.00">+</text>
<text text-anchor="start" x="17" y="-316.5" font-family="Helvetica,sans-Serif" font-size="10.00">setLoader()</text>
<text text-anchor="start" x="4" y="-301.5" font-family="Helvetica,sans-Serif" font-size="10.00">+</text>
<text text-anchor="start" x="17" y="-301.5" font-family="Helvetica,sans-Serif" font-size="10.00">getTwig()</text>
<text text-anchor="start" x="4" y="-286.5" font-family="Helvetica,sans-Serif" font-size="10.00">+</text>
<text text-anchor="start" x="17" y="-286.5" font-family="Helvetica,sans-Serif" font-size="10.00">setTwig()</text>
<text text-anchor="start" x="4" y="-271.5" font-family="Helvetica,sans-Serif" font-size="10.00">+</text>
<text text-anchor="start" x="17" y="-271.5" font-family="Helvetica,sans-Serif" font-size="10.00">getGet()</text>
<text text-anchor="start" x="4" y="-256.5" font-family="Helvetica,sans-Serif" font-size="10.00">+</text>
<text text-anchor="start" x="17" y="-256.5" font-family="Helvetica,sans-Serif" font-size="10.00">setGet()</text>
<text text-anchor="start" x="4" y="-241.5" font-family="Helvetica,sans-Serif" font-size="10.00">+</text>
<text text-anchor="start" x="17" y="-241.5" font-family="Helvetica,sans-Serif" font-size="10.00">getPost()</text>
<text text-anchor="start" x="4" y="-226.5" font-family="Helvetica,sans-Serif" font-size="10.00">+</text>
<text text-anchor="start" x="17" y="-226.5" font-family="Helvetica,sans-Serif" font-size="10.00">setPost()</text>
<text text-anchor="start" x="4" y="-211.5" font-family="Helvetica,sans-Serif" font-size="10.00">#</text>
<text text-anchor="start" x="17" y="-211.5" font-family="Helvetica,sans-Serif" font-size="10.00">requireAuth()</text>
<text text-anchor="start" x="4" y="-196.5" font-family="Helvetica,sans-Serif" font-size="10.00">#</text>
<text text-anchor="start" x="17" y="-196.5" font-family="Helvetica,sans-Serif" font-size="10.00">requireRole()</text>
<text text-anchor="start" x="4" y="-181.5" font-family="Helvetica,sans-Serif" font-size="10.00">#</text>
<text text-anchor="start" x="17" y="-181.5" font-family="Helvetica,sans-Serif" font-size="10.00">redirectTo()</text>
<text text-anchor="start" x="4" y="-166.5" font-family="Helvetica,sans-Serif" font-size="10.00">#</text>
<text text-anchor="start" x="17" y="-166.5" font-family="Helvetica,sans-Serif" font-size="10.00">show405()</text>
<text text-anchor="start" x="4" y="-151.5" font-family="Helvetica,sans-Serif" font-size="10.00">#</text>
<text text-anchor="start" x="17" y="-151.5" font-family="Helvetica,sans-Serif" font-size="10.00">requireAnyRole()</text>
<polygon fill="#666666" stroke="#666666" points="0,-476.5 0,-476.5 104,-476.5 104,-476.5 0,-476.5"/>
<polygon fill="#666666" stroke="#666666" points="0,-401.5 0,-401.5 15,-401.5 15,-401.5 0,-401.5"/>
<polygon fill="#666666" stroke="#666666" points="15,-401.5 15,-401.5 104,-401.5 104,-401.5 15,-401.5"/>
<polygon fill="none" stroke="#666666" points="0,-145 0,-494 104,-494 104,-145 0,-145"/>
</a>
</g>
</g>
<!-- Node2&#45;&gt;Node1 -->
<g id="edge1_Node000001_Node000002" class="edge">
<title>Node2&#45;&gt;Node1</title>
<g id="a_edge1_Node000001_Node000002"><a xlink:title=" ">
<path fill="none" stroke="#63b8ff" d="M45.75,-134.67C45.93,-125.74 46.16,-117.19 46.43,-109.23"/>
<polygon fill="none" stroke="#63b8ff" points="42.25,-134.85 45.57,-144.91 49.24,-134.97 42.25,-134.85"/>
</a>
</g>
</g>
<!-- Node2&#45;&gt;Node1 -->
<g id="edge2_Node000001_Node000002" class="edge">
<title>Node2&#45;&gt;Node1</title>
<g id="a_edge2_Node000001_Node000002"><a xlink:title=" ">
<path fill="none" stroke="#63b8ff" d="M58.25,-134.67C58.07,-125.74 57.84,-117.19 57.57,-109.23"/>
<polygon fill="none" stroke="#63b8ff" points="54.76,-134.97 58.43,-144.91 61.75,-134.85 54.76,-134.97"/>
</a>
</g>
</g>
</g>
</svg>
