<?xml version="1.0" encoding="UTF-8" standalone="no"?>
<!DOCTYPE svg PUBLIC "-//W3C//DTD SVG 1.1//EN"
 "http://www.w3.org/Graphics/SVG/1.1/DTD/svg11.dtd">
<!-- Generated by graphviz version 2.43.0 (0)
 -->
<!-- Title: Email\sendBulkEmail Pages: 1 -->
<svg width="595pt" height="64pt"
 viewBox="0.00 0.00 595.00 64.00" xmlns="http://www.w3.org/2000/svg" xmlns:xlink="http://www.w3.org/1999/xlink">
<g id="graph0" class="graph" transform="scale(1 1) rotate(0) translate(4 60)">
<title>Email\sendBulkEmail</title>
<!-- Node1 -->
<g id="Node000001" class="node">
<title>Node1</title>
<g id="a_Node000001"><a xlink:title="Envoie un email en masse à plusieurs destinataires (pour la newsletter)">
<polygon fill="#999999" stroke="#666666" points="120,-37 0,-37 0,-18 120,-18 120,-37"/>
<text text-anchor="middle" x="60" y="-25" font-family="Helvetica,sans-Serif" font-size="10.00">Email\sendBulkEmail</text>
</a>
</g>
</g>
<!-- Node2 -->
<g id="Node000002" class="node">
<title>Node2</title>
<g id="a_Node000002"><a xlink:href="classEmail.html#a1ebc55f26145ec1d583b272e84c9c480" target="_top" xlink:title="Envoie un email de newsletter.">
<polygon fill="white" stroke="#666666" points="308,-37 156,-37 156,-18 308,-18 308,-37"/>
<text text-anchor="middle" x="232" y="-25" font-family="Helvetica,sans-Serif" font-size="10.00">Email\sendNewsletterEmail</text>
</a>
</g>
</g>
<!-- Node1&#45;&gt;Node2 -->
<g id="edge1_Node000001_Node000002" class="edge">
<title>Node1&#45;&gt;Node2</title>
<g id="a_edge1_Node000001_Node000002"><a xlink:title=" ">
<path fill="none" stroke="#63b8ff" d="M120.46,-27.5C128.65,-27.5 137.19,-27.5 145.73,-27.5"/>
<polygon fill="#63b8ff" stroke="#63b8ff" points="145.74,-31 155.74,-27.5 145.74,-24 145.74,-31"/>
</a>
</g>
</g>
<!-- Node3 -->
<g id="Node000003" class="node">
<title>Node3</title>
<g id="a_Node000003"><a xlink:href="classEmail.html#ae28ae8c6b6977c4fa419438f93f5ea3a" target="_top" xlink:title="Récupère l&#39;URL du site.">
<polygon fill="white" stroke="#666666" points="441,-56 345,-56 345,-37 441,-37 441,-56"/>
<text text-anchor="middle" x="393" y="-44" font-family="Helvetica,sans-Serif" font-size="10.00">Email\getSiteUrl</text>
</a>
</g>
</g>
<!-- Node2&#45;&gt;Node3 -->
<g id="edge2_Node000002_Node000003" class="edge">
<title>Node2&#45;&gt;Node3</title>
<g id="a_edge2_Node000002_Node000003"><a xlink:title=" ">
<path fill="none" stroke="#63b8ff" d="M308.31,-36.5C317.1,-37.55 325.95,-38.61 334.45,-39.62"/>
<polygon fill="#63b8ff" stroke="#63b8ff" points="334.25,-43.12 344.6,-40.84 335.09,-36.17 334.25,-43.12"/>
</a>
</g>
</g>
<!-- Node4 -->
<g id="Node000004" class="node">
<title>Node4</title>
<g id="a_Node000004"><a xlink:href="classEmail.html#a9aca469b70f5907964a1ee99dc76d787" target="_top" xlink:title="Envoie un email générique.">
<polygon fill="white" stroke="#666666" points="442,-19 344,-19 344,0 442,0 442,-19"/>
<text text-anchor="middle" x="393" y="-7" font-family="Helvetica,sans-Serif" font-size="10.00">Email\sendEmail</text>
</a>
</g>
</g>
<!-- Node2&#45;&gt;Node4 -->
<g id="edge3_Node000002_Node000004" class="edge">
<title>Node2&#45;&gt;Node4</title>
<g id="a_edge3_Node000002_Node000004"><a xlink:title=" ">
<path fill="none" stroke="#63b8ff" d="M308.31,-18.97C316.77,-18.02 325.3,-17.05 333.51,-16.12"/>
<polygon fill="#63b8ff" stroke="#63b8ff" points="334.16,-19.57 343.71,-14.97 333.38,-12.61 334.16,-19.57"/>
</a>
</g>
</g>
<!-- Node5 -->
<g id="Node000005" class="node">
<title>Node5</title>
<g id="a_Node000005"><a xlink:href="classEmail.html#ad45a36acb02ab1c873e93ccbb98de680" target="_top" xlink:title="Crée et configure une instance PHPMailer.">
<polygon fill="white" stroke="#666666" points="587,-19 478,-19 478,0 587,0 587,-19"/>
<text text-anchor="middle" x="532.5" y="-7" font-family="Helvetica,sans-Serif" font-size="10.00">Email\createMailer</text>
</a>
</g>
</g>
<!-- Node4&#45;&gt;Node5 -->
<g id="edge4_Node000004_Node000005" class="edge">
<title>Node4&#45;&gt;Node5</title>
<g id="a_edge4_Node000004_Node000005"><a xlink:title=" ">
<path fill="none" stroke="#63b8ff" d="M442.09,-9.5C450.24,-9.5 458.81,-9.5 467.3,-9.5"/>
<polygon fill="#63b8ff" stroke="#63b8ff" points="467.56,-13 477.56,-9.5 467.56,-6 467.56,-13"/>
</a>
</g>
</g>
</g>
</svg>
