<?xml version="1.0" encoding="UTF-8" standalone="no"?>
<!DOCTYPE svg PUBLIC "-//W3C//DTD SVG 1.1//EN"
 "http://www.w3.org/Graphics/SVG/1.1/DTD/svg11.dtd">
<!-- Generated by graphviz version 2.43.0 (0)
 -->
<!-- Title: ControllerAlbum\modifierChanson Pages: 1 -->
<svg width="621pt" height="140pt"
 viewBox="0.00 0.00 621.00 140.00" xmlns="http://www.w3.org/2000/svg" xmlns:xlink="http://www.w3.org/1999/xlink">
<g id="graph0" class="graph" transform="scale(1 1) rotate(0) translate(4 136)">
<title>ControllerAlbum\modifierChanson</title>
<!-- Node1 -->
<g id="Node000001" class="node">
<title>Node1</title>
<g id="a_Node000001"><a xlink:title="Modifie les informations d&#39;une chanson.">
<polygon fill="#999999" stroke="#666666" points="140,-99.5 0,-99.5 0,-69.5 140,-69.5 140,-99.5"/>
<text text-anchor="start" x="8" y="-87.5" font-family="Helvetica,sans-Serif" font-size="10.00">ControllerAlbum\modifier</text>
<text text-anchor="middle" x="70" y="-76.5" font-family="Helvetica,sans-Serif" font-size="10.00">Chanson</text>
</a>
</g>
</g>
<!-- Node2 -->
<g id="Node000002" class="node">
<title>Node2</title>
<g id="a_Node000002"><a xlink:href="classController.html#aed88cab8d9c1a6735fd3aac0993e5021" target="_top" xlink:title="Récupère la connexion PDO.">
<polygon fill="white" stroke="#666666" points="290,-132 186,-132 186,-113 290,-113 290,-132"/>
<text text-anchor="middle" x="238" y="-120" font-family="Helvetica,sans-Serif" font-size="10.00">Controller\getPDO</text>
</a>
</g>
</g>
<!-- Node1&#45;&gt;Node2 -->
<g id="edge1_Node000001_Node000002" class="edge">
<title>Node1&#45;&gt;Node2</title>
<g id="a_edge1_Node000001_Node000002"><a xlink:title=" ">
<path fill="none" stroke="#63b8ff" d="M136.61,-99.52C152.81,-103.23 169.95,-107.15 185.38,-110.68"/>
<polygon fill="#63b8ff" stroke="#63b8ff" points="184.72,-114.12 195.25,-112.94 186.29,-107.3 184.72,-114.12"/>
</a>
</g>
</g>
<!-- Node3 -->
<g id="Node000003" class="node">
<title>Node3</title>
<g id="a_Node000003"><a xlink:href="classController.html#a56c96fd35f673f4d5084ef7ad0cd395c" target="_top" xlink:title="Redirige vers un contrôleur et une méthode donnés.">
<polygon fill="white" stroke="#666666" points="613,-56 497,-56 497,-37 613,-37 613,-56"/>
<text text-anchor="middle" x="555" y="-44" font-family="Helvetica,sans-Serif" font-size="10.00">Controller\redirectTo</text>
</a>
</g>
</g>
<!-- Node1&#45;&gt;Node3 -->
<g id="edge2_Node000001_Node000003" class="edge">
<title>Node1&#45;&gt;Node3</title>
<g id="a_edge2_Node000001_Node000003"><a xlink:title=" ">
<path fill="none" stroke="#63b8ff" d="M140.32,-84.31C218.51,-83.36 349.35,-79.54 461,-65.5 475.08,-63.73 490.21,-61 504.09,-58.16"/>
<polygon fill="#63b8ff" stroke="#63b8ff" points="504.88,-61.57 513.94,-56.08 503.43,-54.72 504.88,-61.57"/>
</a>
</g>
</g>
<!-- Node4 -->
<g id="Node000004" class="node">
<title>Node4</title>
<g id="a_Node000004"><a xlink:href="classController.html#a3c8ca59e4609ef5e27e868a91f5ce090" target="_top" xlink:title="Exige que l&#39;utilisateur ait un rôle spécifique.">
<polygon fill="white" stroke="#666666" points="300,-56 176,-56 176,-37 300,-37 300,-56"/>
<text text-anchor="middle" x="238" y="-44" font-family="Helvetica,sans-Serif" font-size="10.00">Controller\requireRole</text>
</a>
</g>
</g>
<!-- Node1&#45;&gt;Node4 -->
<g id="edge3_Node000001_Node000004" class="edge">
<title>Node1&#45;&gt;Node4</title>
<g id="a_edge3_Node000001_Node000004"><a xlink:title=" ">
<path fill="none" stroke="#63b8ff" d="M136.61,-69.48C152.81,-65.77 169.95,-61.85 185.38,-58.32"/>
<polygon fill="#63b8ff" stroke="#63b8ff" points="186.29,-61.7 195.25,-56.06 184.72,-54.88 186.29,-61.7"/>
</a>
</g>
</g>
<!-- Node5 -->
<g id="Node000005" class="node">
<title>Node5</title>
<g id="a_Node000005"><a xlink:href="classController.html#afd7d94db564ae6e196ac7ac0461e0989" target="_top" xlink:title="Récupère l&#39;environnement Twig.">
<polygon fill="white" stroke="#666666" points="451,-56 346,-56 346,-37 451,-37 451,-56"/>
<text text-anchor="middle" x="398.5" y="-44" font-family="Helvetica,sans-Serif" font-size="10.00">Controller\getTwig</text>
</a>
</g>
</g>
<!-- Node4&#45;&gt;Node5 -->
<g id="edge4_Node000004_Node000005" class="edge">
<title>Node4&#45;&gt;Node5</title>
<g id="a_edge4_Node000004_Node000005"><a xlink:title=" ">
<path fill="none" stroke="#63b8ff" d="M300.28,-46.5C311.94,-46.5 324.14,-46.5 335.81,-46.5"/>
<polygon fill="#63b8ff" stroke="#63b8ff" points="335.9,-50 345.9,-46.5 335.9,-43 335.9,-50"/>
</a>
</g>
</g>
<!-- Node6 -->
<g id="Node000006" class="node">
<title>Node6</title>
<g id="a_Node000006"><a xlink:href="classController.html#a769e4e81d545b126413501bb3f3e77c3" target="_top" xlink:title="Exige que l&#39;utilisateur soit authentifié.">
<polygon fill="white" stroke="#666666" points="461,-19 336,-19 336,0 461,0 461,-19"/>
<text text-anchor="middle" x="398.5" y="-7" font-family="Helvetica,sans-Serif" font-size="10.00">Controller\requireAuth</text>
</a>
</g>
</g>
<!-- Node4&#45;&gt;Node6 -->
<g id="edge5_Node000004_Node000006" class="edge">
<title>Node4&#45;&gt;Node6</title>
<g id="a_edge5_Node000004_Node000006"><a xlink:title=" ">
<path fill="none" stroke="#63b8ff" d="M279.82,-36.97C300.17,-32.22 324.98,-26.43 346.56,-21.39"/>
<polygon fill="#63b8ff" stroke="#63b8ff" points="347.6,-24.74 356.55,-19.06 346.01,-17.93 347.6,-24.74"/>
</a>
</g>
</g>
<!-- Node6&#45;&gt;Node3 -->
<g id="edge6_Node000006_Node000003" class="edge">
<title>Node6&#45;&gt;Node3</title>
<g id="a_edge6_Node000006_Node000003"><a xlink:title=" ">
<path fill="none" stroke="#63b8ff" d="M439.29,-19.03C459.12,-23.78 483.31,-29.57 504.35,-34.61"/>
<polygon fill="#63b8ff" stroke="#63b8ff" points="503.54,-38.01 514.08,-36.94 505.17,-31.21 503.54,-38.01"/>
</a>
</g>
</g>
</g>
</svg>
