<?xml version="1.0" encoding="UTF-8" standalone="no"?>
<!DOCTYPE svg PUBLIC "-//W3C//DTD SVG 1.1//EN"
 "http://www.w3.org/Graphics/SVG/1.1/DTD/svg11.dtd">
<!-- Generated by graphviz version 2.43.0 (0)
 -->
<!-- Title: UtilisateurDAO\create Pages: 1 -->
<!--zoomable 737 -->

<svg id="main" version="1.1" xmlns="http://www.w3.org/2000/svg" xmlns:xlink="http://www.w3.org/1999/xlink" xml:space="preserve" onload="init(evt)">
<style type="text/css"><![CDATA[
.node, .edge {opacity: 0.7;}
.node.selected, .edge.selected {opacity: 1;}
.edge:hover path { stroke: red; }
.edge:hover polygon { stroke: red; fill: red; }
]]></style>

<defs>
  <circle id="rim" cx="0" cy="0" r="7"/>
  <circle id="rim2" cx="0" cy="0" r="3.5"/>
  <g id="zoomPlus">
    <use xlink:href="#rim" fill="#404040"><set attributeName="fill" to="#808080" begin="zoomplus.mouseover" end="zoomplus.mouseout"/></use>
    <path d="M-4,0h8M0,-4v8" fill="none" stroke="white" stroke-width="1.5" pointer-events="none"/>
  </g>
  <g id="zoomMin">
    <use xlink:href="#rim" fill="#404040"><set attributeName="fill" to="#808080" begin="zoomminus.mouseover" end="zoomminus.mouseout"/></use>
    <path d="M-4,0h8" fill="none" stroke="white" stroke-width="1.5" pointer-events="none"/>
  </g>
  <g id="arrowUp" transform="translate(30 24)">
    <use xlink:href="#rim"/>
    <path pointer-events="none" fill="none" stroke="white" stroke-width="1.5" d="M0,-3.0v7 M-2.5,-0.5L0,-3.0L2.5,-0.5"/>
  </g>
  <g id="arrowRight" transform="rotate(90) translate(36 -43)">
    <use xlink:href="#rim"/>
    <path pointer-events="none" fill="none" stroke="white" stroke-width="1.5" d="M0,-3.0v7 M-2.5,-0.5L0,-3.0L2.5,-0.5"/>
  </g>
  <g id="arrowDown" transform="rotate(180) translate(-30 -48)">
    <use xlink:href="#rim"/>
    <path pointer-events="none" fill="none" stroke="white" stroke-width="1.5" d="M0,-3.0v7 M-2.5,-0.5L0,-3.0L2.5,-0.5"/>
  </g>
  <g id="arrowLeft" transform="rotate(270) translate(-36 17)">
    <use xlink:href="#rim"/>
    <path pointer-events="none" fill="none" stroke="white" stroke-width="1.5" d="M0,-3.0v7 M-2.5,-0.5L0,-3.0L2.5,-0.5"/>
  </g>
  <g id="resetDef">
    <use xlink:href="#rim2" fill="#404040"><set attributeName="fill" to="#808080" begin="reset.mouseover" end="reset.mouseout"/></use>
  </g>
</defs>
<script type="application/ecmascript">
var viewWidth = 353;
var viewHeight = 737;
var sectionId = 'dynsection-2';
</script>
<script type="application/ecmascript" xlink:href="svg.min.js"/>
<svg id="graph" class="graph">
<g id="viewport">
<title>UtilisateurDAO\create</title>
<!-- Node1 -->
<g id="Node000001" class="node">
<title>Node1</title>
<g id="a_Node000001"><a xlink:title="Crée un nouvel utilisateur dans la base de données.">
<polygon fill="#999999" stroke="#666666" points="123,-357 0,-357 0,-338 123,-338 123,-357"/>
<text text-anchor="middle" x="61.5" y="-345" font-family="Helvetica,sans-Serif" font-size="10.00">UtilisateurDAO\create</text>
</a>
</g>
</g>
<!-- Node2 -->
<g id="Node000002" class="node">
<title>Node2</title>
<g id="a_Node000002"><a xlink:href="classUtilisateur.html#abf7d571f136cf48f6c7127db9a8fb310" target="_top" xlink:title="Getter pour dateDebutAbonnement.">
<polygon fill="white" stroke="#666666" points="321.5,-728.5 182.5,-728.5 182.5,-698.5 321.5,-698.5 321.5,-728.5"/>
<text text-anchor="start" x="190.5" y="-716.5" font-family="Helvetica,sans-Serif" font-size="10.00">Utilisateur\getDateDebut</text>
<text text-anchor="middle" x="252" y="-705.5" font-family="Helvetica,sans-Serif" font-size="10.00">Abonnement</text>
</a>
</g>
</g>
<!-- Node1&#45;&gt;Node2 -->
<g id="edge1_Node000001_Node000002" class="edge">
<title>Node1&#45;&gt;Node2</title>
<g id="a_edge1_Node000001_Node000002"><a xlink:title=" ">
<path fill="none" stroke="#63b8ff" d="M62.04,-357.06C60.45,-401.78 59.88,-592.32 159,-689.5 163.23,-693.65 168.08,-697.1 173.29,-699.98"/>
<polygon fill="#63b8ff" stroke="#63b8ff" points="171.83,-703.16 182.37,-704.29 174.84,-696.84 171.83,-703.16"/>
</a>
</g>
</g>
<!-- Node3 -->
<g id="Node000003" class="node">
<title>Node3</title>
<g id="a_Node000003"><a xlink:href="classUtilisateur.html#a578683d9d4a4fcdcf71a09078d3bc477" target="_top" xlink:title="Getter pour la date de naissance de l&#39;utilisateur.">
<polygon fill="white" stroke="#666666" points="338.5,-680.5 165.5,-680.5 165.5,-650.5 338.5,-650.5 338.5,-680.5"/>
<text text-anchor="start" x="173.5" y="-668.5" font-family="Helvetica,sans-Serif" font-size="10.00">Utilisateur\getDateDeNaissance</text>
<text text-anchor="middle" x="252" y="-657.5" font-family="Helvetica,sans-Serif" font-size="10.00">Utilisateur</text>
</a>
</g>
</g>
<!-- Node1&#45;&gt;Node3 -->
<g id="edge2_Node000001_Node000003" class="edge">
<title>Node1&#45;&gt;Node3</title>
<g id="a_edge2_Node000001_Node000003"><a xlink:title=" ">
<path fill="none" stroke="#63b8ff" d="M62.55,-357.08C63.31,-397.99 71.9,-559.64 159,-641.5 160.13,-642.56 161.3,-643.57 162.5,-644.55"/>
<polygon fill="#63b8ff" stroke="#63b8ff" points="160.71,-647.56 170.93,-650.34 164.67,-641.79 160.71,-647.56"/>
</a>
</g>
</g>
<!-- Node4 -->
<g id="Node000004" class="node">
<title>Node4</title>
<g id="a_Node000004"><a xlink:href="classUtilisateur.html#a85517ba68a1f7b866d4291d1bddaf8e5" target="_top" xlink:title="Getter pour dateFinAbonnement.">
<polygon fill="white" stroke="#666666" points="345,-632 159,-632 159,-613 345,-613 345,-632"/>
<text text-anchor="middle" x="252" y="-620" font-family="Helvetica,sans-Serif" font-size="10.00">Utilisateur\getDateFinAbonnement</text>
</a>
</g>
</g>
<!-- Node1&#45;&gt;Node4 -->
<g id="edge3_Node000001_Node000004" class="edge">
<title>Node1&#45;&gt;Node4</title>
<g id="a_edge3_Node000001_Node000004"><a xlink:title=" ">
<path fill="none" stroke="#63b8ff" d="M62.97,-357.24C65.39,-395.35 79.55,-535.63 159,-603.5 160.81,-605.05 162.72,-606.48 164.7,-607.81"/>
<polygon fill="#63b8ff" stroke="#63b8ff" points="163.41,-611.1 173.84,-612.97 166.85,-605 163.41,-611.1"/>
</a>
</g>
</g>
<!-- Node5 -->
<g id="Node000005" class="node">
<title>Node5</title>
<g id="a_Node000005"><a xlink:href="classUtilisateur.html#a2d059d7e690568b1291dad2b9ccb61d3" target="_top" xlink:title="Getter pour la date d&#39;inscription de l&#39;utilisateur.">
<polygon fill="white" stroke="#666666" points="332.5,-594.5 171.5,-594.5 171.5,-564.5 332.5,-564.5 332.5,-594.5"/>
<text text-anchor="start" x="179.5" y="-582.5" font-family="Helvetica,sans-Serif" font-size="10.00">Utilisateur\getDateInscription</text>
<text text-anchor="middle" x="252" y="-571.5" font-family="Helvetica,sans-Serif" font-size="10.00">Utilisateur</text>
</a>
</g>
</g>
<!-- Node1&#45;&gt;Node5 -->
<g id="edge4_Node000001_Node000005" class="edge">
<title>Node1&#45;&gt;Node5</title>
<g id="a_edge4_Node000001_Node000005"><a xlink:title=" ">
<path fill="none" stroke="#63b8ff" d="M64,-357.11C69.68,-390.2 93,-500.38 159,-555.5 160.39,-556.66 161.84,-557.77 163.32,-558.83"/>
<polygon fill="#63b8ff" stroke="#63b8ff" points="161.91,-562.07 172.27,-564.31 165.57,-556.1 161.91,-562.07"/>
</a>
</g>
</g>
<!-- Node6 -->
<g id="Node000006" class="node">
<title>Node6</title>
<g id="a_Node000006"><a xlink:href="classUtilisateur.html#a7a1076f86d0c81cda031f07c6c61a137" target="_top" xlink:title="Getter pour descriptionUtilisateur.">
<polygon fill="white" stroke="#666666" points="323,-546.5 181,-546.5 181,-516.5 323,-516.5 323,-546.5"/>
<text text-anchor="start" x="189" y="-534.5" font-family="Helvetica,sans-Serif" font-size="10.00">Utilisateur\getDescription</text>
<text text-anchor="middle" x="252" y="-523.5" font-family="Helvetica,sans-Serif" font-size="10.00">Utilisateur</text>
</a>
</g>
</g>
<!-- Node1&#45;&gt;Node6 -->
<g id="edge5_Node000001_Node000006" class="edge">
<title>Node1&#45;&gt;Node6</title>
<g id="a_edge5_Node000001_Node000006"><a xlink:title=" ">
<path fill="none" stroke="#63b8ff" d="M65.44,-357.19C74.45,-385.18 104.43,-466.73 159,-507.5 162.85,-510.37 167.01,-512.91 171.36,-515.13"/>
<polygon fill="#63b8ff" stroke="#63b8ff" points="169.98,-518.35 180.53,-519.3 172.87,-511.98 169.98,-518.35"/>
</a>
</g>
</g>
<!-- Node7 -->
<g id="Node000007" class="node">
<title>Node7</title>
<g id="a_Node000007"><a xlink:href="classUtilisateur.html#a9de32d421ad9988b9eed437621c66145" target="_top" xlink:title="Getter pour l&#39;email de l&#39;utilisateur.">
<polygon fill="white" stroke="#666666" points="334.5,-498 169.5,-498 169.5,-479 334.5,-479 334.5,-498"/>
<text text-anchor="middle" x="252" y="-486" font-family="Helvetica,sans-Serif" font-size="10.00">Utilisateur\getEmailUtilisateur</text>
</a>
</g>
</g>
<!-- Node1&#45;&gt;Node7 -->
<g id="edge6_Node000001_Node000007" class="edge">
<title>Node1&#45;&gt;Node7</title>
<g id="a_edge6_Node000001_Node000007"><a xlink:title=" ">
<path fill="none" stroke="#63b8ff" d="M66.98,-357.08C78.54,-380.65 111.78,-441.59 159,-470.5 161.69,-472.15 164.5,-473.65 167.39,-475.01"/>
<polygon fill="#63b8ff" stroke="#63b8ff" points="166.32,-478.36 176.89,-478.94 168.99,-471.89 166.32,-478.36"/>
</a>
</g>
</g>
<!-- Node8 -->
<g id="Node000008" class="node">
<title>Node8</title>
<g id="a_Node000008"><a xlink:href="classUtilisateur.html#adeaed5e2ebda7592bada6469900cb755" target="_top" xlink:title="Getter pour estAbonnee.">
<polygon fill="white" stroke="#666666" points="324,-461 180,-461 180,-442 324,-442 324,-461"/>
<text text-anchor="middle" x="252" y="-449" font-family="Helvetica,sans-Serif" font-size="10.00">Utilisateur\getEstAbonnee</text>
</a>
</g>
</g>
<!-- Node1&#45;&gt;Node8 -->
<g id="edge7_Node000001_Node000008" class="edge">
<title>Node1&#45;&gt;Node8</title>
<g id="a_edge7_Node000001_Node000008"><a xlink:title=" ">
<path fill="none" stroke="#63b8ff" d="M70.11,-357.06C85.06,-375.15 120.2,-414.25 159,-433.5 162.85,-435.41 166.89,-437.12 171.04,-438.65"/>
<polygon fill="#63b8ff" stroke="#63b8ff" points="170.27,-442.08 180.87,-441.9 172.47,-435.44 170.27,-442.08"/>
</a>
</g>
</g>
<!-- Node9 -->
<g id="Node000009" class="node">
<title>Node9</title>
<g id="a_Node000009"><a xlink:href="classUtilisateur.html#ae4ee6c81a734142f6463068e51ccd200" target="_top" xlink:title="Getter pour le genre musical préféré">
<polygon fill="white" stroke="#666666" points="335.5,-424 168.5,-424 168.5,-405 335.5,-405 335.5,-424"/>
<text text-anchor="middle" x="252" y="-412" font-family="Helvetica,sans-Serif" font-size="10.00">Utilisateur\getGenreUtilisateur</text>
</a>
</g>
</g>
<!-- Node1&#45;&gt;Node9 -->
<g id="edge8_Node000001_Node000009" class="edge">
<title>Node1&#45;&gt;Node9</title>
<g id="a_edge8_Node000001_Node000009"><a xlink:title=" ">
<path fill="none" stroke="#63b8ff" d="M78.67,-357.17C97.4,-367.98 129.46,-385.3 159,-395.5 166.87,-398.22 175.25,-400.61 183.64,-402.69"/>
<polygon fill="#63b8ff" stroke="#63b8ff" points="182.92,-406.12 193.45,-405 184.52,-399.3 182.92,-406.12"/>
</a>
</g>
</g>
<!-- Node10 -->
<g id="Node000010" class="node">
<title>Node10</title>
<g id="a_Node000010"><a xlink:href="classUtilisateur.html#a94dd42b9e5b879f53b18f30bbea5ef18" target="_top" xlink:title="Getter pour le mot de passe de l&#39;utilisateur.">
<polygon fill="white" stroke="#666666" points="325,-386.5 179,-386.5 179,-356.5 325,-356.5 325,-386.5"/>
<text text-anchor="start" x="187" y="-374.5" font-family="Helvetica,sans-Serif" font-size="10.00">Utilisateur\getMotDePasse</text>
<text text-anchor="middle" x="252" y="-363.5" font-family="Helvetica,sans-Serif" font-size="10.00">Utilisateur</text>
</a>
</g>
</g>
<!-- Node1&#45;&gt;Node10 -->
<g id="edge9_Node000001_Node000010" class="edge">
<title>Node1&#45;&gt;Node10</title>
<g id="a_edge9_Node000001_Node000010"><a xlink:title=" ">
<path fill="none" stroke="#63b8ff" d="M123.18,-355.23C137.75,-357.08 153.55,-359.09 168.91,-361.05"/>
<polygon fill="#63b8ff" stroke="#63b8ff" points="168.56,-364.53 178.92,-362.32 169.44,-357.59 168.56,-364.53"/>
</a>
</g>
</g>
<!-- Node11 -->
<g id="Node000011" class="node">
<title>Node11</title>
<g id="a_Node000011"><a xlink:href="classUtilisateur.html#a065c5859952a686264c337ef63e461c2" target="_top" xlink:title="Getter pour nbAbonnesArtiste.">
<polygon fill="white" stroke="#666666" points="323,-338.5 181,-338.5 181,-308.5 323,-308.5 323,-338.5"/>
<text text-anchor="start" x="189" y="-326.5" font-family="Helvetica,sans-Serif" font-size="10.00">Utilisateur\getNbAbonnes</text>
<text text-anchor="middle" x="252" y="-315.5" font-family="Helvetica,sans-Serif" font-size="10.00">Artiste</text>
</a>
</g>
</g>
<!-- Node1&#45;&gt;Node11 -->
<g id="edge10_Node000001_Node000011" class="edge">
<title>Node1&#45;&gt;Node11</title>
<g id="a_edge10_Node000001_Node000011"><a xlink:title=" ">
<path fill="none" stroke="#63b8ff" d="M123.18,-339.77C138.28,-337.85 154.7,-335.76 170.58,-333.74"/>
<polygon fill="#63b8ff" stroke="#63b8ff" points="171.44,-337.16 180.92,-332.42 170.56,-330.21 171.44,-337.16"/>
</a>
</g>
</g>
<!-- Node12 -->
<g id="Node000012" class="node">
<title>Node12</title>
<g id="a_Node000012"><a xlink:href="classUtilisateur.html#a2b7f07f6f2f8348fbe15920cb5995301" target="_top" xlink:title="Getter pour le nom de l&#39;utilisateur.">
<polygon fill="white" stroke="#666666" points="332.5,-290 171.5,-290 171.5,-271 332.5,-271 332.5,-290"/>
<text text-anchor="middle" x="252" y="-278" font-family="Helvetica,sans-Serif" font-size="10.00">Utilisateur\getNomUtilisateur</text>
</a>
</g>
</g>
<!-- Node1&#45;&gt;Node12 -->
<g id="edge11_Node000001_Node000012" class="edge">
<title>Node1&#45;&gt;Node12</title>
<g id="a_edge11_Node000001_Node000012"><a xlink:title=" ">
<path fill="none" stroke="#63b8ff" d="M78.67,-337.83C97.4,-327.02 129.46,-309.7 159,-299.5 166.87,-296.78 175.25,-294.39 183.64,-292.31"/>
<polygon fill="#63b8ff" stroke="#63b8ff" points="184.52,-295.7 193.45,-290 182.92,-288.88 184.52,-295.7"/>
</a>
</g>
</g>
<!-- Node13 -->
<g id="Node000013" class="node">
<title>Node13</title>
<g id="a_Node000013"><a xlink:href="classUtilisateur.html#a43ea065478ba5f28182870d054b56acd" target="_top" xlink:title="Getter pour pointsDeRenommeeArtiste.">
<polygon fill="white" stroke="#666666" points="345,-252.5 159,-252.5 159,-222.5 345,-222.5 345,-252.5"/>
<text text-anchor="start" x="167" y="-240.5" font-family="Helvetica,sans-Serif" font-size="10.00">Utilisateur\getPointsDeRenommee</text>
<text text-anchor="middle" x="252" y="-229.5" font-family="Helvetica,sans-Serif" font-size="10.00">Artiste</text>
</a>
</g>
</g>
<!-- Node1&#45;&gt;Node13 -->
<g id="edge12_Node000001_Node000013" class="edge">
<title>Node1&#45;&gt;Node13</title>
<g id="a_edge12_Node000001_Node000013"><a xlink:title=" ">
<path fill="none" stroke="#63b8ff" d="M70.74,-337.75C86.21,-320.08 121.45,-282.71 159,-262.5 163.24,-260.22 167.71,-258.13 172.29,-256.23"/>
<polygon fill="#63b8ff" stroke="#63b8ff" points="173.75,-259.42 181.83,-252.56 171.24,-252.88 173.75,-259.42"/>
</a>
</g>
</g>
<!-- Node14 -->
<g id="Node000014" class="node">
<title>Node14</title>
<g id="a_Node000014"><a xlink:href="classUtilisateur.html#a772e4d855f933fe74c57ede51115c854" target="_top" xlink:title="Getter pour le pseudo de l&#39;utilisateur.">
<polygon fill="white" stroke="#666666" points="338.5,-204 165.5,-204 165.5,-185 338.5,-185 338.5,-204"/>
<text text-anchor="middle" x="252" y="-192" font-family="Helvetica,sans-Serif" font-size="10.00">Utilisateur\getPseudoUtilisateur</text>
</a>
</g>
</g>
<!-- Node1&#45;&gt;Node14 -->
<g id="edge13_Node000001_Node000014" class="edge">
<title>Node1&#45;&gt;Node14</title>
<g id="a_edge13_Node000001_Node000014"><a xlink:title=" ">
<path fill="none" stroke="#63b8ff" d="M66.43,-337.84C77.16,-312.82 109.44,-245.63 159,-213.5 162.13,-211.47 165.43,-209.66 168.85,-208.03"/>
<polygon fill="#63b8ff" stroke="#63b8ff" points="170.26,-211.23 178.14,-204.15 167.56,-204.77 170.26,-211.23"/>
</a>
</g>
</g>
<!-- Node15 -->
<g id="Node000015" class="node">
<title>Node15</title>
<g id="a_Node000015"><a xlink:href="classUtilisateur.html#ab540032a4b4a8391d1af6ea2b952468b" target="_top" xlink:title="Getter pour roleUtilisateur.">
<polygon fill="white" stroke="#666666" points="331.5,-167 172.5,-167 172.5,-148 331.5,-148 331.5,-167"/>
<text text-anchor="middle" x="252" y="-155" font-family="Helvetica,sans-Serif" font-size="10.00">Utilisateur\getRoleUtilisateur</text>
</a>
</g>
</g>
<!-- Node1&#45;&gt;Node15 -->
<g id="edge14_Node000001_Node000015" class="edge">
<title>Node1&#45;&gt;Node15</title>
<g id="a_edge14_Node000001_Node000015"><a xlink:title=" ">
<path fill="none" stroke="#63b8ff" d="M64.9,-337.86C72.75,-308.41 100.62,-219.1 159,-176.5 161.55,-174.64 164.25,-172.95 167.04,-171.42"/>
<polygon fill="#63b8ff" stroke="#63b8ff" points="168.75,-174.48 176.29,-167.04 165.76,-168.15 168.75,-174.48"/>
</a>
</g>
</g>
<!-- Node16 -->
<g id="Node000016" class="node">
<title>Node16</title>
<g id="a_Node000016"><a xlink:href="classUtilisateur.html#a8859a67bc9c3bd95d7ffc0dfb1307d22" target="_top" xlink:title="Getter pour siteWebUtilisateur.">
<polygon fill="white" stroke="#666666" points="340.5,-130 163.5,-130 163.5,-111 340.5,-111 340.5,-130"/>
<text text-anchor="middle" x="252" y="-118" font-family="Helvetica,sans-Serif" font-size="10.00">Utilisateur\getSiteWebUtilisateur</text>
</a>
</g>
</g>
<!-- Node1&#45;&gt;Node16 -->
<g id="edge15_Node000001_Node000016" class="edge">
<title>Node1&#45;&gt;Node16</title>
<g id="a_edge15_Node000001_Node000016"><a xlink:title=" ">
<path fill="none" stroke="#63b8ff" d="M63.9,-337.76C69.24,-304.27 91.6,-192.9 159,-139.5 161.07,-137.86 163.24,-136.35 165.5,-134.97"/>
<polygon fill="#63b8ff" stroke="#63b8ff" points="167.37,-137.94 174.59,-130.2 164.11,-131.74 167.37,-137.94"/>
</a>
</g>
</g>
<!-- Node17 -->
<g id="Node000017" class="node">
<title>Node17</title>
<g id="a_Node000017"><a xlink:href="classUtilisateur.html#a26b03cb1ba77b133f4926798ad051540" target="_top" xlink:title="Getter pour statutAbonnement.">
<polygon fill="white" stroke="#666666" points="341,-93 163,-93 163,-74 341,-74 341,-93"/>
<text text-anchor="middle" x="252" y="-81" font-family="Helvetica,sans-Serif" font-size="10.00">Utilisateur\getStatutAbonnement</text>
</a>
</g>
</g>
<!-- Node1&#45;&gt;Node17 -->
<g id="edge16_Node000001_Node000017" class="edge">
<title>Node1&#45;&gt;Node17</title>
<g id="a_edge16_Node000001_Node000017"><a xlink:title=" ">
<path fill="none" stroke="#63b8ff" d="M63.14,-337.92C66.16,-301.04 82.23,-167.11 159,-102.5 160.82,-100.96 162.74,-99.54 164.73,-98.22"/>
<polygon fill="#63b8ff" stroke="#63b8ff" points="166.88,-101.04 173.9,-93.1 163.46,-94.93 166.88,-101.04"/>
</a>
</g>
</g>
<!-- Node18 -->
<g id="Node000018" class="node">
<title>Node18</title>
<g id="a_Node000018"><a xlink:href="classUtilisateur.html#ae9443c9f56d13fa1b4f1ed5faeb27bde" target="_top" xlink:title="Getter pour le statut de l&#39;utilisateur.">
<polygon fill="white" stroke="#666666" points="335.5,-56 168.5,-56 168.5,-37 335.5,-37 335.5,-56"/>
<text text-anchor="middle" x="252" y="-44" font-family="Helvetica,sans-Serif" font-size="10.00">Utilisateur\getStatutUtilisateur</text>
</a>
</g>
</g>
<!-- Node1&#45;&gt;Node18 -->
<g id="edge17_Node000001_Node000018" class="edge">
<title>Node1&#45;&gt;Node18</title>
<g id="a_edge17_Node000001_Node000018"><a xlink:title=" ">
<path fill="none" stroke="#63b8ff" d="M62.59,-337.92C63.54,-297.74 72.82,-141.45 159,-65.5 160.74,-63.97 162.57,-62.55 164.48,-61.23"/>
<polygon fill="#63b8ff" stroke="#63b8ff" points="166.39,-64.16 173.26,-56.09 162.86,-58.12 166.39,-64.16"/>
</a>
</g>
</g>
<!-- Node19 -->
<g id="Node000019" class="node">
<title>Node19</title>
<g id="a_Node000019"><a xlink:href="classUtilisateur.html#a7f642a5639c034ebee4bcafde01552ae" target="_top" xlink:title="Getter pour urlPhotoUtilisateur.">
<polygon fill="white" stroke="#666666" points="341,-19 163,-19 163,0 341,0 341,-19"/>
<text text-anchor="middle" x="252" y="-7" font-family="Helvetica,sans-Serif" font-size="10.00">Utilisateur\geturlPhotoUtilisateur</text>
</a>
</g>
</g>
<!-- Node1&#45;&gt;Node19 -->
<g id="edge18_Node000001_Node000019" class="edge">
<title>Node1&#45;&gt;Node19</title>
<g id="a_edge18_Node000001_Node000019"><a xlink:title=" ">
<path fill="none" stroke="#63b8ff" d="M62.16,-337.89C61.2,-294.59 63.32,-115.93 159,-28.5 160.54,-27.1 162.15,-25.79 163.82,-24.56"/>
<polygon fill="#63b8ff" stroke="#63b8ff" points="165.97,-27.35 172.67,-19.14 162.32,-21.38 165.97,-27.35"/>
</a>
</g>
</g>
</g>
</svg>

<g id="navigator" transform="translate(0 0)" fill="#404254">
  <rect fill="#f2f5e9" fill-opacity="0.5" stroke="#606060" stroke-width=".5" x="0" y="0" width="60" height="60"/>
  <use id="zoomplus" xlink:href="#zoomPlus" x="17" y="9" onmousedown="handleZoom(evt,'in')"/>
  <use id="zoomminus" xlink:href="#zoomMin" x="42" y="9" onmousedown="handleZoom(evt,'out')"/>
  <use id="reset" xlink:href="#resetDef" x="30" y="36" onmousedown="handleReset()"/>
   <use id="arrowup" xlink:href="#arrowUp" x="0" y="0" onmousedown="handlePan(0,-1)"/>
  <use id="arrowright" xlink:href="#arrowRight" x="0" y="0" onmousedown="handlePan(1,0)"/>
  <use id="arrowdown" xlink:href="#arrowDown" x="0" y="0" onmousedown="handlePan(0,1)"/>
  <use id="arrowleft" xlink:href="#arrowLeft" x="0" y="0" onmousedown="handlePan(-1,0)"/>
</g>
<svg viewBox="0 0 15 15" width="100%" height="30px" preserveAspectRatio="xMaxYMin meet">
 <g id="arrow_out" transform="scale(0.3 0.3)">
  <a xlink:href="classUtilisateurDAO_aa5a57157f00d003aae66738846c900f5_cgraph_org.svg" target="_base">
   <rect id="button" ry="5" rx="5" y="6" x="6" height="38" width="38"
        fill="#f2f5e9" fill-opacity="0.5" stroke="#606060" stroke-width="1.0"/>
   <path id="arrow"
     d="M 11.500037,31.436501 C 11.940474,20.09759 22.043105,11.32322 32.158766,21.979434 L 37.068811,17.246167 C 37.068811,17.246167 37.088388,32 37.088388,32 L 22.160133,31.978069 C 22.160133,31.978069 26.997745,27.140456 26.997745,27.140456 C 18.528582,18.264221 13.291696,25.230495 11.500037,31.436501 z"
     style="fill:#404040;"/>
  </a>
 </g>
</svg>

<style type='text/css'>
<![CDATA[
[data-mouse-over-selected='false'] { opacity: 0.7; }
[data-mouse-over-selected='true']  { opacity: 1.0; }
]]>
</style>
<script type="application/ecmascript"><![CDATA[
document.addEventListener('DOMContentLoaded', (event) => {
  highlightEdges();
  highlightAdjacentNodes();
});
]]></script>
</svg>
