<?xml version="1.0" encoding="UTF-8" standalone="no"?>
<!DOCTYPE svg PUBLIC "-//W3C//DTD SVG 1.1//EN"
 "http://www.w3.org/Graphics/SVG/1.1/DTD/svg11.dtd">
<!-- Generated by graphviz version 2.43.0 (0)
 -->
<!-- Title: ChansonDAO\updateChanson Pages: 1 -->
<svg width="352pt" height="101pt"
 viewBox="0.00 0.00 352.00 101.00" xmlns="http://www.w3.org/2000/svg" xmlns:xlink="http://www.w3.org/1999/xlink">
<g id="graph0" class="graph" transform="scale(1 1) rotate(0) translate(4 97)">
<title>ChansonDAO\updateChanson</title>
<!-- Node1 -->
<g id="Node000001" class="node">
<title>Node1</title>
<g id="a_Node000001"><a xlink:title=" ">
<polygon fill="#999999" stroke="#666666" points="159,-56 0,-56 0,-37 159,-37 159,-56"/>
<text text-anchor="middle" x="79.5" y="-44" font-family="Helvetica,sans-Serif" font-size="10.00">ChansonDAO\updateChanson</text>
</a>
</g>
</g>
<!-- Node2 -->
<g id="Node000002" class="node">
<title>Node2</title>
<g id="a_Node000002"><a xlink:href="classChanson.html#a5d211f9f2b3c3a33b95e47f113628502" target="_top" xlink:title="Get the value of genreChanson.">
<polygon fill="white" stroke="#666666" points="344,-93 195,-93 195,-74 344,-74 344,-93"/>
<text text-anchor="middle" x="269.5" y="-81" font-family="Helvetica,sans-Serif" font-size="10.00">Chanson\getGenreChanson</text>
</a>
</g>
</g>
<!-- Node1&#45;&gt;Node2 -->
<g id="edge1_Node000001_Node000002" class="edge">
<title>Node1&#45;&gt;Node2</title>
<g id="a_edge1_Node000001_Node000002"><a xlink:title=" ">
<path fill="none" stroke="#63b8ff" d="M128.91,-56.03C153.6,-60.89 183.82,-66.83 209.81,-71.95"/>
<polygon fill="#63b8ff" stroke="#63b8ff" points="209.44,-75.44 219.92,-73.94 210.79,-68.57 209.44,-75.44"/>
</a>
</g>
</g>
<!-- Node3 -->
<g id="Node000003" class="node">
<title>Node3</title>
<g id="a_Node000003"><a xlink:href="classChanson.html#a55e08cb80a4957646c50fda88acec872" target="_top" xlink:title="Get the value of idChanson.">
<polygon fill="white" stroke="#666666" points="333.5,-56 205.5,-56 205.5,-37 333.5,-37 333.5,-56"/>
<text text-anchor="middle" x="269.5" y="-44" font-family="Helvetica,sans-Serif" font-size="10.00">Chanson\getIdChanson</text>
</a>
</g>
</g>
<!-- Node1&#45;&gt;Node3 -->
<g id="edge2_Node000001_Node000003" class="edge">
<title>Node1&#45;&gt;Node3</title>
<g id="a_edge2_Node000001_Node000003"><a xlink:title=" ">
<path fill="none" stroke="#63b8ff" d="M159.14,-46.5C171.05,-46.5 183.29,-46.5 195.08,-46.5"/>
<polygon fill="#63b8ff" stroke="#63b8ff" points="195.31,-50 205.31,-46.5 195.31,-43 195.31,-50"/>
</a>
</g>
</g>
<!-- Node4 -->
<g id="Node000004" class="node">
<title>Node4</title>
<g id="a_Node000004"><a xlink:href="classChanson.html#adbb3d4c53f48da4a850e6abd87521957" target="_top" xlink:title="Get the value of titreChanson.">
<polygon fill="white" stroke="#666666" points="340.5,-19 198.5,-19 198.5,0 340.5,0 340.5,-19"/>
<text text-anchor="middle" x="269.5" y="-7" font-family="Helvetica,sans-Serif" font-size="10.00">Chanson\getTitreChanson</text>
</a>
</g>
</g>
<!-- Node1&#45;&gt;Node4 -->
<g id="edge3_Node000001_Node000004" class="edge">
<title>Node1&#45;&gt;Node4</title>
<g id="a_edge3_Node000001_Node000004"><a xlink:title=" ">
<path fill="none" stroke="#63b8ff" d="M128.91,-36.97C153.6,-32.11 183.82,-26.17 209.81,-21.05"/>
<polygon fill="#63b8ff" stroke="#63b8ff" points="210.79,-24.43 219.92,-19.06 209.44,-17.56 210.79,-24.43"/>
</a>
</g>
</g>
</g>
</svg>
