<?xml version="1.0" encoding="UTF-8" standalone="no"?>
<!DOCTYPE svg PUBLIC "-//W3C//DTD SVG 1.1//EN"
 "http://www.w3.org/Graphics/SVG/1.1/DTD/svg11.dtd">
<!-- Generated by graphviz version 2.43.0 (0)
 -->
<!-- Title: Utilisateur\__construct Pages: 1 -->
<svg width="355pt" height="737pt"
 viewBox="0.00 0.00 355.00 736.50" xmlns="http://www.w3.org/2000/svg" xmlns:xlink="http://www.w3.org/1999/xlink">
<g id="graph0" class="graph" transform="scale(1 1) rotate(0) translate(4 732.5)">
<title>Utilisateur\__construct</title>
<!-- Node1 -->
<g id="Node000001" class="node">
<title>Node1</title>
<g id="a_Node000001"><a xlink:title="Constructeur de la classe Utilisateur.">
<polygon fill="#999999" stroke="#666666" points="126,-357 0,-357 0,-338 126,-338 126,-357"/>
<text text-anchor="middle" x="63" y="-345" font-family="Helvetica,sans-Serif" font-size="10.00">Utilisateur\__construct</text>
</a>
</g>
</g>
<!-- Node2 -->
<g id="Node000002" class="node">
<title>Node2</title>
<g id="a_Node000002"><a xlink:href="classUtilisateur.html#a64b780a116dd44040aaa8b7b13b126d7" target="_top" xlink:title="Setter pour dateDebutAbonnement.">
<polygon fill="white" stroke="#666666" points="323.5,-728.5 185.5,-728.5 185.5,-698.5 323.5,-698.5 323.5,-728.5"/>
<text text-anchor="start" x="193.5" y="-716.5" font-family="Helvetica,sans-Serif" font-size="10.00">Utilisateur\setDateDebut</text>
<text text-anchor="middle" x="254.5" y="-705.5" font-family="Helvetica,sans-Serif" font-size="10.00">Abonnement</text>
</a>
</g>
</g>
<!-- Node1&#45;&gt;Node2 -->
<g id="edge1_Node000001_Node000002" class="edge">
<title>Node1&#45;&gt;Node2</title>
<g id="a_edge1_Node000001_Node000002"><a xlink:title=" ">
<path fill="none" stroke="#63b8ff" d="M63.59,-357.06C62.23,-401.78 62.63,-592.35 162,-689.5 166.11,-693.52 170.81,-696.89 175.85,-699.71"/>
<polygon fill="#63b8ff" stroke="#63b8ff" points="174.73,-703.05 185.26,-704.22 177.75,-696.74 174.73,-703.05"/>
</a>
</g>
</g>
<!-- Node3 -->
<g id="Node000003" class="node">
<title>Node3</title>
<g id="a_Node000003"><a xlink:href="classUtilisateur.html#a5e00a33acee780a18eeb4d26628fc3fa" target="_top" xlink:title="Setter pour la date de naissance de l&#39;utilisateur.">
<polygon fill="white" stroke="#666666" points="341,-680.5 168,-680.5 168,-650.5 341,-650.5 341,-680.5"/>
<text text-anchor="start" x="176" y="-668.5" font-family="Helvetica,sans-Serif" font-size="10.00">Utilisateur\setDateDeNaissance</text>
<text text-anchor="middle" x="254.5" y="-657.5" font-family="Helvetica,sans-Serif" font-size="10.00">Utilisateur</text>
</a>
</g>
</g>
<!-- Node1&#45;&gt;Node3 -->
<g id="edge2_Node000001_Node000003" class="edge">
<title>Node1&#45;&gt;Node3</title>
<g id="a_edge2_Node000001_Node000003"><a xlink:title=" ">
<path fill="none" stroke="#63b8ff" d="M64.11,-357.08C65.11,-397.99 74.64,-559.66 162,-641.5 163.12,-642.55 164.29,-643.56 165.49,-644.52"/>
<polygon fill="#63b8ff" stroke="#63b8ff" points="163.66,-647.51 173.88,-650.29 167.62,-641.74 163.66,-647.51"/>
</a>
</g>
</g>
<!-- Node4 -->
<g id="Node000004" class="node">
<title>Node4</title>
<g id="a_Node000004"><a xlink:href="classUtilisateur.html#a4f4f65fa887e60f955b3ee9ef8e02b3d" target="_top" xlink:title="Setter pour dateFinAbonnement.">
<polygon fill="white" stroke="#666666" points="347,-632 162,-632 162,-613 347,-613 347,-632"/>
<text text-anchor="middle" x="254.5" y="-620" font-family="Helvetica,sans-Serif" font-size="10.00">Utilisateur\setDateFinAbonnement</text>
</a>
</g>
</g>
<!-- Node1&#45;&gt;Node4 -->
<g id="edge3_Node000001_Node000004" class="edge">
<title>Node1&#45;&gt;Node4</title>
<g id="a_edge3_Node000001_Node000004"><a xlink:title=" ">
<path fill="none" stroke="#63b8ff" d="M64.54,-357.24C67.2,-395.36 82.26,-535.66 162,-603.5 163.81,-605.04 165.71,-606.46 167.68,-607.78"/>
<polygon fill="#63b8ff" stroke="#63b8ff" points="166.35,-611.04 176.78,-612.91 169.78,-604.95 166.35,-611.04"/>
</a>
</g>
</g>
<!-- Node5 -->
<g id="Node000005" class="node">
<title>Node5</title>
<g id="a_Node000005"><a xlink:href="classUtilisateur.html#aea47df1bfb3f24606de4fe047edff84a" target="_top" xlink:title="Setter pour la date d&#39;inscription de l&#39;utilisateur.">
<polygon fill="white" stroke="#666666" points="334.5,-594.5 174.5,-594.5 174.5,-564.5 334.5,-564.5 334.5,-594.5"/>
<text text-anchor="start" x="182.5" y="-582.5" font-family="Helvetica,sans-Serif" font-size="10.00">Utilisateur\setDateInscription</text>
<text text-anchor="middle" x="254.5" y="-571.5" font-family="Helvetica,sans-Serif" font-size="10.00">Utilisateur</text>
</a>
</g>
</g>
<!-- Node1&#45;&gt;Node5 -->
<g id="edge4_Node000001_Node000005" class="edge">
<title>Node1&#45;&gt;Node5</title>
<g id="a_edge4_Node000001_Node000005"><a xlink:title=" ">
<path fill="none" stroke="#63b8ff" d="M65.57,-357.11C71.51,-390.2 95.69,-500.38 162,-555.5 163.56,-556.8 165.19,-558.03 166.87,-559.19"/>
<polygon fill="#63b8ff" stroke="#63b8ff" points="165.28,-562.32 175.66,-564.48 168.89,-556.33 165.28,-562.32"/>
</a>
</g>
</g>
<!-- Node6 -->
<g id="Node000006" class="node">
<title>Node6</title>
<g id="a_Node000006"><a xlink:href="classUtilisateur.html#a4de47396b30760b89222214a2a19bdc0" target="_top" xlink:title="Setter pour descriptionUtilisateur.">
<polygon fill="white" stroke="#666666" points="325,-546.5 184,-546.5 184,-516.5 325,-516.5 325,-546.5"/>
<text text-anchor="start" x="192" y="-534.5" font-family="Helvetica,sans-Serif" font-size="10.00">Utilisateur\setDescription</text>
<text text-anchor="middle" x="254.5" y="-523.5" font-family="Helvetica,sans-Serif" font-size="10.00">Utilisateur</text>
</a>
</g>
</g>
<!-- Node1&#45;&gt;Node6 -->
<g id="edge5_Node000001_Node000006" class="edge">
<title>Node1&#45;&gt;Node6</title>
<g id="a_edge5_Node000001_Node000006"><a xlink:title=" ">
<path fill="none" stroke="#63b8ff" d="M67.04,-357.19C76.32,-385.18 107.09,-466.71 162,-507.5 165.91,-510.41 170.15,-512.96 174.58,-515.21"/>
<polygon fill="#63b8ff" stroke="#63b8ff" points="173.36,-518.5 183.91,-519.4 176.22,-512.11 173.36,-518.5"/>
</a>
</g>
</g>
<!-- Node7 -->
<g id="Node000007" class="node">
<title>Node7</title>
<g id="a_Node000007"><a xlink:href="classUtilisateur.html#a52bb359dfbf731c7d2f5306c7b8d79bc" target="_top" xlink:title="Setter pour l&#39;email de l&#39;utilisateur.">
<polygon fill="white" stroke="#666666" points="336.5,-498 172.5,-498 172.5,-479 336.5,-479 336.5,-498"/>
<text text-anchor="middle" x="254.5" y="-486" font-family="Helvetica,sans-Serif" font-size="10.00">Utilisateur\setEmailUtilisateur</text>
</a>
</g>
</g>
<!-- Node1&#45;&gt;Node7 -->
<g id="edge6_Node000001_Node000007" class="edge">
<title>Node1&#45;&gt;Node7</title>
<g id="a_edge6_Node000001_Node000007"><a xlink:title=" ">
<path fill="none" stroke="#63b8ff" d="M68.6,-357.08C80.43,-380.64 114.4,-441.57 162,-470.5 164.68,-472.13 167.48,-473.61 170.36,-474.97"/>
<polygon fill="#63b8ff" stroke="#63b8ff" points="169.24,-478.29 179.82,-478.86 171.91,-471.82 169.24,-478.29"/>
</a>
</g>
</g>
<!-- Node8 -->
<g id="Node000008" class="node">
<title>Node8</title>
<g id="a_Node000008"><a xlink:href="classUtilisateur.html#a5b54f574c3140ce3fb41f296019fd7a5" target="_top" xlink:title="Setter pour estAbonnee.">
<polygon fill="white" stroke="#666666" points="326,-461 183,-461 183,-442 326,-442 326,-461"/>
<text text-anchor="middle" x="254.5" y="-449" font-family="Helvetica,sans-Serif" font-size="10.00">Utilisateur\setEstAbonnee</text>
</a>
</g>
</g>
<!-- Node1&#45;&gt;Node8 -->
<g id="edge7_Node000001_Node000008" class="edge">
<title>Node1&#45;&gt;Node8</title>
<g id="a_edge7_Node000001_Node000008"><a xlink:title=" ">
<path fill="none" stroke="#63b8ff" d="M71.76,-357.06C87.01,-375.13 122.8,-414.21 162,-433.5 166.03,-435.48 170.26,-437.25 174.61,-438.82"/>
<polygon fill="#63b8ff" stroke="#63b8ff" points="173.66,-442.19 184.25,-441.96 175.83,-435.54 173.66,-442.19"/>
</a>
</g>
</g>
<!-- Node9 -->
<g id="Node000009" class="node">
<title>Node9</title>
<g id="a_Node000009"><a xlink:href="classUtilisateur.html#abeee5e6961889baf76216a276138e1da" target="_top" xlink:title="Setter pour le genre musical préféré">
<polygon fill="white" stroke="#666666" points="337.5,-424 171.5,-424 171.5,-405 337.5,-405 337.5,-424"/>
<text text-anchor="middle" x="254.5" y="-412" font-family="Helvetica,sans-Serif" font-size="10.00">Utilisateur\setGenreUtilisateur</text>
</a>
</g>
</g>
<!-- Node1&#45;&gt;Node9 -->
<g id="edge8_Node000001_Node000009" class="edge">
<title>Node1&#45;&gt;Node9</title>
<g id="a_edge8_Node000001_Node000009"><a xlink:title=" ">
<path fill="none" stroke="#63b8ff" d="M80.45,-357.15C99.49,-367.94 132.07,-385.24 162,-395.5 169.83,-398.18 178.18,-400.55 186.52,-402.63"/>
<polygon fill="#63b8ff" stroke="#63b8ff" points="185.75,-406.04 196.28,-404.92 187.35,-399.22 185.75,-406.04"/>
</a>
</g>
</g>
<!-- Node10 -->
<g id="Node000010" class="node">
<title>Node10</title>
<g id="a_Node000010"><a xlink:href="classUtilisateur.html#a704c5a1df04a8af259c053acb998f214" target="_top" xlink:title="Setter pour le mot de passe de l&#39;utilisateur.">
<polygon fill="white" stroke="#666666" points="327.5,-386.5 181.5,-386.5 181.5,-356.5 327.5,-356.5 327.5,-386.5"/>
<text text-anchor="start" x="189.5" y="-374.5" font-family="Helvetica,sans-Serif" font-size="10.00">Utilisateur\setMotDePasse</text>
<text text-anchor="middle" x="254.5" y="-363.5" font-family="Helvetica,sans-Serif" font-size="10.00">Utilisateur</text>
</a>
</g>
</g>
<!-- Node1&#45;&gt;Node10 -->
<g id="edge9_Node000001_Node000010" class="edge">
<title>Node1&#45;&gt;Node10</title>
<g id="a_edge9_Node000001_Node000010"><a xlink:title=" ">
<path fill="none" stroke="#63b8ff" d="M126.05,-355.36C140.57,-357.2 156.26,-359.18 171.5,-361.11"/>
<polygon fill="#63b8ff" stroke="#63b8ff" points="171.08,-364.59 181.44,-362.37 171.95,-357.64 171.08,-364.59"/>
</a>
</g>
</g>
<!-- Node11 -->
<g id="Node000011" class="node">
<title>Node11</title>
<g id="a_Node000011"><a xlink:href="classUtilisateur.html#a0835ebb7c92952b2ef6e8b80f1430e72" target="_top" xlink:title="Setter pour nbAbonnesArtiste.">
<polygon fill="white" stroke="#666666" points="325,-338.5 184,-338.5 184,-308.5 325,-308.5 325,-338.5"/>
<text text-anchor="start" x="192" y="-326.5" font-family="Helvetica,sans-Serif" font-size="10.00">Utilisateur\setNbAbonnes</text>
<text text-anchor="middle" x="254.5" y="-315.5" font-family="Helvetica,sans-Serif" font-size="10.00">Artiste</text>
</a>
</g>
</g>
<!-- Node1&#45;&gt;Node11 -->
<g id="edge10_Node000001_Node000011" class="edge">
<title>Node1&#45;&gt;Node11</title>
<g id="a_edge10_Node000001_Node000011"><a xlink:title=" ">
<path fill="none" stroke="#63b8ff" d="M126.05,-339.64C141.19,-337.72 157.6,-335.65 173.45,-333.64"/>
<polygon fill="#63b8ff" stroke="#63b8ff" points="174.28,-337.06 183.77,-332.33 173.4,-330.12 174.28,-337.06"/>
</a>
</g>
</g>
<!-- Node12 -->
<g id="Node000012" class="node">
<title>Node12</title>
<g id="a_Node000012"><a xlink:href="classUtilisateur.html#ac22e9a35b9c58f09a0ce422766695509" target="_top" xlink:title="Setter pour le nom de l&#39;utilisateur.">
<polygon fill="white" stroke="#666666" points="334.5,-290 174.5,-290 174.5,-271 334.5,-271 334.5,-290"/>
<text text-anchor="middle" x="254.5" y="-278" font-family="Helvetica,sans-Serif" font-size="10.00">Utilisateur\setNomUtilisateur</text>
</a>
</g>
</g>
<!-- Node1&#45;&gt;Node12 -->
<g id="edge11_Node000001_Node000012" class="edge">
<title>Node1&#45;&gt;Node12</title>
<g id="a_edge11_Node000001_Node000012"><a xlink:title=" ">
<path fill="none" stroke="#63b8ff" d="M80.45,-337.85C99.49,-327.06 132.07,-309.76 162,-299.5 169.83,-296.82 178.18,-294.45 186.52,-292.37"/>
<polygon fill="#63b8ff" stroke="#63b8ff" points="187.35,-295.78 196.28,-290.08 185.75,-288.96 187.35,-295.78"/>
</a>
</g>
</g>
<!-- Node13 -->
<g id="Node000013" class="node">
<title>Node13</title>
<g id="a_Node000013"><a xlink:href="classUtilisateur.html#ae7b71433439f7720fc913cd386efa1df" target="_top" xlink:title="Setter pour pointsDeRenommeeArtiste.">
<polygon fill="white" stroke="#666666" points="347,-252.5 162,-252.5 162,-222.5 347,-222.5 347,-252.5"/>
<text text-anchor="start" x="170" y="-240.5" font-family="Helvetica,sans-Serif" font-size="10.00">Utilisateur\setPointsDeRenommee</text>
<text text-anchor="middle" x="254.5" y="-229.5" font-family="Helvetica,sans-Serif" font-size="10.00">Artiste</text>
</a>
</g>
</g>
<!-- Node1&#45;&gt;Node13 -->
<g id="edge12_Node000001_Node000013" class="edge">
<title>Node1&#45;&gt;Node13</title>
<g id="a_edge12_Node000001_Node000013"><a xlink:title=" ">
<path fill="none" stroke="#63b8ff" d="M72.41,-337.76C88.18,-320.11 124.06,-282.77 162,-262.5 166.23,-260.24 170.67,-258.18 175.24,-256.28"/>
<polygon fill="#63b8ff" stroke="#63b8ff" points="176.65,-259.49 184.73,-252.65 174.14,-252.96 176.65,-259.49"/>
</a>
</g>
</g>
<!-- Node14 -->
<g id="Node000014" class="node">
<title>Node14</title>
<g id="a_Node000014"><a xlink:href="classUtilisateur.html#a2c275cee8027ead6b4015886572e2dd8" target="_top" xlink:title="Setter pour le pseudo de l&#39;utilisateur.">
<polygon fill="white" stroke="#666666" points="340.5,-204 168.5,-204 168.5,-185 340.5,-185 340.5,-204"/>
<text text-anchor="middle" x="254.5" y="-192" font-family="Helvetica,sans-Serif" font-size="10.00">Utilisateur\setPseudoUtilisateur</text>
</a>
</g>
</g>
<!-- Node1&#45;&gt;Node14 -->
<g id="edge13_Node000001_Node000014" class="edge">
<title>Node1&#45;&gt;Node14</title>
<g id="a_edge13_Node000001_Node000014"><a xlink:title=" ">
<path fill="none" stroke="#63b8ff" d="M68.04,-337.84C79.04,-312.82 112.08,-245.64 162,-213.5 165.19,-211.45 168.56,-209.61 172.05,-207.97"/>
<polygon fill="#63b8ff" stroke="#63b8ff" points="173.62,-211.11 181.53,-204.06 170.95,-204.64 173.62,-211.11"/>
</a>
</g>
</g>
<!-- Node15 -->
<g id="Node000015" class="node">
<title>Node15</title>
<g id="a_Node000015"><a xlink:href="classUtilisateur.html#af3f8de81932f1c232ab1d137ed40405e" target="_top" xlink:title="Setter pour roleUtilisateur.">
<polygon fill="white" stroke="#666666" points="333.5,-167 175.5,-167 175.5,-148 333.5,-148 333.5,-167"/>
<text text-anchor="middle" x="254.5" y="-155" font-family="Helvetica,sans-Serif" font-size="10.00">Utilisateur\setRoleUtilisateur</text>
</a>
</g>
</g>
<!-- Node1&#45;&gt;Node15 -->
<g id="edge14_Node000001_Node000015" class="edge">
<title>Node1&#45;&gt;Node15</title>
<g id="a_edge14_Node000001_Node000015"><a xlink:title=" ">
<path fill="none" stroke="#63b8ff" d="M66.49,-337.86C74.61,-308.41 103.28,-219.09 162,-176.5 164.54,-174.65 167.23,-172.98 170.01,-171.46"/>
<polygon fill="#63b8ff" stroke="#63b8ff" points="171.67,-174.55 179.22,-167.11 168.69,-168.22 171.67,-174.55"/>
</a>
</g>
</g>
<!-- Node16 -->
<g id="Node000016" class="node">
<title>Node16</title>
<g id="a_Node000016"><a xlink:href="classUtilisateur.html#a127209934f72ce1741f9597689671295" target="_top" xlink:title="Setter pour siteWebUtilisateur.">
<polygon fill="white" stroke="#666666" points="342.5,-130 166.5,-130 166.5,-111 342.5,-111 342.5,-130"/>
<text text-anchor="middle" x="254.5" y="-118" font-family="Helvetica,sans-Serif" font-size="10.00">Utilisateur\setSiteWebUtilisateur</text>
</a>
</g>
</g>
<!-- Node1&#45;&gt;Node16 -->
<g id="edge15_Node000001_Node000016" class="edge">
<title>Node1&#45;&gt;Node16</title>
<g id="a_edge15_Node000001_Node000016"><a xlink:title=" ">
<path fill="none" stroke="#63b8ff" d="M65.47,-337.76C71.07,-304.26 94.29,-192.88 162,-139.5 164.12,-137.83 166.35,-136.3 168.66,-134.89"/>
<polygon fill="#63b8ff" stroke="#63b8ff" points="170.71,-137.77 177.98,-130.06 167.49,-131.55 170.71,-137.77"/>
</a>
</g>
</g>
<!-- Node17 -->
<g id="Node000017" class="node">
<title>Node17</title>
<g id="a_Node000017"><a xlink:href="classUtilisateur.html#a2339bdd8941646761b8689d0742ecaa5" target="_top" xlink:title="Setter pour statutAbonnement.">
<polygon fill="white" stroke="#666666" points="343,-93 166,-93 166,-74 343,-74 343,-93"/>
<text text-anchor="middle" x="254.5" y="-81" font-family="Helvetica,sans-Serif" font-size="10.00">Utilisateur\setStatutAbonnement</text>
</a>
</g>
</g>
<!-- Node1&#45;&gt;Node17 -->
<g id="edge16_Node000001_Node000017" class="edge">
<title>Node1&#45;&gt;Node17</title>
<g id="a_edge16_Node000001_Node000017"><a xlink:title=" ">
<path fill="none" stroke="#63b8ff" d="M64.71,-337.92C67.98,-301.04 84.93,-167.09 162,-102.5 163.82,-100.98 165.73,-99.56 167.71,-98.26"/>
<polygon fill="#63b8ff" stroke="#63b8ff" points="169.81,-101.09 176.84,-93.17 166.4,-94.98 169.81,-101.09"/>
</a>
</g>
</g>
<!-- Node18 -->
<g id="Node000018" class="node">
<title>Node18</title>
<g id="a_Node000018"><a xlink:href="classUtilisateur.html#ad277695186236be19add8e8a4f30850a" target="_top" xlink:title="Setter pour le statut de l&#39;utilisateur.">
<polygon fill="white" stroke="#666666" points="337.5,-56 171.5,-56 171.5,-37 337.5,-37 337.5,-56"/>
<text text-anchor="middle" x="254.5" y="-44" font-family="Helvetica,sans-Serif" font-size="10.00">Utilisateur\setStatutUtilisateur</text>
</a>
</g>
</g>
<!-- Node1&#45;&gt;Node18 -->
<g id="edge17_Node000001_Node000018" class="edge">
<title>Node1&#45;&gt;Node18</title>
<g id="a_edge17_Node000001_Node000018"><a xlink:title=" ">
<path fill="none" stroke="#63b8ff" d="M64.15,-337.92C65.34,-297.73 75.54,-141.42 162,-65.5 163.73,-63.98 165.56,-62.57 167.45,-61.26"/>
<polygon fill="#63b8ff" stroke="#63b8ff" points="169.33,-64.22 176.2,-56.16 165.8,-58.17 169.33,-64.22"/>
</a>
</g>
</g>
<!-- Node19 -->
<g id="Node000019" class="node">
<title>Node19</title>
<g id="a_Node000019"><a xlink:href="classUtilisateur.html#ace61a8bbc1cbe7bd5113436175a28d7c" target="_top" xlink:title="Setter pour urlPhotoUtilisateur.">
<polygon fill="white" stroke="#666666" points="343,-19 166,-19 166,0 343,0 343,-19"/>
<text text-anchor="middle" x="254.5" y="-7" font-family="Helvetica,sans-Serif" font-size="10.00">Utilisateur\seturlPhotoUtilisateur</text>
</a>
</g>
</g>
<!-- Node1&#45;&gt;Node19 -->
<g id="edge18_Node000001_Node000019" class="edge">
<title>Node1&#45;&gt;Node19</title>
<g id="a_edge18_Node000001_Node000019"><a xlink:title=" ">
<path fill="none" stroke="#63b8ff" d="M63.71,-337.89C62.98,-294.58 66.05,-115.89 162,-28.5 163.53,-27.11 165.13,-25.81 166.8,-24.59"/>
<polygon fill="#63b8ff" stroke="#63b8ff" points="168.91,-27.41 175.61,-19.2 165.26,-21.43 168.91,-27.41"/>
</a>
</g>
</g>
</g>
</svg>
