<?xml version="1.0" encoding="UTF-8" standalone="no"?>
<!DOCTYPE svg PUBLIC "-//W3C//DTD SVG 1.1//EN"
 "http://www.w3.org/Graphics/SVG/1.1/DTD/svg11.dtd">
<!-- Generated by graphviz version 2.43.0 (0)
 -->
<!-- Title: AlbumDAO\create Pages: 1 -->
<svg width="456pt" height="101pt"
 viewBox="0.00 0.00 456.00 101.00" xmlns="http://www.w3.org/2000/svg" xmlns:xlink="http://www.w3.org/1999/xlink">

<svg id="main" version="1.1" xmlns="http://www.w3.org/2000/svg" xmlns:xlink="http://www.w3.org/1999/xlink" xml:space="preserve" onload="init(evt)">
<style type="text/css"><![CDATA[
.node, .edge {opacity: 0.7;}
.node.selected, .edge.selected {opacity: 1;}
.edge:hover path { stroke: red; }
.edge:hover polygon { stroke: red; fill: red; }
]]></style>
<script type="application/ecmascript" xlink:href="svg.min.js"/>
<svg id="graph" class="graph">
<g id="graph0" class="graph" transform="scale(1 1) rotate(0) translate(4 97)">
<title>AlbumDAO\create</title>
<!-- Node1 -->
<g id="Node000001" class="node">
<title>Node1</title>
<g id="a_Node000001"><a xlink:title="Crée un nouvel album dans la base de données.">
<polygon fill="#999999" stroke="#666666" points="104,-56 0,-56 0,-37 104,-37 104,-56"/>
<text text-anchor="middle" x="52" y="-44" font-family="Helvetica,sans-Serif" font-size="10.00">AlbumDAO\create</text>
</a>
</g>
</g>
<!-- Node2 -->
<g id="Node000002" class="node">
<title>Node2</title>
<g id="a_Node000002"><a xlink:href="classAlbum.html#abdc6593e83f348f6e76681550293e07e" target="_top" xlink:title="Getter pour le nom de l&#39;artiste de l&#39;album.">
<polygon fill="white" stroke="#666666" points="280.5,-93 149.5,-93 149.5,-74 280.5,-74 280.5,-93"/>
<text text-anchor="middle" x="215" y="-81" font-family="Helvetica,sans-Serif" font-size="10.00">Album\getArtisteAlbum</text>
</a>
</g>
</g>
<!-- Node1&#45;&gt;Node2 -->
<g id="edge1_Node000001_Node000002" class="edge">
<title>Node1&#45;&gt;Node2</title>
<g id="a_edge1_Node000001_Node000002"><a xlink:title=" ">
<path fill="none" stroke="#63b8ff" d="M94.46,-56.03C115.23,-60.8 140.56,-66.62 162.56,-71.68"/>
<polygon fill="#63b8ff" stroke="#63b8ff" points="161.87,-75.11 172.4,-73.94 163.44,-68.29 161.87,-75.11"/>
</a>
</g>
</g>
<!-- Node3 -->
<g id="Node000003" class="node">
<title>Node3</title>
<g id="a_Node000003"><a xlink:href="classAlbum.html#aebaf73bac860cb0858d7a0c768f37999" target="_top" xlink:title="Getter pour la date de sortie de l&#39;album.">
<polygon fill="white" stroke="#666666" points="290,-56 140,-56 140,-37 290,-37 290,-56"/>
<text text-anchor="middle" x="215" y="-44" font-family="Helvetica,sans-Serif" font-size="10.00">Album\getDateSortieAlbum</text>
</a>
</g>
</g>
<!-- Node1&#45;&gt;Node3 -->
<g id="edge2_Node000001_Node000003" class="edge">
<title>Node1&#45;&gt;Node3</title>
<g id="a_edge2_Node000001_Node000003"><a xlink:title=" ">
<path fill="none" stroke="#63b8ff" d="M104.38,-46.5C112.52,-46.5 121.11,-46.5 129.77,-46.5"/>
<polygon fill="#63b8ff" stroke="#63b8ff" points="129.93,-50 139.93,-46.5 129.93,-43 129.93,-50"/>
</a>
</g>
</g>
<!-- Node4 -->
<g id="Node000004" class="node">
<title>Node4</title>
<g id="a_Node000004"><a xlink:href="classAlbum.html#a289eb86ecefd151635e9d3c1d8a2a85c" target="_top" xlink:title="Getter pour le titre de l&#39;album.">
<polygon fill="white" stroke="#666666" points="275.5,-19 154.5,-19 154.5,0 275.5,0 275.5,-19"/>
<text text-anchor="middle" x="215" y="-7" font-family="Helvetica,sans-Serif" font-size="10.00">Album\getTitreAlbum</text>
</a>
</g>
</g>
<!-- Node1&#45;&gt;Node4 -->
<g id="edge3_Node000001_Node000004" class="edge">
<title>Node1&#45;&gt;Node4</title>
<g id="a_edge3_Node000001_Node000004"><a xlink:title=" ">
<path fill="none" stroke="#63b8ff" d="M94.46,-36.97C115.23,-32.2 140.56,-26.38 162.56,-21.32"/>
<polygon fill="#63b8ff" stroke="#63b8ff" points="163.44,-24.71 172.4,-19.06 161.87,-17.89 163.44,-24.71"/>
</a>
</g>
</g>
<!-- Node5 -->
<g id="Node000005" class="node">
<title>Node5</title>
<g id="a_Node000005"><a xlink:href="classAlbum.html#acc9dd6d896eeefb54b8a6f5ef71d867a" target="_top" xlink:title="Getter pour le nom de l&#39;album.">
<polygon fill="white" stroke="#666666" points="448,-19 326,-19 326,0 448,0 448,-19"/>
<text text-anchor="middle" x="387" y="-7" font-family="Helvetica,sans-Serif" font-size="10.00">Album\getNomAlbum</text>
</a>
</g>
</g>
<!-- Node4&#45;&gt;Node5 -->
<g id="edge4_Node000004_Node000005" class="edge">
<title>Node4&#45;&gt;Node5</title>
<g id="a_edge4_Node000004_Node000005"><a xlink:title=" ">
<path fill="none" stroke="#63b8ff" d="M275.94,-9.5C288.68,-9.5 302.26,-9.5 315.36,-9.5"/>
<polygon fill="#63b8ff" stroke="#63b8ff" points="315.75,-13 325.75,-9.5 315.75,-6 315.75,-13"/>
</a>
</g>
</g>
</g>
</svg>
</svg>

<style type='text/css'>
<![CDATA[
[data-mouse-over-selected='false'] { opacity: 0.7; }
[data-mouse-over-selected='true']  { opacity: 1.0; }
]]>
</style>
<script type="application/ecmascript"><![CDATA[
document.addEventListener('DOMContentLoaded', (event) => {
  highlightEdges();
  highlightAdjacentNodes();
});
]]></script>
</svg>
