<?xml version="1.0" encoding="UTF-8" standalone="no"?>
<!DOCTYPE svg PUBLIC "-//W3C//DTD SVG 1.1//EN"
 "http://www.w3.org/Graphics/SVG/1.1/DTD/svg11.dtd">
<!-- Generated by graphviz version 2.43.0 (0)
 -->
<!-- Title: ControllerAlbum\supprimerChanson Pages: 1 -->
<svg width="630pt" height="140pt"
 viewBox="0.00 0.00 630.00 140.00" xmlns="http://www.w3.org/2000/svg" xmlns:xlink="http://www.w3.org/1999/xlink">
<g id="graph0" class="graph" transform="scale(1 1) rotate(0) translate(4 136)">
<title>ControllerAlbum\supprimerChanson</title>
<!-- Node1 -->
<g id="Node000001" class="node">
<title>Node1</title>
<g id="a_Node000001"><a xlink:title="Supprime une chanson (action réservée à l&#39;artiste propriétaire).">
<polygon fill="#999999" stroke="#666666" points="149,-99.5 0,-99.5 0,-69.5 149,-69.5 149,-99.5"/>
<text text-anchor="start" x="8" y="-87.5" font-family="Helvetica,sans-Serif" font-size="10.00">ControllerAlbum\supprimer</text>
<text text-anchor="middle" x="74.5" y="-76.5" font-family="Helvetica,sans-Serif" font-size="10.00">Chanson</text>
</a>
</g>
</g>
<!-- Node2 -->
<g id="Node000002" class="node">
<title>Node2</title>
<g id="a_Node000002"><a xlink:href="classController.html#aed88cab8d9c1a6735fd3aac0993e5021" target="_top" xlink:title="Récupère la connexion PDO.">
<polygon fill="white" stroke="#666666" points="299,-132 195,-132 195,-113 299,-113 299,-132"/>
<text text-anchor="middle" x="247" y="-120" font-family="Helvetica,sans-Serif" font-size="10.00">Controller\getPDO</text>
</a>
</g>
</g>
<!-- Node1&#45;&gt;Node2 -->
<g id="edge1_Node000001_Node000002" class="edge">
<title>Node1&#45;&gt;Node2</title>
<g id="a_edge1_Node000001_Node000002"><a xlink:title=" ">
<path fill="none" stroke="#63b8ff" d="M142.89,-99.52C159.61,-103.25 177.29,-107.19 193.2,-110.73"/>
<polygon fill="#63b8ff" stroke="#63b8ff" points="192.85,-114.24 203.37,-113 194.37,-107.41 192.85,-114.24"/>
</a>
</g>
</g>
<!-- Node3 -->
<g id="Node000003" class="node">
<title>Node3</title>
<g id="a_Node000003"><a xlink:href="classController.html#a56c96fd35f673f4d5084ef7ad0cd395c" target="_top" xlink:title="Redirige vers un contrôleur et une méthode donnés.">
<polygon fill="white" stroke="#666666" points="622,-56 506,-56 506,-37 622,-37 622,-56"/>
<text text-anchor="middle" x="564" y="-44" font-family="Helvetica,sans-Serif" font-size="10.00">Controller\redirectTo</text>
</a>
</g>
</g>
<!-- Node1&#45;&gt;Node3 -->
<g id="edge2_Node000001_Node000003" class="edge">
<title>Node1&#45;&gt;Node3</title>
<g id="a_edge2_Node000001_Node000003"><a xlink:title=" ">
<path fill="none" stroke="#63b8ff" d="M149.23,-84.32C228.7,-83.34 358.76,-79.46 470,-65.5 484.08,-63.73 499.21,-61.01 513.09,-58.16"/>
<polygon fill="#63b8ff" stroke="#63b8ff" points="513.88,-61.57 522.94,-56.09 512.43,-54.72 513.88,-61.57"/>
</a>
</g>
</g>
<!-- Node4 -->
<g id="Node000004" class="node">
<title>Node4</title>
<g id="a_Node000004"><a xlink:href="classController.html#a3c8ca59e4609ef5e27e868a91f5ce090" target="_top" xlink:title="Exige que l&#39;utilisateur ait un rôle spécifique.">
<polygon fill="white" stroke="#666666" points="309,-56 185,-56 185,-37 309,-37 309,-56"/>
<text text-anchor="middle" x="247" y="-44" font-family="Helvetica,sans-Serif" font-size="10.00">Controller\requireRole</text>
</a>
</g>
</g>
<!-- Node1&#45;&gt;Node4 -->
<g id="edge3_Node000001_Node000004" class="edge">
<title>Node1&#45;&gt;Node4</title>
<g id="a_edge3_Node000001_Node000004"><a xlink:title=" ">
<path fill="none" stroke="#63b8ff" d="M142.89,-69.48C159.61,-65.75 177.29,-61.81 193.2,-58.27"/>
<polygon fill="#63b8ff" stroke="#63b8ff" points="194.37,-61.59 203.37,-56 192.85,-54.76 194.37,-61.59"/>
</a>
</g>
</g>
<!-- Node5 -->
<g id="Node000005" class="node">
<title>Node5</title>
<g id="a_Node000005"><a xlink:href="classController.html#afd7d94db564ae6e196ac7ac0461e0989" target="_top" xlink:title="Récupère l&#39;environnement Twig.">
<polygon fill="white" stroke="#666666" points="460,-56 355,-56 355,-37 460,-37 460,-56"/>
<text text-anchor="middle" x="407.5" y="-44" font-family="Helvetica,sans-Serif" font-size="10.00">Controller\getTwig</text>
</a>
</g>
</g>
<!-- Node4&#45;&gt;Node5 -->
<g id="edge4_Node000004_Node000005" class="edge">
<title>Node4&#45;&gt;Node5</title>
<g id="a_edge4_Node000004_Node000005"><a xlink:title=" ">
<path fill="none" stroke="#63b8ff" d="M309.28,-46.5C320.94,-46.5 333.14,-46.5 344.81,-46.5"/>
<polygon fill="#63b8ff" stroke="#63b8ff" points="344.9,-50 354.9,-46.5 344.9,-43 344.9,-50"/>
</a>
</g>
</g>
<!-- Node6 -->
<g id="Node000006" class="node">
<title>Node6</title>
<g id="a_Node000006"><a xlink:href="classController.html#a769e4e81d545b126413501bb3f3e77c3" target="_top" xlink:title="Exige que l&#39;utilisateur soit authentifié.">
<polygon fill="white" stroke="#666666" points="470,-19 345,-19 345,0 470,0 470,-19"/>
<text text-anchor="middle" x="407.5" y="-7" font-family="Helvetica,sans-Serif" font-size="10.00">Controller\requireAuth</text>
</a>
</g>
</g>
<!-- Node4&#45;&gt;Node6 -->
<g id="edge5_Node000004_Node000006" class="edge">
<title>Node4&#45;&gt;Node6</title>
<g id="a_edge5_Node000004_Node000006"><a xlink:title=" ">
<path fill="none" stroke="#63b8ff" d="M288.82,-36.97C309.17,-32.22 333.98,-26.43 355.56,-21.39"/>
<polygon fill="#63b8ff" stroke="#63b8ff" points="356.6,-24.74 365.55,-19.06 355.01,-17.93 356.6,-24.74"/>
</a>
</g>
</g>
<!-- Node6&#45;&gt;Node3 -->
<g id="edge6_Node000006_Node000003" class="edge">
<title>Node6&#45;&gt;Node3</title>
<g id="a_edge6_Node000006_Node000003"><a xlink:title=" ">
<path fill="none" stroke="#63b8ff" d="M448.29,-19.03C468.12,-23.78 492.31,-29.57 513.35,-34.61"/>
<polygon fill="#63b8ff" stroke="#63b8ff" points="512.54,-38.01 523.08,-36.94 514.17,-31.21 512.54,-38.01"/>
</a>
</g>
</g>
</g>
</svg>
