<?xml version="1.0" encoding="UTF-8" standalone="no"?>
<!DOCTYPE svg PUBLIC "-//W3C//DTD SVG 1.1//EN"
 "http://www.w3.org/Graphics/SVG/1.1/DTD/svg11.dtd">
<!-- Generated by graphviz version 2.43.0 (0)
 -->
<!-- Title: GenreDAO\hydrate Pages: 1 -->
<svg width="497pt" height="119pt"
 viewBox="0.00 0.00 497.00 119.00" xmlns="http://www.w3.org/2000/svg" xmlns:xlink="http://www.w3.org/1999/xlink">

<svg id="main" version="1.1" xmlns="http://www.w3.org/2000/svg" xmlns:xlink="http://www.w3.org/1999/xlink" xml:space="preserve" onload="init(evt)">
<style type="text/css"><![CDATA[
.node, .edge {opacity: 0.7;}
.node.selected, .edge.selected {opacity: 1;}
.edge:hover path { stroke: red; }
.edge:hover polygon { stroke: red; fill: red; }
]]></style>
<script type="application/ecmascript" xlink:href="svg.min.js"/>
<svg id="graph" class="graph">
<g id="graph0" class="graph" transform="scale(1 1) rotate(0) translate(4 115)">
<title>GenreDAO\hydrate</title>
<!-- Node1 -->
<g id="Node000001" class="node">
<title>Node1</title>
<g id="a_Node000001"><a xlink:title=" ">
<polygon fill="#999999" stroke="#666666" points="489,-74 381,-74 381,-55 489,-55 489,-74"/>
<text text-anchor="middle" x="435" y="-62" font-family="Helvetica,sans-Serif" font-size="10.00">GenreDAO\hydrate</text>
</a>
</g>
</g>
<!-- Node2 -->
<g id="Node000002" class="node">
<title>Node2</title>
<g id="a_Node000002"><a xlink:href="classGenreDAO.html#a18aad41316262fc8d8ac94fa7717b7c4" target="_top" xlink:title=" ">
<polygon fill="white" stroke="#666666" points="322,-111 233,-111 233,-92 322,-92 322,-111"/>
<text text-anchor="middle" x="277.5" y="-99" font-family="Helvetica,sans-Serif" font-size="10.00">GenreDAO\find</text>
</a>
</g>
</g>
<!-- Node1&#45;&gt;Node2 -->
<g id="edge1_Node000001_Node000002" class="edge">
<title>Node1&#45;&gt;Node2</title>
<g id="a_edge1_Node000001_Node000002"><a xlink:title=" ">
<path fill="none" stroke="#63b8ff" d="M384.17,-76.36C363.01,-81.39 338.66,-87.18 318.68,-91.94"/>
<polygon fill="#63b8ff" stroke="#63b8ff" points="385.04,-79.75 393.95,-74.03 383.42,-72.94 385.04,-79.75"/>
</a>
</g>
</g>
<!-- Node4 -->
<g id="Node000004" class="node">
<title>Node4</title>
<g id="a_Node000004"><a xlink:href="classGenreDAO.html#ab9a7053dd5f550e84b01bde9f4121d9d" target="_top" xlink:title=" ">
<polygon fill="white" stroke="#666666" points="343,-74 212,-74 212,-55 343,-55 343,-74"/>
<text text-anchor="middle" x="277.5" y="-62" font-family="Helvetica,sans-Serif" font-size="10.00">GenreDAO\findByName</text>
</a>
</g>
</g>
<!-- Node1&#45;&gt;Node4 -->
<g id="edge3_Node000001_Node000004" class="edge">
<title>Node1&#45;&gt;Node4</title>
<g id="a_edge3_Node000001_Node000004"><a xlink:title=" ">
<path fill="none" stroke="#63b8ff" d="M370.79,-64.5C361.68,-64.5 352.31,-64.5 343.17,-64.5"/>
<polygon fill="#63b8ff" stroke="#63b8ff" points="370.92,-68 380.92,-64.5 370.92,-61 370.92,-68"/>
</a>
</g>
</g>
<!-- Node5 -->
<g id="Node000005" class="node">
<title>Node5</title>
<g id="a_Node000005"><a xlink:href="classGenreDAO.html#abd0565276bbb552233aac00f04f2c1ed" target="_top" xlink:title=" ">
<polygon fill="white" stroke="#666666" points="345,-37 210,-37 210,-18 345,-18 345,-37"/>
<text text-anchor="middle" x="277.5" y="-25" font-family="Helvetica,sans-Serif" font-size="10.00">GenreDAO\hydrateMany</text>
</a>
</g>
</g>
<!-- Node1&#45;&gt;Node5 -->
<g id="edge5_Node000001_Node000005" class="edge">
<title>Node1&#45;&gt;Node5</title>
<g id="a_edge5_Node000001_Node000005"><a xlink:title=" ">
<path fill="none" stroke="#63b8ff" d="M384.17,-52.64C363.01,-47.61 338.66,-41.82 318.68,-37.06"/>
<polygon fill="#63b8ff" stroke="#63b8ff" points="383.42,-56.06 393.95,-54.97 385.04,-49.25 383.42,-56.06"/>
</a>
</g>
</g>
<!-- Node3 -->
<g id="Node000003" class="node">
<title>Node3</title>
<g id="a_Node000003"><a xlink:href="classGenreDAO.html#a4ebe1eaed0f03cc04b4d60b88f9e974d" target="_top" xlink:title=" ">
<polygon fill="white" stroke="#666666" points="174,-102 0,-102 0,-83 174,-83 174,-102"/>
<text text-anchor="middle" x="87" y="-90" font-family="Helvetica,sans-Serif" font-size="10.00">GenreDAO\findOrCreateByName</text>
</a>
</g>
</g>
<!-- Node2&#45;&gt;Node3 -->
<g id="edge2_Node000002_Node000003" class="edge">
<title>Node2&#45;&gt;Node3</title>
<g id="a_edge2_Node000002_Node000003"><a xlink:title=" ">
<path fill="none" stroke="#63b8ff" d="M222.61,-98.93C207.48,-98.2 190.65,-97.4 174.15,-96.61"/>
<polygon fill="#63b8ff" stroke="#63b8ff" points="222.62,-102.43 232.78,-99.41 222.96,-95.44 222.62,-102.43"/>
</a>
</g>
</g>
<!-- Node4&#45;&gt;Node3 -->
<g id="edge4_Node000004_Node000003" class="edge">
<title>Node4&#45;&gt;Node3</title>
<g id="a_edge4_Node000004_Node000003"><a xlink:title=" ">
<path fill="none" stroke="#63b8ff" d="M202.25,-75.53C185.72,-77.99 168.32,-80.57 152.22,-82.96"/>
<polygon fill="#63b8ff" stroke="#63b8ff" points="203.04,-78.95 212.42,-74.02 202.01,-72.03 203.04,-78.95"/>
</a>
</g>
</g>
<!-- Node6 -->
<g id="Node000006" class="node">
<title>Node6</title>
<g id="a_Node000006"><a xlink:href="classGenreDAO.html#ae5d1f281aa34a4946800bc08217c6aa9" target="_top" xlink:title="Récupère tous les genres de la base de données.">
<polygon fill="white" stroke="#666666" points="137.5,-56 36.5,-56 36.5,-37 137.5,-37 137.5,-56"/>
<text text-anchor="middle" x="87" y="-44" font-family="Helvetica,sans-Serif" font-size="10.00">GenreDAO\findAll</text>
</a>
</g>
</g>
<!-- Node5&#45;&gt;Node6 -->
<g id="edge6_Node000005_Node000006" class="edge">
<title>Node5&#45;&gt;Node6</title>
<g id="a_edge6_Node000005_Node000006"><a xlink:title=" ">
<path fill="none" stroke="#63b8ff" d="M199.64,-35.25C178.75,-37.35 156.68,-39.58 137.73,-41.49"/>
<polygon fill="#63b8ff" stroke="#63b8ff" points="200.18,-38.71 209.78,-34.23 199.48,-31.75 200.18,-38.71"/>
</a>
</g>
</g>
<!-- Node7 -->
<g id="Node000007" class="node">
<title>Node7</title>
<g id="a_Node000007"><a xlink:href="classGenreDAO.html#a552fff5abbc9121d62f7dd9b337e6470" target="_top" xlink:title=" ">
<polygon fill="white" stroke="#666666" points="167.5,-19 6.5,-19 6.5,0 167.5,0 167.5,-19"/>
<text text-anchor="middle" x="87" y="-7" font-family="Helvetica,sans-Serif" font-size="10.00">GenreDAO\rechercherParNom</text>
</a>
</g>
</g>
<!-- Node5&#45;&gt;Node7 -->
<g id="edge7_Node000005_Node000007" class="edge">
<title>Node5&#45;&gt;Node7</title>
<g id="a_edge7_Node000005_Node000007"><a xlink:title=" ">
<path fill="none" stroke="#63b8ff" d="M199.72,-20.17C189.11,-19.16 178.2,-18.11 167.55,-17.1"/>
<polygon fill="#63b8ff" stroke="#63b8ff" points="199.49,-23.66 209.78,-21.13 200.15,-16.69 199.49,-23.66"/>
</a>
</g>
</g>
</g>
</svg>
</svg>

<style type='text/css'>
<![CDATA[
[data-mouse-over-selected='false'] { opacity: 0.7; }
[data-mouse-over-selected='true']  { opacity: 1.0; }
]]>
</style>
<script type="application/ecmascript"><![CDATA[
document.addEventListener('DOMContentLoaded', (event) => {
  highlightEdges();
  highlightAdjacentNodes();
});
]]></script>
</svg>
