<?xml version="1.0" encoding="UTF-8" standalone="no"?>
<!DOCTYPE svg PUBLIC "-//W3C//DTD SVG 1.1//EN"
 "http://www.w3.org/Graphics/SVG/1.1/DTD/svg11.dtd">
<!-- Generated by graphviz version 2.43.0 (0)
 -->
<!-- Title: ControllerHome\afficher Pages: 1 -->
<svg width="509pt" height="175pt"
 viewBox="0.00 0.00 509.00 175.00" xmlns="http://www.w3.org/2000/svg" xmlns:xlink="http://www.w3.org/1999/xlink">
<g id="graph0" class="graph" transform="scale(1 1) rotate(0) translate(4 171)">
<title>ControllerHome\afficher</title>
<!-- Node1 -->
<g id="Node000001" class="node">
<title>Node1</title>
<g id="a_Node000001"><a xlink:title="Affiche la page d&#39;accueil selon le rôle de l&#39;utilisateur.">
<polygon fill="#999999" stroke="#666666" points="134,-93 0,-93 0,-74 134,-74 134,-93"/>
<text text-anchor="middle" x="67" y="-81" font-family="Helvetica,sans-Serif" font-size="10.00">ControllerHome\afficher</text>
</a>
</g>
</g>
<!-- Node2 -->
<g id="Node000002" class="node">
<title>Node2</title>
<g id="a_Node000002"><a xlink:href="classControllerHome.html#afa387b4cc8f4ade844e23c91f345096c" target="_top" xlink:title="Affiche le tableau de bord de l&#39;artiste connecté.">
<polygon fill="white" stroke="#666666" points="355.5,-167 174.5,-167 174.5,-148 355.5,-148 355.5,-167"/>
<text text-anchor="middle" x="265" y="-155" font-family="Helvetica,sans-Serif" font-size="10.00">ControllerHome\artisteDashboard</text>
</a>
</g>
</g>
<!-- Node1&#45;&gt;Node2 -->
<g id="edge1_Node000001_Node000002" class="edge">
<title>Node1&#45;&gt;Node2</title>
<g id="a_edge1_Node000001_Node000002"><a xlink:title=" ">
<path fill="none" stroke="#63b8ff" d="M82.18,-93.17C101.29,-105.75 136.74,-127.52 170,-139.5 176.35,-141.79 183.06,-143.8 189.85,-145.58"/>
<polygon fill="#63b8ff" stroke="#63b8ff" points="189.27,-149.04 199.82,-148 190.93,-142.24 189.27,-149.04"/>
</a>
</g>
</g>
<!-- Node5 -->
<g id="Node000005" class="node">
<title>Node5</title>
<g id="a_Node000005"><a xlink:href="classControllerHome.html#ae66821d9d12bddaa6422f805c5d1b9b9" target="_top" xlink:title="Affiche le tableau de bord de l&#39;auditeur connecté.">
<polygon fill="white" stroke="#666666" points="360,-130 170,-130 170,-111 360,-111 360,-130"/>
<text text-anchor="middle" x="265" y="-118" font-family="Helvetica,sans-Serif" font-size="10.00">ControllerHome\auditeurDashboard</text>
</a>
</g>
</g>
<!-- Node1&#45;&gt;Node5 -->
<g id="edge4_Node000001_Node000005" class="edge">
<title>Node1&#45;&gt;Node5</title>
<g id="a_edge4_Node000001_Node000005"><a xlink:title=" ">
<path fill="none" stroke="#63b8ff" d="M118.47,-93.03C144.32,-97.91 175.99,-103.89 203.18,-109.02"/>
<polygon fill="#63b8ff" stroke="#63b8ff" points="202.88,-112.52 213.36,-110.94 204.18,-105.65 202.88,-112.52"/>
</a>
</g>
</g>
<!-- Node6 -->
<g id="Node000006" class="node">
<title>Node6</title>
<g id="a_Node000006"><a xlink:href="classControllerHome.html#a713658fcf1eb19835afeb53d6964386c" target="_top" xlink:title="Affiche la page d&#39;accueil de bienvenue.">
<polygon fill="white" stroke="#666666" points="353,-56 177,-56 177,-37 353,-37 353,-56"/>
<text text-anchor="middle" x="265" y="-44" font-family="Helvetica,sans-Serif" font-size="10.00">ControllerHome\homeBienvenue</text>
</a>
</g>
</g>
<!-- Node1&#45;&gt;Node6 -->
<g id="edge7_Node000001_Node000006" class="edge">
<title>Node1&#45;&gt;Node6</title>
<g id="a_edge7_Node000001_Node000006"><a xlink:title=" ">
<path fill="none" stroke="#63b8ff" d="M118.47,-73.97C144.32,-69.09 175.99,-63.11 203.18,-57.98"/>
<polygon fill="#63b8ff" stroke="#63b8ff" points="204.18,-61.35 213.36,-56.06 202.88,-54.48 204.18,-61.35"/>
</a>
</g>
</g>
<!-- Node7 -->
<g id="Node000007" class="node">
<title>Node7</title>
<g id="a_Node000007"><a xlink:href="classControllerHome.html#a37d489f78f71195bd48371f961d47bd1" target="_top" xlink:title="Affiche le tableau de bord public (utilisateurs non connectés ou invités).">
<polygon fill="white" stroke="#666666" points="351.5,-93 178.5,-93 178.5,-74 351.5,-74 351.5,-93"/>
<text text-anchor="middle" x="265" y="-81" font-family="Helvetica,sans-Serif" font-size="10.00">ControllerHome\openDashboard</text>
</a>
</g>
</g>
<!-- Node1&#45;&gt;Node7 -->
<g id="edge9_Node000001_Node000007" class="edge">
<title>Node1&#45;&gt;Node7</title>
<g id="a_edge9_Node000001_Node000007"><a xlink:title=" ">
<path fill="none" stroke="#63b8ff" d="M134.08,-83.5C145.09,-83.5 156.69,-83.5 168.25,-83.5"/>
<polygon fill="#63b8ff" stroke="#63b8ff" points="168.39,-87 178.39,-83.5 168.39,-80 168.39,-87"/>
</a>
</g>
</g>
<!-- Node8 -->
<g id="Node000008" class="node">
<title>Node8</title>
<g id="a_Node000008"><a xlink:href="classController.html#a56c96fd35f673f4d5084ef7ad0cd395c" target="_top" xlink:title="Redirige vers un contrôleur et une méthode donnés.">
<polygon fill="white" stroke="#666666" points="323,-19 207,-19 207,0 323,0 323,-19"/>
<text text-anchor="middle" x="265" y="-7" font-family="Helvetica,sans-Serif" font-size="10.00">Controller\redirectTo</text>
</a>
</g>
</g>
<!-- Node1&#45;&gt;Node8 -->
<g id="edge12_Node000001_Node000008" class="edge">
<title>Node1&#45;&gt;Node8</title>
<g id="a_edge12_Node000001_Node000008"><a xlink:title=" ">
<path fill="none" stroke="#63b8ff" d="M82.18,-73.83C101.29,-61.25 136.74,-39.48 170,-27.5 178.5,-24.44 187.62,-21.87 196.72,-19.72"/>
<polygon fill="#63b8ff" stroke="#63b8ff" points="197.56,-23.12 206.56,-17.54 196.04,-16.28 197.56,-23.12"/>
</a>
</g>
</g>
<!-- Node3 -->
<g id="Node000003" class="node">
<title>Node3</title>
<g id="a_Node000003"><a xlink:href="classController.html#aed88cab8d9c1a6735fd3aac0993e5021" target="_top" xlink:title="Récupère la connexion PDO.">
<polygon fill="white" stroke="#666666" points="500.5,-130 396.5,-130 396.5,-111 500.5,-111 500.5,-130"/>
<text text-anchor="middle" x="448.5" y="-118" font-family="Helvetica,sans-Serif" font-size="10.00">Controller\getPDO</text>
</a>
</g>
</g>
<!-- Node2&#45;&gt;Node3 -->
<g id="edge2_Node000002_Node000003" class="edge">
<title>Node2&#45;&gt;Node3</title>
<g id="a_edge2_Node000002_Node000003"><a xlink:title=" ">
<path fill="none" stroke="#63b8ff" d="M317.27,-147.92C331.15,-145.26 346.16,-142.33 360,-139.5 371.19,-137.21 383.17,-134.67 394.55,-132.22"/>
<polygon fill="#63b8ff" stroke="#63b8ff" points="395.34,-135.63 404.37,-130.09 393.86,-128.79 395.34,-135.63"/>
</a>
</g>
</g>
<!-- Node4 -->
<g id="Node000004" class="node">
<title>Node4</title>
<g id="a_Node000004"><a xlink:href="classController.html#afd7d94db564ae6e196ac7ac0461e0989" target="_top" xlink:title="Récupère l&#39;environnement Twig.">
<polygon fill="white" stroke="#666666" points="501,-93 396,-93 396,-74 501,-74 501,-93"/>
<text text-anchor="middle" x="448.5" y="-81" font-family="Helvetica,sans-Serif" font-size="10.00">Controller\getTwig</text>
</a>
</g>
</g>
<!-- Node2&#45;&gt;Node4 -->
<g id="edge3_Node000002_Node000004" class="edge">
<title>Node2&#45;&gt;Node4</title>
<g id="a_edge3_Node000002_Node000004"><a xlink:title=" ">
<path fill="none" stroke="#63b8ff" d="M339.87,-147.89C346.88,-145.65 353.71,-142.89 360,-139.5 380.2,-128.62 376.76,-115 396,-102.5 398.97,-100.57 402.16,-98.8 405.44,-97.19"/>
<polygon fill="#63b8ff" stroke="#63b8ff" points="407.11,-100.28 414.85,-93.04 404.28,-93.87 407.11,-100.28"/>
</a>
</g>
</g>
<!-- Node5&#45;&gt;Node3 -->
<g id="edge5_Node000005_Node000003" class="edge">
<title>Node5&#45;&gt;Node3</title>
<g id="a_edge5_Node000005_Node000003"><a xlink:title=" ">
<path fill="none" stroke="#63b8ff" d="M360.21,-120.5C369.04,-120.5 377.84,-120.5 386.25,-120.5"/>
<polygon fill="#63b8ff" stroke="#63b8ff" points="386.3,-124 396.3,-120.5 386.3,-117 386.3,-124"/>
</a>
</g>
</g>
<!-- Node5&#45;&gt;Node4 -->
<g id="edge6_Node000005_Node000004" class="edge">
<title>Node5&#45;&gt;Node4</title>
<g id="a_edge6_Node000005_Node000004"><a xlink:title=" ">
<path fill="none" stroke="#63b8ff" d="M317.27,-110.92C331.15,-108.26 346.16,-105.33 360,-102.5 371.19,-100.21 383.17,-97.67 394.55,-95.22"/>
<polygon fill="#63b8ff" stroke="#63b8ff" points="395.34,-98.63 404.37,-93.09 393.86,-91.79 395.34,-98.63"/>
</a>
</g>
</g>
<!-- Node6&#45;&gt;Node4 -->
<g id="edge8_Node000006_Node000004" class="edge">
<title>Node6&#45;&gt;Node4</title>
<g id="a_edge8_Node000006_Node000004"><a xlink:title=" ">
<path fill="none" stroke="#63b8ff" d="M313.34,-56.04C328.27,-59.05 344.83,-62.41 360,-65.5 370.13,-67.57 380.93,-69.78 391.35,-71.92"/>
<polygon fill="#63b8ff" stroke="#63b8ff" points="390.69,-75.36 401.19,-73.94 392.1,-68.5 390.69,-75.36"/>
</a>
</g>
</g>
<!-- Node7&#45;&gt;Node3 -->
<g id="edge10_Node000007_Node000003" class="edge">
<title>Node7&#45;&gt;Node3</title>
<g id="a_edge10_Node000007_Node000003"><a xlink:title=" ">
<path fill="none" stroke="#63b8ff" d="M313.34,-93.04C328.27,-96.05 344.83,-99.41 360,-102.5 370.13,-104.57 380.93,-106.78 391.35,-108.92"/>
<polygon fill="#63b8ff" stroke="#63b8ff" points="390.69,-112.36 401.19,-110.94 392.1,-105.5 390.69,-112.36"/>
</a>
</g>
</g>
<!-- Node7&#45;&gt;Node4 -->
<g id="edge11_Node000007_Node000004" class="edge">
<title>Node7&#45;&gt;Node4</title>
<g id="a_edge11_Node000007_Node000004"><a xlink:title=" ">
<path fill="none" stroke="#63b8ff" d="M351.7,-83.5C363.11,-83.5 374.62,-83.5 385.52,-83.5"/>
<polygon fill="#63b8ff" stroke="#63b8ff" points="385.75,-87 395.75,-83.5 385.75,-80 385.75,-87"/>
</a>
</g>
</g>
</g>
</svg>
