<?xml version="1.0" encoding="UTF-8" standalone="no"?>
<!DOCTYPE svg PUBLIC "-//W3C//DTD SVG 1.1//EN"
 "http://www.w3.org/Graphics/SVG/1.1/DTD/svg11.dtd">
<!-- Generated by graphviz version 2.43.0 (0)
 -->
<!-- Title: ChansonDAO\createChanson Pages: 1 -->
<svg width="373pt" height="261pt"
 viewBox="0.00 0.00 373.00 261.00" xmlns="http://www.w3.org/2000/svg" xmlns:xlink="http://www.w3.org/1999/xlink">
<g id="graph0" class="graph" transform="scale(1 1) rotate(0) translate(4 257)">
<title>ChansonDAO\createChanson</title>
<!-- Node1 -->
<g id="Node000001" class="node">
<title>Node1</title>
<g id="a_Node000001"><a xlink:title=" ">
<polygon fill="#999999" stroke="#666666" points="156,-130 0,-130 0,-111 156,-111 156,-130"/>
<text text-anchor="middle" x="78" y="-118" font-family="Helvetica,sans-Serif" font-size="10.00">ChansonDAO\createChanson</text>
</a>
</g>
</g>
<!-- Node2 -->
<g id="Node000002" class="node">
<title>Node2</title>
<g id="a_Node000002"><a xlink:href="classChanson.html#a6412dbbabae463265f3d93429eaa80c2" target="_top" xlink:title="Get the value of albumChanson.">
<polygon fill="white" stroke="#666666" points="354,-253 203,-253 203,-234 354,-234 354,-253"/>
<text text-anchor="middle" x="278.5" y="-241" font-family="Helvetica,sans-Serif" font-size="10.00">Chanson\getAlbumChanson</text>
</a>
</g>
</g>
<!-- Node1&#45;&gt;Node2 -->
<g id="edge1_Node000001_Node000002" class="edge">
<title>Node1&#45;&gt;Node2</title>
<g id="a_edge1_Node000001_Node000002"><a xlink:title=" ">
<path fill="none" stroke="#63b8ff" d="M86.32,-130.02C102.78,-150.72 144.97,-199.94 192,-224.5 196.52,-226.86 201.32,-228.93 206.25,-230.74"/>
<polygon fill="#63b8ff" stroke="#63b8ff" points="205.26,-234.1 215.85,-233.91 207.46,-227.45 205.26,-234.1"/>
</a>
</g>
</g>
<!-- Node3 -->
<g id="Node000003" class="node">
<title>Node3</title>
<g id="a_Node000003"><a xlink:href="classChanson.html#abaca0e393c9fc5b0fa13f1e5a17619f6" target="_top" xlink:title="Get the value of dateTeleversementChanson.">
<polygon fill="white" stroke="#666666" points="365,-215.5 192,-215.5 192,-185.5 365,-185.5 365,-215.5"/>
<text text-anchor="start" x="200" y="-203.5" font-family="Helvetica,sans-Serif" font-size="10.00">Chanson\getDateTeleversement</text>
<text text-anchor="middle" x="278.5" y="-192.5" font-family="Helvetica,sans-Serif" font-size="10.00">Chanson</text>
</a>
</g>
</g>
<!-- Node1&#45;&gt;Node3 -->
<g id="edge2_Node000001_Node000003" class="edge">
<title>Node1&#45;&gt;Node3</title>
<g id="a_edge2_Node000001_Node000003"><a xlink:title=" ">
<path fill="none" stroke="#63b8ff" d="M95.78,-130.06C117.47,-142.12 156.64,-162.91 192,-176.5 197.35,-178.55 202.94,-180.52 208.6,-182.37"/>
<polygon fill="#63b8ff" stroke="#63b8ff" points="207.57,-185.72 218.16,-185.39 209.68,-179.04 207.57,-185.72"/>
</a>
</g>
</g>
<!-- Node4 -->
<g id="Node000004" class="node">
<title>Node4</title>
<g id="a_Node000004"><a xlink:href="classChanson.html#ac47f79c6b43ca91348c632ac9fc6e5e0" target="_top" xlink:title="Get the value of dureeChanson.">
<polygon fill="white" stroke="#666666" points="353,-167 204,-167 204,-148 353,-148 353,-167"/>
<text text-anchor="middle" x="278.5" y="-155" font-family="Helvetica,sans-Serif" font-size="10.00">Chanson\getDureeChanson</text>
</a>
</g>
</g>
<!-- Node1&#45;&gt;Node4 -->
<g id="edge3_Node000001_Node000004" class="edge">
<title>Node1&#45;&gt;Node4</title>
<g id="a_edge3_Node000001_Node000004"><a xlink:title=" ">
<path fill="none" stroke="#63b8ff" d="M130.12,-130.03C156.41,-134.93 188.65,-140.94 216.27,-146.09"/>
<polygon fill="#63b8ff" stroke="#63b8ff" points="215.74,-149.55 226.21,-147.94 217.02,-142.67 215.74,-149.55"/>
</a>
</g>
</g>
<!-- Node5 -->
<g id="Node000005" class="node">
<title>Node5</title>
<g id="a_Node000005"><a xlink:href="classChanson.html#adc8b0e1bb44bee52af42c2a5977a998c" target="_top" xlink:title="Get the value of emailPublicateur.">
<polygon fill="white" stroke="#666666" points="358.5,-130 198.5,-130 198.5,-111 358.5,-111 358.5,-130"/>
<text text-anchor="middle" x="278.5" y="-118" font-family="Helvetica,sans-Serif" font-size="10.00">Chanson\getEmailPublicateur</text>
</a>
</g>
</g>
<!-- Node1&#45;&gt;Node5 -->
<g id="edge4_Node000001_Node000005" class="edge">
<title>Node1&#45;&gt;Node5</title>
<g id="a_edge4_Node000001_Node000005"><a xlink:title=" ">
<path fill="none" stroke="#63b8ff" d="M156.03,-120.5C166.52,-120.5 177.36,-120.5 188.04,-120.5"/>
<polygon fill="#63b8ff" stroke="#63b8ff" points="188.22,-124 198.22,-120.5 188.22,-117 188.22,-124"/>
</a>
</g>
</g>
<!-- Node6 -->
<g id="Node000006" class="node">
<title>Node6</title>
<g id="a_Node000006"><a xlink:href="classChanson.html#a5d211f9f2b3c3a33b95e47f113628502" target="_top" xlink:title="Get the value of genreChanson.">
<polygon fill="white" stroke="#666666" points="353,-93 204,-93 204,-74 353,-74 353,-93"/>
<text text-anchor="middle" x="278.5" y="-81" font-family="Helvetica,sans-Serif" font-size="10.00">Chanson\getGenreChanson</text>
</a>
</g>
</g>
<!-- Node1&#45;&gt;Node6 -->
<g id="edge5_Node000001_Node000006" class="edge">
<title>Node1&#45;&gt;Node6</title>
<g id="a_edge5_Node000001_Node000006"><a xlink:title=" ">
<path fill="none" stroke="#63b8ff" d="M130.12,-110.97C156.41,-106.07 188.65,-100.06 216.27,-94.91"/>
<polygon fill="#63b8ff" stroke="#63b8ff" points="217.02,-98.33 226.21,-93.06 215.74,-91.45 217.02,-98.33"/>
</a>
</g>
</g>
<!-- Node7 -->
<g id="Node000007" class="node">
<title>Node7</title>
<g id="a_Node000007"><a xlink:href="classChanson.html#a806cf9c62b0160b3500a0bdf24935277" target="_top" xlink:title="Get the value of nbEcouteChanson.">
<polygon fill="white" stroke="#666666" points="361.5,-56 195.5,-56 195.5,-37 361.5,-37 361.5,-56"/>
<text text-anchor="middle" x="278.5" y="-44" font-family="Helvetica,sans-Serif" font-size="10.00">Chanson\getNbEcouteChanson</text>
</a>
</g>
</g>
<!-- Node1&#45;&gt;Node7 -->
<g id="edge6_Node000001_Node000007" class="edge">
<title>Node1&#45;&gt;Node7</title>
<g id="a_edge6_Node000001_Node000007"><a xlink:title=" ">
<path fill="none" stroke="#63b8ff" d="M95.69,-110.83C117.29,-98.68 156.36,-77.94 192,-65.5 199.55,-62.86 207.61,-60.51 215.65,-58.43"/>
<polygon fill="#63b8ff" stroke="#63b8ff" points="216.53,-61.82 225.41,-56.03 214.86,-55.02 216.53,-61.82"/>
</a>
</g>
</g>
<!-- Node8 -->
<g id="Node000008" class="node">
<title>Node8</title>
<g id="a_Node000008"><a xlink:href="classChanson.html#adbb3d4c53f48da4a850e6abd87521957" target="_top" xlink:title="Get the value of titreChanson.">
<polygon fill="white" stroke="#666666" points="349.5,-19 207.5,-19 207.5,0 349.5,0 349.5,-19"/>
<text text-anchor="middle" x="278.5" y="-7" font-family="Helvetica,sans-Serif" font-size="10.00">Chanson\getTitreChanson</text>
</a>
</g>
</g>
<!-- Node1&#45;&gt;Node8 -->
<g id="edge7_Node000001_Node000008" class="edge">
<title>Node1&#45;&gt;Node8</title>
<g id="a_edge7_Node000001_Node000008"><a xlink:title=" ">
<path fill="none" stroke="#63b8ff" d="M87.63,-110.98C105.28,-92.13 147.6,-50 192,-28.5 196.96,-26.1 202.23,-23.99 207.62,-22.15"/>
<polygon fill="#63b8ff" stroke="#63b8ff" points="208.91,-25.42 217.42,-19.12 206.83,-18.73 208.91,-25.42"/>
</a>
</g>
</g>
</g>
</svg>
