<?xml version="1.0" encoding="UTF-8" standalone="no"?>
<!DOCTYPE svg PUBLIC "-//W3C//DTD SVG 1.1//EN"
 "http://www.w3.org/Graphics/SVG/1.1/DTD/svg11.dtd">
<!-- Generated by graphviz version 2.43.0 (0)
 -->
<!-- Title: NewsletterDAO\create Pages: 1 -->
<svg width="332pt" height="64pt"
 viewBox="0.00 0.00 332.00 64.00" xmlns="http://www.w3.org/2000/svg" xmlns:xlink="http://www.w3.org/1999/xlink">
<g id="graph0" class="graph" transform="scale(1 1) rotate(0) translate(4 60)">
<title>NewsletterDAO\create</title>
<!-- Node1 -->
<g id="Node000001" class="node">
<title>Node1</title>
<g id="a_Node000001"><a xlink:title=" ">
<polygon fill="#999999" stroke="#666666" points="125,-37 0,-37 0,-18 125,-18 125,-37"/>
<text text-anchor="middle" x="62.5" y="-25" font-family="Helvetica,sans-Serif" font-size="10.00">NewsletterDAO\create</text>
</a>
</g>
</g>
<!-- Node2 -->
<g id="Node000002" class="node">
<title>Node2</title>
<g id="a_Node000002"><a xlink:href="classNewsletter.html#ad13e7337dc87e9fe95c0c3685384502b" target="_top" xlink:title="Getter pour la date d&#39;inscription.">
<polygon fill="white" stroke="#666666" points="324,-56 161,-56 161,-37 324,-37 324,-56"/>
<text text-anchor="middle" x="242.5" y="-44" font-family="Helvetica,sans-Serif" font-size="10.00">Newsletter\getDateInscription</text>
</a>
</g>
</g>
<!-- Node1&#45;&gt;Node2 -->
<g id="edge1_Node000001_Node000002" class="edge">
<title>Node1&#45;&gt;Node2</title>
<g id="a_edge1_Node000001_Node000002"><a xlink:title=" ">
<path fill="none" stroke="#63b8ff" d="M125.26,-34.09C133.48,-34.97 142.05,-35.89 150.65,-36.8"/>
<polygon fill="#63b8ff" stroke="#63b8ff" points="150.41,-40.3 160.73,-37.88 151.16,-33.34 150.41,-40.3"/>
</a>
</g>
</g>
<!-- Node3 -->
<g id="Node000003" class="node">
<title>Node3</title>
<g id="a_Node000003"><a xlink:href="classNewsletter.html#a57a9465b62f9c92e033f0e0c1dfa2fab" target="_top" xlink:title="Getter pour l&#39;email de l&#39;abonné">
<polygon fill="white" stroke="#666666" points="300.5,-19 184.5,-19 184.5,0 300.5,0 300.5,-19"/>
<text text-anchor="middle" x="242.5" y="-7" font-family="Helvetica,sans-Serif" font-size="10.00">Newsletter\getEmail</text>
</a>
</g>
</g>
<!-- Node1&#45;&gt;Node3 -->
<g id="edge2_Node000001_Node000003" class="edge">
<title>Node1&#45;&gt;Node3</title>
<g id="a_edge2_Node000001_Node000003"><a xlink:title=" ">
<path fill="none" stroke="#63b8ff" d="M125.26,-21.25C140.99,-19.66 157.98,-17.95 173.98,-16.33"/>
<polygon fill="#63b8ff" stroke="#63b8ff" points="174.74,-19.77 184.33,-15.28 174.03,-12.8 174.74,-19.77"/>
</a>
</g>
</g>
</g>
</svg>
