<?xml version="1.0" encoding="UTF-8" standalone="no"?>
<!DOCTYPE svg PUBLIC "-//W3C//DTD SVG 1.1//EN"
 "http://www.w3.org/Graphics/SVG/1.1/DTD/svg11.dtd">
<!-- Generated by graphviz version 2.43.0 (0)
 -->
<!-- Title: Controller\getPDO Pages: 1 -->
<!--zoomable 717 -->

<svg id="main" version="1.1" xmlns="http://www.w3.org/2000/svg" xmlns:xlink="http://www.w3.org/1999/xlink" xml:space="preserve" onload="init(evt)">
<style type="text/css"><![CDATA[
.node, .edge {opacity: 0.7;}
.node.selected, .edge.selected {opacity: 1;}
.edge:hover path { stroke: red; }
.edge:hover polygon { stroke: red; fill: red; }
]]></style>

<defs>
  <circle id="rim" cx="0" cy="0" r="7"/>
  <circle id="rim2" cx="0" cy="0" r="3.5"/>
  <g id="zoomPlus">
    <use xlink:href="#rim" fill="#404040"><set attributeName="fill" to="#808080" begin="zoomplus.mouseover" end="zoomplus.mouseout"/></use>
    <path d="M-4,0h8M0,-4v8" fill="none" stroke="white" stroke-width="1.5" pointer-events="none"/>
  </g>
  <g id="zoomMin">
    <use xlink:href="#rim" fill="#404040"><set attributeName="fill" to="#808080" begin="zoomminus.mouseover" end="zoomminus.mouseout"/></use>
    <path d="M-4,0h8" fill="none" stroke="white" stroke-width="1.5" pointer-events="none"/>
  </g>
  <g id="arrowUp" transform="translate(30 24)">
    <use xlink:href="#rim"/>
    <path pointer-events="none" fill="none" stroke="white" stroke-width="1.5" d="M0,-3.0v7 M-2.5,-0.5L0,-3.0L2.5,-0.5"/>
  </g>
  <g id="arrowRight" transform="rotate(90) translate(36 -43)">
    <use xlink:href="#rim"/>
    <path pointer-events="none" fill="none" stroke="white" stroke-width="1.5" d="M0,-3.0v7 M-2.5,-0.5L0,-3.0L2.5,-0.5"/>
  </g>
  <g id="arrowDown" transform="rotate(180) translate(-30 -48)">
    <use xlink:href="#rim"/>
    <path pointer-events="none" fill="none" stroke="white" stroke-width="1.5" d="M0,-3.0v7 M-2.5,-0.5L0,-3.0L2.5,-0.5"/>
  </g>
  <g id="arrowLeft" transform="rotate(270) translate(-36 17)">
    <use xlink:href="#rim"/>
    <path pointer-events="none" fill="none" stroke="white" stroke-width="1.5" d="M0,-3.0v7 M-2.5,-0.5L0,-3.0L2.5,-0.5"/>
  </g>
  <g id="resetDef">
    <use xlink:href="#rim2" fill="#404040"><set attributeName="fill" to="#808080" begin="reset.mouseover" end="reset.mouseout"/></use>
  </g>
</defs>
<script type="application/ecmascript">
var viewWidth = 508;
var viewHeight = 717;
var sectionId = 'dynsection-5';
</script>
<script type="application/ecmascript" xlink:href="svg.min.js"/>
<svg id="graph" class="graph">
<g id="viewport">
<title>Controller\getPDO</title>
<!-- Node1 -->
<g id="Node000001" class="node">
<title>Node1</title>
<g id="a_Node000001"><a xlink:title="Récupère la connexion PDO.">
<polygon fill="#999999" stroke="#666666" points="500,-371.5 396,-371.5 396,-352.5 500,-352.5 500,-371.5"/>
<text text-anchor="middle" x="448" y="-359.5" font-family="Helvetica,sans-Serif" font-size="10.00">Controller\getPDO</text>
</a>
</g>
</g>
<!-- Node2 -->
<g id="Node000002" class="node">
<title>Node2</title>
<g id="a_Node000002"><a xlink:href="classControllerAlbum.html#a667cf5cf6637e7b5765fd60668ed1c2e" target="_top" xlink:title="Affiche les détails d&#39;un album avec vue différenciée selon le rôle.">
<polygon fill="white" stroke="#666666" points="333,-709 197,-709 197,-679 333,-679 333,-709"/>
<text text-anchor="start" x="205" y="-697" font-family="Helvetica,sans-Serif" font-size="10.00">ControllerAlbum\afficher</text>
<text text-anchor="middle" x="265" y="-686" font-family="Helvetica,sans-Serif" font-size="10.00">Details</text>
</a>
</g>
</g>
<!-- Node1&#45;&gt;Node2 -->
<g id="edge1_Node000001_Node000002" class="edge">
<title>Node1&#45;&gt;Node2</title>
<g id="a_edge1_Node000001_Node000002"><a xlink:title=" ">
<path fill="none" stroke="#63b8ff" d="M447.7,-381.76C448.48,-436.13 442.83,-589.24 360,-670 352.52,-677.29 343.15,-682.46 333.25,-686.1"/>
<polygon fill="#63b8ff" stroke="#63b8ff" points="451.19,-381.64 447.46,-371.72 444.2,-381.8 451.19,-381.64"/>
</a>
</g>
</g>
<!-- Node3 -->
<g id="Node000003" class="node">
<title>Node3</title>
<g id="a_Node000003"><a xlink:href="classControllerUtilisateur.html#a6178dff94504f04a3cc4538711ed071a" target="_top" xlink:title="Affiche le profil public d&#39;un artiste.">
<polygon fill="white" stroke="#666666" points="323,-661 207,-661 207,-631 323,-631 323,-661"/>
<text text-anchor="start" x="215" y="-649" font-family="Helvetica,sans-Serif" font-size="10.00">ControllerUtilisateur</text>
<text text-anchor="middle" x="265" y="-638" font-family="Helvetica,sans-Serif" font-size="10.00">\afficherProfilArtiste</text>
</a>
</g>
</g>
<!-- Node1&#45;&gt;Node3 -->
<g id="edge2_Node000001_Node000003" class="edge">
<title>Node1&#45;&gt;Node3</title>
<g id="a_edge2_Node000001_Node000003"><a xlink:title=" ">
<path fill="none" stroke="#63b8ff" d="M446.48,-381.88C444.1,-430.44 431,-555.99 360,-622 349.88,-631.4 336.6,-637.25 323.23,-640.84"/>
<polygon fill="#63b8ff" stroke="#63b8ff" points="449.98,-381.88 446.87,-371.75 442.99,-381.61 449.98,-381.88"/>
</a>
</g>
</g>
<!-- Node4 -->
<g id="Node000004" class="node">
<title>Node4</title>
<g id="a_Node000004"><a xlink:href="classControllerNewsletter.html#abf7e574941e852179163eb9830dda5cf" target="_top" xlink:title="Traite l&#39;inscription à la newsletter.">
<polygon fill="white" stroke="#666666" points="324,-613 206,-613 206,-583 324,-583 324,-613"/>
<text text-anchor="start" x="214" y="-601" font-family="Helvetica,sans-Serif" font-size="10.00">ControllerNewsletter</text>
<text text-anchor="middle" x="265" y="-590" font-family="Helvetica,sans-Serif" font-size="10.00">\ajouter</text>
</a>
</g>
</g>
<!-- Node1&#45;&gt;Node4 -->
<g id="edge3_Node000001_Node000004" class="edge">
<title>Node1&#45;&gt;Node4</title>
<g id="a_edge3_Node000001_Node000004"><a xlink:title=" ">
<path fill="none" stroke="#63b8ff" d="M444.77,-381.85C438.95,-423.9 419.4,-522.35 360,-574 349.96,-582.73 337.16,-588.36 324.27,-591.97"/>
<polygon fill="#63b8ff" stroke="#63b8ff" points="448.26,-382.14 446.04,-371.78 441.31,-381.26 448.26,-382.14"/>
</a>
</g>
</g>
<!-- Node5 -->
<g id="Node000005" class="node">
<title>Node5</title>
<g id="a_Node000005"><a xlink:href="classControllerHome.html#afa387b4cc8f4ade844e23c91f345096c" target="_top" xlink:title="Affiche le tableau de bord de l&#39;artiste connecté.">
<polygon fill="white" stroke="#666666" points="355.5,-564.5 174.5,-564.5 174.5,-545.5 355.5,-545.5 355.5,-564.5"/>
<text text-anchor="middle" x="265" y="-552.5" font-family="Helvetica,sans-Serif" font-size="10.00">ControllerHome\artisteDashboard</text>
</a>
</g>
</g>
<!-- Node1&#45;&gt;Node5 -->
<g id="edge4_Node000001_Node000005" class="edge">
<title>Node1&#45;&gt;Node5</title>
<g id="a_edge4_Node000001_Node000005"><a xlink:title=" ">
<path fill="none" stroke="#63b8ff" d="M443.15,-381.89C434.91,-418.77 411.92,-497.59 360,-537 355.63,-540.32 350.83,-543.08 345.77,-545.37"/>
<polygon fill="#63b8ff" stroke="#63b8ff" points="446.62,-382.38 445.25,-371.88 439.77,-380.95 446.62,-382.38"/>
</a>
</g>
</g>
<!-- Node7 -->
<g id="Node000007" class="node">
<title>Node7</title>
<g id="a_Node000007"><a xlink:href="classControllerHome.html#ae66821d9d12bddaa6422f805c5d1b9b9" target="_top" xlink:title="Affiche le tableau de bord de l&#39;auditeur connecté.">
<polygon fill="white" stroke="#666666" points="360,-527.5 170,-527.5 170,-508.5 360,-508.5 360,-527.5"/>
<text text-anchor="middle" x="265" y="-515.5" font-family="Helvetica,sans-Serif" font-size="10.00">ControllerHome\auditeurDashboard</text>
</a>
</g>
</g>
<!-- Node1&#45;&gt;Node7 -->
<g id="edge6_Node000001_Node000007" class="edge">
<title>Node1&#45;&gt;Node7</title>
<g id="a_edge6_Node000001_Node000007"><a xlink:title=" ">
<path fill="none" stroke="#63b8ff" d="M440.43,-381.27C429.08,-411.48 402.81,-469.57 360,-499 354.37,-502.87 348.14,-505.98 341.64,-508.49"/>
<polygon fill="#63b8ff" stroke="#63b8ff" points="443.85,-382.1 443.94,-371.5 437.26,-379.73 443.85,-382.1"/>
</a>
</g>
</g>
<!-- Node8 -->
<g id="Node000008" class="node">
<title>Node8</title>
<g id="a_Node000008"><a xlink:href="classControllerUtilisateur.html#a0e6ff8b903944ba1de24d13278ec3082" target="_top" xlink:title="Traite la demande de réinitialisation de mot de passe.">
<polygon fill="white" stroke="#666666" points="336.5,-490 193.5,-490 193.5,-460 336.5,-460 336.5,-490"/>
<text text-anchor="start" x="201.5" y="-478" font-family="Helvetica,sans-Serif" font-size="10.00">ControllerUtilisateur</text>
<text text-anchor="middle" x="265" y="-467" font-family="Helvetica,sans-Serif" font-size="10.00">\demanderReinitialisation</text>
</a>
</g>
</g>
<!-- Node1&#45;&gt;Node8 -->
<g id="edge8_Node000001_Node000008" class="edge">
<title>Node1&#45;&gt;Node8</title>
<g id="a_edge8_Node000001_Node000008"><a xlink:title=" ">
<path fill="none" stroke="#63b8ff" d="M434.41,-379.84C419.12,-400.15 391.46,-432.84 360,-451 352.85,-455.12 345,-458.55 336.97,-461.39"/>
<polygon fill="#63b8ff" stroke="#63b8ff" points="437.26,-381.87 440.35,-371.73 431.62,-377.73 437.26,-381.87"/>
</a>
</g>
</g>
<!-- Node9 -->
<g id="Node000009" class="node">
<title>Node9</title>
<g id="a_Node000009"><a xlink:href="classControllerUtilisateur.html#abbfd16bafa283856d06476b006239871" target="_top" xlink:title="Gère la création d&#39;un nouvel utilisateur par l&#39;administrateur.">
<polygon fill="white" stroke="#666666" points="323,-442 207,-442 207,-412 323,-412 323,-442"/>
<text text-anchor="start" x="215" y="-430" font-family="Helvetica,sans-Serif" font-size="10.00">ControllerUtilisateur</text>
<text text-anchor="middle" x="265" y="-419" font-family="Helvetica,sans-Serif" font-size="10.00">\inscription</text>
</a>
</g>
</g>
<!-- Node1&#45;&gt;Node9 -->
<g id="edge9_Node000001_Node000009" class="edge">
<title>Node1&#45;&gt;Node9</title>
<g id="a_edge9_Node000001_Node000009"><a xlink:title=" ">
<path fill="none" stroke="#63b8ff" d="M420.17,-376.27C403.25,-384.86 380.75,-395.54 360,-403 348.27,-407.22 335.47,-411 323.19,-414.25"/>
<polygon fill="#63b8ff" stroke="#63b8ff" points="422.14,-379.19 429.43,-371.5 418.94,-372.97 422.14,-379.19"/>
</a>
</g>
</g>
<!-- Node10 -->
<g id="Node000010" class="node">
<title>Node10</title>
<g id="a_Node000010"><a xlink:href="classControllerAdmin.html#a65506a5e6ff98256bd5c39307db816f0" target="_top" xlink:title="Modifie un utilisateur existant.">
<polygon fill="white" stroke="#666666" points="335,-393.5 195,-393.5 195,-374.5 335,-374.5 335,-393.5"/>
<text text-anchor="middle" x="265" y="-381.5" font-family="Helvetica,sans-Serif" font-size="10.00">ControllerAdmin\modifier</text>
</a>
</g>
</g>
<!-- Node1&#45;&gt;Node10 -->
<g id="edge10_Node000001_Node000010" class="edge">
<title>Node1&#45;&gt;Node10</title>
<g id="a_edge10_Node000001_Node000010"><a xlink:title=" ">
<path fill="none" stroke="#63b8ff" d="M385.23,-369.51C369.09,-371.47 351.59,-373.6 335.09,-375.6"/>
<polygon fill="#63b8ff" stroke="#63b8ff" points="386.11,-372.93 395.62,-368.25 385.27,-365.98 386.11,-372.93"/>
</a>
</g>
</g>
<!-- Node11 -->
<g id="Node000011" class="node">
<title>Node11</title>
<g id="a_Node000011"><a xlink:href="classControllerAlbum.html#a39a4e1d517fac239f47665a9e8110cdd" target="_top" xlink:title="Modifie les informations d&#39;une chanson.">
<polygon fill="white" stroke="#666666" points="335,-356 195,-356 195,-326 335,-326 335,-356"/>
<text text-anchor="start" x="203" y="-344" font-family="Helvetica,sans-Serif" font-size="10.00">ControllerAlbum\modifier</text>
<text text-anchor="middle" x="265" y="-333" font-family="Helvetica,sans-Serif" font-size="10.00">Chanson</text>
</a>
</g>
</g>
<!-- Node1&#45;&gt;Node11 -->
<g id="edge11_Node000001_Node000011" class="edge">
<title>Node1&#45;&gt;Node11</title>
<g id="a_edge11_Node000001_Node000011"><a xlink:title=" ">
<path fill="none" stroke="#63b8ff" d="M385.23,-354.83C369.09,-352.96 351.59,-350.93 335.09,-349.02"/>
<polygon fill="#63b8ff" stroke="#63b8ff" points="385.28,-358.36 395.62,-356.04 386.09,-351.41 385.28,-358.36"/>
</a>
</g>
</g>
<!-- Node12 -->
<g id="Node000012" class="node">
<title>Node12</title>
<g id="a_Node000012"><a xlink:href="classControllerHome.html#a37d489f78f71195bd48371f961d47bd1" target="_top" xlink:title="Affiche le tableau de bord public (utilisateurs non connectés ou invités).">
<polygon fill="white" stroke="#666666" points="351.5,-307.5 178.5,-307.5 178.5,-288.5 351.5,-288.5 351.5,-307.5"/>
<text text-anchor="middle" x="265" y="-295.5" font-family="Helvetica,sans-Serif" font-size="10.00">ControllerHome\openDashboard</text>
</a>
</g>
</g>
<!-- Node1&#45;&gt;Node12 -->
<g id="edge12_Node000001_Node000012" class="edge">
<title>Node1&#45;&gt;Node12</title>
<g id="a_edge12_Node000001_Node000012"><a xlink:title=" ">
<path fill="none" stroke="#63b8ff" d="M422.84,-347.18C405.82,-337.33 382.2,-324.81 360,-317 349.32,-313.24 337.68,-310.14 326.35,-307.61"/>
<polygon fill="#63b8ff" stroke="#63b8ff" points="421.17,-350.26 431.56,-352.33 424.73,-344.23 421.17,-350.26"/>
</a>
</g>
</g>
<!-- Node13 -->
<g id="Node000013" class="node">
<title>Node13</title>
<g id="a_Node000013"><a xlink:href="classControllerUtilisateur.html#aaabd0c49bb15aac96b9358753608db1d" target="_top" xlink:title="Affiche le formulaire de réinitialisation de mot de passe.">
<polygon fill="white" stroke="#666666" points="323,-270 207,-270 207,-240 323,-240 323,-270"/>
<text text-anchor="start" x="215" y="-258" font-family="Helvetica,sans-Serif" font-size="10.00">ControllerUtilisateur</text>
<text text-anchor="middle" x="265" y="-247" font-family="Helvetica,sans-Serif" font-size="10.00">\resetPassword</text>
</a>
</g>
</g>
<!-- Node1&#45;&gt;Node13 -->
<g id="edge14_Node000001_Node000013" class="edge">
<title>Node1&#45;&gt;Node13</title>
<g id="a_edge14_Node000001_Node000013"><a xlink:title=" ">
<path fill="none" stroke="#63b8ff" d="M433.11,-344.52C417.34,-325.82 389.88,-296.63 360,-280 348.79,-273.76 335.95,-269.02 323.43,-265.44"/>
<polygon fill="#63b8ff" stroke="#63b8ff" points="430.45,-346.79 439.5,-352.28 435.85,-342.34 430.45,-346.79"/>
</a>
</g>
</g>
<!-- Node14 -->
<g id="Node000014" class="node">
<title>Node14</title>
<g id="a_Node000014"><a xlink:href="classControllerUtilisateur.html#afd558d0616f1e5fca72af8f49ef5de3e" target="_top" xlink:title="Gère la connexion (authentification) d&#39;un utilisateur.">
<polygon fill="white" stroke="#666666" points="323,-222 207,-222 207,-192 323,-192 323,-222"/>
<text text-anchor="start" x="215" y="-210" font-family="Helvetica,sans-Serif" font-size="10.00">ControllerUtilisateur</text>
<text text-anchor="middle" x="265" y="-199" font-family="Helvetica,sans-Serif" font-size="10.00">\signin</text>
</a>
</g>
</g>
<!-- Node1&#45;&gt;Node14 -->
<g id="edge15_Node000001_Node000014" class="edge">
<title>Node1&#45;&gt;Node14</title>
<g id="a_edge15_Node000001_Node000014"><a xlink:title=" ">
<path fill="none" stroke="#63b8ff" d="M439.67,-342.97C427.57,-314.18 400.65,-259.85 360,-231 349.15,-223.3 336.04,-218.06 323.11,-214.51"/>
<polygon fill="#63b8ff" stroke="#63b8ff" points="436.46,-344.37 443.45,-352.33 442.95,-341.75 436.46,-344.37"/>
</a>
</g>
</g>
<!-- Node15 -->
<g id="Node000015" class="node">
<title>Node15</title>
<g id="a_Node000015"><a xlink:href="classControllerUtilisateur.html#a6a37c32b8d27a485a0706ac537fcf191" target="_top" xlink:title="Gère l&#39;inscription d&#39;un nouvel utilisateur.">
<polygon fill="white" stroke="#666666" points="323,-174 207,-174 207,-144 323,-144 323,-174"/>
<text text-anchor="start" x="215" y="-162" font-family="Helvetica,sans-Serif" font-size="10.00">ControllerUtilisateur</text>
<text text-anchor="middle" x="265" y="-151" font-family="Helvetica,sans-Serif" font-size="10.00">\signup</text>
</a>
</g>
</g>
<!-- Node1&#45;&gt;Node15 -->
<g id="edge16_Node000001_Node000015" class="edge">
<title>Node1&#45;&gt;Node15</title>
<g id="a_edge16_Node000001_Node000015"><a xlink:title=" ">
<path fill="none" stroke="#63b8ff" d="M443.18,-342.49C434.89,-305.51 411.69,-225.16 360,-183 349.56,-174.48 336.46,-168.95 323.39,-165.36"/>
<polygon fill="#63b8ff" stroke="#63b8ff" points="439.8,-343.42 445.29,-352.48 446.65,-341.98 439.8,-343.42"/>
</a>
</g>
</g>
<!-- Node16 -->
<g id="Node000016" class="node">
<title>Node16</title>
<g id="a_Node000016"><a xlink:href="classControllerUtilisateur.html#af92717c985f792067878e380438302c5" target="_top" xlink:title="Gère l&#39;abonnement/désabonnement à un artiste via une requête AJAX.">
<polygon fill="white" stroke="#666666" points="323,-126 207,-126 207,-96 323,-96 323,-126"/>
<text text-anchor="start" x="215" y="-114" font-family="Helvetica,sans-Serif" font-size="10.00">ControllerUtilisateur</text>
<text text-anchor="middle" x="265" y="-103" font-family="Helvetica,sans-Serif" font-size="10.00">\suivreArtiste</text>
</a>
</g>
</g>
<!-- Node1&#45;&gt;Node16 -->
<g id="edge17_Node000001_Node000016" class="edge">
<title>Node1&#45;&gt;Node16</title>
<g id="a_edge17_Node000001_Node000016"><a xlink:title=" ">
<path fill="none" stroke="#63b8ff" d="M445.36,-341.97C440.62,-297.7 422.93,-191.02 360,-135 349.81,-125.93 336.66,-120.19 323.44,-116.6"/>
<polygon fill="#63b8ff" stroke="#63b8ff" points="441.88,-342.42 446.32,-352.04 448.85,-341.75 441.88,-342.42"/>
</a>
</g>
</g>
<!-- Node17 -->
<g id="Node000017" class="node">
<title>Node17</title>
<g id="a_Node000017"><a xlink:href="classControllerAlbum.html#aad96094767cc4b5a0520a29b22f7c77d" target="_top" xlink:title="Supprime une chanson (action réservée à l&#39;artiste propriétaire).">
<polygon fill="white" stroke="#666666" points="339.5,-78 190.5,-78 190.5,-48 339.5,-48 339.5,-78"/>
<text text-anchor="start" x="198.5" y="-66" font-family="Helvetica,sans-Serif" font-size="10.00">ControllerAlbum\supprimer</text>
<text text-anchor="middle" x="265" y="-55" font-family="Helvetica,sans-Serif" font-size="10.00">Chanson</text>
</a>
</g>
</g>
<!-- Node1&#45;&gt;Node17 -->
<g id="edge18_Node000001_Node000017" class="edge">
<title>Node1&#45;&gt;Node17</title>
<g id="a_edge18_Node000001_Node000017"><a xlink:title=" ">
<path fill="none" stroke="#63b8ff" d="M446.9,-342.02C445.52,-291.48 434.62,-157.52 360,-87 354.12,-81.45 347.15,-77.13 339.69,-73.79"/>
<polygon fill="#63b8ff" stroke="#63b8ff" points="443.4,-342.31 447.08,-352.25 450.4,-342.19 443.4,-342.31"/>
</a>
</g>
</g>
<!-- Node18 -->
<g id="Node000018" class="node">
<title>Node18</title>
<g id="a_Node000018"><a xlink:href="classControllerUtilisateur.html#ac23258d9876caad56dba0ffcb0669d53" target="_top" xlink:title="Traite la réinitialisation du mot de passe.">
<polygon fill="white" stroke="#666666" points="326.5,-30 203.5,-30 203.5,0 326.5,0 326.5,-30"/>
<text text-anchor="start" x="211.5" y="-18" font-family="Helvetica,sans-Serif" font-size="10.00">ControllerUtilisateur</text>
<text text-anchor="middle" x="265" y="-7" font-family="Helvetica,sans-Serif" font-size="10.00">\traiterReinitialisation</text>
</a>
</g>
</g>
<!-- Node1&#45;&gt;Node18 -->
<g id="edge19_Node000001_Node000018" class="edge">
<title>Node1&#45;&gt;Node18</title>
<g id="a_edge19_Node000001_Node000018"><a xlink:title=" ">
<path fill="none" stroke="#63b8ff" d="M444.28,-342.03C435.22,-278.48 404.17,-82.59 360,-39 350.89,-30.01 338.9,-24.24 326.55,-20.57"/>
<polygon fill="#63b8ff" stroke="#63b8ff" points="440.86,-342.87 445.71,-352.29 447.79,-341.9 440.86,-342.87"/>
</a>
</g>
</g>
<!-- Node6 -->
<g id="Node000006" class="node">
<title>Node6</title>
<g id="a_Node000006"><a xlink:href="classControllerHome.html#adb7bf84cd80f92a3d93932c4f66a7ff8" target="_top" xlink:title="Affiche la page d&#39;accueil selon le rôle de l&#39;utilisateur.">
<polygon fill="white" stroke="#666666" points="134,-527.5 0,-527.5 0,-508.5 134,-508.5 134,-527.5"/>
<text text-anchor="middle" x="67" y="-515.5" font-family="Helvetica,sans-Serif" font-size="10.00">ControllerHome\afficher</text>
</a>
</g>
</g>
<!-- Node5&#45;&gt;Node6 -->
<g id="edge5_Node000005_Node000006" class="edge">
<title>Node5&#45;&gt;Node6</title>
<g id="a_edge5_Node000005_Node000006"><a xlink:title=" ">
<path fill="none" stroke="#63b8ff" d="M203.36,-543.55C176.19,-538.42 144.52,-532.44 118.64,-527.56"/>
<polygon fill="#63b8ff" stroke="#63b8ff" points="203.05,-547.06 213.53,-545.47 204.35,-540.18 203.05,-547.06"/>
</a>
</g>
</g>
<!-- Node7&#45;&gt;Node6 -->
<g id="edge7_Node000007_Node000006" class="edge">
<title>Node7&#45;&gt;Node6</title>
<g id="a_edge7_Node000007_Node000006"><a xlink:title=" ">
<path fill="none" stroke="#63b8ff" d="M159.55,-518C150.89,-518 142.3,-518 134.05,-518"/>
<polygon fill="#63b8ff" stroke="#63b8ff" points="159.73,-521.5 169.73,-518 159.73,-514.5 159.73,-521.5"/>
</a>
</g>
</g>
<!-- Node12&#45;&gt;Node6 -->
<g id="edge13_Node000012_Node000006" class="edge">
<title>Node12&#45;&gt;Node6</title>
<g id="a_edge13_Node000012_Node000006"><a xlink:title=" ">
<path fill="none" stroke="#63b8ff" d="M177.43,-312.07C174.85,-313.57 172.36,-315.2 170,-317 103.04,-367.94 76.61,-475.09 69.86,-508.1"/>
<polygon fill="#63b8ff" stroke="#63b8ff" points="179.16,-315.12 186.55,-307.54 176.04,-308.86 179.16,-315.12"/>
</a>
</g>
</g>
</g>
</svg>

<g id="navigator" transform="translate(0 0)" fill="#404254">
  <rect fill="#f2f5e9" fill-opacity="0.5" stroke="#606060" stroke-width=".5" x="0" y="0" width="60" height="60"/>
  <use id="zoomplus" xlink:href="#zoomPlus" x="17" y="9" onmousedown="handleZoom(evt,'in')"/>
  <use id="zoomminus" xlink:href="#zoomMin" x="42" y="9" onmousedown="handleZoom(evt,'out')"/>
  <use id="reset" xlink:href="#resetDef" x="30" y="36" onmousedown="handleReset()"/>
   <use id="arrowup" xlink:href="#arrowUp" x="0" y="0" onmousedown="handlePan(0,-1)"/>
  <use id="arrowright" xlink:href="#arrowRight" x="0" y="0" onmousedown="handlePan(1,0)"/>
  <use id="arrowdown" xlink:href="#arrowDown" x="0" y="0" onmousedown="handlePan(0,1)"/>
  <use id="arrowleft" xlink:href="#arrowLeft" x="0" y="0" onmousedown="handlePan(-1,0)"/>
</g>
<svg viewBox="0 0 15 15" width="100%" height="30px" preserveAspectRatio="xMaxYMin meet">
 <g id="arrow_out" transform="scale(0.3 0.3)">
  <a xlink:href="classController_aed88cab8d9c1a6735fd3aac0993e5021_icgraph_org.svg" target="_base">
   <rect id="button" ry="5" rx="5" y="6" x="6" height="38" width="38"
        fill="#f2f5e9" fill-opacity="0.5" stroke="#606060" stroke-width="1.0"/>
   <path id="arrow"
     d="M 11.500037,31.436501 C 11.940474,20.09759 22.043105,11.32322 32.158766,21.979434 L 37.068811,17.246167 C 37.068811,17.246167 37.088388,32 37.088388,32 L 22.160133,31.978069 C 22.160133,31.978069 26.997745,27.140456 26.997745,27.140456 C 18.528582,18.264221 13.291696,25.230495 11.500037,31.436501 z"
     style="fill:#404040;"/>
  </a>
 </g>
</svg>

<style type='text/css'>
<![CDATA[
[data-mouse-over-selected='false'] { opacity: 0.7; }
[data-mouse-over-selected='true']  { opacity: 1.0; }
]]>
</style>
<script type="application/ecmascript"><![CDATA[
document.addEventListener('DOMContentLoaded', (event) => {
  highlightEdges();
  highlightAdjacentNodes();
});
]]></script>
</svg>
