<?xml version="1.0" encoding="UTF-8" standalone="no"?>
<!DOCTYPE svg PUBLIC "-//W3C//DTD SVG 1.1//EN"
 "http://www.w3.org/Graphics/SVG/1.1/DTD/svg11.dtd">
<!-- Generated by graphviz version 2.43.0 (0)
 -->
<!-- Title: FichierDAO\hydrate Pages: 1 -->
<svg width="433pt" height="64pt"
 viewBox="0.00 0.00 433.00 64.00" xmlns="http://www.w3.org/2000/svg" xmlns:xlink="http://www.w3.org/1999/xlink">
<g id="graph0" class="graph" transform="scale(1 1) rotate(0) translate(4 60)">
<title>FichierDAO\hydrate</title>
<!-- Node1 -->
<g id="Node000001" class="node">
<title>Node1</title>
<g id="a_Node000001"><a xlink:title=" ">
<polygon fill="#999999" stroke="#666666" points="425,-37 314,-37 314,-18 425,-18 425,-37"/>
<text text-anchor="middle" x="369.5" y="-25" font-family="Helvetica,sans-Serif" font-size="10.00">FichierDAO\hydrate</text>
</a>
</g>
</g>
<!-- Node2 -->
<g id="Node000002" class="node">
<title>Node2</title>
<g id="a_Node000002"><a xlink:href="classFichierDAO.html#a99c001ec978884742df4ce2a11de033a" target="_top" xlink:title=" ">
<polygon fill="white" stroke="#666666" points="255,-56 163,-56 163,-37 255,-37 255,-56"/>
<text text-anchor="middle" x="209" y="-44" font-family="Helvetica,sans-Serif" font-size="10.00">FichierDAO\find</text>
</a>
</g>
</g>
<!-- Node1&#45;&gt;Node2 -->
<g id="edge1_Node000001_Node000002" class="edge">
<title>Node1&#45;&gt;Node2</title>
<g id="a_edge1_Node000001_Node000002"><a xlink:title=" ">
<path fill="none" stroke="#63b8ff" d="M303.91,-35.24C287.56,-37.2 270.34,-39.27 255.18,-41.08"/>
<polygon fill="#63b8ff" stroke="#63b8ff" points="304.44,-38.7 313.95,-34.04 303.61,-31.75 304.44,-38.7"/>
</a>
</g>
</g>
<!-- Node3 -->
<g id="Node000003" class="node">
<title>Node3</title>
<g id="a_Node000003"><a xlink:href="classFichierDAO.html#a791671a5db0cb10654eaf424b4158f08" target="_top" xlink:title=" ">
<polygon fill="white" stroke="#666666" points="278,-19 140,-19 140,0 278,0 278,-19"/>
<text text-anchor="middle" x="209" y="-7" font-family="Helvetica,sans-Serif" font-size="10.00">FichierDAO\hydrateMany</text>
</a>
</g>
</g>
<!-- Node1&#45;&gt;Node3 -->
<g id="edge2_Node000001_Node000003" class="edge">
<title>Node1&#45;&gt;Node3</title>
<g id="a_edge2_Node000001_Node000003"><a xlink:title=" ">
<path fill="none" stroke="#63b8ff" d="M303.77,-20.15C295.3,-19.19 286.61,-18.2 278.09,-17.23"/>
<polygon fill="#63b8ff" stroke="#63b8ff" points="303.62,-23.65 313.95,-21.31 304.41,-16.7 303.62,-23.65"/>
</a>
</g>
</g>
<!-- Node4 -->
<g id="Node000004" class="node">
<title>Node4</title>
<g id="a_Node000004"><a xlink:href="classFichierDAO.html#abaa51dfb4d5dc2eba848746ea7b8ae65" target="_top" xlink:title="Récupère tous les fichiers de la base de données.">
<polygon fill="white" stroke="#666666" points="104,-19 0,-19 0,0 104,0 104,-19"/>
<text text-anchor="middle" x="52" y="-7" font-family="Helvetica,sans-Serif" font-size="10.00">FichierDAO\findAll</text>
</a>
</g>
</g>
<!-- Node3&#45;&gt;Node4 -->
<g id="edge3_Node000003_Node000004" class="edge">
<title>Node3&#45;&gt;Node4</title>
<g id="a_edge3_Node000003_Node000004"><a xlink:title=" ">
<path fill="none" stroke="#63b8ff" d="M129.53,-9.5C120.97,-9.5 112.42,-9.5 104.31,-9.5"/>
<polygon fill="#63b8ff" stroke="#63b8ff" points="129.56,-13 139.56,-9.5 129.56,-6 129.56,-13"/>
</a>
</g>
</g>
</g>
</svg>
