<?xml version="1.0" encoding="UTF-8" standalone="no"?>
<!DOCTYPE svg PUBLIC "-//W3C//DTD SVG 1.1//EN"
 "http://www.w3.org/Graphics/SVG/1.1/DTD/svg11.dtd">
<!-- Generated by graphviz version 2.43.0 (0)
 -->
<!-- Title: UtilisateurDAO\update Pages: 1 -->
<svg width="356pt" height="737pt"
 viewBox="0.00 0.00 356.00 736.50" xmlns="http://www.w3.org/2000/svg" xmlns:xlink="http://www.w3.org/1999/xlink">
<g id="graph0" class="graph" transform="scale(1 1) rotate(0) translate(4 732.5)">
<title>UtilisateurDAO\update</title>
<!-- Node1 -->
<g id="Node000001" class="node">
<title>Node1</title>
<g id="a_Node000001"><a xlink:title="Met à jour un utilisateur dans la base de données.">
<polygon fill="#999999" stroke="#666666" points="126,-357 0,-357 0,-338 126,-338 126,-357"/>
<text text-anchor="middle" x="63" y="-345" font-family="Helvetica,sans-Serif" font-size="10.00">UtilisateurDAO\update</text>
</a>
</g>
</g>
<!-- Node2 -->
<g id="Node000002" class="node">
<title>Node2</title>
<g id="a_Node000002"><a xlink:href="classUtilisateur.html#abf7d571f136cf48f6c7127db9a8fb310" target="_top" xlink:title="Getter pour dateDebutAbonnement.">
<polygon fill="white" stroke="#666666" points="324.5,-728.5 185.5,-728.5 185.5,-698.5 324.5,-698.5 324.5,-728.5"/>
<text text-anchor="start" x="193.5" y="-716.5" font-family="Helvetica,sans-Serif" font-size="10.00">Utilisateur\getDateDebut</text>
<text text-anchor="middle" x="255" y="-705.5" font-family="Helvetica,sans-Serif" font-size="10.00">Abonnement</text>
</a>
</g>
</g>
<!-- Node1&#45;&gt;Node2 -->
<g id="edge1_Node000001_Node000002" class="edge">
<title>Node1&#45;&gt;Node2</title>
<g id="a_edge1_Node000001_Node000002"><a xlink:title=" ">
<path fill="none" stroke="#63b8ff" d="M63.59,-357.06C62.22,-401.8 62.57,-592.41 162,-689.5 166.24,-693.64 171.09,-697.09 176.31,-699.96"/>
<polygon fill="#63b8ff" stroke="#63b8ff" points="174.86,-703.14 185.39,-704.27 177.86,-696.82 174.86,-703.14"/>
</a>
</g>
</g>
<!-- Node3 -->
<g id="Node000003" class="node">
<title>Node3</title>
<g id="a_Node000003"><a xlink:href="classUtilisateur.html#a578683d9d4a4fcdcf71a09078d3bc477" target="_top" xlink:title="Getter pour la date de naissance de l&#39;utilisateur.">
<polygon fill="white" stroke="#666666" points="341.5,-680.5 168.5,-680.5 168.5,-650.5 341.5,-650.5 341.5,-680.5"/>
<text text-anchor="start" x="176.5" y="-668.5" font-family="Helvetica,sans-Serif" font-size="10.00">Utilisateur\getDateDeNaissance</text>
<text text-anchor="middle" x="255" y="-657.5" font-family="Helvetica,sans-Serif" font-size="10.00">Utilisateur</text>
</a>
</g>
</g>
<!-- Node1&#45;&gt;Node3 -->
<g id="edge2_Node000001_Node000003" class="edge">
<title>Node1&#45;&gt;Node3</title>
<g id="a_edge2_Node000001_Node000003"><a xlink:title=" ">
<path fill="none" stroke="#63b8ff" d="M64.1,-357.08C65.09,-398.01 74.58,-559.72 162,-641.5 163.13,-642.56 164.3,-643.57 165.51,-644.54"/>
<polygon fill="#63b8ff" stroke="#63b8ff" points="163.72,-647.56 173.95,-650.32 167.68,-641.78 163.72,-647.56"/>
</a>
</g>
</g>
<!-- Node4 -->
<g id="Node000004" class="node">
<title>Node4</title>
<g id="a_Node000004"><a xlink:href="classUtilisateur.html#a85517ba68a1f7b866d4291d1bddaf8e5" target="_top" xlink:title="Getter pour dateFinAbonnement.">
<polygon fill="white" stroke="#666666" points="348,-632 162,-632 162,-613 348,-613 348,-632"/>
<text text-anchor="middle" x="255" y="-620" font-family="Helvetica,sans-Serif" font-size="10.00">Utilisateur\getDateFinAbonnement</text>
</a>
</g>
</g>
<!-- Node1&#45;&gt;Node4 -->
<g id="edge3_Node000001_Node000004" class="edge">
<title>Node1&#45;&gt;Node4</title>
<g id="a_edge3_Node000001_Node000004"><a xlink:title=" ">
<path fill="none" stroke="#63b8ff" d="M64.54,-357.24C67.19,-395.37 82.22,-535.7 162,-603.5 163.82,-605.04 165.73,-606.47 167.71,-607.8"/>
<polygon fill="#63b8ff" stroke="#63b8ff" points="166.43,-611.09 176.86,-612.95 169.86,-604.99 166.43,-611.09"/>
</a>
</g>
</g>
<!-- Node5 -->
<g id="Node000005" class="node">
<title>Node5</title>
<g id="a_Node000005"><a xlink:href="classUtilisateur.html#a2d059d7e690568b1291dad2b9ccb61d3" target="_top" xlink:title="Getter pour la date d&#39;inscription de l&#39;utilisateur.">
<polygon fill="white" stroke="#666666" points="335.5,-594.5 174.5,-594.5 174.5,-564.5 335.5,-564.5 335.5,-594.5"/>
<text text-anchor="start" x="182.5" y="-582.5" font-family="Helvetica,sans-Serif" font-size="10.00">Utilisateur\getDateInscription</text>
<text text-anchor="middle" x="255" y="-571.5" font-family="Helvetica,sans-Serif" font-size="10.00">Utilisateur</text>
</a>
</g>
</g>
<!-- Node1&#45;&gt;Node5 -->
<g id="edge4_Node000001_Node000005" class="edge">
<title>Node1&#45;&gt;Node5</title>
<g id="a_edge4_Node000001_Node000005"><a xlink:title=" ">
<path fill="none" stroke="#63b8ff" d="M65.57,-357.11C71.5,-390.21 95.66,-500.43 162,-555.5 163.4,-556.66 164.84,-557.76 166.33,-558.82"/>
<polygon fill="#63b8ff" stroke="#63b8ff" points="164.93,-562.06 175.29,-564.28 168.58,-556.08 164.93,-562.06"/>
</a>
</g>
</g>
<!-- Node6 -->
<g id="Node000006" class="node">
<title>Node6</title>
<g id="a_Node000006"><a xlink:href="classUtilisateur.html#a7a1076f86d0c81cda031f07c6c61a137" target="_top" xlink:title="Getter pour descriptionUtilisateur.">
<polygon fill="white" stroke="#666666" points="326,-546.5 184,-546.5 184,-516.5 326,-516.5 326,-546.5"/>
<text text-anchor="start" x="192" y="-534.5" font-family="Helvetica,sans-Serif" font-size="10.00">Utilisateur\getDescription</text>
<text text-anchor="middle" x="255" y="-523.5" font-family="Helvetica,sans-Serif" font-size="10.00">Utilisateur</text>
</a>
</g>
</g>
<!-- Node1&#45;&gt;Node6 -->
<g id="edge5_Node000001_Node000006" class="edge">
<title>Node1&#45;&gt;Node6</title>
<g id="a_edge5_Node000001_Node000006"><a xlink:title=" ">
<path fill="none" stroke="#63b8ff" d="M67.03,-357.19C76.31,-385.19 107.06,-466.75 162,-507.5 165.86,-510.36 170.03,-512.88 174.39,-515.1"/>
<polygon fill="#63b8ff" stroke="#63b8ff" points="173.01,-518.32 183.56,-519.25 175.89,-511.94 173.01,-518.32"/>
</a>
</g>
</g>
<!-- Node7 -->
<g id="Node000007" class="node">
<title>Node7</title>
<g id="a_Node000007"><a xlink:href="classUtilisateur.html#a9de32d421ad9988b9eed437621c66145" target="_top" xlink:title="Getter pour l&#39;email de l&#39;utilisateur.">
<polygon fill="white" stroke="#666666" points="337.5,-498 172.5,-498 172.5,-479 337.5,-479 337.5,-498"/>
<text text-anchor="middle" x="255" y="-486" font-family="Helvetica,sans-Serif" font-size="10.00">Utilisateur\getEmailUtilisateur</text>
</a>
</g>
</g>
<!-- Node1&#45;&gt;Node7 -->
<g id="edge6_Node000001_Node000007" class="edge">
<title>Node1&#45;&gt;Node7</title>
<g id="a_edge6_Node000001_Node000007"><a xlink:title=" ">
<path fill="none" stroke="#63b8ff" d="M68.59,-357.09C80.43,-380.65 114.39,-441.59 162,-470.5 164.7,-472.14 167.51,-473.63 170.41,-474.99"/>
<polygon fill="#63b8ff" stroke="#63b8ff" points="169.34,-478.33 179.92,-478.9 172,-471.86 169.34,-478.33"/>
</a>
</g>
</g>
<!-- Node8 -->
<g id="Node000008" class="node">
<title>Node8</title>
<g id="a_Node000008"><a xlink:href="classUtilisateur.html#adeaed5e2ebda7592bada6469900cb755" target="_top" xlink:title="Getter pour estAbonnee.">
<polygon fill="white" stroke="#666666" points="327,-461 183,-461 183,-442 327,-442 327,-461"/>
<text text-anchor="middle" x="255" y="-449" font-family="Helvetica,sans-Serif" font-size="10.00">Utilisateur\getEstAbonnee</text>
</a>
</g>
</g>
<!-- Node1&#45;&gt;Node8 -->
<g id="edge7_Node000001_Node000008" class="edge">
<title>Node1&#45;&gt;Node8</title>
<g id="a_edge7_Node000001_Node000008"><a xlink:title=" ">
<path fill="none" stroke="#63b8ff" d="M71.76,-357.06C87,-375.14 122.79,-414.23 162,-433.5 166.05,-435.49 170.31,-437.26 174.68,-438.84"/>
<polygon fill="#63b8ff" stroke="#63b8ff" points="173.78,-442.23 184.38,-441.98 175.94,-435.57 173.78,-442.23"/>
</a>
</g>
</g>
<!-- Node9 -->
<g id="Node000009" class="node">
<title>Node9</title>
<g id="a_Node000009"><a xlink:href="classUtilisateur.html#ae4ee6c81a734142f6463068e51ccd200" target="_top" xlink:title="Getter pour le genre musical préféré">
<polygon fill="white" stroke="#666666" points="338.5,-424 171.5,-424 171.5,-405 338.5,-405 338.5,-424"/>
<text text-anchor="middle" x="255" y="-412" font-family="Helvetica,sans-Serif" font-size="10.00">Utilisateur\getGenreUtilisateur</text>
</a>
</g>
</g>
<!-- Node1&#45;&gt;Node9 -->
<g id="edge8_Node000001_Node000009" class="edge">
<title>Node1&#45;&gt;Node9</title>
<g id="a_edge8_Node000001_Node000009"><a xlink:title=" ">
<path fill="none" stroke="#63b8ff" d="M80.44,-357.16C99.48,-367.95 132.06,-385.26 162,-395.5 169.87,-398.19 178.27,-400.57 186.65,-402.64"/>
<polygon fill="#63b8ff" stroke="#63b8ff" points="185.94,-406.07 196.47,-404.94 187.53,-399.25 185.94,-406.07"/>
</a>
</g>
</g>
<!-- Node10 -->
<g id="Node000010" class="node">
<title>Node10</title>
<g id="a_Node000010"><a xlink:href="classUtilisateur.html#a94dd42b9e5b879f53b18f30bbea5ef18" target="_top" xlink:title="Getter pour le mot de passe de l&#39;utilisateur.">
<polygon fill="white" stroke="#666666" points="328,-386.5 182,-386.5 182,-356.5 328,-356.5 328,-386.5"/>
<text text-anchor="start" x="190" y="-374.5" font-family="Helvetica,sans-Serif" font-size="10.00">Utilisateur\getMotDePasse</text>
<text text-anchor="middle" x="255" y="-363.5" font-family="Helvetica,sans-Serif" font-size="10.00">Utilisateur</text>
</a>
</g>
</g>
<!-- Node1&#45;&gt;Node10 -->
<g id="edge9_Node000001_Node000010" class="edge">
<title>Node1&#45;&gt;Node10</title>
<g id="a_edge9_Node000001_Node000010"><a xlink:title=" ">
<path fill="none" stroke="#63b8ff" d="M126.21,-355.36C140.77,-357.2 156.5,-359.18 171.79,-361.11"/>
<polygon fill="#63b8ff" stroke="#63b8ff" points="171.39,-364.59 181.75,-362.37 172.26,-357.65 171.39,-364.59"/>
</a>
</g>
</g>
<!-- Node11 -->
<g id="Node000011" class="node">
<title>Node11</title>
<g id="a_Node000011"><a xlink:href="classUtilisateur.html#a065c5859952a686264c337ef63e461c2" target="_top" xlink:title="Getter pour nbAbonnesArtiste.">
<polygon fill="white" stroke="#666666" points="326,-338.5 184,-338.5 184,-308.5 326,-308.5 326,-338.5"/>
<text text-anchor="start" x="192" y="-326.5" font-family="Helvetica,sans-Serif" font-size="10.00">Utilisateur\getNbAbonnes</text>
<text text-anchor="middle" x="255" y="-315.5" font-family="Helvetica,sans-Serif" font-size="10.00">Artiste</text>
</a>
</g>
</g>
<!-- Node1&#45;&gt;Node11 -->
<g id="edge10_Node000001_Node000011" class="edge">
<title>Node1&#45;&gt;Node11</title>
<g id="a_edge10_Node000001_Node000011"><a xlink:title=" ">
<path fill="none" stroke="#63b8ff" d="M126.21,-339.64C141.31,-337.74 157.66,-335.67 173.46,-333.67"/>
<polygon fill="#63b8ff" stroke="#63b8ff" points="174.27,-337.1 183.75,-332.37 173.39,-330.15 174.27,-337.1"/>
</a>
</g>
</g>
<!-- Node12 -->
<g id="Node000012" class="node">
<title>Node12</title>
<g id="a_Node000012"><a xlink:href="classUtilisateur.html#a2b7f07f6f2f8348fbe15920cb5995301" target="_top" xlink:title="Getter pour le nom de l&#39;utilisateur.">
<polygon fill="white" stroke="#666666" points="335.5,-290 174.5,-290 174.5,-271 335.5,-271 335.5,-290"/>
<text text-anchor="middle" x="255" y="-278" font-family="Helvetica,sans-Serif" font-size="10.00">Utilisateur\getNomUtilisateur</text>
</a>
</g>
</g>
<!-- Node1&#45;&gt;Node12 -->
<g id="edge11_Node000001_Node000012" class="edge">
<title>Node1&#45;&gt;Node12</title>
<g id="a_edge11_Node000001_Node000012"><a xlink:title=" ">
<path fill="none" stroke="#63b8ff" d="M80.44,-337.84C99.48,-327.05 132.06,-309.74 162,-299.5 169.87,-296.81 178.27,-294.43 186.65,-292.36"/>
<polygon fill="#63b8ff" stroke="#63b8ff" points="187.53,-295.75 196.47,-290.06 185.94,-288.93 187.53,-295.75"/>
</a>
</g>
</g>
<!-- Node13 -->
<g id="Node000013" class="node">
<title>Node13</title>
<g id="a_Node000013"><a xlink:href="classUtilisateur.html#a43ea065478ba5f28182870d054b56acd" target="_top" xlink:title="Getter pour pointsDeRenommeeArtiste.">
<polygon fill="white" stroke="#666666" points="348,-252.5 162,-252.5 162,-222.5 348,-222.5 348,-252.5"/>
<text text-anchor="start" x="170" y="-240.5" font-family="Helvetica,sans-Serif" font-size="10.00">Utilisateur\getPointsDeRenommee</text>
<text text-anchor="middle" x="255" y="-229.5" font-family="Helvetica,sans-Serif" font-size="10.00">Artiste</text>
</a>
</g>
</g>
<!-- Node1&#45;&gt;Node13 -->
<g id="edge12_Node000001_Node000013" class="edge">
<title>Node1&#45;&gt;Node13</title>
<g id="a_edge12_Node000001_Node000013"><a xlink:title=" ">
<path fill="none" stroke="#63b8ff" d="M72.4,-337.76C88.17,-320.09 124.04,-282.74 162,-262.5 166.25,-260.23 170.72,-258.16 175.31,-256.26"/>
<polygon fill="#63b8ff" stroke="#63b8ff" points="176.76,-259.45 184.86,-252.62 174.27,-252.92 176.76,-259.45"/>
</a>
</g>
</g>
<!-- Node14 -->
<g id="Node000014" class="node">
<title>Node14</title>
<g id="a_Node000014"><a xlink:href="classUtilisateur.html#a772e4d855f933fe74c57ede51115c854" target="_top" xlink:title="Getter pour le pseudo de l&#39;utilisateur.">
<polygon fill="white" stroke="#666666" points="341.5,-204 168.5,-204 168.5,-185 341.5,-185 341.5,-204"/>
<text text-anchor="middle" x="255" y="-192" font-family="Helvetica,sans-Serif" font-size="10.00">Utilisateur\getPseudoUtilisateur</text>
</a>
</g>
</g>
<!-- Node1&#45;&gt;Node14 -->
<g id="edge13_Node000001_Node000014" class="edge">
<title>Node1&#45;&gt;Node14</title>
<g id="a_edge13_Node000001_Node000014"><a xlink:title=" ">
<path fill="none" stroke="#63b8ff" d="M68.04,-337.84C79.04,-312.81 112.06,-245.61 162,-213.5 165.21,-211.44 168.59,-209.59 172.1,-207.95"/>
<polygon fill="#63b8ff" stroke="#63b8ff" points="173.72,-211.07 181.64,-204.02 171.06,-204.59 173.72,-211.07"/>
</a>
</g>
</g>
<!-- Node15 -->
<g id="Node000015" class="node">
<title>Node15</title>
<g id="a_Node000015"><a xlink:href="classUtilisateur.html#ab540032a4b4a8391d1af6ea2b952468b" target="_top" xlink:title="Getter pour roleUtilisateur.">
<polygon fill="white" stroke="#666666" points="334.5,-167 175.5,-167 175.5,-148 334.5,-148 334.5,-167"/>
<text text-anchor="middle" x="255" y="-155" font-family="Helvetica,sans-Serif" font-size="10.00">Utilisateur\getRoleUtilisateur</text>
</a>
</g>
</g>
<!-- Node1&#45;&gt;Node15 -->
<g id="edge14_Node000001_Node000015" class="edge">
<title>Node1&#45;&gt;Node15</title>
<g id="a_edge14_Node000001_Node000015"><a xlink:title=" ">
<path fill="none" stroke="#63b8ff" d="M66.48,-337.85C74.6,-308.4 103.26,-219.06 162,-176.5 164.56,-174.65 167.26,-172.96 170.06,-171.44"/>
<polygon fill="#63b8ff" stroke="#63b8ff" points="171.76,-174.5 179.32,-167.08 168.78,-168.17 171.76,-174.5"/>
</a>
</g>
</g>
<!-- Node16 -->
<g id="Node000016" class="node">
<title>Node16</title>
<g id="a_Node000016"><a xlink:href="classUtilisateur.html#a8859a67bc9c3bd95d7ffc0dfb1307d22" target="_top" xlink:title="Getter pour siteWebUtilisateur.">
<polygon fill="white" stroke="#666666" points="343.5,-130 166.5,-130 166.5,-111 343.5,-111 343.5,-130"/>
<text text-anchor="middle" x="255" y="-118" font-family="Helvetica,sans-Serif" font-size="10.00">Utilisateur\getSiteWebUtilisateur</text>
</a>
</g>
</g>
<!-- Node1&#45;&gt;Node16 -->
<g id="edge15_Node000001_Node000016" class="edge">
<title>Node1&#45;&gt;Node16</title>
<g id="a_edge15_Node000001_Node000016"><a xlink:title=" ">
<path fill="none" stroke="#63b8ff" d="M65.47,-337.76C71.06,-304.25 94.26,-192.85 162,-139.5 164.21,-137.76 166.53,-136.17 168.95,-134.72"/>
<polygon fill="#63b8ff" stroke="#63b8ff" points="170.78,-137.71 178.07,-130.03 167.58,-131.49 170.78,-137.71"/>
</a>
</g>
</g>
<!-- Node17 -->
<g id="Node000017" class="node">
<title>Node17</title>
<g id="a_Node000017"><a xlink:href="classUtilisateur.html#a26b03cb1ba77b133f4926798ad051540" target="_top" xlink:title="Getter pour statutAbonnement.">
<polygon fill="white" stroke="#666666" points="344,-93 166,-93 166,-74 344,-74 344,-93"/>
<text text-anchor="middle" x="255" y="-81" font-family="Helvetica,sans-Serif" font-size="10.00">Utilisateur\getStatutAbonnement</text>
</a>
</g>
</g>
<!-- Node1&#45;&gt;Node17 -->
<g id="edge16_Node000001_Node000017" class="edge">
<title>Node1&#45;&gt;Node17</title>
<g id="a_edge16_Node000001_Node000017"><a xlink:title=" ">
<path fill="none" stroke="#63b8ff" d="M64.71,-337.92C67.97,-301.02 84.9,-167.05 162,-102.5 163.83,-100.97 165.75,-99.55 167.74,-98.24"/>
<polygon fill="#63b8ff" stroke="#63b8ff" points="169.89,-101.05 176.92,-93.13 166.48,-94.93 169.89,-101.05"/>
</a>
</g>
</g>
<!-- Node18 -->
<g id="Node000018" class="node">
<title>Node18</title>
<g id="a_Node000018"><a xlink:href="classUtilisateur.html#ae9443c9f56d13fa1b4f1ed5faeb27bde" target="_top" xlink:title="Getter pour le statut de l&#39;utilisateur.">
<polygon fill="white" stroke="#666666" points="338.5,-56 171.5,-56 171.5,-37 338.5,-37 338.5,-56"/>
<text text-anchor="middle" x="255" y="-44" font-family="Helvetica,sans-Serif" font-size="10.00">Utilisateur\getStatutUtilisateur</text>
</a>
</g>
</g>
<!-- Node1&#45;&gt;Node18 -->
<g id="edge17_Node000001_Node000018" class="edge">
<title>Node1&#45;&gt;Node18</title>
<g id="a_edge17_Node000001_Node000018"><a xlink:title=" ">
<path fill="none" stroke="#63b8ff" d="M64.15,-337.91C65.32,-297.72 75.49,-141.37 162,-65.5 163.74,-63.97 165.58,-62.55 167.49,-61.24"/>
<polygon fill="#63b8ff" stroke="#63b8ff" points="169.4,-64.17 176.28,-56.12 165.88,-58.12 169.4,-64.17"/>
</a>
</g>
</g>
<!-- Node19 -->
<g id="Node000019" class="node">
<title>Node19</title>
<g id="a_Node000019"><a xlink:href="classUtilisateur.html#a7f642a5639c034ebee4bcafde01552ae" target="_top" xlink:title="Getter pour urlPhotoUtilisateur.">
<polygon fill="white" stroke="#666666" points="344,-19 166,-19 166,0 344,0 344,-19"/>
<text text-anchor="middle" x="255" y="-7" font-family="Helvetica,sans-Serif" font-size="10.00">Utilisateur\geturlPhotoUtilisateur</text>
</a>
</g>
</g>
<!-- Node1&#45;&gt;Node19 -->
<g id="edge18_Node000001_Node000019" class="edge">
<title>Node1&#45;&gt;Node19</title>
<g id="a_edge18_Node000001_Node000019"><a xlink:title=" ">
<path fill="none" stroke="#63b8ff" d="M63.71,-337.89C62.97,-294.57 66.01,-115.83 162,-28.5 163.54,-27.1 165.15,-25.79 166.83,-24.57"/>
<polygon fill="#63b8ff" stroke="#63b8ff" points="168.98,-27.36 175.69,-19.16 165.33,-21.39 168.98,-27.36"/>
</a>
</g>
</g>
</g>
</svg>
