<?xml version="1.0" encoding="UTF-8" standalone="no"?>
<!DOCTYPE svg PUBLIC "-//W3C//DTD SVG 1.1//EN"
 "http://www.w3.org/Graphics/SVG/1.1/DTD/svg11.dtd">
<!-- Generated by graphviz version 2.43.0 (0)
 -->
<!-- Title: Utilisateur\getStatutUtilisateur Pages: 1 -->
<svg width="337pt" height="64pt"
 viewBox="0.00 0.00 337.00 64.00" xmlns="http://www.w3.org/2000/svg" xmlns:xlink="http://www.w3.org/1999/xlink">
<g id="graph0" class="graph" transform="scale(1 1) rotate(0) translate(4 60)">
<title>Utilisateur\getStatutUtilisateur</title>
<!-- Node1 -->
<g id="Node000001" class="node">
<title>Node1</title>
<g id="a_Node000001"><a xlink:title="Getter pour le statut de l&#39;utilisateur.">
<polygon fill="#999999" stroke="#666666" points="329,-37 162,-37 162,-18 329,-18 329,-37"/>
<text text-anchor="middle" x="245.5" y="-25" font-family="Helvetica,sans-Serif" font-size="10.00">Utilisateur\getStatutUtilisateur</text>
</a>
</g>
</g>
<!-- Node2 -->
<g id="Node000002" class="node">
<title>Node2</title>
<g id="a_Node000002"><a xlink:href="classUtilisateurDAO.html#aa5a57157f00d003aae66738846c900f5" target="_top" xlink:title="Crée un nouvel utilisateur dans la base de données.">
<polygon fill="white" stroke="#666666" points="124.5,-56 1.5,-56 1.5,-37 124.5,-37 124.5,-56"/>
<text text-anchor="middle" x="63" y="-44" font-family="Helvetica,sans-Serif" font-size="10.00">UtilisateurDAO\create</text>
</a>
</g>
</g>
<!-- Node1&#45;&gt;Node2 -->
<g id="edge1_Node000001_Node000002" class="edge">
<title>Node1&#45;&gt;Node2</title>
<g id="a_edge1_Node000001_Node000002"><a xlink:title=" ">
<path fill="none" stroke="#63b8ff" d="M151.9,-37.25C142.67,-38.22 133.47,-39.19 124.69,-40.11"/>
<polygon fill="#63b8ff" stroke="#63b8ff" points="152.33,-40.72 161.91,-36.19 151.6,-33.76 152.33,-40.72"/>
</a>
</g>
</g>
<!-- Node3 -->
<g id="Node000003" class="node">
<title>Node3</title>
<g id="a_Node000003"><a xlink:href="classUtilisateurDAO.html#a8fe8ba6718c1488ce18bf42b2aea94c8" target="_top" xlink:title="Met à jour un utilisateur dans la base de données.">
<polygon fill="white" stroke="#666666" points="126,-19 0,-19 0,0 126,0 126,-19"/>
<text text-anchor="middle" x="63" y="-7" font-family="Helvetica,sans-Serif" font-size="10.00">UtilisateurDAO\update</text>
</a>
</g>
</g>
<!-- Node1&#45;&gt;Node3 -->
<g id="edge2_Node000001_Node000003" class="edge">
<title>Node1&#45;&gt;Node3</title>
<g id="a_edge2_Node000001_Node000003"><a xlink:title=" ">
<path fill="none" stroke="#63b8ff" d="M151.7,-18.25C143,-17.38 134.34,-16.51 126.03,-15.69"/>
<polygon fill="#63b8ff" stroke="#63b8ff" points="151.61,-21.75 161.91,-19.26 152.31,-14.79 151.61,-21.75"/>
</a>
</g>
</g>
</g>
</svg>
