<?xml version="1.0" encoding="UTF-8" standalone="no"?>
<!DOCTYPE svg PUBLIC "-//W3C//DTD SVG 1.1//EN"
 "http://www.w3.org/Graphics/SVG/1.1/DTD/svg11.dtd">
<!-- Generated by graphviz version 2.43.0 (0)
 -->
<!-- Title: Controller\requireRole Pages: 1 -->
<svg width="333pt" height="371pt"
 viewBox="0.00 0.00 333.00 370.50" xmlns="http://www.w3.org/2000/svg" xmlns:xlink="http://www.w3.org/1999/xlink">
<g id="graph0" class="graph" transform="scale(1 1) rotate(0) translate(4 366.5)">
<title>Controller\requireRole</title>
<!-- Node1 -->
<g id="Node000001" class="node">
<title>Node1</title>
<g id="a_Node000001"><a xlink:title="Exige que l&#39;utilisateur ait un rôle spécifique.">
<polygon fill="#999999" stroke="#666666" points="325,-196.5 201,-196.5 201,-177.5 325,-177.5 325,-196.5"/>
<text text-anchor="middle" x="263" y="-184.5" font-family="Helvetica,sans-Serif" font-size="10.00">Controller\requireRole</text>
</a>
</g>
</g>
<!-- Node2 -->
<g id="Node000002" class="node">
<title>Node2</title>
<g id="a_Node000002"><a xlink:href="classControllerAdmin.html#a112f35682ab86e6256d923e59b49a125" target="_top" xlink:title="Affiche le tableau de bord de l&#39;administrateur.">
<polygon fill="white" stroke="#666666" points="150.5,-362.5 14.5,-362.5 14.5,-343.5 150.5,-343.5 150.5,-362.5"/>
<text text-anchor="middle" x="82.5" y="-350.5" font-family="Helvetica,sans-Serif" font-size="10.00">ControllerAdmin\afficher</text>
</a>
</g>
</g>
<!-- Node1&#45;&gt;Node2 -->
<g id="edge1_Node000001_Node000002" class="edge">
<title>Node1&#45;&gt;Node2</title>
<g id="a_edge1_Node000001_Node000002"><a xlink:title=" ">
<path fill="none" stroke="#63b8ff" d="M254.86,-206.22C242.01,-238.03 211.89,-301.35 165,-334 159.4,-337.9 153.1,-341.01 146.56,-343.49"/>
<polygon fill="#63b8ff" stroke="#63b8ff" points="258.19,-207.32 258.55,-196.73 251.66,-204.78 258.19,-207.32"/>
</a>
</g>
</g>
<!-- Node3 -->
<g id="Node000003" class="node">
<title>Node3</title>
<g id="a_Node000003"><a xlink:href="classControllerAlbum.html#a6302c1b131eead7adc950353217b4a8c" target="_top" xlink:title="Affiche le formulaire d&#39;ajout d&#39;album.">
<polygon fill="white" stroke="#666666" points="150.5,-325 14.5,-325 14.5,-295 150.5,-295 150.5,-325"/>
<text text-anchor="start" x="22.5" y="-313" font-family="Helvetica,sans-Serif" font-size="10.00">ControllerAlbum\afficher</text>
<text text-anchor="middle" x="82.5" y="-302" font-family="Helvetica,sans-Serif" font-size="10.00">FormulaireAjout</text>
</a>
</g>
</g>
<!-- Node1&#45;&gt;Node3 -->
<g id="edge2_Node000001_Node000003" class="edge">
<title>Node1&#45;&gt;Node3</title>
<g id="a_edge2_Node000001_Node000003"><a xlink:title=" ">
<path fill="none" stroke="#63b8ff" d="M249.06,-204.99C232.17,-227.21 200.53,-264.65 165,-286 159.31,-289.42 153.1,-292.38 146.73,-294.93"/>
<polygon fill="#63b8ff" stroke="#63b8ff" points="252.02,-206.88 255.17,-196.76 246.4,-202.7 252.02,-206.88"/>
</a>
</g>
</g>
<!-- Node4 -->
<g id="Node000004" class="node">
<title>Node4</title>
<g id="a_Node000004"><a xlink:href="classControllerAlbum.html#a2fb955c9315c73e221f81baff694f4d2" target="_top" xlink:title="Traite l&#39;ajout d&#39;un nouvel album ou l&#39;ajout de chansons à un album existant.">
<polygon fill="white" stroke="#666666" points="165,-276.5 0,-276.5 0,-257.5 165,-257.5 165,-276.5"/>
<text text-anchor="middle" x="82.5" y="-264.5" font-family="Helvetica,sans-Serif" font-size="10.00">ControllerAlbum\ajouterAlbum</text>
</a>
</g>
</g>
<!-- Node1&#45;&gt;Node4 -->
<g id="edge3_Node000001_Node000004" class="edge">
<title>Node1&#45;&gt;Node4</title>
<g id="a_edge3_Node000001_Node000004"><a xlink:title=" ">
<path fill="none" stroke="#63b8ff" d="M242.12,-202.69C223.29,-216.81 193.69,-237.1 165,-249 156.83,-252.39 147.93,-255.18 139.11,-257.47"/>
<polygon fill="#63b8ff" stroke="#63b8ff" points="244.4,-205.36 250.22,-196.51 240.14,-199.8 244.4,-205.36"/>
</a>
</g>
</g>
<!-- Node5 -->
<g id="Node000005" class="node">
<title>Node5</title>
<g id="a_Node000005"><a xlink:href="classControllerAdmin.html#a18818beb5443fb827766f982ff9b4762" target="_top" xlink:title="Consulte les détails d&#39;un utilisateur.">
<polygon fill="white" stroke="#666666" points="154.5,-239.5 10.5,-239.5 10.5,-220.5 154.5,-220.5 154.5,-239.5"/>
<text text-anchor="middle" x="82.5" y="-227.5" font-family="Helvetica,sans-Serif" font-size="10.00">ControllerAdmin\consulter</text>
</a>
</g>
</g>
<!-- Node1&#45;&gt;Node5 -->
<g id="edge4_Node000001_Node000005" class="edge">
<title>Node1&#45;&gt;Node5</title>
<g id="a_edge4_Node000001_Node000005"><a xlink:title=" ">
<path fill="none" stroke="#63b8ff" d="M213.85,-199.05C198.27,-202.91 180.91,-207.18 165,-211 152,-214.12 137.82,-217.45 124.99,-220.44"/>
<polygon fill="#63b8ff" stroke="#63b8ff" points="214.93,-202.39 223.79,-196.58 213.24,-195.59 214.93,-202.39"/>
</a>
</g>
</g>
<!-- Node6 -->
<g id="Node000006" class="node">
<title>Node6</title>
<g id="a_Node000006"><a xlink:href="classControllerUtilisateur.html#abbfd16bafa283856d06476b006239871" target="_top" xlink:title="Gère la création d&#39;un nouvel utilisateur par l&#39;administrateur.">
<polygon fill="white" stroke="#666666" points="140.5,-202 24.5,-202 24.5,-172 140.5,-172 140.5,-202"/>
<text text-anchor="start" x="32.5" y="-190" font-family="Helvetica,sans-Serif" font-size="10.00">ControllerUtilisateur</text>
<text text-anchor="middle" x="82.5" y="-179" font-family="Helvetica,sans-Serif" font-size="10.00">\inscription</text>
</a>
</g>
</g>
<!-- Node1&#45;&gt;Node6 -->
<g id="edge5_Node000001_Node000006" class="edge">
<title>Node1&#45;&gt;Node6</title>
<g id="a_edge5_Node000001_Node000006"><a xlink:title=" ">
<path fill="none" stroke="#63b8ff" d="M190.38,-187C173.81,-187 156.39,-187 140.54,-187"/>
<polygon fill="#63b8ff" stroke="#63b8ff" points="190.57,-190.5 200.57,-187 190.57,-183.5 190.57,-190.5"/>
</a>
</g>
</g>
<!-- Node7 -->
<g id="Node000007" class="node">
<title>Node7</title>
<g id="a_Node000007"><a xlink:href="classControllerAdmin.html#a65506a5e6ff98256bd5c39307db816f0" target="_top" xlink:title="Modifie un utilisateur existant.">
<polygon fill="white" stroke="#666666" points="152.5,-153.5 12.5,-153.5 12.5,-134.5 152.5,-134.5 152.5,-153.5"/>
<text text-anchor="middle" x="82.5" y="-141.5" font-family="Helvetica,sans-Serif" font-size="10.00">ControllerAdmin\modifier</text>
</a>
</g>
</g>
<!-- Node1&#45;&gt;Node7 -->
<g id="edge6_Node000001_Node000007" class="edge">
<title>Node1&#45;&gt;Node7</title>
<g id="a_edge6_Node000001_Node000007"><a xlink:title=" ">
<path fill="none" stroke="#63b8ff" d="M213.85,-174.95C198.27,-171.09 180.91,-166.82 165,-163 152,-159.88 137.82,-156.55 124.99,-153.56"/>
<polygon fill="#63b8ff" stroke="#63b8ff" points="213.24,-178.41 223.79,-177.42 214.93,-171.61 213.24,-178.41"/>
</a>
</g>
</g>
<!-- Node8 -->
<g id="Node000008" class="node">
<title>Node8</title>
<g id="a_Node000008"><a xlink:href="classControllerAlbum.html#a39a4e1d517fac239f47665a9e8110cdd" target="_top" xlink:title="Modifie les informations d&#39;une chanson.">
<polygon fill="white" stroke="#666666" points="152.5,-116 12.5,-116 12.5,-86 152.5,-86 152.5,-116"/>
<text text-anchor="start" x="20.5" y="-104" font-family="Helvetica,sans-Serif" font-size="10.00">ControllerAlbum\modifier</text>
<text text-anchor="middle" x="82.5" y="-93" font-family="Helvetica,sans-Serif" font-size="10.00">Chanson</text>
</a>
</g>
</g>
<!-- Node1&#45;&gt;Node8 -->
<g id="edge7_Node000001_Node000008" class="edge">
<title>Node1&#45;&gt;Node8</title>
<g id="a_edge7_Node000001_Node000008"><a xlink:title=" ">
<path fill="none" stroke="#63b8ff" d="M240.89,-171.42C221.84,-157.94 192.64,-138.66 165,-126 156.93,-122.3 148.16,-118.96 139.47,-116.02"/>
<polygon fill="#63b8ff" stroke="#63b8ff" points="238.97,-174.35 249.14,-177.35 243.06,-168.67 238.97,-174.35"/>
</a>
</g>
</g>
<!-- Node9 -->
<g id="Node000009" class="node">
<title>Node9</title>
<g id="a_Node000009"><a xlink:href="classControllerAdmin.html#a21a27101a5c5e6a978ec048813cbbcf1" target="_top" xlink:title="Supprime un utilisateur spécifique.">
<polygon fill="white" stroke="#666666" points="157,-67.5 8,-67.5 8,-48.5 157,-48.5 157,-67.5"/>
<text text-anchor="middle" x="82.5" y="-55.5" font-family="Helvetica,sans-Serif" font-size="10.00">ControllerAdmin\supprimer</text>
</a>
</g>
</g>
<!-- Node1&#45;&gt;Node9 -->
<g id="edge8_Node000001_Node000009" class="edge">
<title>Node1&#45;&gt;Node9</title>
<g id="a_edge8_Node000001_Node000009"><a xlink:title=" ">
<path fill="none" stroke="#63b8ff" d="M250.92,-168.46C235.09,-143.64 203.59,-100.06 165,-77 158.51,-73.12 151.3,-70.04 143.92,-67.58"/>
<polygon fill="#63b8ff" stroke="#63b8ff" points="248.14,-170.61 256.38,-177.26 254.09,-166.92 248.14,-170.61"/>
</a>
</g>
</g>
<!-- Node10 -->
<g id="Node000010" class="node">
<title>Node10</title>
<g id="a_Node000010"><a xlink:href="classControllerAlbum.html#aad96094767cc4b5a0520a29b22f7c77d" target="_top" xlink:title="Supprime une chanson (action réservée à l&#39;artiste propriétaire).">
<polygon fill="white" stroke="#666666" points="157,-30 8,-30 8,0 157,0 157,-30"/>
<text text-anchor="start" x="16" y="-18" font-family="Helvetica,sans-Serif" font-size="10.00">ControllerAlbum\supprimer</text>
<text text-anchor="middle" x="82.5" y="-7" font-family="Helvetica,sans-Serif" font-size="10.00">Chanson</text>
</a>
</g>
</g>
<!-- Node1&#45;&gt;Node10 -->
<g id="edge9_Node000001_Node000010" class="edge">
<title>Node1&#45;&gt;Node10</title>
<g id="a_edge9_Node000001_Node000010"><a xlink:title=" ">
<path fill="none" stroke="#63b8ff" d="M254.61,-168.12C241.39,-136.82 210.74,-74.24 165,-40 159.79,-36.1 153.96,-32.8 147.88,-30.01"/>
<polygon fill="#63b8ff" stroke="#63b8ff" points="251.4,-169.52 258.42,-177.45 257.88,-166.87 251.4,-169.52"/>
</a>
</g>
</g>
</g>
</svg>
