<?xml version="1.0" encoding="UTF-8" standalone="no"?>
<!DOCTYPE svg PUBLIC "-//W3C//DTD SVG 1.1//EN"
 "http://www.w3.org/Graphics/SVG/1.1/DTD/svg11.dtd">
<!-- Generated by graphviz version 2.43.0 (0)
 -->
<!-- Title: ControllerAdmin\consulter Pages: 1 -->
<svg width="625pt" height="81pt"
 viewBox="0.00 0.00 625.00 81.46" xmlns="http://www.w3.org/2000/svg" xmlns:xlink="http://www.w3.org/1999/xlink">
<g id="graph0" class="graph" transform="scale(1 1) rotate(0) translate(4 77.46)">
<title>ControllerAdmin\consulter</title>
<!-- Node1 -->
<g id="Node000001" class="node">
<title>Node1</title>
<g id="a_Node000001"><a xlink:title="Consulte les détails d&#39;un utilisateur.">
<polygon fill="#999999" stroke="#666666" points="144,-57 0,-57 0,-38 144,-38 144,-57"/>
<text text-anchor="middle" x="72" y="-45" font-family="Helvetica,sans-Serif" font-size="10.00">ControllerAdmin\consulter</text>
</a>
</g>
</g>
<!-- Node2 -->
<g id="Node000002" class="node">
<title>Node2</title>
<g id="a_Node000002"><a xlink:href="classController.html#afd7d94db564ae6e196ac7ac0461e0989" target="_top" xlink:title="Récupère l&#39;environnement Twig.">
<polygon fill="white" stroke="#666666" points="455,-57 350,-57 350,-38 455,-38 455,-57"/>
<text text-anchor="middle" x="402.5" y="-45" font-family="Helvetica,sans-Serif" font-size="10.00">Controller\getTwig</text>
</a>
</g>
</g>
<!-- Node1&#45;&gt;Node2 -->
<g id="edge1_Node000001_Node000002" class="edge">
<title>Node1&#45;&gt;Node2</title>
<g id="a_edge1_Node000001_Node000002"><a xlink:title=" ">
<path fill="none" stroke="#63b8ff" d="M144.28,-47.5C202.64,-47.5 284.34,-47.5 339.89,-47.5"/>
<polygon fill="#63b8ff" stroke="#63b8ff" points="339.95,-51 349.95,-47.5 339.95,-44 339.95,-51"/>
</a>
</g>
</g>
<!-- Node3 -->
<g id="Node000003" class="node">
<title>Node3</title>
<g id="a_Node000003"><a xlink:href="classController.html#a56c96fd35f673f4d5084ef7ad0cd395c" target="_top" xlink:title="Redirige vers un contrôleur et une méthode donnés.">
<polygon fill="white" stroke="#666666" points="617,-57 501,-57 501,-38 617,-38 617,-57"/>
<text text-anchor="middle" x="559" y="-45" font-family="Helvetica,sans-Serif" font-size="10.00">Controller\redirectTo</text>
</a>
</g>
</g>
<!-- Node1&#45;&gt;Node3 -->
<g id="edge2_Node000001_Node000003" class="edge">
<title>Node1&#45;&gt;Node3</title>
<g id="a_edge2_Node000001_Node000003"><a xlink:title=" ">
<path fill="none" stroke="#63b8ff" d="M137.68,-57.01C151.61,-58.76 166.27,-60.39 180,-61.5 306.27,-71.71 338.96,-79.24 465,-66.5 479.78,-65.01 495.68,-62.21 510.07,-59.21"/>
<polygon fill="#63b8ff" stroke="#63b8ff" points="511.22,-62.54 520.26,-57.01 509.74,-55.7 511.22,-62.54"/>
</a>
</g>
</g>
<!-- Node4 -->
<g id="Node000004" class="node">
<title>Node4</title>
<g id="a_Node000004"><a xlink:href="classController.html#a3c8ca59e4609ef5e27e868a91f5ce090" target="_top" xlink:title="Exige que l&#39;utilisateur ait un rôle spécifique.">
<polygon fill="white" stroke="#666666" points="304,-19 180,-19 180,0 304,0 304,-19"/>
<text text-anchor="middle" x="242" y="-7" font-family="Helvetica,sans-Serif" font-size="10.00">Controller\requireRole</text>
</a>
</g>
</g>
<!-- Node1&#45;&gt;Node4 -->
<g id="edge3_Node000001_Node000004" class="edge">
<title>Node1&#45;&gt;Node4</title>
<g id="a_edge3_Node000001_Node000004"><a xlink:title=" ">
<path fill="none" stroke="#63b8ff" d="M115.39,-37.91C137.76,-32.85 165.4,-26.6 189.05,-21.25"/>
<polygon fill="#63b8ff" stroke="#63b8ff" points="189.93,-24.64 198.91,-19.02 188.39,-17.81 189.93,-24.64"/>
</a>
</g>
</g>
<!-- Node4&#45;&gt;Node2 -->
<g id="edge4_Node000004_Node000002" class="edge">
<title>Node4&#45;&gt;Node2</title>
<g id="a_edge4_Node000004_Node000002"><a xlink:title=" ">
<path fill="none" stroke="#63b8ff" d="M283,-19.09C303.91,-24.1 329.71,-30.29 351.89,-35.61"/>
<polygon fill="#63b8ff" stroke="#63b8ff" points="351.25,-39.05 361.79,-37.98 352.88,-32.24 351.25,-39.05"/>
</a>
</g>
</g>
<!-- Node5 -->
<g id="Node000005" class="node">
<title>Node5</title>
<g id="a_Node000005"><a xlink:href="classController.html#a769e4e81d545b126413501bb3f3e77c3" target="_top" xlink:title="Exige que l&#39;utilisateur soit authentifié.">
<polygon fill="white" stroke="#666666" points="465,-20 340,-20 340,-1 465,-1 465,-20"/>
<text text-anchor="middle" x="402.5" y="-8" font-family="Helvetica,sans-Serif" font-size="10.00">Controller\requireAuth</text>
</a>
</g>
</g>
<!-- Node4&#45;&gt;Node5 -->
<g id="edge5_Node000004_Node000005" class="edge">
<title>Node4&#45;&gt;Node5</title>
<g id="a_edge5_Node000004_Node000005"><a xlink:title=" ">
<path fill="none" stroke="#63b8ff" d="M304.28,-9.89C312.58,-9.94 321.16,-9.99 329.62,-10.05"/>
<polygon fill="#63b8ff" stroke="#63b8ff" points="329.84,-13.55 339.86,-10.11 329.88,-6.55 329.84,-13.55"/>
</a>
</g>
</g>
<!-- Node5&#45;&gt;Node3 -->
<g id="edge6_Node000005_Node000003" class="edge">
<title>Node5&#45;&gt;Node3</title>
<g id="a_edge6_Node000005_Node000003"><a xlink:title=" ">
<path fill="none" stroke="#63b8ff" d="M443.29,-20.03C463.12,-24.78 487.31,-30.57 508.35,-35.61"/>
<polygon fill="#63b8ff" stroke="#63b8ff" points="507.54,-39.01 518.08,-37.94 509.17,-32.21 507.54,-39.01"/>
</a>
</g>
</g>
</g>
</svg>
