<?xml version="1.0" encoding="UTF-8" standalone="no"?>
<!DOCTYPE svg PUBLIC "-//W3C//DTD SVG 1.1//EN"
 "http://www.w3.org/Graphics/SVG/1.1/DTD/svg11.dtd">
<!-- Generated by graphviz version 2.43.0 (0)
 -->
<!-- Title: Chanson\getTitreChanson Pages: 1 -->
<svg width="345pt" height="64pt"
 viewBox="0.00 0.00 345.00 64.00" xmlns="http://www.w3.org/2000/svg" xmlns:xlink="http://www.w3.org/1999/xlink">
<g id="graph0" class="graph" transform="scale(1 1) rotate(0) translate(4 60)">
<title>Chanson\getTitreChanson</title>
<!-- Node1 -->
<g id="Node000001" class="node">
<title>Node1</title>
<g id="a_Node000001"><a xlink:title="Get the value of titreChanson.">
<polygon fill="#999999" stroke="#666666" points="337,-37 195,-37 195,-18 337,-18 337,-37"/>
<text text-anchor="middle" x="266" y="-25" font-family="Helvetica,sans-Serif" font-size="10.00">Chanson\getTitreChanson</text>
</a>
</g>
</g>
<!-- Node2 -->
<g id="Node000002" class="node">
<title>Node2</title>
<g id="a_Node000002"><a xlink:href="classChansonDAO.html#a571f3d96b5c32b26059289c7f2fe619d" target="_top" xlink:title=" ">
<polygon fill="white" stroke="#666666" points="157.5,-56 1.5,-56 1.5,-37 157.5,-37 157.5,-56"/>
<text text-anchor="middle" x="79.5" y="-44" font-family="Helvetica,sans-Serif" font-size="10.00">ChansonDAO\createChanson</text>
</a>
</g>
</g>
<!-- Node1&#45;&gt;Node2 -->
<g id="edge1_Node000001_Node000002" class="edge">
<title>Node1&#45;&gt;Node2</title>
<g id="a_edge1_Node000001_Node000002"><a xlink:title=" ">
<path fill="none" stroke="#63b8ff" d="M184.85,-35.75C175.79,-36.69 166.57,-37.64 157.55,-38.56"/>
<polygon fill="#63b8ff" stroke="#63b8ff" points="185.4,-39.22 194.99,-34.71 184.68,-32.25 185.4,-39.22"/>
</a>
</g>
</g>
<!-- Node3 -->
<g id="Node000003" class="node">
<title>Node3</title>
<g id="a_Node000003"><a xlink:href="classChansonDAO.html#a18df19770282a473369d097673c07a2d" target="_top" xlink:title=" ">
<polygon fill="white" stroke="#666666" points="159,-19 0,-19 0,0 159,0 159,-19"/>
<text text-anchor="middle" x="79.5" y="-7" font-family="Helvetica,sans-Serif" font-size="10.00">ChansonDAO\updateChanson</text>
</a>
</g>
</g>
<!-- Node1&#45;&gt;Node3 -->
<g id="edge2_Node000001_Node000003" class="edge">
<title>Node1&#45;&gt;Node3</title>
<g id="a_edge2_Node000001_Node000003"><a xlink:title=" ">
<path fill="none" stroke="#63b8ff" d="M184.99,-19.69C176.41,-18.86 167.68,-18.01 159.11,-17.17"/>
<polygon fill="#63b8ff" stroke="#63b8ff" points="184.69,-23.18 194.99,-20.67 185.37,-16.21 184.69,-23.18"/>
</a>
</g>
</g>
</g>
</svg>
