<?xml version="1.0" encoding="UTF-8" standalone="no"?>
<!DOCTYPE svg PUBLIC "-//W3C//DTD SVG 1.1//EN"
 "http://www.w3.org/Graphics/SVG/1.1/DTD/svg11.dtd">
<!-- Generated by graphviz version 2.43.0 (0)
 -->
<!-- Title: UtilisateurDAO\findAllArtistes Pages: 1 -->
<svg width="514pt" height="64pt"
 viewBox="0.00 0.00 514.00 64.00" xmlns="http://www.w3.org/2000/svg" xmlns:xlink="http://www.w3.org/1999/xlink">
<g id="graph0" class="graph" transform="scale(1 1) rotate(0) translate(4 60)">
<title>UtilisateurDAO\findAllArtistes</title>
<!-- Node1 -->
<g id="Node000001" class="node">
<title>Node1</title>
<g id="a_Node000001"><a xlink:title="Récupère une liste d&#39;artistes populaires, en priorisant ceux du même genre que l&#39;utilisateur donné.">
<polygon fill="#999999" stroke="#666666" points="161,-37 0,-37 0,-18 161,-18 161,-37"/>
<text text-anchor="middle" x="80.5" y="-25" font-family="Helvetica,sans-Serif" font-size="10.00">UtilisateurDAO\findAllArtistes</text>
</a>
</g>
</g>
<!-- Node2 -->
<g id="Node000002" class="node">
<title>Node2</title>
<g id="a_Node000002"><a xlink:href="classUtilisateurDAO.html#a36e6fb6c12395f1a4841b47db810f59c" target="_top" xlink:title="Récupère un utilisateur par son adresse email.">
<polygon fill="white" stroke="#666666" points="323.5,-56 213.5,-56 213.5,-37 323.5,-37 323.5,-56"/>
<text text-anchor="middle" x="268.5" y="-44" font-family="Helvetica,sans-Serif" font-size="10.00">UtilisateurDAO\find</text>
</a>
</g>
</g>
<!-- Node1&#45;&gt;Node2 -->
<g id="edge1_Node000001_Node000002" class="edge">
<title>Node1&#45;&gt;Node2</title>
<g id="a_edge1_Node000001_Node000002"><a xlink:title=" ">
<path fill="none" stroke="#63b8ff" d="M161.19,-35.64C175.25,-37.08 189.73,-38.56 203.3,-39.94"/>
<polygon fill="#63b8ff" stroke="#63b8ff" points="203.18,-43.45 213.48,-40.98 203.89,-36.48 203.18,-43.45"/>
</a>
</g>
</g>
<!-- Node4 -->
<g id="Node000004" class="node">
<title>Node4</title>
<g id="a_Node000004"><a xlink:href="classUtilisateurDAO.html#ac3dabdb7502fad39bf2a68f38252f0a7" target="_top" xlink:title="Hydrate plusieurs utilisateurs à partir d&#39;un tableau de données.">
<polygon fill="white" stroke="#666666" points="340,-19 197,-19 197,0 340,0 340,-19"/>
<text text-anchor="middle" x="268.5" y="-7" font-family="Helvetica,sans-Serif" font-size="10.00">UtilisateurDAO\hydrateAll</text>
</a>
</g>
</g>
<!-- Node1&#45;&gt;Node4 -->
<g id="edge3_Node000001_Node000004" class="edge">
<title>Node1&#45;&gt;Node4</title>
<g id="a_edge3_Node000001_Node000004"><a xlink:title=" ">
<path fill="none" stroke="#63b8ff" d="M161.19,-19.79C169.6,-18.97 178.16,-18.15 186.59,-17.33"/>
<polygon fill="#63b8ff" stroke="#63b8ff" points="187.16,-20.79 196.78,-16.34 186.49,-13.82 187.16,-20.79"/>
</a>
</g>
</g>
<!-- Node3 -->
<g id="Node000003" class="node">
<title>Node3</title>
<g id="a_Node000003"><a xlink:href="classUtilisateurDAO.html#a1f8a8172fdd6a8b059a0ea0580dacb61" target="_top" xlink:title="Hydrate un tableau de données en une instance de Utilisateur.">
<polygon fill="white" stroke="#666666" points="506,-37 376,-37 376,-18 506,-18 506,-37"/>
<text text-anchor="middle" x="441" y="-25" font-family="Helvetica,sans-Serif" font-size="10.00">UtilisateurDAO\hydrate</text>
</a>
</g>
</g>
<!-- Node2&#45;&gt;Node3 -->
<g id="edge2_Node000002_Node000003" class="edge">
<title>Node2&#45;&gt;Node3</title>
<g id="a_edge2_Node000002_Node000003"><a xlink:title=" ">
<path fill="none" stroke="#63b8ff" d="M323.92,-40.44C337.25,-38.95 351.74,-37.34 365.83,-35.77"/>
<polygon fill="#63b8ff" stroke="#63b8ff" points="366.44,-39.22 375.99,-34.63 365.66,-32.26 366.44,-39.22"/>
</a>
</g>
</g>
<!-- Node4&#45;&gt;Node3 -->
<g id="edge4_Node000004_Node000003" class="edge">
<title>Node4&#45;&gt;Node3</title>
<g id="a_edge4_Node000004_Node000003"><a xlink:title=" ">
<path fill="none" stroke="#63b8ff" d="M340.33,-16.98C348.72,-17.86 357.3,-18.77 365.74,-19.66"/>
<polygon fill="#63b8ff" stroke="#63b8ff" points="365.62,-23.17 375.93,-20.74 366.36,-16.21 365.62,-23.17"/>
</a>
</g>
</g>
</g>
</svg>
