<?xml version="1.0" encoding="UTF-8" standalone="no"?>
<!DOCTYPE svg PUBLIC "-//W3C//DTD SVG 1.1//EN"
 "http://www.w3.org/Graphics/SVG/1.1/DTD/svg11.dtd">
<!-- Generated by graphviz version 2.43.0 (0)
 -->
<!-- Title: ChansonDAO\hydrate Pages: 1 -->
<!--zoomable 235 -->

<svg id="main" version="1.1" xmlns="http://www.w3.org/2000/svg" xmlns:xlink="http://www.w3.org/1999/xlink" xml:space="preserve" onload="init(evt)">
<style type="text/css"><![CDATA[
.node, .edge {opacity: 0.7;}
.node.selected, .edge.selected {opacity: 1;}
.edge:hover path { stroke: red; }
.edge:hover polygon { stroke: red; fill: red; }
]]></style>

<defs>
  <circle id="rim" cx="0" cy="0" r="7"/>
  <circle id="rim2" cx="0" cy="0" r="3.5"/>
  <g id="zoomPlus">
    <use xlink:href="#rim" fill="#404040"><set attributeName="fill" to="#808080" begin="zoomplus.mouseover" end="zoomplus.mouseout"/></use>
    <path d="M-4,0h8M0,-4v8" fill="none" stroke="white" stroke-width="1.5" pointer-events="none"/>
  </g>
  <g id="zoomMin">
    <use xlink:href="#rim" fill="#404040"><set attributeName="fill" to="#808080" begin="zoomminus.mouseover" end="zoomminus.mouseout"/></use>
    <path d="M-4,0h8" fill="none" stroke="white" stroke-width="1.5" pointer-events="none"/>
  </g>
  <g id="arrowUp" transform="translate(30 24)">
    <use xlink:href="#rim"/>
    <path pointer-events="none" fill="none" stroke="white" stroke-width="1.5" d="M0,-3.0v7 M-2.5,-0.5L0,-3.0L2.5,-0.5"/>
  </g>
  <g id="arrowRight" transform="rotate(90) translate(36 -43)">
    <use xlink:href="#rim"/>
    <path pointer-events="none" fill="none" stroke="white" stroke-width="1.5" d="M0,-3.0v7 M-2.5,-0.5L0,-3.0L2.5,-0.5"/>
  </g>
  <g id="arrowDown" transform="rotate(180) translate(-30 -48)">
    <use xlink:href="#rim"/>
    <path pointer-events="none" fill="none" stroke="white" stroke-width="1.5" d="M0,-3.0v7 M-2.5,-0.5L0,-3.0L2.5,-0.5"/>
  </g>
  <g id="arrowLeft" transform="rotate(270) translate(-36 17)">
    <use xlink:href="#rim"/>
    <path pointer-events="none" fill="none" stroke="white" stroke-width="1.5" d="M0,-3.0v7 M-2.5,-0.5L0,-3.0L2.5,-0.5"/>
  </g>
  <g id="resetDef">
    <use xlink:href="#rim2" fill="#404040"><set attributeName="fill" to="#808080" begin="reset.mouseover" end="reset.mouseout"/></use>
  </g>
</defs>
<script type="application/ecmascript">
var viewWidth = 541;
var viewHeight = 235;
var sectionId = 'dynsection-9';
</script>
<script type="application/ecmascript" xlink:href="svg.min.js"/>
<svg id="graph" class="graph">
<g id="viewport">
<title>ChansonDAO\hydrate</title>
<!-- Node1 -->
<g id="Node000001" class="node">
<title>Node1</title>
<g id="a_Node000001"><a xlink:title=" ">
<polygon fill="#999999" stroke="#666666" points="533,-170.5 412,-170.5 412,-151.5 533,-151.5 533,-170.5"/>
<text text-anchor="middle" x="472.5" y="-158.5" font-family="Helvetica,sans-Serif" font-size="10.00">ChansonDAO\hydrate</text>
</a>
</g>
</g>
<!-- Node2 -->
<g id="Node000002" class="node">
<title>Node2</title>
<g id="a_Node000002"><a xlink:href="classChansonDAO.html#a738aad8562808b99c7174ceabd22577d" target="_top" xlink:title="Récupère les chansons likées par un utilisateur.">
<polygon fill="white" stroke="#666666" points="376,-207.5 197,-207.5 197,-188.5 376,-188.5 376,-207.5"/>
<text text-anchor="middle" x="286.5" y="-195.5" font-family="Helvetica,sans-Serif" font-size="10.00">ChansonDAO\findChansonsLikees</text>
</a>
</g>
</g>
<!-- Node1&#45;&gt;Node2 -->
<g id="edge1_Node000001_Node000002" class="edge">
<title>Node1&#45;&gt;Node2</title>
<g id="a_edge1_Node000001_Node000002"><a xlink:title=" ">
<path fill="none" stroke="#63b8ff" d="M414.23,-172.52C388.8,-177.63 359.23,-183.58 335.04,-188.44"/>
<polygon fill="#63b8ff" stroke="#63b8ff" points="415,-175.93 424.12,-170.53 413.62,-169.07 415,-175.93"/>
</a>
</g>
</g>
<!-- Node3 -->
<g id="Node000003" class="node">
<title>Node3</title>
<g id="a_Node000003"><a xlink:href="classChansonDAO.html#aa9f3b3c091b0f9db6a1ab3f9b04fdc47" target="_top" xlink:title=" ">
<polygon fill="white" stroke="#666666" points="341.5,-170.5 231.5,-170.5 231.5,-151.5 341.5,-151.5 341.5,-170.5"/>
<text text-anchor="middle" x="286.5" y="-158.5" font-family="Helvetica,sans-Serif" font-size="10.00">ChansonDAO\findId</text>
</a>
</g>
</g>
<!-- Node1&#45;&gt;Node3 -->
<g id="edge2_Node000001_Node000003" class="edge">
<title>Node1&#45;&gt;Node3</title>
<g id="a_edge2_Node000001_Node000003"><a xlink:title=" ">
<path fill="none" stroke="#63b8ff" d="M401.54,-161C381.7,-161 360.41,-161 341.65,-161"/>
<polygon fill="#63b8ff" stroke="#63b8ff" points="401.76,-164.5 411.76,-161 401.76,-157.5 401.76,-164.5"/>
</a>
</g>
</g>
<!-- Node4 -->
<g id="Node000004" class="node">
<title>Node4</title>
<g id="a_Node000004"><a xlink:href="classChansonDAO.html#a3c5a1384e8cc52cfe9be658f73e9db98" target="_top" xlink:title=" ">
<polygon fill="white" stroke="#666666" points="360.5,-133.5 212.5,-133.5 212.5,-114.5 360.5,-114.5 360.5,-133.5"/>
<text text-anchor="middle" x="286.5" y="-121.5" font-family="Helvetica,sans-Serif" font-size="10.00">ChansonDAO\hydrateMany</text>
</a>
</g>
</g>
<!-- Node1&#45;&gt;Node4 -->
<g id="edge3_Node000001_Node000004" class="edge">
<title>Node1&#45;&gt;Node4</title>
<g id="a_edge3_Node000001_Node000004"><a xlink:title=" ">
<path fill="none" stroke="#63b8ff" d="M414.23,-149.48C388.8,-144.37 359.23,-138.42 335.04,-133.56"/>
<polygon fill="#63b8ff" stroke="#63b8ff" points="413.62,-152.93 424.12,-151.47 415,-146.07 413.62,-152.93"/>
</a>
</g>
</g>
<!-- Node5 -->
<g id="Node000005" class="node">
<title>Node5</title>
<g id="a_Node000005"><a xlink:href="classChansonDAO.html#af2522bc396a36979dbab1604ed7ee15c" target="_top" xlink:title=" ">
<polygon fill="white" stroke="#666666" points="156.5,-226.5 4.5,-226.5 4.5,-207.5 156.5,-207.5 156.5,-226.5"/>
<text text-anchor="middle" x="80.5" y="-214.5" font-family="Helvetica,sans-Serif" font-size="10.00">ChansonDAO\filtrerChanson</text>
</a>
</g>
</g>
<!-- Node4&#45;&gt;Node5 -->
<g id="edge4_Node000004_Node000005" class="edge">
<title>Node4&#45;&gt;Node5</title>
<g id="a_edge4_Node000004_Node000005"><a xlink:title=" ">
<path fill="none" stroke="#63b8ff" d="M206.05,-137.63C202.9,-139.23 199.86,-141.02 197,-143 172.67,-159.84 185.23,-182.02 161,-199 156.13,-202.41 150.72,-205.19 145.08,-207.44"/>
<polygon fill="#63b8ff" stroke="#63b8ff" points="207.46,-140.83 215.19,-133.58 204.63,-134.43 207.46,-140.83"/>
</a>
</g>
</g>
<!-- Node6 -->
<g id="Node000006" class="node">
<title>Node6</title>
<g id="a_Node000006"><a xlink:href="classChansonDAO.html#ada2ec15fd8bf73fc2ed30325cbd8bef6" target="_top" xlink:title="Récupère toutes les chansons de la base de données.">
<polygon fill="white" stroke="#666666" points="137.5,-189.5 23.5,-189.5 23.5,-170.5 137.5,-170.5 137.5,-189.5"/>
<text text-anchor="middle" x="80.5" y="-177.5" font-family="Helvetica,sans-Serif" font-size="10.00">ChansonDAO\findAll</text>
</a>
</g>
</g>
<!-- Node4&#45;&gt;Node6 -->
<g id="edge5_Node000004_Node000006" class="edge">
<title>Node4&#45;&gt;Node6</title>
<g id="a_edge5_Node000004_Node000006"><a xlink:title=" ">
<path fill="none" stroke="#63b8ff" d="M219.78,-135.99C212.02,-138.03 204.27,-140.36 197,-143 180,-149.18 177.97,-155.73 161,-162 152.11,-165.29 142.42,-168.09 132.97,-170.43"/>
<polygon fill="#63b8ff" stroke="#63b8ff" points="220.74,-139.36 229.61,-133.57 219.06,-132.57 220.74,-139.36"/>
</a>
</g>
</g>
<!-- Node7 -->
<g id="Node000007" class="node">
<title>Node7</title>
<g id="a_Node000007"><a xlink:href="classChansonDAO.html#a35e91d1d120b298571c35c00b0142884" target="_top" xlink:title=" ">
<polygon fill="white" stroke="#666666" points="161,-152.5 0,-152.5 0,-133.5 161,-133.5 161,-152.5"/>
<text text-anchor="middle" x="80.5" y="-140.5" font-family="Helvetica,sans-Serif" font-size="10.00">ChansonDAO\findAllFromUser</text>
</a>
</g>
</g>
<!-- Node4&#45;&gt;Node7 -->
<g id="edge6_Node000004_Node000007" class="edge">
<title>Node4&#45;&gt;Node7</title>
<g id="a_edge6_Node000004_Node000007"><a xlink:title=" ">
<path fill="none" stroke="#63b8ff" d="M202.2,-131.76C188.7,-133.02 174.74,-134.32 161.32,-135.57"/>
<polygon fill="#63b8ff" stroke="#63b8ff" points="202.8,-135.22 212.43,-130.81 202.15,-128.25 202.8,-135.22"/>
</a>
</g>
</g>
<!-- Node8 -->
<g id="Node000008" class="node">
<title>Node8</title>
<g id="a_Node000008"><a xlink:href="classChansonDAO.html#a96d28dc22bbfae9f3dd6370f1d87a489" target="_top" xlink:title=" ">
<polygon fill="white" stroke="#666666" points="152,-115.5 9,-115.5 9,-96.5 152,-96.5 152,-115.5"/>
<text text-anchor="middle" x="80.5" y="-103.5" font-family="Helvetica,sans-Serif" font-size="10.00">ChansonDAO\findTrending</text>
</a>
</g>
</g>
<!-- Node4&#45;&gt;Node8 -->
<g id="edge7_Node000004_Node000008" class="edge">
<title>Node4&#45;&gt;Node8</title>
<g id="a_edge7_Node000004_Node000008"><a xlink:title=" ">
<path fill="none" stroke="#63b8ff" d="M202.17,-116.65C185.52,-115.18 168.18,-113.65 152.01,-112.22"/>
<polygon fill="#63b8ff" stroke="#63b8ff" points="202.16,-120.16 212.43,-117.55 202.77,-113.19 202.16,-120.16"/>
</a>
</g>
</g>
<!-- Node9 -->
<g id="Node000009" class="node">
<title>Node9</title>
<g id="a_Node000009"><a xlink:href="classChansonDAO.html#a6c84de03aba88179e451db46e84356e3" target="_top" xlink:title=" ">
<polygon fill="white" stroke="#666666" points="155.5,-78 5.5,-78 5.5,-48 155.5,-48 155.5,-78"/>
<text text-anchor="start" x="13.5" y="-66" font-family="Helvetica,sans-Serif" font-size="10.00">ChansonDAO\rechercherPar</text>
<text text-anchor="middle" x="80.5" y="-55" font-family="Helvetica,sans-Serif" font-size="10.00">Album</text>
</a>
</g>
</g>
<!-- Node4&#45;&gt;Node9 -->
<g id="edge8_Node000004_Node000009" class="edge">
<title>Node4&#45;&gt;Node9</title>
<g id="a_edge8_Node000004_Node000009"><a xlink:title=" ">
<path fill="none" stroke="#63b8ff" d="M243.99,-111.59C211.54,-101.88 166.3,-88.36 131.8,-78.04"/>
<polygon fill="#63b8ff" stroke="#63b8ff" points="243.04,-114.96 253.62,-114.47 245.05,-108.25 243.04,-114.96"/>
</a>
</g>
</g>
<!-- Node10 -->
<g id="Node000010" class="node">
<title>Node10</title>
<g id="a_Node000010"><a xlink:href="classChansonDAO.html#a0dd0bcfda435e1410f21d29e912e3969" target="_top" xlink:title=" ">
<polygon fill="white" stroke="#666666" points="155.5,-30 5.5,-30 5.5,0 155.5,0 155.5,-30"/>
<text text-anchor="start" x="13.5" y="-18" font-family="Helvetica,sans-Serif" font-size="10.00">ChansonDAO\rechercherPar</text>
<text text-anchor="middle" x="80.5" y="-7" font-family="Helvetica,sans-Serif" font-size="10.00">Titre</text>
</a>
</g>
</g>
<!-- Node4&#45;&gt;Node10 -->
<g id="edge9_Node000004_Node000010" class="edge">
<title>Node4&#45;&gt;Node10</title>
<g id="a_edge9_Node000004_Node000010"><a xlink:title=" ">
<path fill="none" stroke="#63b8ff" d="M266.05,-107.91C242.49,-89.09 200.95,-58.11 161,-39 154.11,-35.7 146.66,-32.74 139.18,-30.12"/>
<polygon fill="#63b8ff" stroke="#63b8ff" points="263.91,-110.68 273.89,-114.24 268.31,-105.23 263.91,-110.68"/>
</a>
</g>
</g>
</g>
</svg>

<g id="navigator" transform="translate(0 0)" fill="#404254">
  <rect fill="#f2f5e9" fill-opacity="0.5" stroke="#606060" stroke-width=".5" x="0" y="0" width="60" height="60"/>
  <use id="zoomplus" xlink:href="#zoomPlus" x="17" y="9" onmousedown="handleZoom(evt,'in')"/>
  <use id="zoomminus" xlink:href="#zoomMin" x="42" y="9" onmousedown="handleZoom(evt,'out')"/>
  <use id="reset" xlink:href="#resetDef" x="30" y="36" onmousedown="handleReset()"/>
   <use id="arrowup" xlink:href="#arrowUp" x="0" y="0" onmousedown="handlePan(0,-1)"/>
  <use id="arrowright" xlink:href="#arrowRight" x="0" y="0" onmousedown="handlePan(1,0)"/>
  <use id="arrowdown" xlink:href="#arrowDown" x="0" y="0" onmousedown="handlePan(0,1)"/>
  <use id="arrowleft" xlink:href="#arrowLeft" x="0" y="0" onmousedown="handlePan(-1,0)"/>
</g>
<svg viewBox="0 0 15 15" width="100%" height="30px" preserveAspectRatio="xMaxYMin meet">
 <g id="arrow_out" transform="scale(0.3 0.3)">
  <a xlink:href="classChansonDAO_aba82b82cc565dac393f403cf9e460508_icgraph_org.svg" target="_base">
   <rect id="button" ry="5" rx="5" y="6" x="6" height="38" width="38"
        fill="#f2f5e9" fill-opacity="0.5" stroke="#606060" stroke-width="1.0"/>
   <path id="arrow"
     d="M 11.500037,31.436501 C 11.940474,20.09759 22.043105,11.32322 32.158766,21.979434 L 37.068811,17.246167 C 37.068811,17.246167 37.088388,32 37.088388,32 L 22.160133,31.978069 C 22.160133,31.978069 26.997745,27.140456 26.997745,27.140456 C 18.528582,18.264221 13.291696,25.230495 11.500037,31.436501 z"
     style="fill:#404040;"/>
  </a>
 </g>
</svg>

<style type='text/css'>
<![CDATA[
[data-mouse-over-selected='false'] { opacity: 0.7; }
[data-mouse-over-selected='true']  { opacity: 1.0; }
]]>
</style>
<script type="application/ecmascript"><![CDATA[
document.addEventListener('DOMContentLoaded', (event) => {
  highlightEdges();
  highlightAdjacentNodes();
});
]]></script>
</svg>
