<?xml version="1.0" encoding="UTF-8" standalone="no"?>
<!DOCTYPE svg PUBLIC "-//W3C//DTD SVG 1.1//EN"
 "http://www.w3.org/Graphics/SVG/1.1/DTD/svg11.dtd">
<!-- Generated by graphviz version 2.43.0 (0)
 -->
<!-- Title: Controller\requireAuth Pages: 1 -->
<!--zoomable 471 -->

<svg id="main" version="1.1" xmlns="http://www.w3.org/2000/svg" xmlns:xlink="http://www.w3.org/1999/xlink" xml:space="preserve" onload="init(evt)">
<style type="text/css"><![CDATA[
.node, .edge {opacity: 0.7;}
.node.selected, .edge.selected {opacity: 1;}
.edge:hover path { stroke: red; }
.edge:hover polygon { stroke: red; fill: red; }
]]></style>

<defs>
  <circle id="rim" cx="0" cy="0" r="7"/>
  <circle id="rim2" cx="0" cy="0" r="3.5"/>
  <g id="zoomPlus">
    <use xlink:href="#rim" fill="#404040"><set attributeName="fill" to="#808080" begin="zoomplus.mouseover" end="zoomplus.mouseout"/></use>
    <path d="M-4,0h8M0,-4v8" fill="none" stroke="white" stroke-width="1.5" pointer-events="none"/>
  </g>
  <g id="zoomMin">
    <use xlink:href="#rim" fill="#404040"><set attributeName="fill" to="#808080" begin="zoomminus.mouseover" end="zoomminus.mouseout"/></use>
    <path d="M-4,0h8" fill="none" stroke="white" stroke-width="1.5" pointer-events="none"/>
  </g>
  <g id="arrowUp" transform="translate(30 24)">
    <use xlink:href="#rim"/>
    <path pointer-events="none" fill="none" stroke="white" stroke-width="1.5" d="M0,-3.0v7 M-2.5,-0.5L0,-3.0L2.5,-0.5"/>
  </g>
  <g id="arrowRight" transform="rotate(90) translate(36 -43)">
    <use xlink:href="#rim"/>
    <path pointer-events="none" fill="none" stroke="white" stroke-width="1.5" d="M0,-3.0v7 M-2.5,-0.5L0,-3.0L2.5,-0.5"/>
  </g>
  <g id="arrowDown" transform="rotate(180) translate(-30 -48)">
    <use xlink:href="#rim"/>
    <path pointer-events="none" fill="none" stroke="white" stroke-width="1.5" d="M0,-3.0v7 M-2.5,-0.5L0,-3.0L2.5,-0.5"/>
  </g>
  <g id="arrowLeft" transform="rotate(270) translate(-36 17)">
    <use xlink:href="#rim"/>
    <path pointer-events="none" fill="none" stroke="white" stroke-width="1.5" d="M0,-3.0v7 M-2.5,-0.5L0,-3.0L2.5,-0.5"/>
  </g>
  <g id="resetDef">
    <use xlink:href="#rim2" fill="#404040"><set attributeName="fill" to="#808080" begin="reset.mouseover" end="reset.mouseout"/></use>
  </g>
</defs>
<script type="application/ecmascript">
var viewWidth = 544;
var viewHeight = 471;
var sectionId = 'dynsection-10';
</script>
<script type="application/ecmascript" xlink:href="svg.min.js"/>
<svg id="graph" class="graph">
<g id="viewport">
<title>Controller\requireAuth</title>
<!-- Node1 -->
<g id="Node000001" class="node">
<title>Node1</title>
<g id="a_Node000001"><a xlink:title="Exige que l&#39;utilisateur soit authentifié.">
<polygon fill="#999999" stroke="#666666" points="536,-309.5 411,-309.5 411,-290.5 536,-290.5 536,-309.5"/>
<text text-anchor="middle" x="473.5" y="-297.5" font-family="Helvetica,sans-Serif" font-size="10.00">Controller\requireAuth</text>
</a>
</g>
</g>
<!-- Node2 -->
<g id="Node000002" class="node">
<title>Node2</title>
<g id="a_Node000002"><a xlink:href="classControllerMusique.html#ab0c0de405d848d94f0293426acb27b1b" target="_top" xlink:title="Affiche la page &quot;Bibliothèque&quot; de l&#39;utilisateur connecté.">
<polygon fill="white" stroke="#666666" points="361,-462.5 215,-462.5 215,-443.5 361,-443.5 361,-462.5"/>
<text text-anchor="middle" x="288" y="-450.5" font-family="Helvetica,sans-Serif" font-size="10.00">ControllerMusique\afficher</text>
</a>
</g>
</g>
<!-- Node1&#45;&gt;Node2 -->
<g id="edge1_Node000001_Node000002" class="edge">
<title>Node1&#45;&gt;Node2</title>
<g id="a_edge1_Node000001_Node000002"><a xlink:title=" ">
<path fill="none" stroke="#63b8ff" d="M464.27,-318.82C450.37,-348.3 419.36,-404.96 375,-434 369.12,-437.85 362.57,-440.93 355.79,-443.4"/>
<polygon fill="#63b8ff" stroke="#63b8ff" points="467.5,-320.17 468.47,-309.62 461.14,-317.27 467.5,-320.17"/>
</a>
</g>
</g>
<!-- Node3 -->
<g id="Node000003" class="node">
<title>Node3</title>
<g id="a_Node000003"><a xlink:href="classControllerPlaylist.html#ad828a0ec70e2f2bba065f0e640519e4c" target="_top" xlink:title="Affiche une playlist avec ses chansons.">
<polygon fill="white" stroke="#666666" points="338.5,-425 237.5,-425 237.5,-395 338.5,-395 338.5,-425"/>
<text text-anchor="start" x="245.5" y="-413" font-family="Helvetica,sans-Serif" font-size="10.00">ControllerPlaylist</text>
<text text-anchor="middle" x="288" y="-402" font-family="Helvetica,sans-Serif" font-size="10.00">\afficher</text>
</a>
</g>
</g>
<!-- Node1&#45;&gt;Node3 -->
<g id="edge2_Node000001_Node000003" class="edge">
<title>Node1&#45;&gt;Node3</title>
<g id="a_edge2_Node000001_Node000003"><a xlink:title=" ">
<path fill="none" stroke="#63b8ff" d="M457.67,-317.09C439.9,-336.52 408.32,-367.9 375,-386 363.83,-392.07 350.99,-396.71 338.7,-400.22"/>
<polygon fill="#63b8ff" stroke="#63b8ff" points="460.34,-319.35 464.41,-309.56 455.13,-314.68 460.34,-319.35"/>
</a>
</g>
</g>
<!-- Node4 -->
<g id="Node000004" class="node">
<title>Node4</title>
<g id="a_Node000004"><a xlink:href="classControllerUtilisateur.html#ae68e0eb8063f09dbf9f36e2ea994f311" target="_top" xlink:title="Affiche la page des chansons aimées (likées) par l&#39;utilisateur connecté.">
<polygon fill="white" stroke="#666666" points="346,-377 230,-377 230,-347 346,-347 346,-377"/>
<text text-anchor="start" x="238" y="-365" font-family="Helvetica,sans-Serif" font-size="10.00">ControllerUtilisateur</text>
<text text-anchor="middle" x="288" y="-354" font-family="Helvetica,sans-Serif" font-size="10.00">\afficherMesLikes</text>
</a>
</g>
</g>
<!-- Node1&#45;&gt;Node4 -->
<g id="edge3_Node000001_Node000004" class="edge">
<title>Node1&#45;&gt;Node4</title>
<g id="a_edge3_Node000001_Node000004"><a xlink:title=" ">
<path fill="none" stroke="#63b8ff" d="M440.55,-313.38C421.66,-321.06 397.16,-330.61 375,-338 365.74,-341.09 355.82,-344.11 346.14,-346.91"/>
<polygon fill="#63b8ff" stroke="#63b8ff" points="441.96,-316.59 449.88,-309.55 439.3,-310.11 441.96,-316.59"/>
</a>
</g>
</g>
<!-- Node5 -->
<g id="Node000005" class="node">
<title>Node5</title>
<g id="a_Node000005"><a xlink:href="classControllerMessage.html#a9b70f2585ae8ff404a433b5bd54301dd" target="_top" xlink:title="Affiche une discussion précise et gère l&#39;envoi d&#39;un nouveau message.">
<polygon fill="white" stroke="#666666" points="375,-328.5 201,-328.5 201,-309.5 375,-309.5 375,-328.5"/>
<text text-anchor="middle" x="288" y="-316.5" font-family="Helvetica,sans-Serif" font-size="10.00">ControllerMessage\conversation</text>
</a>
</g>
</g>
<!-- Node1&#45;&gt;Node5 -->
<g id="edge4_Node000001_Node000005" class="edge">
<title>Node1&#45;&gt;Node5</title>
<g id="a_edge4_Node000001_Node000005"><a xlink:title=" ">
<path fill="none" stroke="#63b8ff" d="M400.8,-307.42C392.42,-308.29 383.8,-309.18 375.24,-310.07"/>
<polygon fill="#63b8ff" stroke="#63b8ff" points="401.3,-310.89 410.89,-306.38 400.58,-303.93 401.3,-310.89"/>
</a>
</g>
</g>
<!-- Node6 -->
<g id="Node000006" class="node">
<title>Node6</title>
<g id="a_Node000006"><a xlink:href="classControllerMessage.html#aa0fab7f37aedcfd38980e418cfa82393" target="_top" xlink:title="Affiche la liste des conversations de l&#39;utilisateur connecté.">
<polygon fill="white" stroke="#666666" points="356,-291.5 220,-291.5 220,-272.5 356,-272.5 356,-291.5"/>
<text text-anchor="middle" x="288" y="-279.5" font-family="Helvetica,sans-Serif" font-size="10.00">ControllerMessage\lister</text>
</a>
</g>
</g>
<!-- Node1&#45;&gt;Node6 -->
<g id="edge5_Node000001_Node000006" class="edge">
<title>Node1&#45;&gt;Node6</title>
<g id="a_edge5_Node000001_Node000006"><a xlink:title=" ">
<path fill="none" stroke="#63b8ff" d="M400.83,-292.97C386.12,-291.53 370.67,-290.01 356.12,-288.58"/>
<polygon fill="#63b8ff" stroke="#63b8ff" points="400.59,-296.46 410.89,-293.96 401.28,-289.5 400.59,-296.46"/>
</a>
</g>
</g>
<!-- Node7 -->
<g id="Node000007" class="node">
<title>Node7</title>
<g id="a_Node000007"><a xlink:href="classController.html#a75d9e91b7784fcc5c826e5f9fd79956d" target="_top" xlink:title="Exige que l&#39;utilisateur ait un des rôles spécifiés.">
<polygon fill="white" stroke="#666666" points="359.5,-254.5 216.5,-254.5 216.5,-235.5 359.5,-235.5 359.5,-254.5"/>
<text text-anchor="middle" x="288" y="-242.5" font-family="Helvetica,sans-Serif" font-size="10.00">Controller\requireAnyRole</text>
</a>
</g>
</g>
<!-- Node1&#45;&gt;Node7 -->
<g id="edge6_Node000001_Node000007" class="edge">
<title>Node1&#45;&gt;Node7</title>
<g id="a_edge6_Node000001_Node000007"><a xlink:title=" ">
<path fill="none" stroke="#63b8ff" d="M439.62,-286.59C420.89,-279.27 396.87,-270.42 375,-264 362.97,-260.47 349.82,-257.25 337.51,-254.51"/>
<polygon fill="#63b8ff" stroke="#63b8ff" points="438.57,-289.94 449.16,-290.36 441.15,-283.43 438.57,-289.94"/>
</a>
</g>
</g>
<!-- Node8 -->
<g id="Node000008" class="node">
<title>Node8</title>
<g id="a_Node000008"><a xlink:href="classController.html#a3c8ca59e4609ef5e27e868a91f5ce090" target="_top" xlink:title="Exige que l&#39;utilisateur ait un rôle spécifique.">
<polygon fill="white" stroke="#666666" points="350,-217.5 226,-217.5 226,-198.5 350,-198.5 350,-217.5"/>
<text text-anchor="middle" x="288" y="-205.5" font-family="Helvetica,sans-Serif" font-size="10.00">Controller\requireRole</text>
</a>
</g>
</g>
<!-- Node1&#45;&gt;Node8 -->
<g id="edge7_Node000001_Node000008" class="edge">
<title>Node1&#45;&gt;Node8</title>
<g id="a_edge7_Node000001_Node000008"><a xlink:title=" ">
<path fill="none" stroke="#63b8ff" d="M455.07,-283.26C436.64,-266.5 406,-241.22 375,-227 366.52,-223.11 357.2,-220 347.92,-217.51"/>
<polygon fill="#63b8ff" stroke="#63b8ff" points="452.93,-286.05 462.64,-290.29 457.69,-280.92 452.93,-286.05"/>
</a>
</g>
</g>
<!-- Node19 -->
<g id="Node000019" class="node">
<title>Node19</title>
<g id="a_Node000019"><a xlink:href="classControllerChanson.html#a577d75f91bfaf5101534761c8a9cfd73" target="_top" xlink:title="Bascule l&#39;état &quot;j&#39;aime&quot; d&#39;une chanson pour l&#39;utilisateur connecté.">
<polygon fill="white" stroke="#666666" points="368,-180.5 208,-180.5 208,-161.5 368,-161.5 368,-180.5"/>
<text text-anchor="middle" x="288" y="-168.5" font-family="Helvetica,sans-Serif" font-size="10.00">ControllerChanson\toggleLike</text>
</a>
</g>
</g>
<!-- Node1&#45;&gt;Node19 -->
<g id="edge18_Node000001_Node000019" class="edge">
<title>Node1&#45;&gt;Node19</title>
<g id="a_edge18_Node000001_Node000019"><a xlink:title=" ">
<path fill="none" stroke="#63b8ff" d="M461.59,-281.72C445.76,-256.88 414.01,-212.94 375,-190 368.41,-186.13 361.11,-183.04 353.64,-180.58"/>
<polygon fill="#63b8ff" stroke="#63b8ff" points="458.62,-283.57 466.86,-290.23 464.57,-279.88 458.62,-283.57"/>
</a>
</g>
</g>
<!-- Node9 -->
<g id="Node000009" class="node">
<title>Node9</title>
<g id="a_Node000009"><a xlink:href="classControllerAdmin.html#a112f35682ab86e6256d923e59b49a125" target="_top" xlink:title="Affiche le tableau de bord de l&#39;administrateur.">
<polygon fill="white" stroke="#666666" points="150.5,-410.5 14.5,-410.5 14.5,-391.5 150.5,-391.5 150.5,-410.5"/>
<text text-anchor="middle" x="82.5" y="-398.5" font-family="Helvetica,sans-Serif" font-size="10.00">ControllerAdmin\afficher</text>
</a>
</g>
</g>
<!-- Node8&#45;&gt;Node9 -->
<g id="edge8_Node000008_Node000009" class="edge">
<title>Node8&#45;&gt;Node9</title>
<g id="a_edge8_Node000008_Node000009"><a xlink:title=" ">
<path fill="none" stroke="#63b8ff" d="M216.08,-216.49C210.53,-219.22 205.39,-222.66 201,-227 150.72,-276.74 214.99,-331.97 165,-382 160.89,-386.11 156.08,-389.4 150.88,-392.03"/>
<polygon fill="#63b8ff" stroke="#63b8ff" points="217.8,-219.57 225.74,-212.56 215.16,-213.09 217.8,-219.57"/>
</a>
</g>
</g>
<!-- Node10 -->
<g id="Node000010" class="node">
<title>Node10</title>
<g id="a_Node000010"><a xlink:href="classControllerAlbum.html#a6302c1b131eead7adc950353217b4a8c" target="_top" xlink:title="Affiche le formulaire d&#39;ajout d&#39;album.">
<polygon fill="white" stroke="#666666" points="150.5,-373 14.5,-373 14.5,-343 150.5,-343 150.5,-373"/>
<text text-anchor="start" x="22.5" y="-361" font-family="Helvetica,sans-Serif" font-size="10.00">ControllerAlbum\afficher</text>
<text text-anchor="middle" x="82.5" y="-350" font-family="Helvetica,sans-Serif" font-size="10.00">FormulaireAjout</text>
</a>
</g>
</g>
<!-- Node8&#45;&gt;Node10 -->
<g id="edge9_Node000008_Node000010" class="edge">
<title>Node8&#45;&gt;Node10</title>
<g id="a_edge9_Node000008_Node000010"><a xlink:title=" ">
<path fill="none" stroke="#63b8ff" d="M216.24,-217.08C210.7,-219.69 205.52,-222.94 201,-227 163.67,-260.53 201.15,-299.2 165,-334 160.75,-338.09 155.84,-341.49 150.57,-344.31"/>
<polygon fill="#63b8ff" stroke="#63b8ff" points="217.83,-220.22 225.84,-213.28 215.25,-213.71 217.83,-220.22"/>
</a>
</g>
</g>
<!-- Node11 -->
<g id="Node000011" class="node">
<title>Node11</title>
<g id="a_Node000011"><a xlink:href="classControllerAlbum.html#ac1dc773bca165172c9deef9049e99ecb" target="_top" xlink:title="Affiche la page &quot;Ma Musique&quot; pour l&#39;artiste connecté.">
<polygon fill="white" stroke="#666666" points="150.5,-325 14.5,-325 14.5,-295 150.5,-295 150.5,-325"/>
<text text-anchor="start" x="22.5" y="-313" font-family="Helvetica,sans-Serif" font-size="10.00">ControllerAlbum\afficher</text>
<text text-anchor="middle" x="82.5" y="-302" font-family="Helvetica,sans-Serif" font-size="10.00">MaMusique</text>
</a>
</g>
</g>
<!-- Node8&#45;&gt;Node11 -->
<g id="edge10_Node000008_Node000011" class="edge">
<title>Node8&#45;&gt;Node11</title>
<g id="a_edge10_Node000008_Node000011"><a xlink:title=" ">
<path fill="none" stroke="#63b8ff" d="M215.92,-218.73C210.64,-221 205.59,-223.72 201,-227 176,-244.85 189.37,-267.3 165,-286 160.55,-289.41 155.63,-292.34 150.47,-294.85"/>
<polygon fill="#63b8ff" stroke="#63b8ff" points="217.48,-221.88 225.64,-215.12 215.05,-215.32 217.48,-221.88"/>
</a>
</g>
</g>
<!-- Node12 -->
<g id="Node000012" class="node">
<title>Node12</title>
<g id="a_Node000012"><a xlink:href="classControllerAlbum.html#a2fb955c9315c73e221f81baff694f4d2" target="_top" xlink:title="Traite l&#39;ajout d&#39;un nouvel album ou l&#39;ajout de chansons à un album existant.">
<polygon fill="white" stroke="#666666" points="165,-276.5 0,-276.5 0,-257.5 165,-257.5 165,-276.5"/>
<text text-anchor="middle" x="82.5" y="-264.5" font-family="Helvetica,sans-Serif" font-size="10.00">ControllerAlbum\ajouterAlbum</text>
</a>
</g>
</g>
<!-- Node8&#45;&gt;Node12 -->
<g id="edge11_Node000008_Node000012" class="edge">
<title>Node8&#45;&gt;Node12</title>
<g id="a_edge11_Node000008_Node000012"><a xlink:title=" ">
<path fill="none" stroke="#63b8ff" d="M221.05,-220.2C214.18,-222.17 207.38,-224.43 201,-227 183.61,-234.01 182.39,-241.99 165,-249 156.67,-252.36 147.59,-255.14 138.62,-257.44"/>
<polygon fill="#63b8ff" stroke="#63b8ff" points="222.37,-223.47 231.13,-217.52 220.56,-216.71 222.37,-223.47"/>
</a>
</g>
</g>
<!-- Node13 -->
<g id="Node000013" class="node">
<title>Node13</title>
<g id="a_Node000013"><a xlink:href="classControllerAdmin.html#a18818beb5443fb827766f982ff9b4762" target="_top" xlink:title="Consulte les détails d&#39;un utilisateur.">
<polygon fill="white" stroke="#666666" points="154.5,-239.5 10.5,-239.5 10.5,-220.5 154.5,-220.5 154.5,-239.5"/>
<text text-anchor="middle" x="82.5" y="-227.5" font-family="Helvetica,sans-Serif" font-size="10.00">ControllerAdmin\consulter</text>
</a>
</g>
</g>
<!-- Node8&#45;&gt;Node13 -->
<g id="edge12_Node000008_Node000013" class="edge">
<title>Node8&#45;&gt;Node13</title>
<g id="a_edge12_Node000008_Node000013"><a xlink:title=" ">
<path fill="none" stroke="#63b8ff" d="M215.74,-215.7C195.9,-217.85 174.36,-220.18 154.53,-222.32"/>
<polygon fill="#63b8ff" stroke="#63b8ff" points="216.38,-219.16 225.94,-214.6 215.63,-212.2 216.38,-219.16"/>
</a>
</g>
</g>
<!-- Node14 -->
<g id="Node000014" class="node">
<title>Node14</title>
<g id="a_Node000014"><a xlink:href="classControllerUtilisateur.html#abbfd16bafa283856d06476b006239871" target="_top" xlink:title="Gère la création d&#39;un nouvel utilisateur par l&#39;administrateur.">
<polygon fill="white" stroke="#666666" points="140.5,-202 24.5,-202 24.5,-172 140.5,-172 140.5,-202"/>
<text text-anchor="start" x="32.5" y="-190" font-family="Helvetica,sans-Serif" font-size="10.00">ControllerUtilisateur</text>
<text text-anchor="middle" x="82.5" y="-179" font-family="Helvetica,sans-Serif" font-size="10.00">\inscription</text>
</a>
</g>
</g>
<!-- Node8&#45;&gt;Node14 -->
<g id="edge13_Node000008_Node000014" class="edge">
<title>Node8&#45;&gt;Node14</title>
<g id="a_edge13_Node000008_Node000014"><a xlink:title=" ">
<path fill="none" stroke="#63b8ff" d="M215.93,-200.67C191.31,-198.13 164.04,-195.31 140.68,-192.9"/>
<polygon fill="#63b8ff" stroke="#63b8ff" points="215.64,-204.15 225.94,-201.7 216.36,-197.19 215.64,-204.15"/>
</a>
</g>
</g>
<!-- Node15 -->
<g id="Node000015" class="node">
<title>Node15</title>
<g id="a_Node000015"><a xlink:href="classControllerAdmin.html#a65506a5e6ff98256bd5c39307db816f0" target="_top" xlink:title="Modifie un utilisateur existant.">
<polygon fill="white" stroke="#666666" points="152.5,-153.5 12.5,-153.5 12.5,-134.5 152.5,-134.5 152.5,-153.5"/>
<text text-anchor="middle" x="82.5" y="-141.5" font-family="Helvetica,sans-Serif" font-size="10.00">ControllerAdmin\modifier</text>
</a>
</g>
</g>
<!-- Node8&#45;&gt;Node15 -->
<g id="edge14_Node000008_Node000015" class="edge">
<title>Node8&#45;&gt;Node15</title>
<g id="a_edge14_Node000008_Node000015"><a xlink:title=" ">
<path fill="none" stroke="#63b8ff" d="M215.86,-195.71C210.75,-194.04 205.74,-192.15 201,-190 182.78,-181.76 183.13,-171.45 165,-163 156.7,-159.13 147.56,-156.02 138.48,-153.52"/>
<polygon fill="#63b8ff" stroke="#63b8ff" points="215.21,-199.17 225.8,-198.66 217.2,-192.46 215.21,-199.17"/>
</a>
</g>
</g>
<!-- Node16 -->
<g id="Node000016" class="node">
<title>Node16</title>
<g id="a_Node000016"><a xlink:href="classControllerAlbum.html#a39a4e1d517fac239f47665a9e8110cdd" target="_top" xlink:title="Modifie les informations d&#39;une chanson.">
<polygon fill="white" stroke="#666666" points="152.5,-116 12.5,-116 12.5,-86 152.5,-86 152.5,-116"/>
<text text-anchor="start" x="20.5" y="-104" font-family="Helvetica,sans-Serif" font-size="10.00">ControllerAlbum\modifier</text>
<text text-anchor="middle" x="82.5" y="-93" font-family="Helvetica,sans-Serif" font-size="10.00">Chanson</text>
</a>
</g>
</g>
<!-- Node8&#45;&gt;Node16 -->
<g id="edge15_Node000008_Node000016" class="edge">
<title>Node8&#45;&gt;Node16</title>
<g id="a_edge15_Node000008_Node000016"><a xlink:title=" ">
<path fill="none" stroke="#63b8ff" d="M216.48,-198.6C210.98,-196.3 205.73,-193.47 201,-190 174.68,-170.71 190.42,-146.47 165,-126 160.16,-122.1 154.71,-118.81 148.99,-116.03"/>
<polygon fill="#63b8ff" stroke="#63b8ff" points="215.35,-201.92 225.94,-202.02 217.72,-195.33 215.35,-201.92"/>
</a>
</g>
</g>
<!-- Node17 -->
<g id="Node000017" class="node">
<title>Node17</title>
<g id="a_Node000017"><a xlink:href="classControllerAdmin.html#a21a27101a5c5e6a978ec048813cbbcf1" target="_top" xlink:title="Supprime un utilisateur spécifique.">
<polygon fill="white" stroke="#666666" points="157,-67.5 8,-67.5 8,-48.5 157,-48.5 157,-67.5"/>
<text text-anchor="middle" x="82.5" y="-55.5" font-family="Helvetica,sans-Serif" font-size="10.00">ControllerAdmin\supprimer</text>
</a>
</g>
</g>
<!-- Node8&#45;&gt;Node17 -->
<g id="edge16_Node000008_Node000017" class="edge">
<title>Node8&#45;&gt;Node17</title>
<g id="a_edge16_Node000008_Node000017"><a xlink:title=" ">
<path fill="none" stroke="#63b8ff" d="M216.2,-199.86C210.67,-197.29 205.5,-194.06 201,-190 161.88,-154.68 203.72,-112.76 165,-77 160.84,-73.16 156.05,-70.04 150.93,-67.52"/>
<polygon fill="#63b8ff" stroke="#63b8ff" points="215.19,-203.22 225.78,-203.57 217.72,-196.7 215.19,-203.22"/>
</a>
</g>
</g>
<!-- Node18 -->
<g id="Node000018" class="node">
<title>Node18</title>
<g id="a_Node000018"><a xlink:href="classControllerAlbum.html#aad96094767cc4b5a0520a29b22f7c77d" target="_top" xlink:title="Supprime une chanson (action réservée à l&#39;artiste propriétaire).">
<polygon fill="white" stroke="#666666" points="157,-30 8,-30 8,0 157,0 157,-30"/>
<text text-anchor="start" x="16" y="-18" font-family="Helvetica,sans-Serif" font-size="10.00">ControllerAlbum\supprimer</text>
<text text-anchor="middle" x="82.5" y="-7" font-family="Helvetica,sans-Serif" font-size="10.00">Chanson</text>
</a>
</g>
</g>
<!-- Node8&#45;&gt;Node18 -->
<g id="edge17_Node000008_Node000018" class="edge">
<title>Node8&#45;&gt;Node18</title>
<g id="a_edge17_Node000008_Node000018"><a xlink:title=" ">
<path fill="none" stroke="#63b8ff" d="M216.14,-200.33C210.58,-197.67 205.42,-194.29 201,-190 151.82,-142.23 211.95,-89.96 165,-40 161.35,-36.12 157.12,-32.83 152.53,-30.05"/>
<polygon fill="#63b8ff" stroke="#63b8ff" points="215.23,-203.73 225.82,-204.15 217.8,-197.22 215.23,-203.73"/>
</a>
</g>
</g>
</g>
</svg>

<g id="navigator" transform="translate(0 0)" fill="#404254">
  <rect fill="#f2f5e9" fill-opacity="0.5" stroke="#606060" stroke-width=".5" x="0" y="0" width="60" height="60"/>
  <use id="zoomplus" xlink:href="#zoomPlus" x="17" y="9" onmousedown="handleZoom(evt,'in')"/>
  <use id="zoomminus" xlink:href="#zoomMin" x="42" y="9" onmousedown="handleZoom(evt,'out')"/>
  <use id="reset" xlink:href="#resetDef" x="30" y="36" onmousedown="handleReset()"/>
   <use id="arrowup" xlink:href="#arrowUp" x="0" y="0" onmousedown="handlePan(0,-1)"/>
  <use id="arrowright" xlink:href="#arrowRight" x="0" y="0" onmousedown="handlePan(1,0)"/>
  <use id="arrowdown" xlink:href="#arrowDown" x="0" y="0" onmousedown="handlePan(0,1)"/>
  <use id="arrowleft" xlink:href="#arrowLeft" x="0" y="0" onmousedown="handlePan(-1,0)"/>
</g>
<svg viewBox="0 0 15 15" width="100%" height="30px" preserveAspectRatio="xMaxYMin meet">
 <g id="arrow_out" transform="scale(0.3 0.3)">
  <a xlink:href="classController_a769e4e81d545b126413501bb3f3e77c3_icgraph_org.svg" target="_base">
   <rect id="button" ry="5" rx="5" y="6" x="6" height="38" width="38"
        fill="#f2f5e9" fill-opacity="0.5" stroke="#606060" stroke-width="1.0"/>
   <path id="arrow"
     d="M 11.500037,31.436501 C 11.940474,20.09759 22.043105,11.32322 32.158766,21.979434 L 37.068811,17.246167 C 37.068811,17.246167 37.088388,32 37.088388,32 L 22.160133,31.978069 C 22.160133,31.978069 26.997745,27.140456 26.997745,27.140456 C 18.528582,18.264221 13.291696,25.230495 11.500037,31.436501 z"
     style="fill:#404040;"/>
  </a>
 </g>
</svg>

<style type='text/css'>
<![CDATA[
[data-mouse-over-selected='false'] { opacity: 0.7; }
[data-mouse-over-selected='true']  { opacity: 1.0; }
]]>
</style>
<script type="application/ecmascript"><![CDATA[
document.addEventListener('DOMContentLoaded', (event) => {
  highlightEdges();
  highlightAdjacentNodes();
});
]]></script>
</svg>
