<?xml version="1.0" encoding="UTF-8" standalone="no"?>
<!DOCTYPE svg PUBLIC "-//W3C//DTD SVG 1.1//EN"
 "http://www.w3.org/Graphics/SVG/1.1/DTD/svg11.dtd">
<!-- Generated by graphviz version 2.43.0 (0)
 -->
<!-- Title: ControllerUtilisateur\signup Pages: 1 -->
<svg width="412pt" height="140pt"
 viewBox="0.00 0.00 412.00 140.00" xmlns="http://www.w3.org/2000/svg" xmlns:xlink="http://www.w3.org/1999/xlink">
<g id="graph0" class="graph" transform="scale(1 1) rotate(0) translate(4 136)">
<title>ControllerUtilisateur\signup</title>
<!-- Node1 -->
<g id="Node000001" class="node">
<title>Node1</title>
<g id="a_Node000001"><a xlink:title="Gère l&#39;inscription d&#39;un nouvel utilisateur.">
<polygon fill="#999999" stroke="#666666" points="116,-81.5 0,-81.5 0,-51.5 116,-51.5 116,-81.5"/>
<text text-anchor="start" x="8" y="-69.5" font-family="Helvetica,sans-Serif" font-size="10.00">ControllerUtilisateur</text>
<text text-anchor="middle" x="58" y="-58.5" font-family="Helvetica,sans-Serif" font-size="10.00">\signup</text>
</a>
</g>
</g>
<!-- Node2 -->
<g id="Node000002" class="node">
<title>Node2</title>
<g id="a_Node000002"><a xlink:href="classController.html#aed88cab8d9c1a6735fd3aac0993e5021" target="_top" xlink:title="Récupère la connexion PDO.">
<polygon fill="white" stroke="#666666" points="259.5,-132 155.5,-132 155.5,-113 259.5,-113 259.5,-132"/>
<text text-anchor="middle" x="207.5" y="-120" font-family="Helvetica,sans-Serif" font-size="10.00">Controller\getPDO</text>
</a>
</g>
</g>
<!-- Node1&#45;&gt;Node2 -->
<g id="edge1_Node000001_Node000002" class="edge">
<title>Node1&#45;&gt;Node2</title>
<g id="a_edge1_Node000001_Node000002"><a xlink:title=" ">
<path fill="none" stroke="#63b8ff" d="M94.11,-81.51C111.42,-88.75 132.69,-97.38 152,-104.5 156.79,-106.27 161.84,-108.04 166.85,-109.76"/>
<polygon fill="#63b8ff" stroke="#63b8ff" points="165.79,-113.1 176.39,-112.97 168.02,-106.46 165.79,-113.1"/>
</a>
</g>
</g>
<!-- Node3 -->
<g id="Node000003" class="node">
<title>Node3</title>
<g id="a_Node000003"><a xlink:href="classController.html#a0a0442c56d3fede8d9d7c2c24a04839c" target="_top" xlink:title="Récupère les données POST.">
<polygon fill="white" stroke="#666666" points="259.5,-95 155.5,-95 155.5,-76 259.5,-76 259.5,-95"/>
<text text-anchor="middle" x="207.5" y="-83" font-family="Helvetica,sans-Serif" font-size="10.00">Controller\getPost</text>
</a>
</g>
</g>
<!-- Node1&#45;&gt;Node3 -->
<g id="edge2_Node000001_Node000003" class="edge">
<title>Node1&#45;&gt;Node3</title>
<g id="a_edge2_Node000001_Node000003"><a xlink:title=" ">
<path fill="none" stroke="#63b8ff" d="M116.03,-73.85C125.65,-75.09 135.68,-76.38 145.41,-77.63"/>
<polygon fill="#63b8ff" stroke="#63b8ff" points="145.04,-81.11 155.4,-78.92 145.93,-74.17 145.04,-81.11"/>
</a>
</g>
</g>
<!-- Node4 -->
<g id="Node000004" class="node">
<title>Node4</title>
<g id="a_Node000004"><a xlink:href="classController.html#afd7d94db564ae6e196ac7ac0461e0989" target="_top" xlink:title="Récupère l&#39;environnement Twig.">
<polygon fill="white" stroke="#666666" points="404,-38 299,-38 299,-19 404,-19 404,-38"/>
<text text-anchor="middle" x="351.5" y="-26" font-family="Helvetica,sans-Serif" font-size="10.00">Controller\getTwig</text>
</a>
</g>
</g>
<!-- Node1&#45;&gt;Node4 -->
<g id="edge3_Node000001_Node000004" class="edge">
<title>Node1&#45;&gt;Node4</title>
<g id="a_edge3_Node000001_Node000004"><a xlink:title=" ">
<path fill="none" stroke="#63b8ff" d="M116.24,-59.04C165.88,-52.57 237.56,-43.22 288.54,-36.58"/>
<polygon fill="#63b8ff" stroke="#63b8ff" points="289.3,-40.01 298.76,-35.24 288.39,-33.07 289.3,-40.01"/>
</a>
</g>
</g>
<!-- Node5 -->
<g id="Node000005" class="node">
<title>Node5</title>
<g id="a_Node000005"><a xlink:href="classController.html#a566566403ccbb3fcb71380014da08c46" target="_top" xlink:title="Affiche une erreur 405 Méthode non autorisée.">
<polygon fill="white" stroke="#666666" points="263,-19 152,-19 152,0 263,0 263,-19"/>
<text text-anchor="middle" x="207.5" y="-7" font-family="Helvetica,sans-Serif" font-size="10.00">Controller\show405</text>
</a>
</g>
</g>
<!-- Node1&#45;&gt;Node5 -->
<g id="edge4_Node000001_Node000005" class="edge">
<title>Node1&#45;&gt;Node5</title>
<g id="a_edge4_Node000001_Node000005"><a xlink:title=" ">
<path fill="none" stroke="#63b8ff" d="M98.14,-51.37C121.19,-42.47 150.07,-31.31 172.21,-22.75"/>
<polygon fill="#63b8ff" stroke="#63b8ff" points="173.5,-26.01 181.56,-19.14 170.97,-19.48 173.5,-26.01"/>
</a>
</g>
</g>
<!-- Node5&#45;&gt;Node4 -->
<g id="edge5_Node000005_Node000004" class="edge">
<title>Node5&#45;&gt;Node4</title>
<g id="a_edge5_Node000005_Node000004"><a xlink:title=" ">
<path fill="none" stroke="#63b8ff" d="M263.4,-16.85C271.61,-17.94 280.13,-19.08 288.47,-20.2"/>
<polygon fill="#63b8ff" stroke="#63b8ff" points="288.16,-23.69 298.54,-21.55 289.09,-16.75 288.16,-23.69"/>
</a>
</g>
</g>
</g>
</svg>
