<?xml version="1.0" encoding="UTF-8" standalone="no"?>
<!DOCTYPE svg PUBLIC "-//W3C//DTD SVG 1.1//EN"
 "http://www.w3.org/Graphics/SVG/1.1/DTD/svg11.dtd">
<!-- Generated by graphviz version 2.43.0 (0)
 -->
<!-- Title: Email\createMailer Pages: 1 -->
<svg width="663pt" height="175pt"
 viewBox="0.00 0.00 663.00 175.00" xmlns="http://www.w3.org/2000/svg" xmlns:xlink="http://www.w3.org/1999/xlink">
<g id="graph0" class="graph" transform="scale(1 1) rotate(0) translate(4 171)">
<title>Email\createMailer</title>
<!-- Node1 -->
<g id="Node000001" class="node">
<title>Node1</title>
<g id="a_Node000001"><a xlink:title="Crée et configure une instance PHPMailer.">
<polygon fill="#999999" stroke="#666666" points="655,-93 546,-93 546,-74 655,-74 655,-93"/>
<text text-anchor="middle" x="600.5" y="-81" font-family="Helvetica,sans-Serif" font-size="10.00">Email\createMailer</text>
</a>
</g>
</g>
<!-- Node2 -->
<g id="Node000002" class="node">
<title>Node2</title>
<g id="a_Node000002"><a xlink:href="classEmail.html#a0912c368e838674b441f50dafdeb9201" target="_top" xlink:title="Envoie un email de contact (depuis le formulaire de contact)">
<polygon fill="white" stroke="#666666" points="505,-130 369,-130 369,-111 505,-111 505,-130"/>
<text text-anchor="middle" x="437" y="-118" font-family="Helvetica,sans-Serif" font-size="10.00">Email\sendContactEmail</text>
</a>
</g>
</g>
<!-- Node1&#45;&gt;Node2 -->
<g id="edge1_Node000001_Node000002" class="edge">
<title>Node1&#45;&gt;Node2</title>
<g id="a_edge1_Node000001_Node000002"><a xlink:title=" ">
<path fill="none" stroke="#63b8ff" d="M548.05,-95.29C526,-100.34 500.58,-106.16 479.73,-110.94"/>
<polygon fill="#63b8ff" stroke="#63b8ff" points="548.94,-98.67 557.91,-93.03 547.38,-91.85 548.94,-98.67"/>
</a>
</g>
</g>
<!-- Node3 -->
<g id="Node000003" class="node">
<title>Node3</title>
<g id="a_Node000003"><a xlink:href="classEmail.html#a9aca469b70f5907964a1ee99dc76d787" target="_top" xlink:title="Envoie un email générique.">
<polygon fill="white" stroke="#666666" points="486,-93 388,-93 388,-74 486,-74 486,-93"/>
<text text-anchor="middle" x="437" y="-81" font-family="Helvetica,sans-Serif" font-size="10.00">Email\sendEmail</text>
</a>
</g>
</g>
<!-- Node1&#45;&gt;Node3 -->
<g id="edge2_Node000001_Node000003" class="edge">
<title>Node1&#45;&gt;Node3</title>
<g id="a_edge2_Node000001_Node000003"><a xlink:title=" ">
<path fill="none" stroke="#63b8ff" d="M535.61,-83.5C519.12,-83.5 501.64,-83.5 486.11,-83.5"/>
<polygon fill="#63b8ff" stroke="#63b8ff" points="535.72,-87 545.72,-83.5 535.72,-80 535.72,-87"/>
</a>
</g>
</g>
<!-- Node11 -->
<g id="Node000011" class="node">
<title>Node11</title>
<g id="a_Node000011"><a xlink:href="classEmail.html#adb3c39da6c3f5b2f6267879edc6e5ed5" target="_top" xlink:title="Teste la configuration SMTP.">
<polygon fill="white" stroke="#666666" points="510,-56 364,-56 364,-37 510,-37 510,-56"/>
<text text-anchor="middle" x="437" y="-44" font-family="Helvetica,sans-Serif" font-size="10.00">Email\testSmtpConnection</text>
</a>
</g>
</g>
<!-- Node1&#45;&gt;Node11 -->
<g id="edge10_Node000001_Node000011" class="edge">
<title>Node1&#45;&gt;Node11</title>
<g id="a_edge10_Node000001_Node000011"><a xlink:title=" ">
<path fill="none" stroke="#63b8ff" d="M548.05,-71.71C526,-66.66 500.58,-60.84 479.73,-56.06"/>
<polygon fill="#63b8ff" stroke="#63b8ff" points="547.38,-75.15 557.91,-73.97 548.94,-68.33 547.38,-75.15"/>
</a>
</g>
</g>
<!-- Node4 -->
<g id="Node000004" class="node">
<title>Node4</title>
<g id="a_Node000004"><a xlink:href="classEmail.html#a8c71ec8d159d28e642c37888d94d7aa2" target="_top" xlink:title="Envoie un email de confirmation d&#39;inscription.">
<polygon fill="white" stroke="#666666" points="322.5,-167 161.5,-167 161.5,-148 322.5,-148 322.5,-167"/>
<text text-anchor="middle" x="242" y="-155" font-family="Helvetica,sans-Serif" font-size="10.00">Email\sendConfirmationEmail</text>
</a>
</g>
</g>
<!-- Node3&#45;&gt;Node4 -->
<g id="edge3_Node000003_Node000004" class="edge">
<title>Node3&#45;&gt;Node4</title>
<g id="a_edge3_Node000003_Node000004"><a xlink:title=" ">
<path fill="none" stroke="#63b8ff" d="M378.12,-95.74C373.2,-97.68 368.42,-99.92 364,-102.5 344.19,-114.07 348.09,-128.42 328,-139.5 321.79,-142.92 315,-145.7 308.04,-147.94"/>
<polygon fill="#63b8ff" stroke="#63b8ff" points="379.42,-98.99 387.69,-92.37 377.09,-92.39 379.42,-98.99"/>
</a>
</g>
</g>
<!-- Node5 -->
<g id="Node000005" class="node">
<title>Node5</title>
<g id="a_Node000005"><a xlink:href="classEmail.html#a1ebc55f26145ec1d583b272e84c9c480" target="_top" xlink:title="Envoie un email de newsletter.">
<polygon fill="white" stroke="#666666" points="318,-130 166,-130 166,-111 318,-111 318,-130"/>
<text text-anchor="middle" x="242" y="-118" font-family="Helvetica,sans-Serif" font-size="10.00">Email\sendNewsletterEmail</text>
</a>
</g>
</g>
<!-- Node3&#45;&gt;Node5 -->
<g id="edge4_Node000003_Node000005" class="edge">
<title>Node3&#45;&gt;Node5</title>
<g id="a_edge4_Node000003_Node000005"><a xlink:title=" ">
<path fill="none" stroke="#63b8ff" d="M377.65,-94.69C350.51,-99.89 318.56,-106.01 292.6,-110.99"/>
<polygon fill="#63b8ff" stroke="#63b8ff" points="378.63,-98.06 387.8,-92.74 377.32,-91.19 378.63,-98.06"/>
</a>
</g>
</g>
<!-- Node7 -->
<g id="Node000007" class="node">
<title>Node7</title>
<g id="a_Node000007"><a xlink:href="classEmail.html#a0ee4dc977a9847d4d23c72a2e708337e" target="_top" xlink:title="Envoie un email de notification (nouvel album, nouveau follower, etc.)">
<polygon fill="white" stroke="#666666" points="319.5,-93 164.5,-93 164.5,-74 319.5,-74 319.5,-93"/>
<text text-anchor="middle" x="242" y="-81" font-family="Helvetica,sans-Serif" font-size="10.00">Email\sendNotificationEmail</text>
</a>
</g>
</g>
<!-- Node3&#45;&gt;Node7 -->
<g id="edge6_Node000003_Node000007" class="edge">
<title>Node3&#45;&gt;Node7</title>
<g id="a_edge6_Node000003_Node000007"><a xlink:title=" ">
<path fill="none" stroke="#63b8ff" d="M377.64,-83.5C359.45,-83.5 339.1,-83.5 319.84,-83.5"/>
<polygon fill="#63b8ff" stroke="#63b8ff" points="377.8,-87 387.8,-83.5 377.8,-80 377.8,-87"/>
</a>
</g>
</g>
<!-- Node8 -->
<g id="Node000008" class="node">
<title>Node8</title>
<g id="a_Node000008"><a xlink:href="classEmail.html#a71c29bcbebc4fb0e32b9bd382c334cbc" target="_top" xlink:title="Envoie un email de réinitialisation de mot de passe.">
<polygon fill="white" stroke="#666666" points="328,-56 156,-56 156,-37 328,-37 328,-56"/>
<text text-anchor="middle" x="242" y="-44" font-family="Helvetica,sans-Serif" font-size="10.00">Email\sendPasswordResetEmail</text>
</a>
</g>
</g>
<!-- Node3&#45;&gt;Node8 -->
<g id="edge7_Node000003_Node000008" class="edge">
<title>Node3&#45;&gt;Node8</title>
<g id="a_edge7_Node000003_Node000008"><a xlink:title=" ">
<path fill="none" stroke="#63b8ff" d="M377.65,-72.31C350.51,-67.11 318.56,-60.99 292.6,-56.01"/>
<polygon fill="#63b8ff" stroke="#63b8ff" points="377.32,-75.81 387.8,-74.26 378.63,-68.94 377.32,-75.81"/>
</a>
</g>
</g>
<!-- Node9 -->
<g id="Node000009" class="node">
<title>Node9</title>
<g id="a_Node000009"><a xlink:href="classEmail.html#a67accca2885af8491566d685127f069c" target="_top" xlink:title="Envoie un email de bienvenue à un nouvel utilisateur.">
<polygon fill="white" stroke="#666666" points="313.5,-19 170.5,-19 170.5,0 313.5,0 313.5,-19"/>
<text text-anchor="middle" x="242" y="-7" font-family="Helvetica,sans-Serif" font-size="10.00">Email\sendWelcomeEmail</text>
</a>
</g>
</g>
<!-- Node3&#45;&gt;Node9 -->
<g id="edge8_Node000003_Node000009" class="edge">
<title>Node3&#45;&gt;Node9</title>
<g id="a_edge8_Node000003_Node000009"><a xlink:title=" ">
<path fill="none" stroke="#63b8ff" d="M378.12,-72.11C373.2,-70.23 368.42,-68.04 364,-65.5 344.11,-54.06 348.03,-39.69 328,-28.5 321,-24.59 313.26,-21.49 305.38,-19.02"/>
<polygon fill="#63b8ff" stroke="#63b8ff" points="377.1,-75.46 387.69,-75.37 379.35,-68.84 377.1,-75.46"/>
</a>
</g>
</g>
<!-- Node6 -->
<g id="Node000006" class="node">
<title>Node6</title>
<g id="a_Node000006"><a xlink:href="classEmail.html#ace294aab67bdd1728f4b95ead374f3d9" target="_top" xlink:title="Envoie un email en masse à plusieurs destinataires (pour la newsletter)">
<polygon fill="white" stroke="#666666" points="120,-130 0,-130 0,-111 120,-111 120,-130"/>
<text text-anchor="middle" x="60" y="-118" font-family="Helvetica,sans-Serif" font-size="10.00">Email\sendBulkEmail</text>
</a>
</g>
</g>
<!-- Node5&#45;&gt;Node6 -->
<g id="edge5_Node000005_Node000006" class="edge">
<title>Node5&#45;&gt;Node6</title>
<g id="a_edge5_Node000005_Node000006"><a xlink:title=" ">
<path fill="none" stroke="#63b8ff" d="M155.84,-120.5C143.72,-120.5 131.48,-120.5 120.01,-120.5"/>
<polygon fill="#63b8ff" stroke="#63b8ff" points="155.97,-124 165.97,-120.5 155.97,-117 155.97,-124"/>
</a>
</g>
</g>
<!-- Node10 -->
<g id="Node000010" class="node">
<title>Node10</title>
<g id="a_Node000010"><a xlink:href="classEmail.html#a84786f0307c864ddd7cfb12acba129b3" target="_top" xlink:title="Fonction de test simple de la classe Email avec un nom et un email factices.">
<polygon fill="white" stroke="#666666" points="107,-19 13,-19 13,0 107,0 107,-19"/>
<text text-anchor="middle" x="60" y="-7" font-family="Helvetica,sans-Serif" font-size="10.00">Email\testEmail</text>
</a>
</g>
</g>
<!-- Node9&#45;&gt;Node10 -->
<g id="edge9_Node000009_Node000010" class="edge">
<title>Node9&#45;&gt;Node10</title>
<g id="a_edge9_Node000009_Node000010"><a xlink:title=" ">
<path fill="none" stroke="#63b8ff" d="M160.31,-9.5C142.07,-9.5 123.3,-9.5 107.07,-9.5"/>
<polygon fill="#63b8ff" stroke="#63b8ff" points="160.38,-13 170.38,-9.5 160.38,-6 160.38,-13"/>
</a>
</g>
</g>
</g>
</svg>
