<?xml version="1.0" encoding="UTF-8" standalone="no"?>
<!DOCTYPE svg PUBLIC "-//W3C//DTD SVG 1.1//EN"
 "http://www.w3.org/Graphics/SVG/1.1/DTD/svg11.dtd">
<!-- Generated by graphviz version 2.43.0 (0)
 -->
<!-- Title: ControllerHome\auditeurDashboard Pages: 1 -->
<svg width="339pt" height="64pt"
 viewBox="0.00 0.00 339.00 64.00" xmlns="http://www.w3.org/2000/svg" xmlns:xlink="http://www.w3.org/1999/xlink">
<g id="graph0" class="graph" transform="scale(1 1) rotate(0) translate(4 60)">
<title>ControllerHome\auditeurDashboard</title>
<!-- Node1 -->
<g id="Node000001" class="node">
<title>Node1</title>
<g id="a_Node000001"><a xlink:title="Affiche le tableau de bord de l&#39;auditeur connecté.">
<polygon fill="#999999" stroke="#666666" points="190,-37 0,-37 0,-18 190,-18 190,-37"/>
<text text-anchor="middle" x="95" y="-25" font-family="Helvetica,sans-Serif" font-size="10.00">ControllerHome\auditeurDashboard</text>
</a>
</g>
</g>
<!-- Node2 -->
<g id="Node000002" class="node">
<title>Node2</title>
<g id="a_Node000002"><a xlink:href="classController.html#aed88cab8d9c1a6735fd3aac0993e5021" target="_top" xlink:title="Récupère la connexion PDO.">
<polygon fill="white" stroke="#666666" points="330.5,-56 226.5,-56 226.5,-37 330.5,-37 330.5,-56"/>
<text text-anchor="middle" x="278.5" y="-44" font-family="Helvetica,sans-Serif" font-size="10.00">Controller\getPDO</text>
</a>
</g>
</g>
<!-- Node1&#45;&gt;Node2 -->
<g id="edge1_Node000001_Node000002" class="edge">
<title>Node1&#45;&gt;Node2</title>
<g id="a_edge1_Node000001_Node000002"><a xlink:title=" ">
<path fill="none" stroke="#63b8ff" d="M187.02,-37.03C196.89,-38.06 206.76,-39.09 216.16,-40.08"/>
<polygon fill="#63b8ff" stroke="#63b8ff" points="215.84,-43.56 226.15,-41.12 216.56,-36.6 215.84,-43.56"/>
</a>
</g>
</g>
<!-- Node3 -->
<g id="Node000003" class="node">
<title>Node3</title>
<g id="a_Node000003"><a xlink:href="classController.html#afd7d94db564ae6e196ac7ac0461e0989" target="_top" xlink:title="Récupère l&#39;environnement Twig.">
<polygon fill="white" stroke="#666666" points="331,-19 226,-19 226,0 331,0 331,-19"/>
<text text-anchor="middle" x="278.5" y="-7" font-family="Helvetica,sans-Serif" font-size="10.00">Controller\getTwig</text>
</a>
</g>
</g>
<!-- Node1&#45;&gt;Node3 -->
<g id="edge2_Node000001_Node000003" class="edge">
<title>Node1&#45;&gt;Node3</title>
<g id="a_edge2_Node000001_Node000003"><a xlink:title=" ">
<path fill="none" stroke="#63b8ff" d="M190.21,-18.16C198.82,-17.3 207.4,-16.45 215.62,-15.64"/>
<polygon fill="#63b8ff" stroke="#63b8ff" points="216.22,-19.09 225.83,-14.62 215.53,-12.13 216.22,-19.09"/>
</a>
</g>
</g>
</g>
</svg>
