<?xml version="1.0" encoding="UTF-8" standalone="no"?>
<!DOCTYPE svg PUBLIC "-//W3C//DTD SVG 1.1//EN"
 "http://www.w3.org/Graphics/SVG/1.1/DTD/svg11.dtd">
<!-- Generated by graphviz version 2.43.0 (0)
 -->
<!-- Title: AlbumDAO\hydrateMany Pages: 1 -->
<svg width="324pt" height="113pt"
 viewBox="0.00 0.00 324.00 113.00" xmlns="http://www.w3.org/2000/svg" xmlns:xlink="http://www.w3.org/1999/xlink">
<g id="graph0" class="graph" transform="scale(1 1) rotate(0) translate(4 109)">
<title>AlbumDAO\hydrateMany</title>
<!-- Node1 -->
<g id="Node000001" class="node">
<title>Node1</title>
<g id="a_Node000001"><a xlink:title="Hydrate plusieurs albums à partir d&#39;un tableau de tableaux associatifs.">
<polygon fill="#999999" stroke="#666666" points="316,-62 179,-62 179,-43 316,-43 316,-62"/>
<text text-anchor="middle" x="247.5" y="-50" font-family="Helvetica,sans-Serif" font-size="10.00">AlbumDAO\hydrateMany</text>
</a>
</g>
</g>
<!-- Node2 -->
<g id="Node000002" class="node">
<title>Node2</title>
<g id="a_Node000002"><a xlink:href="classAlbumDAO.html#a994a65f33e2f7764e7547a2e7409855f" target="_top" xlink:title="Récupère tous les albums de la base de données.">
<polygon fill="white" stroke="#666666" points="123.5,-105 19.5,-105 19.5,-86 123.5,-86 123.5,-105"/>
<text text-anchor="middle" x="71.5" y="-93" font-family="Helvetica,sans-Serif" font-size="10.00">AlbumDAO\findAll</text>
</a>
</g>
</g>
<!-- Node1&#45;&gt;Node2 -->
<g id="edge1_Node000001_Node000002" class="edge">
<title>Node1&#45;&gt;Node2</title>
<g id="a_edge1_Node000001_Node000002"><a xlink:title=" ">
<path fill="none" stroke="#63b8ff" d="M198.08,-64.47C170.59,-71.26 136.67,-79.64 111.01,-85.98"/>
<polygon fill="#63b8ff" stroke="#63b8ff" points="199.02,-67.84 207.88,-62.04 197.34,-61.04 199.02,-67.84"/>
</a>
</g>
</g>
<!-- Node3 -->
<g id="Node000003" class="node">
<title>Node3</title>
<g id="a_Node000003"><a xlink:href="classAlbumDAO.html#ab01d941e55482986f0ebe0988915335d" target="_top" xlink:title="Récupère les albums d&#39;un artiste en utilisant son email.">
<polygon fill="white" stroke="#666666" points="143,-67.5 0,-67.5 0,-37.5 143,-37.5 143,-67.5"/>
<text text-anchor="start" x="8" y="-55.5" font-family="Helvetica,sans-Serif" font-size="10.00">AlbumDAO\findAllByArtist</text>
<text text-anchor="middle" x="71.5" y="-44.5" font-family="Helvetica,sans-Serif" font-size="10.00">Email</text>
</a>
</g>
</g>
<!-- Node1&#45;&gt;Node3 -->
<g id="edge2_Node000001_Node000003" class="edge">
<title>Node1&#45;&gt;Node3</title>
<g id="a_edge2_Node000001_Node000003"><a xlink:title=" ">
<path fill="none" stroke="#63b8ff" d="M168.53,-52.5C160.11,-52.5 151.58,-52.5 143.25,-52.5"/>
<polygon fill="#63b8ff" stroke="#63b8ff" points="168.73,-56 178.73,-52.5 168.73,-49 168.73,-56"/>
</a>
</g>
</g>
<!-- Node4 -->
<g id="Node000004" class="node">
<title>Node4</title>
<g id="a_Node000004"><a xlink:href="classAlbumDAO.html#a2cefe4747ac3d75c28c42f390b4d3787" target="_top" xlink:title="Récupère les albums d&#39;un artiste en utilisant son pseudo.">
<polygon fill="white" stroke="#666666" points="139.5,-19 3.5,-19 3.5,0 139.5,0 139.5,-19"/>
<text text-anchor="middle" x="71.5" y="-7" font-family="Helvetica,sans-Serif" font-size="10.00">AlbumDAO\findByArtiste</text>
</a>
</g>
</g>
<!-- Node1&#45;&gt;Node4 -->
<g id="edge3_Node000001_Node000004" class="edge">
<title>Node1&#45;&gt;Node4</title>
<g id="a_edge3_Node000001_Node000004"><a xlink:title=" ">
<path fill="none" stroke="#63b8ff" d="M198.08,-40.53C170.59,-33.74 136.67,-25.36 111.01,-19.02"/>
<polygon fill="#63b8ff" stroke="#63b8ff" points="197.34,-43.96 207.88,-42.96 199.02,-37.16 197.34,-43.96"/>
</a>
</g>
</g>
</g>
</svg>
