<?xml version="1.0" encoding="UTF-8" standalone="no"?>
<!DOCTYPE svg PUBLIC "-//W3C//DTD SVG 1.1//EN"
 "http://www.w3.org/Graphics/SVG/1.1/DTD/svg11.dtd">
<!-- Generated by graphviz version 2.43.0 (0)
 -->
<!-- Title: ControllerUtilisateur\resetPassword Pages: 1 -->
<svg width="417pt" height="151pt"
 viewBox="0.00 0.00 417.00 150.50" xmlns="http://www.w3.org/2000/svg" xmlns:xlink="http://www.w3.org/1999/xlink">

<svg id="main" version="1.1" xmlns="http://www.w3.org/2000/svg" xmlns:xlink="http://www.w3.org/1999/xlink" xml:space="preserve" onload="init(evt)">
<style type="text/css"><![CDATA[
.node, .edge {opacity: 0.7;}
.node.selected, .edge.selected {opacity: 1;}
.edge:hover path { stroke: red; }
.edge:hover polygon { stroke: red; fill: red; }
]]></style>
<script type="application/ecmascript" xlink:href="svg.min.js"/>
<svg id="graph" class="graph">
<g id="graph0" class="graph" transform="scale(1 1) rotate(0) translate(4 146.5)">
<title>ControllerUtilisateur\resetPassword</title>
<!-- Node1 -->
<g id="Node000001" class="node">
<title>Node1</title>
<g id="a_Node000001"><a xlink:title="Affiche le formulaire de réinitialisation de mot de passe.">
<polygon fill="#999999" stroke="#666666" points="116,-80.5 0,-80.5 0,-50.5 116,-50.5 116,-80.5"/>
<text text-anchor="start" x="8" y="-68.5" font-family="Helvetica,sans-Serif" font-size="10.00">ControllerUtilisateur</text>
<text text-anchor="middle" x="58" y="-57.5" font-family="Helvetica,sans-Serif" font-size="10.00">\resetPassword</text>
</a>
</g>
</g>
<!-- Node2 -->
<g id="Node000002" class="node">
<title>Node2</title>
<g id="a_Node000002"><a xlink:href="classControllerUtilisateur.html#a5af8eb843ecdd62295b8004aa9f5949c" target="_top" xlink:title="Affiche une page d&#39;erreur pour les tokens invalides.">
<polygon fill="white" stroke="#666666" points="268,-142.5 152,-142.5 152,-112.5 268,-112.5 268,-142.5"/>
<text text-anchor="start" x="160" y="-130.5" font-family="Helvetica,sans-Serif" font-size="10.00">ControllerUtilisateur</text>
<text text-anchor="middle" x="210" y="-119.5" font-family="Helvetica,sans-Serif" font-size="10.00">\afficherErreurToken</text>
</a>
</g>
</g>
<!-- Node1&#45;&gt;Node2 -->
<g id="edge1_Node000001_Node000002" class="edge">
<title>Node1&#45;&gt;Node2</title>
<g id="a_edge1_Node000001_Node000002"><a xlink:title=" ">
<path fill="none" stroke="#63b8ff" d="M95.31,-80.51C115.7,-88.94 141.35,-99.54 163.12,-108.54"/>
<polygon fill="#63b8ff" stroke="#63b8ff" points="161.93,-111.83 172.5,-112.41 164.6,-105.36 161.93,-111.83"/>
</a>
</g>
</g>
<!-- Node3 -->
<g id="Node000003" class="node">
<title>Node3</title>
<g id="a_Node000003"><a xlink:href="classController.html#afd7d94db564ae6e196ac7ac0461e0989" target="_top" xlink:title="Récupère l&#39;environnement Twig.">
<polygon fill="white" stroke="#666666" points="409,-115 304,-115 304,-96 409,-96 409,-115"/>
<text text-anchor="middle" x="356.5" y="-103" font-family="Helvetica,sans-Serif" font-size="10.00">Controller\getTwig</text>
</a>
</g>
</g>
<!-- Node1&#45;&gt;Node3 -->
<g id="edge5_Node000001_Node000003" class="edge">
<title>Node1&#45;&gt;Node3</title>
<g id="a_edge5_Node000001_Node000003"><a xlink:title=" ">
<path fill="none" stroke="#63b8ff" d="M116.17,-73.21C167.13,-80.09 241.52,-90.12 293.81,-97.18"/>
<polygon fill="#63b8ff" stroke="#63b8ff" points="293.58,-100.68 303.96,-98.55 294.52,-93.74 293.58,-100.68"/>
</a>
</g>
</g>
<!-- Node4 -->
<g id="Node000004" class="node">
<title>Node4</title>
<g id="a_Node000004"><a xlink:href="classController.html#a699129049cd445b20aafdd61666741c9" target="_top" xlink:title="Récupère les données GET.">
<polygon fill="white" stroke="#666666" points="260.5,-56 159.5,-56 159.5,-37 260.5,-37 260.5,-56"/>
<text text-anchor="middle" x="210" y="-44" font-family="Helvetica,sans-Serif" font-size="10.00">Controller\getGet</text>
</a>
</g>
</g>
<!-- Node1&#45;&gt;Node4 -->
<g id="edge3_Node000001_Node000004" class="edge">
<title>Node1&#45;&gt;Node4</title>
<g id="a_edge3_Node000001_Node000004"><a xlink:title=" ">
<path fill="none" stroke="#63b8ff" d="M116.14,-58.26C127.04,-56.88 138.48,-55.43 149.45,-54.04"/>
<polygon fill="#63b8ff" stroke="#63b8ff" points="149.89,-57.51 159.37,-52.79 149.01,-50.57 149.89,-57.51"/>
</a>
</g>
</g>
<!-- Node5 -->
<g id="Node000005" class="node">
<title>Node5</title>
<g id="a_Node000005"><a xlink:href="classController.html#aed88cab8d9c1a6735fd3aac0993e5021" target="_top" xlink:title="Récupère la connexion PDO.">
<polygon fill="white" stroke="#666666" points="262,-19 158,-19 158,0 262,0 262,-19"/>
<text text-anchor="middle" x="210" y="-7" font-family="Helvetica,sans-Serif" font-size="10.00">Controller\getPDO</text>
</a>
</g>
</g>
<!-- Node1&#45;&gt;Node5 -->
<g id="edge4_Node000001_Node000005" class="edge">
<title>Node1&#45;&gt;Node5</title>
<g id="a_edge4_Node000001_Node000005"><a xlink:title=" ">
<path fill="none" stroke="#63b8ff" d="M95.48,-50.43C112.56,-43.52 133.23,-35.36 152,-28.5 157.65,-26.44 163.64,-24.34 169.54,-22.33"/>
<polygon fill="#63b8ff" stroke="#63b8ff" points="170.94,-25.55 179.3,-19.04 168.71,-18.91 170.94,-25.55"/>
</a>
</g>
</g>
<!-- Node2&#45;&gt;Node3 -->
<g id="edge2_Node000002_Node000003" class="edge">
<title>Node2&#45;&gt;Node3</title>
<g id="a_edge2_Node000002_Node000003"><a xlink:title=" ">
<path fill="none" stroke="#63b8ff" d="M268.11,-118.81C276.62,-117.51 285.41,-116.17 294,-114.86"/>
<polygon fill="#63b8ff" stroke="#63b8ff" points="294.6,-118.31 303.96,-113.35 293.55,-111.39 294.6,-118.31"/>
</a>
</g>
</g>
</g>
</svg>
</svg>

<style type='text/css'>
<![CDATA[
[data-mouse-over-selected='false'] { opacity: 0.7; }
[data-mouse-over-selected='true']  { opacity: 1.0; }
]]>
</style>
<script type="application/ecmascript"><![CDATA[
document.addEventListener('DOMContentLoaded', (event) => {
  highlightEdges();
  highlightAdjacentNodes();
});
]]></script>
</svg>
