<?xml version="1.0" encoding="UTF-8" standalone="no"?>
<!DOCTYPE svg PUBLIC "-//W3C//DTD SVG 1.1//EN"
 "http://www.w3.org/Graphics/SVG/1.1/DTD/svg11.dtd">
<!-- Generated by graphviz version 2.43.0 (0)
 -->
<!-- Title: ControllerChanson Pages: 1 -->
<svg width="135pt" height="562pt"
 viewBox="0.00 0.00 135.00 562.00" xmlns="http://www.w3.org/2000/svg" xmlns:xlink="http://www.w3.org/1999/xlink">
<g id="graph0" class="graph" transform="scale(1 1) rotate(0) translate(4 558)">
<title>ControllerChanson</title>
<!-- Node1 -->
<g id="Node000001" class="node">
<title>Node1</title>
<g id="a_Node000001"><a xlink:title="Contrôleur dédié à la gestion des chansons.">
<polygon fill="#999999" stroke="transparent" points="127,-169 0,-169 0,0 127,0 127,-169"/>
<text text-anchor="start" x="18.5" y="-156.5" font-family="Helvetica,sans-Serif" font-size="10.00">ControllerChanson</text>
<text text-anchor="start" x="62" y="-141.5" font-family="Helvetica,sans-Serif" font-size="10.00"> </text>
<text text-anchor="start" x="4.5" y="-126.5" font-family="Helvetica,sans-Serif" font-size="10.00">+</text>
<text text-anchor="start" x="17.5" y="-126.5" font-family="Helvetica,sans-Serif" font-size="10.00">__construct()</text>
<text text-anchor="start" x="4.5" y="-111.5" font-family="Helvetica,sans-Serif" font-size="10.00">+</text>
<text text-anchor="start" x="17.5" y="-111.5" font-family="Helvetica,sans-Serif" font-size="10.00">afficher()</text>
<text text-anchor="start" x="4.5" y="-96.5" font-family="Helvetica,sans-Serif" font-size="10.00">+</text>
<text text-anchor="start" x="17.5" y="-96.5" font-family="Helvetica,sans-Serif" font-size="10.00">rechercherParTitre()</text>
<text text-anchor="start" x="4.5" y="-81.5" font-family="Helvetica,sans-Serif" font-size="10.00">+</text>
<text text-anchor="start" x="17.5" y="-81.5" font-family="Helvetica,sans-Serif" font-size="10.00">rechercherParAlbum()</text>
<text text-anchor="start" x="4.5" y="-66.5" font-family="Helvetica,sans-Serif" font-size="10.00">+</text>
<text text-anchor="start" x="17.5" y="-66.5" font-family="Helvetica,sans-Serif" font-size="10.00">lister()</text>
<text text-anchor="start" x="4.5" y="-51.5" font-family="Helvetica,sans-Serif" font-size="10.00">+</text>
<text text-anchor="start" x="17.5" y="-51.5" font-family="Helvetica,sans-Serif" font-size="10.00">listerTableau()</text>
<text text-anchor="start" x="4.5" y="-36.5" font-family="Helvetica,sans-Serif" font-size="10.00">+</text>
<text text-anchor="start" x="17.5" y="-36.5" font-family="Helvetica,sans-Serif" font-size="10.00">filtrerChanson()</text>
<text text-anchor="start" x="4.5" y="-21.5" font-family="Helvetica,sans-Serif" font-size="10.00">+</text>
<text text-anchor="start" x="17.5" y="-21.5" font-family="Helvetica,sans-Serif" font-size="10.00">toggleLike()</text>
<text text-anchor="start" x="4.5" y="-6.5" font-family="Helvetica,sans-Serif" font-size="10.00">+</text>
<text text-anchor="start" x="17.5" y="-6.5" font-family="Helvetica,sans-Serif" font-size="10.00">incrementEcoute()</text>
<polygon fill="#666666" stroke="#666666" points="0.5,-151.5 0.5,-151.5 127.5,-151.5 127.5,-151.5 0.5,-151.5"/>
<polygon fill="#666666" stroke="#666666" points="0.5,-136.5 0.5,-136.5 127.5,-136.5 127.5,-136.5 0.5,-136.5"/>
<polygon fill="none" stroke="#666666" points="0,0 0,-169 127,-169 127,0 0,0"/>
</a>
</g>
</g>
<!-- Node2 -->
<g id="Node000002" class="node">
<title>Node2</title>
<g id="a_Node000002"><a xlink:href="classController.html" target="_top" xlink:title="Classe de base pour tous les contrôleurs de l&#39;application.">
<polygon fill="white" stroke="transparent" points="115.5,-554 11.5,-554 11.5,-205 115.5,-205 115.5,-554"/>
<text text-anchor="start" x="39" y="-541.5" font-family="Helvetica,sans-Serif" font-size="10.00">Controller</text>
<text text-anchor="start" x="18" y="-526.5" font-family="Helvetica,sans-Serif" font-size="10.00">&#45;</text>
<text text-anchor="start" x="28.5" y="-526.5" font-family="Helvetica,sans-Serif" font-size="10.00">$pdo</text>
<text text-anchor="start" x="18" y="-511.5" font-family="Helvetica,sans-Serif" font-size="10.00">&#45;</text>
<text text-anchor="start" x="28.5" y="-511.5" font-family="Helvetica,sans-Serif" font-size="10.00">$loader</text>
<text text-anchor="start" x="18" y="-496.5" font-family="Helvetica,sans-Serif" font-size="10.00">&#45;</text>
<text text-anchor="start" x="28.5" y="-496.5" font-family="Helvetica,sans-Serif" font-size="10.00">$twig</text>
<text text-anchor="start" x="18" y="-481.5" font-family="Helvetica,sans-Serif" font-size="10.00">&#45;</text>
<text text-anchor="start" x="28.5" y="-481.5" font-family="Helvetica,sans-Serif" font-size="10.00">$get</text>
<text text-anchor="start" x="18" y="-466.5" font-family="Helvetica,sans-Serif" font-size="10.00">&#45;</text>
<text text-anchor="start" x="28.5" y="-466.5" font-family="Helvetica,sans-Serif" font-size="10.00">$post</text>
<text text-anchor="start" x="15.5" y="-451.5" font-family="Helvetica,sans-Serif" font-size="10.00">+</text>
<text text-anchor="start" x="28.5" y="-451.5" font-family="Helvetica,sans-Serif" font-size="10.00">__construct()</text>
<text text-anchor="start" x="15.5" y="-436.5" font-family="Helvetica,sans-Serif" font-size="10.00">+</text>
<text text-anchor="start" x="28.5" y="-436.5" font-family="Helvetica,sans-Serif" font-size="10.00">call()</text>
<text text-anchor="start" x="15.5" y="-421.5" font-family="Helvetica,sans-Serif" font-size="10.00">+</text>
<text text-anchor="start" x="28.5" y="-421.5" font-family="Helvetica,sans-Serif" font-size="10.00">getPDO()</text>
<text text-anchor="start" x="15.5" y="-406.5" font-family="Helvetica,sans-Serif" font-size="10.00">+</text>
<text text-anchor="start" x="28.5" y="-406.5" font-family="Helvetica,sans-Serif" font-size="10.00">setPDO()</text>
<text text-anchor="start" x="15.5" y="-391.5" font-family="Helvetica,sans-Serif" font-size="10.00">+</text>
<text text-anchor="start" x="28.5" y="-391.5" font-family="Helvetica,sans-Serif" font-size="10.00">getLoader()</text>
<text text-anchor="start" x="15.5" y="-376.5" font-family="Helvetica,sans-Serif" font-size="10.00">+</text>
<text text-anchor="start" x="28.5" y="-376.5" font-family="Helvetica,sans-Serif" font-size="10.00">setLoader()</text>
<text text-anchor="start" x="15.5" y="-361.5" font-family="Helvetica,sans-Serif" font-size="10.00">+</text>
<text text-anchor="start" x="28.5" y="-361.5" font-family="Helvetica,sans-Serif" font-size="10.00">getTwig()</text>
<text text-anchor="start" x="15.5" y="-346.5" font-family="Helvetica,sans-Serif" font-size="10.00">+</text>
<text text-anchor="start" x="28.5" y="-346.5" font-family="Helvetica,sans-Serif" font-size="10.00">setTwig()</text>
<text text-anchor="start" x="15.5" y="-331.5" font-family="Helvetica,sans-Serif" font-size="10.00">+</text>
<text text-anchor="start" x="28.5" y="-331.5" font-family="Helvetica,sans-Serif" font-size="10.00">getGet()</text>
<text text-anchor="start" x="15.5" y="-316.5" font-family="Helvetica,sans-Serif" font-size="10.00">+</text>
<text text-anchor="start" x="28.5" y="-316.5" font-family="Helvetica,sans-Serif" font-size="10.00">setGet()</text>
<text text-anchor="start" x="15.5" y="-301.5" font-family="Helvetica,sans-Serif" font-size="10.00">+</text>
<text text-anchor="start" x="28.5" y="-301.5" font-family="Helvetica,sans-Serif" font-size="10.00">getPost()</text>
<text text-anchor="start" x="15.5" y="-286.5" font-family="Helvetica,sans-Serif" font-size="10.00">+</text>
<text text-anchor="start" x="28.5" y="-286.5" font-family="Helvetica,sans-Serif" font-size="10.00">setPost()</text>
<text text-anchor="start" x="15.5" y="-271.5" font-family="Helvetica,sans-Serif" font-size="10.00">#</text>
<text text-anchor="start" x="28.5" y="-271.5" font-family="Helvetica,sans-Serif" font-size="10.00">requireAuth()</text>
<text text-anchor="start" x="15.5" y="-256.5" font-family="Helvetica,sans-Serif" font-size="10.00">#</text>
<text text-anchor="start" x="28.5" y="-256.5" font-family="Helvetica,sans-Serif" font-size="10.00">requireRole()</text>
<text text-anchor="start" x="15.5" y="-241.5" font-family="Helvetica,sans-Serif" font-size="10.00">#</text>
<text text-anchor="start" x="28.5" y="-241.5" font-family="Helvetica,sans-Serif" font-size="10.00">redirectTo()</text>
<text text-anchor="start" x="15.5" y="-226.5" font-family="Helvetica,sans-Serif" font-size="10.00">#</text>
<text text-anchor="start" x="28.5" y="-226.5" font-family="Helvetica,sans-Serif" font-size="10.00">show405()</text>
<text text-anchor="start" x="15.5" y="-211.5" font-family="Helvetica,sans-Serif" font-size="10.00">#</text>
<text text-anchor="start" x="28.5" y="-211.5" font-family="Helvetica,sans-Serif" font-size="10.00">requireAnyRole()</text>
<polygon fill="#666666" stroke="#666666" points="11.5,-536.5 11.5,-536.5 115.5,-536.5 115.5,-536.5 11.5,-536.5"/>
<polygon fill="#666666" stroke="#666666" points="11.5,-461.5 11.5,-461.5 26.5,-461.5 26.5,-461.5 11.5,-461.5"/>
<polygon fill="#666666" stroke="#666666" points="26.5,-461.5 26.5,-461.5 115.5,-461.5 115.5,-461.5 26.5,-461.5"/>
<polygon fill="none" stroke="#666666" points="11.5,-205 11.5,-554 115.5,-554 115.5,-205 11.5,-205"/>
</a>
</g>
</g>
<!-- Node2&#45;&gt;Node1 -->
<g id="edge1_Node000001_Node000002" class="edge">
<title>Node2&#45;&gt;Node1</title>
<g id="a_edge1_Node000001_Node000002"><a xlink:title=" ">
<path fill="none" stroke="#63b8ff" d="M56.95,-194.45C57.05,-185.81 57.17,-177.35 57.33,-169.22"/>
<polygon fill="none" stroke="#63b8ff" points="53.45,-194.64 56.86,-204.67 60.45,-194.71 53.45,-194.64"/>
</a>
</g>
</g>
<!-- Node2&#45;&gt;Node1 -->
<g id="edge2_Node000001_Node000002" class="edge">
<title>Node2&#45;&gt;Node1</title>
<g id="a_edge2_Node000001_Node000002"><a xlink:title=" ">
<path fill="none" stroke="#63b8ff" d="M70.05,-194.45C69.95,-185.81 69.83,-177.35 69.67,-169.22"/>
<polygon fill="none" stroke="#63b8ff" points="66.55,-194.71 70.14,-204.67 73.55,-194.64 66.55,-194.71"/>
</a>
</g>
</g>
</g>
</svg>
