<?xml version="1.0" encoding="UTF-8" standalone="no"?>
<!DOCTYPE svg PUBLIC "-//W3C//DTD SVG 1.1//EN"
 "http://www.w3.org/Graphics/SVG/1.1/DTD/svg11.dtd">
<!-- Generated by graphviz version 2.43.0 (0)
 -->
<!-- Title: UtilisateurDAO\findTrending Pages: 1 -->
<svg width="505pt" height="27pt"
 viewBox="0.00 0.00 505.00 27.00" xmlns="http://www.w3.org/2000/svg" xmlns:xlink="http://www.w3.org/1999/xlink">
<g id="graph0" class="graph" transform="scale(1 1) rotate(0) translate(4 23)">
<title>UtilisateurDAO\findTrending</title>
<!-- Node1 -->
<g id="Node000001" class="node">
<title>Node1</title>
<g id="a_Node000001"><a xlink:title="Récupère les artistes en tendance sur la plateforme.">
<polygon fill="#999999" stroke="#666666" points="152,-19 0,-19 0,0 152,0 152,-19"/>
<text text-anchor="middle" x="76" y="-7" font-family="Helvetica,sans-Serif" font-size="10.00">UtilisateurDAO\findTrending</text>
</a>
</g>
</g>
<!-- Node2 -->
<g id="Node000002" class="node">
<title>Node2</title>
<g id="a_Node000002"><a xlink:href="classUtilisateurDAO.html#ac3dabdb7502fad39bf2a68f38252f0a7" target="_top" xlink:title="Hydrate plusieurs utilisateurs à partir d&#39;un tableau de données.">
<polygon fill="white" stroke="#666666" points="331,-19 188,-19 188,0 331,0 331,-19"/>
<text text-anchor="middle" x="259.5" y="-7" font-family="Helvetica,sans-Serif" font-size="10.00">UtilisateurDAO\hydrateAll</text>
</a>
</g>
</g>
<!-- Node1&#45;&gt;Node2 -->
<g id="edge1_Node000001_Node000002" class="edge">
<title>Node1&#45;&gt;Node2</title>
<g id="a_edge1_Node000001_Node000002"><a xlink:title=" ">
<path fill="none" stroke="#63b8ff" d="M152.13,-9.5C160.52,-9.5 169.1,-9.5 177.55,-9.5"/>
<polygon fill="#63b8ff" stroke="#63b8ff" points="177.79,-13 187.79,-9.5 177.79,-6 177.79,-13"/>
</a>
</g>
</g>
<!-- Node3 -->
<g id="Node000003" class="node">
<title>Node3</title>
<g id="a_Node000003"><a xlink:href="classUtilisateurDAO.html#a1f8a8172fdd6a8b059a0ea0580dacb61" target="_top" xlink:title="Hydrate un tableau de données en une instance de Utilisateur.">
<polygon fill="white" stroke="#666666" points="497,-19 367,-19 367,0 497,0 497,-19"/>
<text text-anchor="middle" x="432" y="-7" font-family="Helvetica,sans-Serif" font-size="10.00">UtilisateurDAO\hydrate</text>
</a>
</g>
</g>
<!-- Node2&#45;&gt;Node3 -->
<g id="edge2_Node000002_Node000003" class="edge">
<title>Node2&#45;&gt;Node3</title>
<g id="a_edge2_Node000002_Node000003"><a xlink:title=" ">
<path fill="none" stroke="#63b8ff" d="M331.33,-9.5C339.72,-9.5 348.3,-9.5 356.74,-9.5"/>
<polygon fill="#63b8ff" stroke="#63b8ff" points="356.93,-13 366.93,-9.5 356.93,-6 356.93,-13"/>
</a>
</g>
</g>
</g>
</svg>
