<?xml version="1.0" encoding="UTF-8" standalone="no"?>
<!DOCTYPE svg PUBLIC "-//W3C//DTD SVG 1.1//EN"
 "http://www.w3.org/Graphics/SVG/1.1/DTD/svg11.dtd">
<!-- Generated by graphviz version 2.43.0 (0)
 -->
<!-- Title: Controller Pages: 1 -->
<svg width="1531pt" height="622pt"
 viewBox="0.00 0.00 1530.50 622.00" xmlns="http://www.w3.org/2000/svg" xmlns:xlink="http://www.w3.org/1999/xlink">
<g id="graph0" class="graph" transform="scale(1 1) rotate(0) translate(4 618)">
<title>Controller</title>
<!-- Node1 -->
<g id="Node000001" class="node">
<title>Node1</title>
<g id="a_Node000001"><a xlink:title="Classe de base pour tous les contrôleurs de l&#39;application.">
<polygon fill="#999999" stroke="transparent" points="802,-614 698,-614 698,-265 802,-265 802,-614"/>
<text text-anchor="start" x="725.5" y="-601.5" font-family="Helvetica,sans-Serif" font-size="10.00">Controller</text>
<text text-anchor="start" x="704.5" y="-586.5" font-family="Helvetica,sans-Serif" font-size="10.00">&#45;</text>
<text text-anchor="start" x="715" y="-586.5" font-family="Helvetica,sans-Serif" font-size="10.00">$pdo</text>
<text text-anchor="start" x="704.5" y="-571.5" font-family="Helvetica,sans-Serif" font-size="10.00">&#45;</text>
<text text-anchor="start" x="715" y="-571.5" font-family="Helvetica,sans-Serif" font-size="10.00">$loader</text>
<text text-anchor="start" x="704.5" y="-556.5" font-family="Helvetica,sans-Serif" font-size="10.00">&#45;</text>
<text text-anchor="start" x="715" y="-556.5" font-family="Helvetica,sans-Serif" font-size="10.00">$twig</text>
<text text-anchor="start" x="704.5" y="-541.5" font-family="Helvetica,sans-Serif" font-size="10.00">&#45;</text>
<text text-anchor="start" x="715" y="-541.5" font-family="Helvetica,sans-Serif" font-size="10.00">$get</text>
<text text-anchor="start" x="704.5" y="-526.5" font-family="Helvetica,sans-Serif" font-size="10.00">&#45;</text>
<text text-anchor="start" x="715" y="-526.5" font-family="Helvetica,sans-Serif" font-size="10.00">$post</text>
<text text-anchor="start" x="702" y="-511.5" font-family="Helvetica,sans-Serif" font-size="10.00">+</text>
<text text-anchor="start" x="715" y="-511.5" font-family="Helvetica,sans-Serif" font-size="10.00">__construct()</text>
<text text-anchor="start" x="702" y="-496.5" font-family="Helvetica,sans-Serif" font-size="10.00">+</text>
<text text-anchor="start" x="715" y="-496.5" font-family="Helvetica,sans-Serif" font-size="10.00">call()</text>
<text text-anchor="start" x="702" y="-481.5" font-family="Helvetica,sans-Serif" font-size="10.00">+</text>
<text text-anchor="start" x="715" y="-481.5" font-family="Helvetica,sans-Serif" font-size="10.00">getPDO()</text>
<text text-anchor="start" x="702" y="-466.5" font-family="Helvetica,sans-Serif" font-size="10.00">+</text>
<text text-anchor="start" x="715" y="-466.5" font-family="Helvetica,sans-Serif" font-size="10.00">setPDO()</text>
<text text-anchor="start" x="702" y="-451.5" font-family="Helvetica,sans-Serif" font-size="10.00">+</text>
<text text-anchor="start" x="715" y="-451.5" font-family="Helvetica,sans-Serif" font-size="10.00">getLoader()</text>
<text text-anchor="start" x="702" y="-436.5" font-family="Helvetica,sans-Serif" font-size="10.00">+</text>
<text text-anchor="start" x="715" y="-436.5" font-family="Helvetica,sans-Serif" font-size="10.00">setLoader()</text>
<text text-anchor="start" x="702" y="-421.5" font-family="Helvetica,sans-Serif" font-size="10.00">+</text>
<text text-anchor="start" x="715" y="-421.5" font-family="Helvetica,sans-Serif" font-size="10.00">getTwig()</text>
<text text-anchor="start" x="702" y="-406.5" font-family="Helvetica,sans-Serif" font-size="10.00">+</text>
<text text-anchor="start" x="715" y="-406.5" font-family="Helvetica,sans-Serif" font-size="10.00">setTwig()</text>
<text text-anchor="start" x="702" y="-391.5" font-family="Helvetica,sans-Serif" font-size="10.00">+</text>
<text text-anchor="start" x="715" y="-391.5" font-family="Helvetica,sans-Serif" font-size="10.00">getGet()</text>
<text text-anchor="start" x="702" y="-376.5" font-family="Helvetica,sans-Serif" font-size="10.00">+</text>
<text text-anchor="start" x="715" y="-376.5" font-family="Helvetica,sans-Serif" font-size="10.00">setGet()</text>
<text text-anchor="start" x="702" y="-361.5" font-family="Helvetica,sans-Serif" font-size="10.00">+</text>
<text text-anchor="start" x="715" y="-361.5" font-family="Helvetica,sans-Serif" font-size="10.00">getPost()</text>
<text text-anchor="start" x="702" y="-346.5" font-family="Helvetica,sans-Serif" font-size="10.00">+</text>
<text text-anchor="start" x="715" y="-346.5" font-family="Helvetica,sans-Serif" font-size="10.00">setPost()</text>
<text text-anchor="start" x="702" y="-331.5" font-family="Helvetica,sans-Serif" font-size="10.00">#</text>
<text text-anchor="start" x="715" y="-331.5" font-family="Helvetica,sans-Serif" font-size="10.00">requireAuth()</text>
<text text-anchor="start" x="702" y="-316.5" font-family="Helvetica,sans-Serif" font-size="10.00">#</text>
<text text-anchor="start" x="715" y="-316.5" font-family="Helvetica,sans-Serif" font-size="10.00">requireRole()</text>
<text text-anchor="start" x="702" y="-301.5" font-family="Helvetica,sans-Serif" font-size="10.00">#</text>
<text text-anchor="start" x="715" y="-301.5" font-family="Helvetica,sans-Serif" font-size="10.00">redirectTo()</text>
<text text-anchor="start" x="702" y="-286.5" font-family="Helvetica,sans-Serif" font-size="10.00">#</text>
<text text-anchor="start" x="715" y="-286.5" font-family="Helvetica,sans-Serif" font-size="10.00">show405()</text>
<text text-anchor="start" x="702" y="-271.5" font-family="Helvetica,sans-Serif" font-size="10.00">#</text>
<text text-anchor="start" x="715" y="-271.5" font-family="Helvetica,sans-Serif" font-size="10.00">requireAnyRole()</text>
<polygon fill="#666666" stroke="#666666" points="698,-596.5 698,-596.5 802,-596.5 802,-596.5 698,-596.5"/>
<polygon fill="#666666" stroke="#666666" points="698,-521.5 698,-521.5 713,-521.5 713,-521.5 698,-521.5"/>
<polygon fill="#666666" stroke="#666666" points="713,-521.5 713,-521.5 802,-521.5 802,-521.5 713,-521.5"/>
<polygon fill="none" stroke="#666666" points="698,-265 698,-614 802,-614 802,-265 698,-265"/>
</a>
</g>
</g>
<!-- Node2 -->
<g id="Node000002" class="node">
<title>Node2</title>
<g id="a_Node000002"><a xlink:href="classControllerAdmin.html" target="_top" xlink:title="Contrôleur dédié à la gestion de l&#39;administration.">
<polygon fill="white" stroke="transparent" points="90,-169 0,-169 0,-60 90,-60 90,-169"/>
<text text-anchor="start" x="5" y="-156.5" font-family="Helvetica,sans-Serif" font-size="10.00">ControllerAdmin</text>
<text text-anchor="start" x="43" y="-141.5" font-family="Helvetica,sans-Serif" font-size="10.00"> </text>
<text text-anchor="start" x="5" y="-126.5" font-family="Helvetica,sans-Serif" font-size="10.00">+</text>
<text text-anchor="start" x="19" y="-126.5" font-family="Helvetica,sans-Serif" font-size="10.00">__construct()</text>
<text text-anchor="start" x="5" y="-111.5" font-family="Helvetica,sans-Serif" font-size="10.00">+</text>
<text text-anchor="start" x="19" y="-111.5" font-family="Helvetica,sans-Serif" font-size="10.00">afficher()</text>
<text text-anchor="start" x="5" y="-96.5" font-family="Helvetica,sans-Serif" font-size="10.00">+</text>
<text text-anchor="start" x="19" y="-96.5" font-family="Helvetica,sans-Serif" font-size="10.00">supprimer()</text>
<text text-anchor="start" x="5" y="-81.5" font-family="Helvetica,sans-Serif" font-size="10.00">+</text>
<text text-anchor="start" x="19" y="-81.5" font-family="Helvetica,sans-Serif" font-size="10.00">consulter()</text>
<text text-anchor="start" x="5" y="-66.5" font-family="Helvetica,sans-Serif" font-size="10.00">+</text>
<text text-anchor="start" x="19" y="-66.5" font-family="Helvetica,sans-Serif" font-size="10.00">modifier()</text>
<polygon fill="#666666" stroke="#666666" points="0,-151.5 0,-151.5 90,-151.5 90,-151.5 0,-151.5"/>
<polygon fill="#666666" stroke="#666666" points="0,-136.5 0,-136.5 90,-136.5 90,-136.5 0,-136.5"/>
<polygon fill="none" stroke="#666666" points="0,-60 0,-169 90,-169 90,-60 0,-60"/>
</a>
</g>
</g>
<!-- Node1&#45;&gt;Node2 -->
<g id="edge1_Node000001_Node000002" class="edge">
<title>Node1&#45;&gt;Node2</title>
<g id="a_edge1_Node000001_Node000002"><a xlink:title=" ">
<path fill="none" stroke="#63b8ff" d="M688.03,-435.02C560.7,-424.64 267.22,-384.13 90,-229 72.02,-213.26 59.54,-190.22 51.85,-169.01"/>
<polygon fill="none" stroke="#63b8ff" points="687.76,-438.5 698,-435.79 688.3,-431.53 687.76,-438.5"/>
</a>
</g>
</g>
<!-- Node1&#45;&gt;Node2 -->
<g id="edge2_Node000001_Node000002" class="edge">
<title>Node1&#45;&gt;Node2</title>
<g id="a_edge2_Node000001_Node000002"><a xlink:title=" ">
<path fill="none" stroke="#63b8ff" d="M687.74,-434.12C563.09,-422.39 280.48,-379.99 108,-229 90.02,-213.26 77.54,-190.22 68.44,-169.01"/>
<polygon fill="none" stroke="#63b8ff" points="687.59,-437.62 697.87,-435.03 688.23,-430.65 687.59,-437.62"/>
</a>
</g>
</g>
<!-- Node3 -->
<g id="Node000003" class="node">
<title>Node3</title>
<g id="a_Node000003"><a xlink:href="classControllerAlbum.html" target="_top" xlink:title="Contrôleur dédié à la gestion des albums.">
<polygon fill="white" stroke="transparent" points="252,-199 108,-199 108,-30 252,-30 252,-199"/>
<text text-anchor="start" x="140" y="-186.5" font-family="Helvetica,sans-Serif" font-size="10.00">ControllerAlbum</text>
<text text-anchor="start" x="178" y="-171.5" font-family="Helvetica,sans-Serif" font-size="10.00"> </text>
<text text-anchor="start" x="112" y="-156.5" font-family="Helvetica,sans-Serif" font-size="10.00">+</text>
<text text-anchor="start" x="125" y="-156.5" font-family="Helvetica,sans-Serif" font-size="10.00">__construct()</text>
<text text-anchor="start" x="112" y="-141.5" font-family="Helvetica,sans-Serif" font-size="10.00">+</text>
<text text-anchor="start" x="125" y="-141.5" font-family="Helvetica,sans-Serif" font-size="10.00">afficher()</text>
<text text-anchor="start" x="112" y="-126.5" font-family="Helvetica,sans-Serif" font-size="10.00">+</text>
<text text-anchor="start" x="125" y="-126.5" font-family="Helvetica,sans-Serif" font-size="10.00">lister()</text>
<text text-anchor="start" x="112" y="-111.5" font-family="Helvetica,sans-Serif" font-size="10.00">+</text>
<text text-anchor="start" x="125" y="-111.5" font-family="Helvetica,sans-Serif" font-size="10.00">listerTableau()</text>
<text text-anchor="start" x="112" y="-96.5" font-family="Helvetica,sans-Serif" font-size="10.00">+</text>
<text text-anchor="start" x="125" y="-96.5" font-family="Helvetica,sans-Serif" font-size="10.00">afficherFormulaireAjout()</text>
<text text-anchor="start" x="112" y="-81.5" font-family="Helvetica,sans-Serif" font-size="10.00">+</text>
<text text-anchor="start" x="125" y="-81.5" font-family="Helvetica,sans-Serif" font-size="10.00">ajouterAlbum()</text>
<text text-anchor="start" x="112" y="-66.5" font-family="Helvetica,sans-Serif" font-size="10.00">+</text>
<text text-anchor="start" x="125" y="-66.5" font-family="Helvetica,sans-Serif" font-size="10.00">afficherDetails()</text>
<text text-anchor="start" x="112" y="-51.5" font-family="Helvetica,sans-Serif" font-size="10.00">+</text>
<text text-anchor="start" x="125" y="-51.5" font-family="Helvetica,sans-Serif" font-size="10.00">modifierChanson()</text>
<text text-anchor="start" x="112" y="-36.5" font-family="Helvetica,sans-Serif" font-size="10.00">+</text>
<text text-anchor="start" x="125" y="-36.5" font-family="Helvetica,sans-Serif" font-size="10.00">supprimerChanson()</text>
<polygon fill="#666666" stroke="#666666" points="108,-181.5 108,-181.5 252,-181.5 252,-181.5 108,-181.5"/>
<polygon fill="#666666" stroke="#666666" points="108,-166.5 108,-166.5 252,-166.5 252,-166.5 108,-166.5"/>
<polygon fill="none" stroke="#666666" points="108,-30 108,-199 252,-199 252,-30 108,-30"/>
</a>
</g>
</g>
<!-- Node1&#45;&gt;Node3 -->
<g id="edge3_Node000001_Node000003" class="edge">
<title>Node1&#45;&gt;Node3</title>
<g id="a_edge3_Node000001_Node000003"><a xlink:title=" ">
<path fill="none" stroke="#63b8ff" d="M687.69,-424.98C587.15,-399.7 387.1,-337.78 252,-229 241.35,-220.42 231.45,-210.1 222.59,-199.23"/>
<polygon fill="none" stroke="#63b8ff" points="687.15,-428.45 697.7,-427.45 688.83,-421.65 687.15,-428.45"/>
</a>
</g>
</g>
<!-- Node1&#45;&gt;Node3 -->
<g id="edge4_Node000001_Node000003" class="edge">
<title>Node1&#45;&gt;Node3</title>
<g id="a_edge4_Node000001_Node000003"><a xlink:title=" ">
<path fill="none" stroke="#63b8ff" d="M688.08,-422.1C590.81,-395.18 400.23,-333.86 270,-229 259.35,-220.42 249.45,-210.1 240.4,-199.23"/>
<polygon fill="none" stroke="#63b8ff" points="687.19,-425.49 697.76,-424.75 689.04,-418.74 687.19,-425.49"/>
</a>
</g>
</g>
<!-- Node4 -->
<g id="Node000004" class="node">
<title>Node4</title>
<g id="a_Node000004"><a xlink:href="classControllerBattle.html" target="_top" xlink:title="Contrôleur dédié à la gestion des battles.">
<polygon fill="white" stroke="transparent" points="361.5,-161.5 270.5,-161.5 270.5,-67.5 361.5,-67.5 361.5,-161.5"/>
<text text-anchor="start" x="277.5" y="-149.5" font-family="Helvetica,sans-Serif" font-size="10.00">ControllerBattle</text>
<text text-anchor="start" x="314.5" y="-134.5" font-family="Helvetica,sans-Serif" font-size="10.00"> </text>
<text text-anchor="start" x="275" y="-119.5" font-family="Helvetica,sans-Serif" font-size="10.00">+</text>
<text text-anchor="start" x="288" y="-119.5" font-family="Helvetica,sans-Serif" font-size="10.00">__construct()</text>
<text text-anchor="start" x="275" y="-104.5" font-family="Helvetica,sans-Serif" font-size="10.00">+</text>
<text text-anchor="start" x="288" y="-104.5" font-family="Helvetica,sans-Serif" font-size="10.00">afficher()</text>
<text text-anchor="start" x="275" y="-89.5" font-family="Helvetica,sans-Serif" font-size="10.00">+</text>
<text text-anchor="start" x="288" y="-89.5" font-family="Helvetica,sans-Serif" font-size="10.00">lister()</text>
<text text-anchor="start" x="275" y="-74.5" font-family="Helvetica,sans-Serif" font-size="10.00">+</text>
<text text-anchor="start" x="288" y="-74.5" font-family="Helvetica,sans-Serif" font-size="10.00">listerTableau()</text>
<polygon fill="#666666" stroke="#666666" points="271,-144.5 271,-144.5 362,-144.5 362,-144.5 271,-144.5"/>
<polygon fill="#666666" stroke="#666666" points="271,-129.5 271,-129.5 362,-129.5 362,-129.5 271,-129.5"/>
<polygon fill="none" stroke="#666666" points="270.5,-67.5 270.5,-161.5 361.5,-161.5 361.5,-67.5 270.5,-67.5"/>
</a>
</g>
</g>
<!-- Node1&#45;&gt;Node4 -->
<g id="edge5_Node000001_Node000004" class="edge">
<title>Node1&#45;&gt;Node4</title>
<g id="a_edge5_Node000001_Node000004"><a xlink:title=" ">
<path fill="none" stroke="#63b8ff" d="M688.29,-420.23C604.27,-391.26 454.04,-327.77 361,-229 343.12,-210.02 330.17,-184.03 322.35,-161.7"/>
<polygon fill="none" stroke="#63b8ff" points="687.36,-423.61 697.95,-423.5 689.61,-416.98 687.36,-423.61"/>
</a>
</g>
</g>
<!-- Node1&#45;&gt;Node4 -->
<g id="edge6_Node000001_Node000004" class="edge">
<title>Node1&#45;&gt;Node4</title>
<g id="a_edge6_Node000001_Node000004"><a xlink:title=" ">
<path fill="none" stroke="#63b8ff" d="M688.41,-415.85C608.07,-385.13 467.6,-323.06 379,-229 361.12,-210.02 348.17,-184.03 338.52,-161.7"/>
<polygon fill="none" stroke="#63b8ff" points="687.32,-419.17 697.91,-419.44 689.79,-412.63 687.32,-419.17"/>
</a>
</g>
</g>
<!-- Node5 -->
<g id="Node000005" class="node">
<title>Node5</title>
<g id="a_Node000005"><a xlink:href="classControllerChanson.html" target="_top" xlink:title="Contrôleur dédié à la gestion des chansons.">
<polygon fill="white" stroke="transparent" points="506.5,-199 379.5,-199 379.5,-30 506.5,-30 506.5,-199"/>
<text text-anchor="start" x="398" y="-186.5" font-family="Helvetica,sans-Serif" font-size="10.00">ControllerChanson</text>
<text text-anchor="start" x="441.5" y="-171.5" font-family="Helvetica,sans-Serif" font-size="10.00"> </text>
<text text-anchor="start" x="384" y="-156.5" font-family="Helvetica,sans-Serif" font-size="10.00">+</text>
<text text-anchor="start" x="397" y="-156.5" font-family="Helvetica,sans-Serif" font-size="10.00">__construct()</text>
<text text-anchor="start" x="384" y="-141.5" font-family="Helvetica,sans-Serif" font-size="10.00">+</text>
<text text-anchor="start" x="397" y="-141.5" font-family="Helvetica,sans-Serif" font-size="10.00">afficher()</text>
<text text-anchor="start" x="384" y="-126.5" font-family="Helvetica,sans-Serif" font-size="10.00">+</text>
<text text-anchor="start" x="397" y="-126.5" font-family="Helvetica,sans-Serif" font-size="10.00">rechercherParTitre()</text>
<text text-anchor="start" x="384" y="-111.5" font-family="Helvetica,sans-Serif" font-size="10.00">+</text>
<text text-anchor="start" x="397" y="-111.5" font-family="Helvetica,sans-Serif" font-size="10.00">rechercherParAlbum()</text>
<text text-anchor="start" x="384" y="-96.5" font-family="Helvetica,sans-Serif" font-size="10.00">+</text>
<text text-anchor="start" x="397" y="-96.5" font-family="Helvetica,sans-Serif" font-size="10.00">lister()</text>
<text text-anchor="start" x="384" y="-81.5" font-family="Helvetica,sans-Serif" font-size="10.00">+</text>
<text text-anchor="start" x="397" y="-81.5" font-family="Helvetica,sans-Serif" font-size="10.00">listerTableau()</text>
<text text-anchor="start" x="384" y="-66.5" font-family="Helvetica,sans-Serif" font-size="10.00">+</text>
<text text-anchor="start" x="397" y="-66.5" font-family="Helvetica,sans-Serif" font-size="10.00">filtrerChanson()</text>
<text text-anchor="start" x="384" y="-51.5" font-family="Helvetica,sans-Serif" font-size="10.00">+</text>
<text text-anchor="start" x="397" y="-51.5" font-family="Helvetica,sans-Serif" font-size="10.00">toggleLike()</text>
<text text-anchor="start" x="384" y="-36.5" font-family="Helvetica,sans-Serif" font-size="10.00">+</text>
<text text-anchor="start" x="397" y="-36.5" font-family="Helvetica,sans-Serif" font-size="10.00">incrementEcoute()</text>
<polygon fill="#666666" stroke="#666666" points="380,-181.5 380,-181.5 507,-181.5 507,-181.5 380,-181.5"/>
<polygon fill="#666666" stroke="#666666" points="380,-166.5 380,-166.5 507,-166.5 507,-166.5 380,-166.5"/>
<polygon fill="none" stroke="#666666" points="379.5,-30 379.5,-199 506.5,-199 506.5,-30 379.5,-30"/>
</a>
</g>
</g>
<!-- Node1&#45;&gt;Node5 -->
<g id="edge7_Node000001_Node000005" class="edge">
<title>Node1&#45;&gt;Node5</title>
<g id="a_edge7_Node000001_Node000005"><a xlink:title=" ">
<path fill="none" stroke="#63b8ff" d="M689.36,-397.8C636.98,-358.08 561.41,-294.25 506,-229 498.15,-219.75 490.51,-209.58 483.41,-199.23"/>
<polygon fill="none" stroke="#63b8ff" points="687.47,-400.75 697.57,-403.96 691.68,-395.16 687.47,-400.75"/>
</a>
</g>
</g>
<!-- Node1&#45;&gt;Node5 -->
<g id="edge8_Node000001_Node000005" class="edge">
<title>Node1&#45;&gt;Node5</title>
<g id="a_edge8_Node000001_Node000005"><a xlink:title=" ">
<path fill="none" stroke="#63b8ff" d="M690.1,-386.93C642.02,-347 574.6,-288.59 524,-229 516.15,-219.75 508.51,-209.58 501.26,-199.23"/>
<polygon fill="none" stroke="#63b8ff" points="688.01,-389.75 697.94,-393.43 692.47,-384.36 688.01,-389.75"/>
</a>
</g>
</g>
<!-- Node6 -->
<g id="Node000006" class="node">
<title>Node6</title>
<g id="a_Node000006"><a xlink:href="classControllerFichier.html" target="_top" xlink:title="Contrôleur dédié à la gestion des fichiers.">
<polygon fill="white" stroke="transparent" points="615.5,-161.5 524.5,-161.5 524.5,-67.5 615.5,-67.5 615.5,-161.5"/>
<text text-anchor="start" x="530" y="-149.5" font-family="Helvetica,sans-Serif" font-size="10.00">ControllerFichier</text>
<text text-anchor="start" x="568.5" y="-134.5" font-family="Helvetica,sans-Serif" font-size="10.00"> </text>
<text text-anchor="start" x="529" y="-119.5" font-family="Helvetica,sans-Serif" font-size="10.00">+</text>
<text text-anchor="start" x="542" y="-119.5" font-family="Helvetica,sans-Serif" font-size="10.00">__construct()</text>
<text text-anchor="start" x="529" y="-104.5" font-family="Helvetica,sans-Serif" font-size="10.00">+</text>
<text text-anchor="start" x="542" y="-104.5" font-family="Helvetica,sans-Serif" font-size="10.00">afficher()</text>
<text text-anchor="start" x="529" y="-89.5" font-family="Helvetica,sans-Serif" font-size="10.00">+</text>
<text text-anchor="start" x="542" y="-89.5" font-family="Helvetica,sans-Serif" font-size="10.00">lister()</text>
<text text-anchor="start" x="529" y="-74.5" font-family="Helvetica,sans-Serif" font-size="10.00">+</text>
<text text-anchor="start" x="542" y="-74.5" font-family="Helvetica,sans-Serif" font-size="10.00">listerTableau()</text>
<polygon fill="#666666" stroke="#666666" points="525,-144.5 525,-144.5 616,-144.5 616,-144.5 525,-144.5"/>
<polygon fill="#666666" stroke="#666666" points="525,-129.5 525,-129.5 616,-129.5 616,-129.5 525,-129.5"/>
<polygon fill="none" stroke="#666666" points="524.5,-67.5 524.5,-161.5 615.5,-161.5 615.5,-67.5 524.5,-67.5"/>
</a>
</g>
</g>
<!-- Node1&#45;&gt;Node6 -->
<g id="edge9_Node000001_Node000006" class="edge">
<title>Node1&#45;&gt;Node6</title>
<g id="a_edge9_Node000001_Node000006"><a xlink:title=" ">
<path fill="none" stroke="#63b8ff" d="M692.21,-360.03C667.35,-321.14 638.71,-273.15 615,-229 603.28,-207.18 591.34,-182.4 582.46,-161.57"/>
<polygon fill="none" stroke="#63b8ff" points="689.43,-362.18 697.79,-368.7 695.32,-358.39 689.43,-362.18"/>
</a>
</g>
</g>
<!-- Node1&#45;&gt;Node6 -->
<g id="edge10_Node000001_Node000006" class="edge">
<title>Node1&#45;&gt;Node6</title>
<g id="a_edge10_Node000001_Node000006"><a xlink:title=" ">
<path fill="none" stroke="#63b8ff" d="M692.76,-333.6C673.17,-300.52 651.57,-263.58 633,-229 621.28,-207.18 609.34,-182.4 598.89,-161.57"/>
<polygon fill="none" stroke="#63b8ff" points="689.85,-335.55 697.96,-342.37 695.87,-331.98 689.85,-335.55"/>
</a>
</g>
</g>
<!-- Node7 -->
<g id="Node000007" class="node">
<title>Node7</title>
<g id="a_Node000007"><a xlink:href="classControllerGenre.html" target="_top" xlink:title="Contrôleur dédié à la gestion des genres musicaux.">
<polygon fill="white" stroke="transparent" points="736.5,-169 633.5,-169 633.5,-60 736.5,-60 736.5,-169"/>
<text text-anchor="start" x="646.5" y="-156.5" font-family="Helvetica,sans-Serif" font-size="10.00">ControllerGenre</text>
<text text-anchor="start" x="683.5" y="-141.5" font-family="Helvetica,sans-Serif" font-size="10.00"> </text>
<text text-anchor="start" x="638" y="-126.5" font-family="Helvetica,sans-Serif" font-size="10.00">+</text>
<text text-anchor="start" x="651" y="-126.5" font-family="Helvetica,sans-Serif" font-size="10.00">__construct()</text>
<text text-anchor="start" x="638" y="-111.5" font-family="Helvetica,sans-Serif" font-size="10.00">+</text>
<text text-anchor="start" x="651" y="-111.5" font-family="Helvetica,sans-Serif" font-size="10.00">afficher()</text>
<text text-anchor="start" x="638" y="-96.5" font-family="Helvetica,sans-Serif" font-size="10.00">+</text>
<text text-anchor="start" x="651" y="-96.5" font-family="Helvetica,sans-Serif" font-size="10.00">lister()</text>
<text text-anchor="start" x="638" y="-81.5" font-family="Helvetica,sans-Serif" font-size="10.00">+</text>
<text text-anchor="start" x="651" y="-81.5" font-family="Helvetica,sans-Serif" font-size="10.00">listerTableau()</text>
<text text-anchor="start" x="638" y="-66.5" font-family="Helvetica,sans-Serif" font-size="10.00">+</text>
<text text-anchor="start" x="651" y="-66.5" font-family="Helvetica,sans-Serif" font-size="10.00">rechercherAjax()</text>
<polygon fill="#666666" stroke="#666666" points="634,-151.5 634,-151.5 737,-151.5 737,-151.5 634,-151.5"/>
<polygon fill="#666666" stroke="#666666" points="634,-136.5 634,-136.5 737,-136.5 737,-136.5 634,-136.5"/>
<polygon fill="none" stroke="#666666" points="633.5,-60 633.5,-169 736.5,-169 736.5,-60 633.5,-60"/>
</a>
</g>
</g>
<!-- Node1&#45;&gt;Node7 -->
<g id="edge11_Node000001_Node000007" class="edge">
<title>Node1&#45;&gt;Node7</title>
<g id="a_edge11_Node000001_Node000007"><a xlink:title=" ">
<path fill="none" stroke="#63b8ff" d="M706.29,-254.54C700.17,-223.34 694.63,-193.28 690.62,-169.14"/>
<polygon fill="none" stroke="#63b8ff" points="702.93,-255.58 708.29,-264.71 709.79,-254.22 702.93,-255.58"/>
</a>
</g>
</g>
<!-- Node1&#45;&gt;Node7 -->
<g id="edge12_Node000001_Node000007" class="edge">
<title>Node1&#45;&gt;Node7</title>
<g id="a_edge12_Node000001_Node000007"><a xlink:title=" ">
<path fill="none" stroke="#63b8ff" d="M719.67,-254.54C713.23,-223.34 706.68,-193.28 700.97,-169.14"/>
<polygon fill="none" stroke="#63b8ff" points="716.32,-255.62 721.76,-264.71 723.18,-254.21 716.32,-255.62"/>
</a>
</g>
</g>
<!-- Node8 -->
<g id="Node000008" class="node">
<title>Node8</title>
<g id="a_Node000008"><a xlink:href="classControllerHome.html" target="_top" xlink:title="Contrôleur dédié à la gestion de la page d&#39;accueil.">
<polygon fill="white" stroke="transparent" points="877,-206.5 755,-206.5 755,-22.5 877,-22.5 877,-206.5"/>
<text text-anchor="start" x="777" y="-194.5" font-family="Helvetica,sans-Serif" font-size="10.00">ControllerHome</text>
<text text-anchor="start" x="814" y="-179.5" font-family="Helvetica,sans-Serif" font-size="10.00"> </text>
<text text-anchor="start" x="759" y="-164.5" font-family="Helvetica,sans-Serif" font-size="10.00">+</text>
<text text-anchor="start" x="772" y="-164.5" font-family="Helvetica,sans-Serif" font-size="10.00">__construct()</text>
<text text-anchor="start" x="759" y="-149.5" font-family="Helvetica,sans-Serif" font-size="10.00">+</text>
<text text-anchor="start" x="772" y="-149.5" font-family="Helvetica,sans-Serif" font-size="10.00">afficher()</text>
<text text-anchor="start" x="759" y="-134.5" font-family="Helvetica,sans-Serif" font-size="10.00">+</text>
<text text-anchor="start" x="772" y="-134.5" font-family="Helvetica,sans-Serif" font-size="10.00">connect()</text>
<text text-anchor="start" x="759" y="-119.5" font-family="Helvetica,sans-Serif" font-size="10.00">+</text>
<text text-anchor="start" x="772" y="-119.5" font-family="Helvetica,sans-Serif" font-size="10.00">homeBienvenue()</text>
<text text-anchor="start" x="759" y="-104.5" font-family="Helvetica,sans-Serif" font-size="10.00">+</text>
<text text-anchor="start" x="772" y="-104.5" font-family="Helvetica,sans-Serif" font-size="10.00">session()</text>
<text text-anchor="start" x="759" y="-89.5" font-family="Helvetica,sans-Serif" font-size="10.00">+</text>
<text text-anchor="start" x="772" y="-89.5" font-family="Helvetica,sans-Serif" font-size="10.00">afficherLegales()</text>
<text text-anchor="start" x="759" y="-74.5" font-family="Helvetica,sans-Serif" font-size="10.00">+</text>
<text text-anchor="start" x="772" y="-74.5" font-family="Helvetica,sans-Serif" font-size="10.00">afficherGenerales()</text>
<text text-anchor="start" x="761.5" y="-59.5" font-family="Helvetica,sans-Serif" font-size="10.00">&#45;</text>
<text text-anchor="start" x="772" y="-59.5" font-family="Helvetica,sans-Serif" font-size="10.00">openDashboard()</text>
<text text-anchor="start" x="761.5" y="-44.5" font-family="Helvetica,sans-Serif" font-size="10.00">&#45;</text>
<text text-anchor="start" x="772" y="-44.5" font-family="Helvetica,sans-Serif" font-size="10.00">artisteDashboard()</text>
<text text-anchor="start" x="761.5" y="-29.5" font-family="Helvetica,sans-Serif" font-size="10.00">&#45;</text>
<text text-anchor="start" x="772" y="-29.5" font-family="Helvetica,sans-Serif" font-size="10.00">auditeurDashboard()</text>
<polygon fill="#666666" stroke="#666666" points="755,-189.5 755,-189.5 877,-189.5 877,-189.5 755,-189.5"/>
<polygon fill="#666666" stroke="#666666" points="755,-174.5 755,-174.5 877,-174.5 877,-174.5 755,-174.5"/>
<polygon fill="none" stroke="#666666" points="755,-22.5 755,-206.5 877,-206.5 877,-22.5 755,-22.5"/>
</a>
</g>
</g>
<!-- Node1&#45;&gt;Node8 -->
<g id="edge13_Node000001_Node000008" class="edge">
<title>Node1&#45;&gt;Node8</title>
<g id="a_edge13_Node000001_Node000008"><a xlink:title=" ">
<path fill="none" stroke="#63b8ff" d="M780.83,-254.89C784.31,-238.26 787.82,-221.95 791.22,-206.68"/>
<polygon fill="none" stroke="#63b8ff" points="777.39,-254.21 778.78,-264.71 784.24,-255.63 777.39,-254.21"/>
</a>
</g>
</g>
<!-- Node1&#45;&gt;Node8 -->
<g id="edge14_Node000001_Node000008" class="edge">
<title>Node1&#45;&gt;Node8</title>
<g id="a_edge14_Node000001_Node000008"><a xlink:title=" ">
<path fill="none" stroke="#63b8ff" d="M794.21,-254.89C797.52,-238.26 800.67,-221.95 803.51,-206.68"/>
<polygon fill="none" stroke="#63b8ff" points="790.78,-254.22 792.24,-264.71 797.64,-255.59 790.78,-254.22"/>
</a>
</g>
</g>
<!-- Node9 -->
<g id="Node000009" class="node">
<title>Node9</title>
<g id="a_Node000009"><a xlink:href="classControllerMusique.html" target="_top" xlink:title="Contrôleur dédié à la gestion de la bibliothèque musicale de l&#39;utilisateur.">
<polygon fill="white" stroke="transparent" points="995,-146.5 895,-146.5 895,-82.5 995,-82.5 995,-146.5"/>
<text text-anchor="start" x="900" y="-134.5" font-family="Helvetica,sans-Serif" font-size="10.00">ControllerMusique</text>
<text text-anchor="start" x="943" y="-119.5" font-family="Helvetica,sans-Serif" font-size="10.00"> </text>
<text text-anchor="start" x="902.5" y="-104.5" font-family="Helvetica,sans-Serif" font-size="10.00">+</text>
<text text-anchor="start" x="919" y="-104.5" font-family="Helvetica,sans-Serif" font-size="10.00">__construct()</text>
<text text-anchor="start" x="902.5" y="-89.5" font-family="Helvetica,sans-Serif" font-size="10.00">+</text>
<text text-anchor="start" x="919" y="-89.5" font-family="Helvetica,sans-Serif" font-size="10.00">afficher()</text>
<polygon fill="#666666" stroke="#666666" points="895,-129.5 895,-129.5 995,-129.5 995,-129.5 895,-129.5"/>
<polygon fill="#666666" stroke="#666666" points="895,-114.5 895,-114.5 995,-114.5 995,-114.5 895,-114.5"/>
<polygon fill="none" stroke="#666666" points="895,-82.5 895,-146.5 995,-146.5 995,-82.5 895,-82.5"/>
</a>
</g>
</g>
<!-- Node1&#45;&gt;Node9 -->
<g id="edge15_Node000001_Node000009" class="edge">
<title>Node1&#45;&gt;Node9</title>
<g id="a_edge15_Node000001_Node000009"><a xlink:title=" ">
<path fill="none" stroke="#63b8ff" d="M807.62,-340.96C829.98,-306.09 855.31,-266.22 877,-229 892.88,-201.75 909.29,-169.81 922.3,-146.77"/>
<polygon fill="none" stroke="#63b8ff" points="804.46,-339.41 802.01,-349.72 810.35,-343.19 804.46,-339.41"/>
</a>
</g>
</g>
<!-- Node1&#45;&gt;Node9 -->
<g id="edge16_Node000001_Node000009" class="edge">
<title>Node1&#45;&gt;Node9</title>
<g id="a_edge16_Node000001_Node000009"><a xlink:title=" ">
<path fill="none" stroke="#63b8ff" d="M808.08,-365.16C835.58,-325.44 868.1,-275.17 895,-229 910.88,-201.75 927.29,-169.81 937.23,-146.77"/>
<polygon fill="none" stroke="#63b8ff" points="805.14,-363.26 802.3,-373.47 810.88,-367.26 805.14,-363.26"/>
</a>
</g>
</g>
<!-- Node10 -->
<g id="Node000010" class="node">
<title>Node10</title>
<g id="a_Node000010"><a xlink:href="classControllerNewsletter.html" target="_top" xlink:title="Contrôleur dédié à la gestion de la newsletter.">
<polygon fill="white" stroke="transparent" points="1125,-154 1013,-154 1013,-75 1125,-75 1125,-154"/>
<text text-anchor="start" x="1018" y="-141.5" font-family="Helvetica,sans-Serif" font-size="10.00">ControllerNewsletter</text>
<text text-anchor="start" x="1067" y="-126.5" font-family="Helvetica,sans-Serif" font-size="10.00"> </text>
<text text-anchor="start" x="1023.5" y="-111.5" font-family="Helvetica,sans-Serif" font-size="10.00">+</text>
<text text-anchor="start" x="1043" y="-111.5" font-family="Helvetica,sans-Serif" font-size="10.00">__construct()</text>
<text text-anchor="start" x="1023.5" y="-96.5" font-family="Helvetica,sans-Serif" font-size="10.00">+</text>
<text text-anchor="start" x="1043" y="-96.5" font-family="Helvetica,sans-Serif" font-size="10.00">afficher()</text>
<text text-anchor="start" x="1023.5" y="-81.5" font-family="Helvetica,sans-Serif" font-size="10.00">+</text>
<text text-anchor="start" x="1043" y="-81.5" font-family="Helvetica,sans-Serif" font-size="10.00">ajouter()</text>
<polygon fill="#666666" stroke="#666666" points="1013,-136.5 1013,-136.5 1125,-136.5 1125,-136.5 1013,-136.5"/>
<polygon fill="#666666" stroke="#666666" points="1013,-121.5 1013,-121.5 1125,-121.5 1125,-121.5 1013,-121.5"/>
<polygon fill="none" stroke="#666666" points="1013,-75 1013,-154 1125,-154 1125,-75 1013,-75"/>
</a>
</g>
</g>
<!-- Node1&#45;&gt;Node10 -->
<g id="edge17_Node000001_Node000010" class="edge">
<title>Node1&#45;&gt;Node10</title>
<g id="a_edge17_Node000001_Node000010"><a xlink:title=" ">
<path fill="none" stroke="#63b8ff" d="M810.5,-393.07C863.52,-354.04 940.26,-293.91 995,-229 1014.1,-206.35 1030.62,-177.3 1043.42,-154.25"/>
<polygon fill="none" stroke="#63b8ff" points="808.2,-390.42 802.2,-399.15 812.34,-396.06 808.2,-390.42"/>
</a>
</g>
</g>
<!-- Node1&#45;&gt;Node10 -->
<g id="edge18_Node000001_Node000010" class="edge">
<title>Node1&#45;&gt;Node10</title>
<g id="a_edge18_Node000001_Node000010"><a xlink:title=" ">
<path fill="none" stroke="#63b8ff" d="M810.73,-402.76C868.01,-364.45 953.5,-299.55 1013,-229 1032.1,-206.35 1048.62,-177.3 1059.03,-154.25"/>
<polygon fill="none" stroke="#63b8ff" points="808.55,-400 802.14,-408.44 812.41,-405.84 808.55,-400"/>
</a>
</g>
</g>
<!-- Node11 -->
<g id="Node000011" class="node">
<title>Node11</title>
<g id="a_Node000011"><a xlink:href="classControllerPlaylist.html" target="_top" xlink:title="Contrôleur dédié à la gestion des playlists.">
<polygon fill="white" stroke="transparent" points="1238.5,-161.5 1143.5,-161.5 1143.5,-67.5 1238.5,-67.5 1238.5,-161.5"/>
<text text-anchor="start" x="1149" y="-149.5" font-family="Helvetica,sans-Serif" font-size="10.00">ControllerPlaylist</text>
<text text-anchor="start" x="1189.5" y="-134.5" font-family="Helvetica,sans-Serif" font-size="10.00"> </text>
<text text-anchor="start" x="1149" y="-119.5" font-family="Helvetica,sans-Serif" font-size="10.00">+</text>
<text text-anchor="start" x="1163" y="-119.5" font-family="Helvetica,sans-Serif" font-size="10.00">__construct()</text>
<text text-anchor="start" x="1149" y="-104.5" font-family="Helvetica,sans-Serif" font-size="10.00">+</text>
<text text-anchor="start" x="1163" y="-104.5" font-family="Helvetica,sans-Serif" font-size="10.00">afficher()</text>
<text text-anchor="start" x="1149" y="-89.5" font-family="Helvetica,sans-Serif" font-size="10.00">+</text>
<text text-anchor="start" x="1163" y="-89.5" font-family="Helvetica,sans-Serif" font-size="10.00">lister()</text>
<text text-anchor="start" x="1149" y="-74.5" font-family="Helvetica,sans-Serif" font-size="10.00">+</text>
<text text-anchor="start" x="1163" y="-74.5" font-family="Helvetica,sans-Serif" font-size="10.00">listerTableau()</text>
<polygon fill="#666666" stroke="#666666" points="1144,-144.5 1144,-144.5 1239,-144.5 1239,-144.5 1144,-144.5"/>
<polygon fill="#666666" stroke="#666666" points="1144,-129.5 1144,-129.5 1239,-129.5 1239,-129.5 1144,-129.5"/>
<polygon fill="none" stroke="#666666" points="1143.5,-67.5 1143.5,-161.5 1238.5,-161.5 1238.5,-67.5 1143.5,-67.5"/>
</a>
</g>
</g>
<!-- Node1&#45;&gt;Node11 -->
<g id="edge19_Node000001_Node000011" class="edge">
<title>Node1&#45;&gt;Node11</title>
<g id="a_edge19_Node000001_Node000011"><a xlink:title=" ">
<path fill="none" stroke="#63b8ff" d="M811.64,-415.85C892.47,-385.04 1034.34,-322.79 1125,-229 1143.31,-210.05 1156.95,-184.06 1167.2,-161.73"/>
<polygon fill="none" stroke="#63b8ff" points="810.21,-412.64 802.09,-419.45 812.68,-419.19 810.21,-412.64"/>
</a>
</g>
</g>
<!-- Node1&#45;&gt;Node11 -->
<g id="edge20_Node000001_Node000011" class="edge">
<title>Node1&#45;&gt;Node11</title>
<g id="a_edge20_Node000001_Node000011"><a xlink:title=" ">
<path fill="none" stroke="#63b8ff" d="M812.02,-420.12C896.55,-391.02 1047.94,-327.35 1143,-229 1161.31,-210.05 1174.95,-184.06 1183.37,-161.73"/>
<polygon fill="none" stroke="#63b8ff" points="810.65,-416.89 802.3,-423.41 812.9,-423.51 810.65,-416.89"/>
</a>
</g>
</g>
<!-- Node12 -->
<g id="Node000012" class="node">
<title>Node12</title>
<g id="a_Node000012"><a xlink:href="classControllerRole.html" target="_top" xlink:title="Contrôleur dédié à la gestion des rôles utilisateurs.">
<polygon fill="white" stroke="transparent" points="1347.5,-161.5 1256.5,-161.5 1256.5,-67.5 1347.5,-67.5 1347.5,-161.5"/>
<text text-anchor="start" x="1267.5" y="-149.5" font-family="Helvetica,sans-Serif" font-size="10.00">ControllerRole</text>
<text text-anchor="start" x="1300.5" y="-134.5" font-family="Helvetica,sans-Serif" font-size="10.00"> </text>
<text text-anchor="start" x="1261" y="-119.5" font-family="Helvetica,sans-Serif" font-size="10.00">+</text>
<text text-anchor="start" x="1274" y="-119.5" font-family="Helvetica,sans-Serif" font-size="10.00">__construct()</text>
<text text-anchor="start" x="1261" y="-104.5" font-family="Helvetica,sans-Serif" font-size="10.00">+</text>
<text text-anchor="start" x="1274" y="-104.5" font-family="Helvetica,sans-Serif" font-size="10.00">afficher()</text>
<text text-anchor="start" x="1261" y="-89.5" font-family="Helvetica,sans-Serif" font-size="10.00">+</text>
<text text-anchor="start" x="1274" y="-89.5" font-family="Helvetica,sans-Serif" font-size="10.00">lister()</text>
<text text-anchor="start" x="1261" y="-74.5" font-family="Helvetica,sans-Serif" font-size="10.00">+</text>
<text text-anchor="start" x="1274" y="-74.5" font-family="Helvetica,sans-Serif" font-size="10.00">listerTableau()</text>
<polygon fill="#666666" stroke="#666666" points="1257,-144.5 1257,-144.5 1348,-144.5 1348,-144.5 1257,-144.5"/>
<polygon fill="#666666" stroke="#666666" points="1257,-129.5 1257,-129.5 1348,-129.5 1348,-129.5 1257,-129.5"/>
<polygon fill="none" stroke="#666666" points="1256.5,-67.5 1256.5,-161.5 1347.5,-161.5 1347.5,-67.5 1256.5,-67.5"/>
</a>
</g>
</g>
<!-- Node1&#45;&gt;Node12 -->
<g id="edge21_Node000001_Node000012" class="edge">
<title>Node1&#45;&gt;Node12</title>
<g id="a_edge21_Node000001_Node000012"><a xlink:title=" ">
<path fill="none" stroke="#63b8ff" d="M812.15,-426.09C913.4,-403.76 1114.77,-347.66 1239,-229 1258.09,-210.76 1271.2,-184.41 1280.67,-161.69"/>
<polygon fill="none" stroke="#63b8ff" points="811.4,-422.67 802.37,-428.21 812.89,-429.51 811.4,-422.67"/>
</a>
</g>
</g>
<!-- Node1&#45;&gt;Node12 -->
<g id="edge22_Node000001_Node000012" class="edge">
<title>Node1&#45;&gt;Node12</title>
<g id="a_edge22_Node000001_Node000012"><a xlink:title=" ">
<path fill="none" stroke="#63b8ff" d="M812.38,-428.35C916.94,-407.69 1128.34,-351.89 1257,-229 1276.09,-210.76 1289.2,-184.41 1296.77,-161.69"/>
<polygon fill="none" stroke="#63b8ff" points="811.45,-424.96 802.3,-430.3 812.78,-431.83 811.45,-424.96"/>
</a>
</g>
</g>
<!-- Node13 -->
<g id="Node000013" class="node">
<title>Node13</title>
<g id="a_Node000013"><a xlink:href="classControllerUtilisateur.html" target="_top" xlink:title="Contrôleur dédié à la gestion des utilisateurs.">
<polygon fill="white" stroke="transparent" points="1522.5,-229 1365.5,-229 1365.5,0 1522.5,0 1522.5,-229"/>
<text text-anchor="start" x="1394.5" y="-216.5" font-family="Helvetica,sans-Serif" font-size="10.00">ControllerUtilisateur</text>
<text text-anchor="start" x="1442.5" y="-201.5" font-family="Helvetica,sans-Serif" font-size="10.00"> </text>
<text text-anchor="start" x="1370" y="-186.5" font-family="Helvetica,sans-Serif" font-size="10.00">+</text>
<text text-anchor="start" x="1383" y="-186.5" font-family="Helvetica,sans-Serif" font-size="10.00">__construct()</text>
<text text-anchor="start" x="1370" y="-171.5" font-family="Helvetica,sans-Serif" font-size="10.00">+</text>
<text text-anchor="start" x="1383" y="-171.5" font-family="Helvetica,sans-Serif" font-size="10.00">signin()</text>
<text text-anchor="start" x="1370" y="-156.5" font-family="Helvetica,sans-Serif" font-size="10.00">+</text>
<text text-anchor="start" x="1383" y="-156.5" font-family="Helvetica,sans-Serif" font-size="10.00">signup()</text>
<text text-anchor="start" x="1370" y="-141.5" font-family="Helvetica,sans-Serif" font-size="10.00">+</text>
<text text-anchor="start" x="1383" y="-141.5" font-family="Helvetica,sans-Serif" font-size="10.00">inscription()</text>
<text text-anchor="start" x="1370" y="-126.5" font-family="Helvetica,sans-Serif" font-size="10.00">+</text>
<text text-anchor="start" x="1383" y="-126.5" font-family="Helvetica,sans-Serif" font-size="10.00">logout()</text>
<text text-anchor="start" x="1370" y="-111.5" font-family="Helvetica,sans-Serif" font-size="10.00">+</text>
<text text-anchor="start" x="1383" y="-111.5" font-family="Helvetica,sans-Serif" font-size="10.00">afficherMesLikes()</text>
<text text-anchor="start" x="1370" y="-96.5" font-family="Helvetica,sans-Serif" font-size="10.00">+</text>
<text text-anchor="start" x="1383" y="-96.5" font-family="Helvetica,sans-Serif" font-size="10.00">afficherProfilArtiste()</text>
<text text-anchor="start" x="1370" y="-81.5" font-family="Helvetica,sans-Serif" font-size="10.00">+</text>
<text text-anchor="start" x="1383" y="-81.5" font-family="Helvetica,sans-Serif" font-size="10.00">suivreArtiste()</text>
<text text-anchor="start" x="1370" y="-66.5" font-family="Helvetica,sans-Serif" font-size="10.00">+</text>
<text text-anchor="start" x="1383" y="-66.5" font-family="Helvetica,sans-Serif" font-size="10.00">afficherMotDePasseOublie()</text>
<text text-anchor="start" x="1370" y="-51.5" font-family="Helvetica,sans-Serif" font-size="10.00">+</text>
<text text-anchor="start" x="1383" y="-51.5" font-family="Helvetica,sans-Serif" font-size="10.00">demanderReinitialisation()</text>
<text text-anchor="start" x="1370" y="-36.5" font-family="Helvetica,sans-Serif" font-size="10.00">+</text>
<text text-anchor="start" x="1383" y="-36.5" font-family="Helvetica,sans-Serif" font-size="10.00">resetPassword()</text>
<text text-anchor="start" x="1370" y="-21.5" font-family="Helvetica,sans-Serif" font-size="10.00">+</text>
<text text-anchor="start" x="1383" y="-21.5" font-family="Helvetica,sans-Serif" font-size="10.00">traiterReinitialisation()</text>
<text text-anchor="start" x="1372.5" y="-6.5" font-family="Helvetica,sans-Serif" font-size="10.00">&#45;</text>
<text text-anchor="start" x="1383" y="-6.5" font-family="Helvetica,sans-Serif" font-size="10.00">afficherErreurToken()</text>
<polygon fill="#666666" stroke="#666666" points="1366,-211.5 1366,-211.5 1523,-211.5 1523,-211.5 1366,-211.5"/>
<polygon fill="#666666" stroke="#666666" points="1366,-196.5 1366,-196.5 1523,-196.5 1523,-196.5 1366,-196.5"/>
<polygon fill="none" stroke="#666666" points="1365.5,0 1365.5,-229 1522.5,-229 1522.5,0 1365.5,0"/>
</a>
</g>
</g>
<!-- Node1&#45;&gt;Node13 -->
<g id="edge23_Node000001_Node000013" class="edge">
<title>Node1&#45;&gt;Node13</title>
<g id="a_edge23_Node000001_Node000013"><a xlink:title=" ">
<path fill="none" stroke="#63b8ff" d="M812.39,-428.29C927.56,-407.71 1177.04,-352.24 1348,-229 1354.04,-224.64 1359.86,-219.75 1365.45,-214.51"/>
<polygon fill="none" stroke="#63b8ff" points="811.57,-424.88 802.33,-430.06 812.79,-431.78 811.57,-424.88"/>
</a>
</g>
</g>
<!-- Node1&#45;&gt;Node13 -->
<g id="edge24_Node000001_Node000013" class="edge">
<title>Node1&#45;&gt;Node13</title>
<g id="a_edge24_Node000001_Node000013"><a xlink:title=" ">
<path fill="none" stroke="#63b8ff" d="M812.27,-430.09C930.18,-411.05 1189.55,-356.06 1365.73,-229.19"/>
<polygon fill="none" stroke="#63b8ff" points="811.66,-426.64 802.33,-431.66 812.75,-433.55 811.66,-426.64"/>
</a>
</g>
</g>
</g>
</svg>
