<?xml version="1.0" encoding="UTF-8" standalone="no"?>
<!DOCTYPE svg PUBLIC "-//W3C//DTD SVG 1.1//EN"
 "http://www.w3.org/Graphics/SVG/1.1/DTD/svg11.dtd">
<!-- Generated by graphviz version 2.43.0 (0)
 -->
<!-- Title: ControllerHome\apercuProducteur Pages: 1 -->
<svg width="516pt" height="64pt"
 viewBox="0.00 0.00 516.00 64.00" xmlns="http://www.w3.org/2000/svg" xmlns:xlink="http://www.w3.org/1999/xlink">
<g id="graph0" class="graph" transform="scale(1 1) rotate(0) translate(4 60)">
<title>ControllerHome\apercuProducteur</title>
<!-- Node1 -->
<g id="Node000001" class="node">
<title>Node1</title>
<g id="a_Node000001"><a xlink:title="Méthode d&#39;aperçu du dashboard producteur (utile hors session producteur).">
<polygon fill="#999999" stroke="#666666" points="182,-37 0,-37 0,-18 182,-18 182,-37"/>
<text text-anchor="middle" x="91" y="-25" font-family="Helvetica,sans-Serif" font-size="10.00">ControllerHome\apercuProducteur</text>
</a>
</g>
</g>
<!-- Node2 -->
<g id="Node000002" class="node">
<title>Node2</title>
<g id="a_Node000002"><a xlink:href="classControllerHome.html#a67484343bd7975874176eb9ebed4a856" target="_top" xlink:title="Affiche le tableau de bord du producteur connecté.">
<polygon fill="white" stroke="#666666" points="367,-42.5 218,-42.5 218,-12.5 367,-12.5 367,-42.5"/>
<text text-anchor="start" x="226" y="-30.5" font-family="Helvetica,sans-Serif" font-size="10.00">ControllerHome\producteur</text>
<text text-anchor="middle" x="292.5" y="-19.5" font-family="Helvetica,sans-Serif" font-size="10.00">Dashboard</text>
</a>
</g>
</g>
<!-- Node1&#45;&gt;Node2 -->
<g id="edge1_Node000001_Node000002" class="edge">
<title>Node1&#45;&gt;Node2</title>
<g id="a_edge1_Node000001_Node000002"><a xlink:title=" ">
<path fill="none" stroke="#63b8ff" d="M182.12,-27.5C190.64,-27.5 199.25,-27.5 207.7,-27.5"/>
<polygon fill="#63b8ff" stroke="#63b8ff" points="207.92,-31 217.92,-27.5 207.92,-24 207.92,-31"/>
</a>
</g>
</g>
<!-- Node3 -->
<g id="Node000003" class="node">
<title>Node3</title>
<g id="a_Node000003"><a xlink:href="classController.html#aed88cab8d9c1a6735fd3aac0993e5021" target="_top" xlink:title="Récupère la connexion PDO.">
<polygon fill="white" stroke="#666666" points="507.5,-56 403.5,-56 403.5,-37 507.5,-37 507.5,-56"/>
<text text-anchor="middle" x="455.5" y="-44" font-family="Helvetica,sans-Serif" font-size="10.00">Controller\getPDO</text>
</a>
</g>
</g>
<!-- Node2&#45;&gt;Node3 -->
<g id="edge2_Node000002_Node000003" class="edge">
<title>Node2&#45;&gt;Node3</title>
<g id="a_edge2_Node000002_Node000003"><a xlink:title=" ">
<path fill="none" stroke="#63b8ff" d="M367.4,-36.22C375.98,-37.23 384.66,-38.26 393.05,-39.25"/>
<polygon fill="#63b8ff" stroke="#63b8ff" points="392.77,-42.74 403.11,-40.44 393.59,-35.79 392.77,-42.74"/>
</a>
</g>
</g>
<!-- Node4 -->
<g id="Node000004" class="node">
<title>Node4</title>
<g id="a_Node000004"><a xlink:href="classController.html#afd7d94db564ae6e196ac7ac0461e0989" target="_top" xlink:title="Récupère l&#39;environnement Twig.">
<polygon fill="white" stroke="#666666" points="508,-19 403,-19 403,0 508,0 508,-19"/>
<text text-anchor="middle" x="455.5" y="-7" font-family="Helvetica,sans-Serif" font-size="10.00">Controller\getTwig</text>
</a>
</g>
</g>
<!-- Node2&#45;&gt;Node4 -->
<g id="edge3_Node000002_Node000004" class="edge">
<title>Node2&#45;&gt;Node4</title>
<g id="a_edge3_Node000002_Node000004"><a xlink:title=" ">
<path fill="none" stroke="#63b8ff" d="M367.4,-19.24C375.77,-18.3 384.24,-17.36 392.43,-16.44"/>
<polygon fill="#63b8ff" stroke="#63b8ff" points="393.1,-19.89 402.64,-15.3 392.32,-12.93 393.1,-19.89"/>
</a>
</g>
</g>
</g>
</svg>
