<?xml version="1.0" encoding="UTF-8" standalone="no"?>
<!DOCTYPE svg PUBLIC "-//W3C//DTD SVG 1.1//EN"
 "http://www.w3.org/Graphics/SVG/1.1/DTD/svg11.dtd">
<!-- Generated by graphviz version 2.43.0 (0)
 -->
<!-- Title: GenreDAO\findOrCreateByName Pages: 1 -->
<svg width="493pt" height="101pt"
 viewBox="0.00 0.00 493.00 101.00" xmlns="http://www.w3.org/2000/svg" xmlns:xlink="http://www.w3.org/1999/xlink">

<svg id="main" version="1.1" xmlns="http://www.w3.org/2000/svg" xmlns:xlink="http://www.w3.org/1999/xlink" xml:space="preserve" onload="init(evt)">
<style type="text/css"><![CDATA[
.node, .edge {opacity: 0.7;}
.node.selected, .edge.selected {opacity: 1;}
.edge:hover path { stroke: red; }
.edge:hover polygon { stroke: red; fill: red; }
]]></style>
<script type="application/ecmascript" xlink:href="svg.min.js"/>
<svg id="graph" class="graph">
<g id="graph0" class="graph" transform="scale(1 1) rotate(0) translate(4 97)">
<title>GenreDAO\findOrCreateByName</title>
<!-- Node1 -->
<g id="Node000001" class="node">
<title>Node1</title>
<g id="a_Node000001"><a xlink:title=" ">
<polygon fill="#999999" stroke="#666666" points="174,-56 0,-56 0,-37 174,-37 174,-56"/>
<text text-anchor="middle" x="87" y="-44" font-family="Helvetica,sans-Serif" font-size="10.00">GenreDAO\findOrCreateByName</text>
</a>
</g>
</g>
<!-- Node2 -->
<g id="Node000002" class="node">
<title>Node2</title>
<g id="a_Node000002"><a xlink:href="classGenreDAO.html#a108166283e3bd86828c89ee4f219970a" target="_top" xlink:title=" ">
<polygon fill="white" stroke="#666666" points="326,-93 225,-93 225,-74 326,-74 326,-93"/>
<text text-anchor="middle" x="275.5" y="-81" font-family="Helvetica,sans-Serif" font-size="10.00">GenreDAO\create</text>
</a>
</g>
</g>
<!-- Node1&#45;&gt;Node2 -->
<g id="edge1_Node000001_Node000002" class="edge">
<title>Node1&#45;&gt;Node2</title>
<g id="a_edge1_Node000001_Node000002"><a xlink:title=" ">
<path fill="none" stroke="#63b8ff" d="M136.03,-56.03C160.52,-60.89 190.49,-66.83 216.28,-71.95"/>
<polygon fill="#63b8ff" stroke="#63b8ff" points="215.82,-75.43 226.31,-73.94 217.18,-68.56 215.82,-75.43"/>
</a>
</g>
</g>
<!-- Node3 -->
<g id="Node000003" class="node">
<title>Node3</title>
<g id="a_Node000003"><a xlink:href="classGenreDAO.html#a18aad41316262fc8d8ac94fa7717b7c4" target="_top" xlink:title=" ">
<polygon fill="white" stroke="#666666" points="320,-56 231,-56 231,-37 320,-37 320,-56"/>
<text text-anchor="middle" x="275.5" y="-44" font-family="Helvetica,sans-Serif" font-size="10.00">GenreDAO\find</text>
</a>
</g>
</g>
<!-- Node1&#45;&gt;Node3 -->
<g id="edge2_Node000001_Node000003" class="edge">
<title>Node1&#45;&gt;Node3</title>
<g id="a_edge2_Node000001_Node000003"><a xlink:title=" ">
<path fill="none" stroke="#63b8ff" d="M174.15,-46.5C189.97,-46.5 206.07,-46.5 220.6,-46.5"/>
<polygon fill="#63b8ff" stroke="#63b8ff" points="220.88,-50 230.88,-46.5 220.88,-43 220.88,-50"/>
</a>
</g>
</g>
<!-- Node5 -->
<g id="Node000005" class="node">
<title>Node5</title>
<g id="a_Node000005"><a xlink:href="classGenreDAO.html#ab9a7053dd5f550e84b01bde9f4121d9d" target="_top" xlink:title=" ">
<polygon fill="white" stroke="#666666" points="341,-19 210,-19 210,0 341,0 341,-19"/>
<text text-anchor="middle" x="275.5" y="-7" font-family="Helvetica,sans-Serif" font-size="10.00">GenreDAO\findByName</text>
</a>
</g>
</g>
<!-- Node1&#45;&gt;Node5 -->
<g id="edge4_Node000001_Node000005" class="edge">
<title>Node1&#45;&gt;Node5</title>
<g id="a_edge4_Node000001_Node000005"><a xlink:title=" ">
<path fill="none" stroke="#63b8ff" d="M136.03,-36.97C160.52,-32.11 190.49,-26.17 216.28,-21.05"/>
<polygon fill="#63b8ff" stroke="#63b8ff" points="217.18,-24.44 226.31,-19.06 215.82,-17.57 217.18,-24.44"/>
</a>
</g>
</g>
<!-- Node4 -->
<g id="Node000004" class="node">
<title>Node4</title>
<g id="a_Node000004"><a xlink:href="classGenreDAO.html#a3a42be74d149ce972ea74c6fd777a6fd" target="_top" xlink:title=" ">
<polygon fill="white" stroke="#666666" points="485,-37 377,-37 377,-18 485,-18 485,-37"/>
<text text-anchor="middle" x="431" y="-25" font-family="Helvetica,sans-Serif" font-size="10.00">GenreDAO\hydrate</text>
</a>
</g>
</g>
<!-- Node3&#45;&gt;Node4 -->
<g id="edge3_Node000003_Node000004" class="edge">
<title>Node3&#45;&gt;Node4</title>
<g id="a_edge3_Node000003_Node000004"><a xlink:title=" ">
<path fill="none" stroke="#63b8ff" d="M320.08,-41.11C334.55,-39.32 350.96,-37.28 366.61,-35.35"/>
<polygon fill="#63b8ff" stroke="#63b8ff" points="367.27,-38.79 376.76,-34.09 366.41,-31.84 367.27,-38.79"/>
</a>
</g>
</g>
<!-- Node5&#45;&gt;Node4 -->
<g id="edge5_Node000005_Node000004" class="edge">
<title>Node5&#45;&gt;Node4</title>
<g id="a_edge5_Node000005_Node000004"><a xlink:title=" ">
<path fill="none" stroke="#63b8ff" d="M341.15,-17.08C349.54,-18.07 358.13,-19.07 366.5,-20.05"/>
<polygon fill="#63b8ff" stroke="#63b8ff" points="366.23,-23.55 376.57,-21.23 367.04,-16.59 366.23,-23.55"/>
</a>
</g>
</g>
</g>
</svg>
</svg>

<style type='text/css'>
<![CDATA[
[data-mouse-over-selected='false'] { opacity: 0.7; }
[data-mouse-over-selected='true']  { opacity: 1.0; }
]]>
</style>
<script type="application/ecmascript"><![CDATA[
document.addEventListener('DOMContentLoaded', (event) => {
  highlightEdges();
  highlightAdjacentNodes();
});
]]></script>
</svg>
