<?xml version="1.0" encoding="UTF-8" standalone="no"?>
<!DOCTYPE svg PUBLIC "-//W3C//DTD SVG 1.1//EN"
 "http://www.w3.org/Graphics/SVG/1.1/DTD/svg11.dtd">
<!-- Generated by graphviz version 2.43.0 (0)
 -->
<!-- Title: Email\sendEmail Pages: 1 -->
<svg width="470pt" height="175pt"
 viewBox="0.00 0.00 470.00 175.00" xmlns="http://www.w3.org/2000/svg" xmlns:xlink="http://www.w3.org/1999/xlink">
<g id="graph0" class="graph" transform="scale(1 1) rotate(0) translate(4 171)">
<title>Email\sendEmail</title>
<!-- Node1 -->
<g id="Node000001" class="node">
<title>Node1</title>
<g id="a_Node000001"><a xlink:title="Envoie un email générique.">
<polygon fill="#999999" stroke="#666666" points="462,-93 364,-93 364,-74 462,-74 462,-93"/>
<text text-anchor="middle" x="413" y="-81" font-family="Helvetica,sans-Serif" font-size="10.00">Email\sendEmail</text>
</a>
</g>
</g>
<!-- Node2 -->
<g id="Node000002" class="node">
<title>Node2</title>
<g id="a_Node000002"><a xlink:href="classEmail.html#a8c71ec8d159d28e642c37888d94d7aa2" target="_top" xlink:title="Envoie un email de confirmation d&#39;inscription.">
<polygon fill="white" stroke="#666666" points="322.5,-167 161.5,-167 161.5,-148 322.5,-148 322.5,-167"/>
<text text-anchor="middle" x="242" y="-155" font-family="Helvetica,sans-Serif" font-size="10.00">Email\sendConfirmationEmail</text>
</a>
</g>
</g>
<!-- Node1&#45;&gt;Node2 -->
<g id="edge1_Node000001_Node000002" class="edge">
<title>Node1&#45;&gt;Node2</title>
<g id="a_edge1_Node000001_Node000002"><a xlink:title=" ">
<path fill="none" stroke="#63b8ff" d="M392.42,-99.71C376.14,-112.37 351.85,-129.46 328,-139.5 319.94,-142.89 311.16,-145.67 302.42,-147.94"/>
<polygon fill="#63b8ff" stroke="#63b8ff" points="394.94,-102.17 400.58,-93.2 390.58,-96.69 394.94,-102.17"/>
</a>
</g>
</g>
<!-- Node3 -->
<g id="Node000003" class="node">
<title>Node3</title>
<g id="a_Node000003"><a xlink:href="classEmail.html#a1ebc55f26145ec1d583b272e84c9c480" target="_top" xlink:title="Envoie un email de newsletter.">
<polygon fill="white" stroke="#666666" points="318,-130 166,-130 166,-111 318,-111 318,-130"/>
<text text-anchor="middle" x="242" y="-118" font-family="Helvetica,sans-Serif" font-size="10.00">Email\sendNewsletterEmail</text>
</a>
</g>
</g>
<!-- Node1&#45;&gt;Node3 -->
<g id="edge2_Node000001_Node000003" class="edge">
<title>Node1&#45;&gt;Node3</title>
<g id="a_edge2_Node000001_Node000003"><a xlink:title=" ">
<path fill="none" stroke="#63b8ff" d="M360.15,-95.35C349.52,-97.74 338.4,-100.22 328,-102.5 315.18,-105.31 301.26,-108.29 288.46,-110.99"/>
<polygon fill="#63b8ff" stroke="#63b8ff" points="361.17,-98.7 370.15,-93.08 359.63,-91.88 361.17,-98.7"/>
</a>
</g>
</g>
<!-- Node5 -->
<g id="Node000005" class="node">
<title>Node5</title>
<g id="a_Node000005"><a xlink:href="classEmail.html#a0ee4dc977a9847d4d23c72a2e708337e" target="_top" xlink:title="Envoie un email de notification (nouvel album, nouveau follower, etc.)">
<polygon fill="white" stroke="#666666" points="319.5,-93 164.5,-93 164.5,-74 319.5,-74 319.5,-93"/>
<text text-anchor="middle" x="242" y="-81" font-family="Helvetica,sans-Serif" font-size="10.00">Email\sendNotificationEmail</text>
</a>
</g>
</g>
<!-- Node1&#45;&gt;Node5 -->
<g id="edge4_Node000001_Node000005" class="edge">
<title>Node1&#45;&gt;Node5</title>
<g id="a_edge4_Node000001_Node000005"><a xlink:title=" ">
<path fill="none" stroke="#63b8ff" d="M353.33,-83.5C342.42,-83.5 330.87,-83.5 319.51,-83.5"/>
<polygon fill="#63b8ff" stroke="#63b8ff" points="353.57,-87 363.57,-83.5 353.57,-80 353.57,-87"/>
</a>
</g>
</g>
<!-- Node6 -->
<g id="Node000006" class="node">
<title>Node6</title>
<g id="a_Node000006"><a xlink:href="classEmail.html#a71c29bcbebc4fb0e32b9bd382c334cbc" target="_top" xlink:title="Envoie un email de réinitialisation de mot de passe.">
<polygon fill="white" stroke="#666666" points="328,-56 156,-56 156,-37 328,-37 328,-56"/>
<text text-anchor="middle" x="242" y="-44" font-family="Helvetica,sans-Serif" font-size="10.00">Email\sendPasswordResetEmail</text>
</a>
</g>
</g>
<!-- Node1&#45;&gt;Node6 -->
<g id="edge5_Node000001_Node000006" class="edge">
<title>Node1&#45;&gt;Node6</title>
<g id="a_edge5_Node000001_Node000006"><a xlink:title=" ">
<path fill="none" stroke="#63b8ff" d="M358.47,-71.78C335.32,-66.71 308.58,-60.86 286.67,-56.06"/>
<polygon fill="#63b8ff" stroke="#63b8ff" points="357.96,-75.25 368.48,-73.97 359.46,-68.41 357.96,-75.25"/>
</a>
</g>
</g>
<!-- Node7 -->
<g id="Node000007" class="node">
<title>Node7</title>
<g id="a_Node000007"><a xlink:href="classEmail.html#a67accca2885af8491566d685127f069c" target="_top" xlink:title="Envoie un email de bienvenue à un nouvel utilisateur.">
<polygon fill="white" stroke="#666666" points="313.5,-19 170.5,-19 170.5,0 313.5,0 313.5,-19"/>
<text text-anchor="middle" x="242" y="-7" font-family="Helvetica,sans-Serif" font-size="10.00">Email\sendWelcomeEmail</text>
</a>
</g>
</g>
<!-- Node1&#45;&gt;Node7 -->
<g id="edge6_Node000001_Node000007" class="edge">
<title>Node1&#45;&gt;Node7</title>
<g id="a_edge6_Node000001_Node000007"><a xlink:title=" ">
<path fill="none" stroke="#63b8ff" d="M392.06,-67.46C375.73,-55.09 351.57,-38.46 328,-28.5 318.95,-24.67 309.01,-21.57 299.22,-19.06"/>
<polygon fill="#63b8ff" stroke="#63b8ff" points="390.22,-70.46 400.27,-73.82 394.51,-64.93 390.22,-70.46"/>
</a>
</g>
</g>
<!-- Node4 -->
<g id="Node000004" class="node">
<title>Node4</title>
<g id="a_Node000004"><a xlink:href="classEmail.html#ace294aab67bdd1728f4b95ead374f3d9" target="_top" xlink:title="Envoie un email en masse à plusieurs destinataires (pour la newsletter)">
<polygon fill="white" stroke="#666666" points="120,-130 0,-130 0,-111 120,-111 120,-130"/>
<text text-anchor="middle" x="60" y="-118" font-family="Helvetica,sans-Serif" font-size="10.00">Email\sendBulkEmail</text>
</a>
</g>
</g>
<!-- Node3&#45;&gt;Node4 -->
<g id="edge3_Node000003_Node000004" class="edge">
<title>Node3&#45;&gt;Node4</title>
<g id="a_edge3_Node000003_Node000004"><a xlink:title=" ">
<path fill="none" stroke="#63b8ff" d="M155.84,-120.5C143.72,-120.5 131.48,-120.5 120.01,-120.5"/>
<polygon fill="#63b8ff" stroke="#63b8ff" points="155.97,-124 165.97,-120.5 155.97,-117 155.97,-124"/>
</a>
</g>
</g>
<!-- Node8 -->
<g id="Node000008" class="node">
<title>Node8</title>
<g id="a_Node000008"><a xlink:href="classEmail.html#a84786f0307c864ddd7cfb12acba129b3" target="_top" xlink:title="Fonction de test simple de la classe Email avec un nom et un email factices.">
<polygon fill="white" stroke="#666666" points="107,-19 13,-19 13,0 107,0 107,-19"/>
<text text-anchor="middle" x="60" y="-7" font-family="Helvetica,sans-Serif" font-size="10.00">Email\testEmail</text>
</a>
</g>
</g>
<!-- Node7&#45;&gt;Node8 -->
<g id="edge7_Node000007_Node000008" class="edge">
<title>Node7&#45;&gt;Node8</title>
<g id="a_edge7_Node000007_Node000008"><a xlink:title=" ">
<path fill="none" stroke="#63b8ff" d="M160.31,-9.5C142.07,-9.5 123.3,-9.5 107.07,-9.5"/>
<polygon fill="#63b8ff" stroke="#63b8ff" points="160.38,-13 170.38,-9.5 160.38,-6 160.38,-13"/>
</a>
</g>
</g>
</g>
</svg>
