<?xml version="1.0" encoding="UTF-8" standalone="no"?>
<!DOCTYPE svg PUBLIC "-//W3C//DTD SVG 1.1//EN"
 "http://www.w3.org/Graphics/SVG/1.1/DTD/svg11.dtd">
<!-- Generated by graphviz version 2.43.0 (0)
 -->
<!-- Title: Graphe hiérarchique des classes Pages: 1 -->
<svg width="227pt" height="434pt"
 viewBox="0.00 0.00 227.00 434.00" xmlns="http://www.w3.org/2000/svg" xmlns:xlink="http://www.w3.org/1999/xlink">
<g id="graph0" class="graph" transform="scale(1 1) rotate(0) translate(4 430)">
<title>Graphe hiérarchique des classes</title>
<!-- Node0 -->
<g id="Node000000" class="node">
<title>Node0</title>
<g id="a_Node000000"><a xlink:href="classController.html" target="_top" xlink:title="Classe de base pour tous les contrôleurs de l&#39;application.">
<polygon fill="white" stroke="#666666" points="65,-222 0,-222 0,-203 65,-203 65,-222"/>
<text text-anchor="middle" x="32.5" y="-210" font-family="Helvetica,sans-Serif" font-size="10.00">Controller</text>
</a>
</g>
</g>
<!-- Node1 -->
<g id="Node000001" class="node">
<title>Node1</title>
<g id="a_Node000001"><a xlink:href="classControllerAdmin.html" target="_top" xlink:title="Contrôleur dédié à la gestion de l&#39;administration.">
<polygon fill="white" stroke="#666666" points="208,-426 112,-426 112,-407 208,-407 208,-426"/>
<text text-anchor="middle" x="160" y="-414" font-family="Helvetica,sans-Serif" font-size="10.00">ControllerAdmin</text>
</a>
</g>
</g>
<!-- Node0&#45;&gt;Node1 -->
<g id="edge1_Node000000_Node000001" class="edge">
<title>Node0&#45;&gt;Node1</title>
<g id="a_edge1_Node000000_Node000001"><a xlink:title=" ">
<path fill="none" stroke="#63b8ff" d="M35.03,-232.42C39.02,-270.23 53.02,-352.73 101,-398.5 104.59,-401.92 108.81,-404.69 113.32,-406.94"/>
<polygon fill="#63b8ff" stroke="#63b8ff" points="38.5,-231.84 34.09,-222.21 31.53,-232.48 38.5,-231.84"/>
</a>
</g>
</g>
<!-- Node2 -->
<g id="Node000002" class="node">
<title>Node2</title>
<g id="a_Node000002"><a xlink:href="classControllerAlbum.html" target="_top" xlink:title="Contrôleur dédié à la gestion des albums.">
<polygon fill="white" stroke="#666666" points="208,-389 112,-389 112,-370 208,-370 208,-389"/>
<text text-anchor="middle" x="160" y="-377" font-family="Helvetica,sans-Serif" font-size="10.00">ControllerAlbum</text>
</a>
</g>
</g>
<!-- Node0&#45;&gt;Node2 -->
<g id="edge2_Node000000_Node000002" class="edge">
<title>Node0&#45;&gt;Node2</title>
<g id="a_edge2_Node000000_Node000002"><a xlink:title=" ">
<path fill="none" stroke="#63b8ff" d="M36.99,-231.96C43.7,-263.69 61.39,-326.53 101,-361.5 104.87,-364.92 109.39,-367.69 114.16,-369.93"/>
<polygon fill="#63b8ff" stroke="#63b8ff" points="40.42,-231.26 35.06,-222.13 33.55,-232.62 40.42,-231.26"/>
</a>
</g>
</g>
<!-- Node3 -->
<g id="Node000003" class="node">
<title>Node3</title>
<g id="a_Node000003"><a xlink:href="classControllerBattle.html" target="_top" xlink:title="Contrôleur dédié à la gestion des battles.">
<polygon fill="white" stroke="#666666" points="207,-352 113,-352 113,-333 207,-333 207,-352"/>
<text text-anchor="middle" x="160" y="-340" font-family="Helvetica,sans-Serif" font-size="10.00">ControllerBattle</text>
</a>
</g>
</g>
<!-- Node0&#45;&gt;Node3 -->
<g id="edge3_Node000000_Node000003" class="edge">
<title>Node0&#45;&gt;Node3</title>
<g id="a_edge3_Node000000_Node000003"><a xlink:title=" ">
<path fill="none" stroke="#63b8ff" d="M40.1,-231.68C49.67,-256.66 69.73,-299.99 101,-324.5 105.4,-327.95 110.46,-330.74 115.73,-333"/>
<polygon fill="#63b8ff" stroke="#63b8ff" points="43.36,-230.41 36.65,-222.21 36.79,-232.81 43.36,-230.41"/>
</a>
</g>
</g>
<!-- Node4 -->
<g id="Node000004" class="node">
<title>Node4</title>
<g id="a_Node000004"><a xlink:href="classControllerChanson.html" target="_top" xlink:title="Contrôleur dédié à la gestion des chansons.">
<polygon fill="white" stroke="#666666" points="213.5,-315 106.5,-315 106.5,-296 213.5,-296 213.5,-315"/>
<text text-anchor="middle" x="160" y="-303" font-family="Helvetica,sans-Serif" font-size="10.00">ControllerChanson</text>
</a>
</g>
</g>
<!-- Node0&#45;&gt;Node4 -->
<g id="edge4_Node000000_Node000004" class="edge">
<title>Node0&#45;&gt;Node4</title>
<g id="a_edge4_Node000000_Node000004"><a xlink:title=" ">
<path fill="none" stroke="#63b8ff" d="M45.4,-230.57C57.5,-247.57 77.72,-272.6 101,-287.5 106.24,-290.85 112.14,-293.62 118.13,-295.89"/>
<polygon fill="#63b8ff" stroke="#63b8ff" points="48.1,-228.32 39.55,-222.06 42.34,-232.28 48.1,-228.32"/>
</a>
</g>
</g>
<!-- Node5 -->
<g id="Node000005" class="node">
<title>Node5</title>
<g id="a_Node000005"><a xlink:href="classControllerFichier.html" target="_top" xlink:title="Contrôleur dédié à la gestion des fichiers.">
<polygon fill="white" stroke="#666666" points="208.5,-278 111.5,-278 111.5,-259 208.5,-259 208.5,-278"/>
<text text-anchor="middle" x="160" y="-266" font-family="Helvetica,sans-Serif" font-size="10.00">ControllerFichier</text>
</a>
</g>
</g>
<!-- Node0&#45;&gt;Node5 -->
<g id="edge5_Node000000_Node000005" class="edge">
<title>Node0&#45;&gt;Node5</title>
<g id="a_edge5_Node000000_Node000005"><a xlink:title=" ">
<path fill="none" stroke="#63b8ff" d="M56.89,-227.29C69.6,-234.91 85.79,-243.95 101,-250.5 108.26,-253.63 116.25,-256.47 123.91,-258.92"/>
<polygon fill="#63b8ff" stroke="#63b8ff" points="58.67,-224.28 48.31,-222.05 55.02,-230.25 58.67,-224.28"/>
</a>
</g>
</g>
<!-- Node6 -->
<g id="Node000006" class="node">
<title>Node6</title>
<g id="a_Node000006"><a xlink:href="classControllerGenre.html" target="_top" xlink:title="Contrôleur dédié à la gestion des genres musicaux.">
<polygon fill="white" stroke="#666666" points="207,-241 113,-241 113,-222 207,-222 207,-241"/>
<text text-anchor="middle" x="160" y="-229" font-family="Helvetica,sans-Serif" font-size="10.00">ControllerGenre</text>
</a>
</g>
</g>
<!-- Node0&#45;&gt;Node6 -->
<g id="edge6_Node000000_Node000006" class="edge">
<title>Node0&#45;&gt;Node6</title>
<g id="a_edge6_Node000000_Node000006"><a xlink:title=" ">
<path fill="none" stroke="#63b8ff" d="M75.34,-218.83C87.3,-220.65 100.42,-222.63 112.64,-224.48"/>
<polygon fill="#63b8ff" stroke="#63b8ff" points="75.58,-215.33 65.17,-217.29 74.53,-222.25 75.58,-215.33"/>
</a>
</g>
</g>
<!-- Node7 -->
<g id="Node000007" class="node">
<title>Node7</title>
<g id="a_Node000007"><a xlink:href="classControllerHome.html" target="_top" xlink:title="Contrôleur dédié à la gestion de la page d&#39;accueil.">
<polygon fill="white" stroke="#666666" points="207,-204 113,-204 113,-185 207,-185 207,-204"/>
<text text-anchor="middle" x="160" y="-192" font-family="Helvetica,sans-Serif" font-size="10.00">ControllerHome</text>
</a>
</g>
</g>
<!-- Node0&#45;&gt;Node7 -->
<g id="edge7_Node000000_Node000007" class="edge">
<title>Node0&#45;&gt;Node7</title>
<g id="a_edge7_Node000000_Node000007"><a xlink:title=" ">
<path fill="none" stroke="#63b8ff" d="M75.34,-206.5C87.3,-204.78 100.42,-202.9 112.64,-201.15"/>
<polygon fill="#63b8ff" stroke="#63b8ff" points="74.57,-203.07 65.17,-207.96 75.56,-210 74.57,-203.07"/>
</a>
</g>
</g>
<!-- Node8 -->
<g id="Node000008" class="node">
<title>Node8</title>
<g id="a_Node000008"><a xlink:href="classControllerMusique.html" target="_top" xlink:title="Contrôleur dédié à la gestion de la bibliothèque musicale de l&#39;utilisateur.">
<polygon fill="white" stroke="#666666" points="213,-167 107,-167 107,-148 213,-148 213,-167"/>
<text text-anchor="middle" x="160" y="-155" font-family="Helvetica,sans-Serif" font-size="10.00">ControllerMusique</text>
</a>
</g>
</g>
<!-- Node0&#45;&gt;Node8 -->
<g id="edge8_Node000000_Node000008" class="edge">
<title>Node0&#45;&gt;Node8</title>
<g id="a_edge8_Node000000_Node000008"><a xlink:title=" ">
<path fill="none" stroke="#63b8ff" d="M58.4,-197.89C70.93,-190.88 86.5,-182.69 101,-176.5 109.09,-173.05 118.03,-169.84 126.42,-167.08"/>
<polygon fill="#63b8ff" stroke="#63b8ff" points="56.44,-194.97 49.48,-202.96 59.9,-201.06 56.44,-194.97"/>
</a>
</g>
</g>
<!-- Node9 -->
<g id="Node000009" class="node">
<title>Node9</title>
<g id="a_Node000009"><a xlink:href="classControllerNewsletter.html" target="_top" xlink:title="Contrôleur dédié à la gestion de la newsletter.">
<polygon fill="white" stroke="#666666" points="219,-130 101,-130 101,-111 219,-111 219,-130"/>
<text text-anchor="middle" x="160" y="-118" font-family="Helvetica,sans-Serif" font-size="10.00">ControllerNewsletter</text>
</a>
</g>
</g>
<!-- Node0&#45;&gt;Node9 -->
<g id="edge9_Node000000_Node000009" class="edge">
<title>Node0&#45;&gt;Node9</title>
<g id="a_edge9_Node000000_Node000009"><a xlink:title=" ">
<path fill="none" stroke="#63b8ff" d="M46.16,-194.2C58.42,-177.74 78.45,-153.97 101,-139.5 106.97,-135.67 113.79,-132.54 120.61,-130.01"/>
<polygon fill="#63b8ff" stroke="#63b8ff" points="43.19,-192.34 40.17,-202.5 48.86,-196.44 43.19,-192.34"/>
</a>
</g>
</g>
<!-- Node10 -->
<g id="Node000010" class="node">
<title>Node10</title>
<g id="a_Node000010"><a xlink:href="classControllerPlaylist.html" target="_top" xlink:title="Contrôleur dédié à la gestion des playlists.">
<polygon fill="white" stroke="#666666" points="210.5,-93 109.5,-93 109.5,-74 210.5,-74 210.5,-93"/>
<text text-anchor="middle" x="160" y="-81" font-family="Helvetica,sans-Serif" font-size="10.00">ControllerPlaylist</text>
</a>
</g>
</g>
<!-- Node0&#45;&gt;Node10 -->
<g id="edge10_Node000000_Node000010" class="edge">
<title>Node0&#45;&gt;Node10</title>
<g id="a_edge10_Node000000_Node000010"><a xlink:title=" ">
<path fill="none" stroke="#63b8ff" d="M40.39,-193.4C50.17,-168.9 70.37,-126.69 101,-102.5 105.91,-98.63 111.63,-95.53 117.54,-93.05"/>
<polygon fill="#63b8ff" stroke="#63b8ff" points="37.02,-192.41 36.73,-203 43.56,-194.9 37.02,-192.41"/>
</a>
</g>
</g>
<!-- Node11 -->
<g id="Node000011" class="node">
<title>Node11</title>
<g id="a_Node000011"><a xlink:href="classControllerRole.html" target="_top" xlink:title="Contrôleur dédié à la gestion des rôles utilisateurs.">
<polygon fill="white" stroke="#666666" points="203,-56 117,-56 117,-37 203,-37 203,-56"/>
<text text-anchor="middle" x="160" y="-44" font-family="Helvetica,sans-Serif" font-size="10.00">ControllerRole</text>
</a>
</g>
</g>
<!-- Node0&#45;&gt;Node11 -->
<g id="edge11_Node000000_Node000011" class="edge">
<title>Node0&#45;&gt;Node11</title>
<g id="a_edge11_Node000000_Node000011"><a xlink:title=" ">
<path fill="none" stroke="#63b8ff" d="M37.32,-192.5C44.37,-161.03 62.37,-99.97 101,-65.5 105.59,-61.41 111.07,-58.2 116.81,-55.67"/>
<polygon fill="#63b8ff" stroke="#63b8ff" points="33.82,-192.15 35.2,-202.66 40.67,-193.58 33.82,-192.15"/>
</a>
</g>
</g>
<!-- Node12 -->
<g id="Node000012" class="node">
<title>Node12</title>
<g id="a_Node000012"><a xlink:href="classControllerUtilisateur.html" target="_top" xlink:title="Contrôleur dédié à la gestion des utilisateurs.">
<polygon fill="white" stroke="#666666" points="218,-19 102,-19 102,0 218,0 218,-19"/>
<text text-anchor="middle" x="160" y="-7" font-family="Helvetica,sans-Serif" font-size="10.00">ControllerUtilisateur</text>
</a>
</g>
</g>
<!-- Node0&#45;&gt;Node12 -->
<g id="edge12_Node000000_Node000012" class="edge">
<title>Node0&#45;&gt;Node12</title>
<g id="a_edge12_Node000000_Node000012"><a xlink:title=" ">
<path fill="none" stroke="#63b8ff" d="M35.17,-192.86C39.38,-155.56 53.75,-74.12 101,-28.5 105.04,-24.6 109.89,-21.5 115.05,-19.04"/>
<polygon fill="#63b8ff" stroke="#63b8ff" points="31.67,-192.63 34.16,-202.93 38.64,-193.33 31.67,-192.63"/>
</a>
</g>
</g>
</g>
</svg>
