<?xml version="1.0" encoding="UTF-8"?>
<!-- Generated by Pixelmator Pro 3.7.1 -->
<svg width="300" height="100" viewBox="0 0 300 100" xmlns="http://www.w3.org/2000/svg">
    <g id="Group">
        <path id="paaxio" fill="#000000" fill-rule="evenodd" stroke="none" d="M 275.719452 32.536842 C 276.435242 32.536842 277.024719 32.778946 277.487885 33.263153 C 277.95105 33.747368 278.182617 34.347366 278.182617 35.063156 L 278.182617 65 C 278.182617 65.71579 277.95105 66.315781 277.487885 66.800003 C 277.024719 67.28421 276.435242 67.526314 275.719452 67.526314 C 275.003662 67.526314 274.403656 67.28421 273.919464 66.800003 C 273.435242 66.315781 273.193146 65.71579 273.193146 65 L 273.193146 35.063156 C 273.193146 34.347366 273.435242 33.747368 273.919464 33.263153 C 274.403656 32.778946 275.003662 32.536842 275.719452 32.536842 Z M 284.561554 23.063156 C 285.529968 23.063156 286.340515 23.399994 286.993134 24.073677 C 287.645782 24.747368 287.972076 25.568413 287.972076 26.536842 L 287.972076 73.526314 C 287.972076 74.494743 287.645782 75.315788 286.993134 75.989471 C 286.340515 76.663162 285.529968 77 284.561554 77 L 266.87735 77 C 265.908936 77 265.087891 76.663162 264.414185 75.989471 C 263.740509 75.315788 263.403656 74.494743 263.403656 73.526314 L 263.403656 26.536842 C 263.403656 25.568413 263.740509 24.747368 264.414185 24.073677 C 265.087891 23.399994 265.908936 23.063156 266.87735 23.063156 Z M 282.982635 28.052628 L 268.393127 28.052628 L 268.393127 72.010529 L 282.982635 72.010529 Z M 255.69841 32.599998 C 256.329987 32.599998 256.87735 32.821053 257.340515 33.263153 C 257.80368 33.705261 258.035248 34.242104 258.035248 34.873688 L 258.035248 65.189468 C 258.035248 65.863159 257.80368 66.421051 257.340515 66.863159 C 256.87735 67.305267 256.329987 67.526314 255.69841 67.526314 L 255.382614 67.526314 C 254.708923 67.526314 254.151047 67.305267 253.708939 66.863159 C 253.26683 66.421051 253.045776 65.863159 253.045776 65.189468 L 253.045776 34.873688 C 253.045776 34.242104 253.26683 33.705261 253.708939 33.263153 C 254.151047 32.821053 254.708923 32.599998 255.382614 32.599998 Z M 255.69841 23.126312 C 256.329987 23.126312 256.87735 23.347366 257.340515 23.789467 C 257.80368 24.231583 258.035248 24.789474 258.035248 25.463158 C 258.035248 26.094742 257.80368 26.631577 257.340515 27.073685 C 256.87735 27.515793 256.329987 27.736839 255.69841 27.736839 L 255.382614 27.736839 C 254.708923 27.736839 254.151047 27.515793 253.708939 27.073685 C 253.26683 26.631577 253.045776 26.094742 253.045776 25.463158 C 253.045776 24.789474 253.26683 24.231583 253.708939 23.789467 C 254.151047 23.347366 254.708923 23.126312 255.382614 23.126312 Z M 255.382614 77 C 254.708923 77 254.151047 76.778954 253.708939 76.336838 C 253.26683 75.894737 253.045776 75.336845 253.045776 74.663155 C 253.045776 74.03157 253.26683 73.484207 253.708939 73.021057 C 254.151047 72.557892 254.708923 72.326317 255.382614 72.326317 L 255.69841 72.326317 C 256.329987 72.326317 256.87735 72.557892 257.340515 73.021057 C 257.80368 73.484207 258.035248 74.03157 258.035248 74.663155 C 258.035248 75.336845 257.80368 75.894737 257.340515 76.336838 C 256.87735 76.778954 256.329987 77 255.69841 77 Z M 242.940506 24.452629 C 243.403671 23.56842 244.140503 23.126312 245.151031 23.126312 C 246.119461 23.126312 246.845764 23.515785 247.329987 24.294731 C 247.814194 25.073685 247.824722 25.884201 247.361557 26.726318 L 235.298401 50.031578 L 235.298401 50.094738 L 232.519455 55.526314 L 232.456299 55.463158 L 222.035248 75.673683 C 221.824722 76.094742 221.519455 76.421051 221.119461 76.652634 C 220.719452 76.884209 220.287888 77 219.824722 77 L 219.761566 77 C 218.835236 77 218.12999 76.610535 217.645767 75.831573 C 217.16156 75.052628 217.12999 74.242111 217.551041 73.400002 L 229.677353 50.031578 L 217.551041 26.726318 C 217.12999 25.884201 217.16156 25.073685 217.645767 24.294731 C 218.12999 23.515785 218.835236 23.126312 219.761566 23.126312 L 219.824722 23.126312 C 220.287888 23.126312 220.719452 23.242104 221.119461 23.473686 C 221.519455 23.705261 221.824722 24.031578 222.035248 24.452629 L 232.456299 44.663155 Z M 231.824722 24.452629 C 232.287872 23.56842 233.024704 23.126312 234.035248 23.126312 C 235.003677 23.126312 235.72998 23.515785 236.214188 24.294731 C 236.69841 25.073685 236.708939 25.884201 236.245773 26.726318 L 235.108932 29 C 234.856308 29.463158 234.529984 29.799995 234.129974 30.010529 C 233.72998 30.221054 233.308929 30.326317 232.866821 30.326317 C 232.424713 30.326317 232.003677 30.210526 231.603668 29.978943 C 231.203659 29.747368 230.898407 29.400002 230.687881 28.936836 C 230.266815 28.178947 230.266815 27.421051 230.687881 26.663155 Z M 235.803665 61.905262 C 235.424713 61.105259 235.424713 60.34737 235.803665 59.631577 C 236.056305 59.168419 236.382614 58.821053 236.782608 58.589474 C 237.182617 58.357895 237.59314 58.242107 238.014191 58.242107 C 238.435242 58.242107 238.845764 58.357895 239.245773 58.589474 C 239.645782 58.821053 239.972092 59.147366 240.224716 59.568417 L 247.361557 73.400002 C 247.824722 74.242111 247.814194 75.052628 247.329987 75.831573 C 246.845764 76.610535 246.119461 77 245.151031 77 C 244.140503 77 243.403671 76.557899 242.940506 75.673683 Z M 211.740509 74.031578 C 211.951035 74.747368 211.835251 75.421051 211.393143 76.052628 C 210.951035 76.684219 210.351044 77 209.59314 77 C 208.498398 77 207.782608 76.473686 207.44577 75.421051 L 193.677353 32.663155 L 182.87735 66.578949 L 192.477356 66.578949 L 191.151031 62.410526 C 190.940506 61.905262 190.940506 61.400002 191.151031 60.894737 C 191.319458 60.347366 191.62471 59.926315 192.066833 59.631577 C 192.508926 59.336838 192.98262 59.189472 193.487885 59.189472 C 193.993149 59.189472 194.466827 59.336838 194.90892 59.631577 C 195.351028 59.926315 195.677353 60.347366 195.887878 60.894737 L 199.993134 73.652634 C 200.245773 74.494743 200.119461 75.252632 199.614197 75.926315 C 199.108932 76.600006 198.435257 76.936844 197.59314 76.936844 C 197.045761 76.894737 196.561569 76.71579 196.140518 76.400002 C 195.719452 76.084213 195.424728 75.673691 195.256302 75.168419 L 194.119461 71.56842 L 181.235245 71.56842 L 180.035248 75.357895 C 179.698395 76.41053 178.98262 76.936844 177.887878 76.936844 C 177.129974 76.936844 176.529984 76.631584 176.087875 76.021049 C 175.645767 75.410522 175.551025 74.747368 175.803665 74.031578 L 191.529984 24.642105 C 191.698395 24.136841 191.982605 23.747368 192.382614 23.473686 C 192.782623 23.199997 193.214188 23.063156 193.677353 23.063156 C 194.140503 23.063156 194.572083 23.199997 194.972092 23.473686 C 195.372086 23.747368 195.656296 24.136841 195.824722 24.642105 L 211.740509 74.031578 Z M 170.119461 74.031578 C 170.329987 74.747368 170.214188 75.421051 169.772095 76.052628 C 169.329987 76.684219 168.72998 77 167.972092 77 C 166.877335 77 166.16156 76.473686 165.824722 75.421051 L 152.05629 32.663155 L 141.256302 66.578949 L 150.856293 66.578949 L 149.529984 62.410526 C 149.319458 61.905262 149.319458 61.400002 149.529984 60.894737 C 149.698395 60.347366 150.003662 59.926315 150.44577 59.631577 C 150.887878 59.336838 151.361557 59.189472 151.866821 59.189472 C 152.372086 59.189472 152.845764 59.336838 153.287872 59.631577 C 153.72998 59.926315 154.056305 60.347366 154.26683 60.894737 L 158.372086 73.652634 C 158.624725 74.494743 158.498398 75.252632 157.993134 75.926315 C 157.487869 76.600006 156.814194 76.936844 155.972092 76.936844 C 155.424713 76.894737 154.940506 76.71579 154.519455 76.400002 C 154.098404 76.084213 153.803665 75.673691 153.635239 75.168419 L 152.498398 71.56842 L 139.614197 71.56842 L 138.414185 75.357895 C 138.077347 76.41053 137.361557 76.936844 136.26683 76.936844 C 135.508926 76.936844 134.908936 76.631584 134.466827 76.021049 C 134.024719 75.410522 133.929977 74.747368 134.182617 74.031578 L 149.908936 24.642105 C 150.077347 24.136841 150.361557 23.747368 150.761566 23.473686 C 151.16156 23.199997 151.59314 23.063156 152.05629 23.063156 C 152.519455 23.063156 152.951035 23.199997 153.351028 23.473686 C 153.751038 23.747368 154.035248 24.136841 154.203659 24.642105 L 170.119461 74.031578 Z M 123.508926 23 C 124.772095 23 125.972084 23.242104 127.108932 23.726311 C 128.245773 24.210526 129.224716 24.87368 130.045776 25.71579 C 130.866821 26.557899 131.519455 27.547356 132.003662 28.684204 C 132.487885 29.82106 132.72998 31.021042 132.72998 32.28421 L 132.72998 44.536839 C 132.72998 45.800003 132.487885 46.999992 132.003662 48.136841 C 131.519455 49.273689 130.866821 50.263153 130.045776 51.105263 C 129.224716 51.947372 128.245773 52.610523 127.108932 53.094734 C 125.972084 53.578949 124.772095 53.821053 123.508926 53.821053 L 113.151031 53.821053 L 113.151031 74.473686 C 113.151031 75.189476 112.908928 75.789474 112.424721 76.273682 C 111.940506 76.757904 111.340508 77 110.624718 77 C 109.951027 77 109.372086 76.757904 108.887871 76.273682 C 108.403664 75.789474 108.16156 75.189476 108.16156 74.473686 L 108.16156 53.821053 L 108.16156 48.831577 L 108.16156 35 C 108.16156 34.284203 108.403664 33.694733 108.887871 33.231575 C 109.372086 32.768417 109.951027 32.536842 110.624718 32.536842 C 111.340508 32.536842 111.940506 32.768417 112.424721 33.231575 C 112.908928 33.694733 113.151031 34.284203 113.151031 35 L 113.151031 48.831577 L 121.740509 48.831577 C 123.424728 48.831577 124.845764 48.242107 126.003662 47.06316 C 127.161568 45.884205 127.740509 44.452641 127.740509 42.768421 L 127.740509 34.052628 C 127.740509 32.368416 127.161568 30.936844 126.003662 29.757896 C 124.845764 28.578941 123.424728 27.989471 121.740509 27.989471 L 110.624718 27.989471 C 109.951027 27.989471 109.372086 27.757896 108.887871 27.294739 C 108.403664 26.831573 108.16156 26.242111 108.16156 25.526314 C 108.16156 24.810524 108.403664 24.210526 108.887871 23.726311 C 109.372086 23.242104 109.951027 23 110.624718 23 Z M 122.940506 41.126316 C 122.940506 41.926319 122.666824 42.599995 122.119453 43.147369 C 121.572083 43.69474 120.898407 43.968418 120.098404 43.968418 L 119.151031 43.968418 C 118.814186 43.968418 118.529984 43.863159 118.298401 43.65263 C 118.066818 43.442101 117.951035 43.168423 117.951035 42.831581 L 117.951035 33.673683 C 117.951035 33.336838 118.066818 33.063156 118.298401 32.852631 C 118.529984 32.642105 118.814186 32.536842 119.151031 32.536842 C 120.203667 32.536842 121.098396 32.905258 121.835243 33.642105 C 122.57209 34.378952 122.940506 35.273682 122.940506 36.326313 Z"/>
        <g id="Group-copy">
            <path id="Path" fill="#000000" stroke="none" d="M 23.288385 64.926361 C 22.874077 65.14502 21.826797 65.754974 20.940639 66.284363 C 19.064747 67.400696 19.122292 67.262589 19.904869 68.850769 C 20.457283 69.967102 21.032711 70.749687 21.297405 70.749687 C 21.389475 70.749687 22.045462 70.381409 22.7705 69.944092 C 23.495539 69.495255 24.117001 69.138489 24.151527 69.138489 C 24.266613 69.138489 25.256346 70.508003 25.256346 70.657616 C 25.256346 70.749687 24.807514 71.152481 24.255104 71.555283 C 22.885588 72.568039 22.494295 72.924805 22.494295 73.154968 C 22.494295 73.41967 24.473764 76.043617 25.45199 77.090889 C 26.269098 77.954033 26.752457 78.276276 27.074697 78.172691 C 27.189783 78.138168 27.477497 77.861969 27.719175 77.539726 C 27.960854 77.228996 28.46723 76.6996 28.835505 76.377365 L 29.526016 75.790428 L 30.28558 76.469429 C 31.378893 77.447655 31.367386 77.390114 30.711399 78.241753 C 30.400667 78.644547 29.928814 79.219971 29.66412 79.530708 C 28.870029 80.405357 28.927572 80.554962 30.469719 81.832413 C 32.368629 83.409088 33.738144 84.272224 34.256027 84.191666 C 34.417149 84.168655 34.704865 83.800369 35.142189 83.098358 C 35.498955 82.511414 35.890244 81.889954 36.028347 81.717331 L 36.258518 81.406601 L 37.259762 82.062584 C 37.812172 82.430855 38.261005 82.776115 38.261005 82.845169 C 38.261005 82.914223 38.168938 83.109863 38.042339 83.270981 C 37.731613 83.719818 36.879978 85.446098 36.879978 85.641739 C 36.879978 85.894936 37.328812 86.19416 38.629276 86.838638 C 40.090862 87.55217 41.713566 88.127586 42.242962 88.127586 C 42.668781 88.127586 43.209682 87.71328 43.209682 87.391037 C 43.209682 87.068802 43.900196 85.054802 44.049809 84.928207 C 44.199417 84.80162 45.822121 85.066315 46.017769 85.25045 C 46.063801 85.296486 45.948715 85.963982 45.753075 86.723549 C 45.315742 88.380783 45.304237 88.760559 45.660999 88.979218 C 46.132851 89.278442 48.066288 89.646721 49.95369 89.796333 C 50.908897 89.876884 51.749023 89.738792 51.92165 89.474091 C 51.967686 89.405037 52.036736 88.633965 52.071262 87.782333 L 52.128803 86.228683 L 53.084015 86.125099 C 53.64793 86.067558 54.085258 86.067558 54.142796 86.125099 C 54.188831 86.182648 54.303921 86.976738 54.38448 87.885918 C 54.580128 89.980469 54.51107 89.911407 56.421494 89.807838 C 59.218071 89.646721 60.668148 89.405037 61.001892 89.036766 C 61.186031 88.841125 61.186031 88.737541 61.070942 88.081558 C 60.990387 87.667244 60.806248 86.919189 60.656635 86.412819 C 60.472504 85.745323 60.426472 85.446098 60.518539 85.377052 C 60.691166 85.238937 62.463478 84.905197 62.555546 84.997269 C 62.601582 85.043297 62.797226 85.572693 63.004379 86.171143 C 63.533775 87.690262 63.752438 88.104576 64.097694 88.19664 C 64.488983 88.300217 65.167992 88.104576 66.894272 87.43708 C 68.827705 86.666008 69.725372 86.182648 69.771408 85.860413 C 69.794426 85.733818 69.529724 85.054802 69.184471 84.364296 C 68.839218 83.685287 68.528481 82.960251 68.482452 82.776115 C 68.413399 82.442368 68.436417 82.419342 69.357094 81.94751 C 70.151192 81.533195 70.335327 81.487167 70.427391 81.613747 C 70.496445 81.705826 70.899246 82.327286 71.325058 82.994774 C 72.038589 84.099594 72.142166 84.214684 72.464401 84.214684 C 73.039833 84.214684 75.214951 82.684044 76.849167 81.118881 C 77.436096 80.554962 77.551186 80.117645 77.19442 79.829926 C 76.88369 79.565231 75.433609 77.643303 75.433609 77.482185 C 75.433609 77.401619 75.744339 77.010338 76.112617 76.607529 L 76.791618 75.870987 L 77.056313 76.112663 C 77.205925 76.239258 77.804375 76.768654 78.379807 77.286545 C 78.955223 77.804428 79.519142 78.23024 79.634232 78.23024 C 79.749321 78.23024 80.186638 77.873482 80.612457 77.447655 C 81.55616 76.480942 83.834854 73.454193 83.834854 73.166473 C 83.834854 73.028381 83.39753 72.591049 82.718529 72.038643 C 82.097069 71.532272 81.498619 71.014381 81.372025 70.887787 C 81.164871 70.646103 81.164871 70.634598 81.521637 70.082184 C 81.717278 69.771454 81.981972 69.426201 82.120079 69.299606 C 82.338737 69.103958 82.361755 69.103958 82.66098 69.288101 C 82.833603 69.403183 83.45507 69.736931 84.042 70.036148 C 84.893631 70.461975 85.146828 70.542534 85.307945 70.450462 C 85.814331 70.128227 87.195358 67.274101 86.953674 67.032425 C 86.71199 66.790741 82.384773 64.535065 82.154602 64.535065 C 81.809341 64.535065 81.544655 64.880325 80.716042 66.433975 C 77.459122 72.51049 72.775139 77.125412 66.8022 80.12915 C 63.936573 81.567719 60.921333 82.476898 57.192566 83.017792 C 55.523823 83.270981 51.426777 83.305511 49.769554 83.086853 C 44.648247 82.419342 40.136898 80.739105 35.959293 77.965546 C 31.56303 75.053879 28.018396 70.945328 25.428974 65.812515 C 24.715445 64.373947 24.496784 64.281876 23.288385 64.926361 Z"/>
            <path id="path1" fill="#000000" stroke="none" d="M 50.701748 10.111145 C 43.888683 10.675056 36.995064 13.437111 31.459454 17.821877 C 30.043903 18.93821 27.696157 21.262932 26.591337 22.643951 C 22.678429 27.535088 20.250126 33.669144 19.582632 40.390141 L 19.44453 41.805683 L 18.523846 41.897758 C 15.623693 42.185474 13.839867 43.198223 12.896166 45.062607 C 12.148111 46.547207 12.113585 46.915482 12.15962 53.210659 C 12.217163 59.413765 12.217163 59.482822 12.965217 60.875351 C 13.402542 61.703964 14.415295 62.659176 15.278436 63.073483 C 17.844841 64.281876 21.780766 64.005676 23.334417 62.486549 C 24.117001 61.726982 24.255104 61.140045 24.312647 58.354977 C 24.358679 55.949692 24.358679 55.915165 24.059456 55.178619 C 23.771744 54.465092 23.760237 54.326988 23.760237 52.243938 C 23.760237 50.241451 23.783251 49.988266 24.036438 49.217194 C 24.312647 48.388577 24.324154 48.250473 24.370188 43.992313 C 24.427732 39.28532 24.496784 38.583294 25.210312 35.821243 C 26.315132 31.517044 28.80098 27.132286 32.046391 23.760284 C 36.546234 19.076309 42.565201 16.072571 49.654465 14.979263 C 51.300194 14.714569 55.408741 14.691544 56.962395 14.921722 C 61.692406 15.623749 65.823982 17.131363 69.311066 19.421562 C 71.152435 20.618454 72.268761 21.539131 73.776382 23.035248 C 77.436096 26.717979 80.060043 31.240837 81.24543 35.936325 C 81.924431 38.617821 82.016502 39.550014 82.074043 44.049854 C 82.108566 47.675041 82.143097 48.250473 82.35025 49.136631 C 82.557396 50.011284 82.580414 50.402573 82.545898 52.35902 C 82.499863 54.073799 82.453827 54.695263 82.304214 55.086552 C 82.143097 55.500858 82.108566 56.018745 82.108566 57.963684 C 82.108566 61.094013 82.281189 61.761509 83.316971 62.670685 C 84.479332 63.69495 87.114792 64.120758 89.209343 63.614384 C 91.741219 63.004436 93.444489 61.473797 94.0084 59.287167 C 94.169533 58.677219 94.192543 57.69899 94.192543 52.830875 C 94.192543 47.456383 94.18103 47.019058 93.962372 46.178936 C 93.294876 43.578003 91.361443 42.150944 88.26564 41.989826 L 86.999702 41.920773 L 86.861603 40.424664 C 85.940918 31.102737 81.659737 23.046753 74.651031 17.442093 C 73.546211 16.567451 71.16394 14.990768 69.794426 14.242722 C 67.239525 12.827164 64.661613 11.814415 61.738441 11.077873 C 57.906094 10.111145 54.430515 9.81192 50.701748 10.111145 Z"/>
            <path id="iconmonstr-sound-wave-4" fill="#000000" stroke="none" d="M 61.605598 48.380802 C 59.784691 48.380802 59.897312 51.926445 59.038105 53.532238 C 58.893852 53.799232 58.500313 53.765068 58.405407 53.476555 C 57.429787 50.485157 57.875206 43.216709 55.229259 43.216709 C 52.459301 43.216709 53.143883 52.622414 52.065762 56.455303 C 51.986042 56.746346 51.583645 56.771652 51.465961 56.490734 C 50.327103 53.75621 50.45491 47.791122 48.299934 47.791122 C 46.070301 47.791122 46.260113 52.788181 45.38699 54.80143 C 45.271839 55.070961 44.890949 55.079819 44.763149 54.814087 C 44.126652 53.486683 43.92292 50.809097 41.518661 50.809097 L 38.718338 50.809097 C 38.370354 50.809097 38.086906 51.092548 38.086906 51.440533 C 38.086906 51.788513 38.370354 52.074497 38.718338 52.074497 L 41.518661 52.074497 C 43.507874 52.074497 42.83215 56.483143 45.130116 56.483143 C 47.261044 56.483143 47.030743 51.687286 47.943096 49.561417 C 48.054447 49.298214 48.426472 49.305805 48.532772 49.569008 C 49.551418 52.159279 49.532433 58.401489 51.874687 58.401489 C 54.502918 58.401489 53.566525 48.460522 54.966057 44.961689 C 55.071083 44.694691 55.451969 44.680771 55.572182 44.946507 C 56.874275 47.793655 56.188431 55.229137 58.538277 55.229137 C 60.612267 55.229137 60.736275 51.804966 61.360111 50.119453 C 61.462608 49.851192 61.832108 49.832211 61.959908 50.085293 C 62.612858 51.351955 63.030437 53.339897 64.996864 53.339897 L 67.825035 53.339897 C 68.173019 53.339897 68.456467 53.056446 68.456467 52.708462 C 68.456467 52.359211 68.173019 52.075764 67.825035 52.075764 L 64.996864 52.075764 C 63.322746 52.075764 63.58342 48.380802 61.605598 48.380802 Z"/>
            <path id="path2" fill="#000000" stroke="none" d="M 52.600655 23.932915 C 52.312946 24.232132 52.002209 24.922646 51.219627 27.017204 C 50.655708 28.501808 49.804077 30.699944 49.332222 31.90834 C 48.860378 33.105225 48.42305 34.267586 48.365513 34.463234 C 48.28495 34.773964 47.55991 34.773964 47.490856 34.693405 C 47.341248 34.50927 46.363022 30.251106 46.270954 29.376457 C 46.224918 29.008179 46.109829 28.605385 46.006256 28.490295 C 45.776089 28.237114 41.598484 29.629639 41.598484 29.974899 C 41.598484 30.066971 41.794128 30.366196 42.035805 30.642403 C 42.519169 31.206314 45.281219 35.936325 45.281219 35.936325 L 45.039536 36.143482 C 44.510143 36.580803 36.223991 32.21907 35.867226 31.965881 C 34.417149 30.987656 33.438923 30.895584 33.254787 31.724197 C 33.139702 32.265099 37.225235 41.540989 37.397861 41.920773 C 37.674068 42.542236 37.685577 42.657322 37.558983 43.048615 C 37.271271 43.923256 37.397861 44.003822 33.726639 40.620304 C 32.000355 39.032127 32.046391 39.055145 31.401909 39.688114 C 31.010622 40.079403 29.756187 42.576759 29.74468 42.68034 C 29.73317 43.129173 30.826485 43.727615 33.600044 44.797909 C 35.004086 45.327305 35.406883 45.534454 35.763649 45.902729 C 36.200974 46.351566 36.293041 46.696819 36.051361 46.903976 C 35.970802 46.961514 35.487446 47.180176 34.981071 47.364319 C 32.97858 48.123878 28.1565 49.896194 27.558056 50.091839 C 26.694916 50.368046 25.118246 51.150627 24.934105 51.380798 C 24.416222 52.082825 25.221821 53.049534 26.660387 53.452339 C 27.120731 53.578934 36.189465 56.973953 36.189465 57.330719 C 36.189465 57.710499 35.786667 58.021233 34.693356 58.47007 C 33.001598 59.160576 29.928814 60.64518 29.66412 60.886864 C 29.514509 61.013451 31.689625 64.799774 32.080914 64.454514 C 33.600044 63.119518 34.463184 62.290901 34.463184 62.175812 C 34.463184 62.037716 35.936275 60.806297 36.810925 60.219364 L 37.432388 60.253887 C 37.927258 60.95591 33.818703 70.519508 33.634571 71.014381 C 33.461941 71.509254 33.312328 72.015625 33.312328 72.142212 C 33.312328 72.62558 34.279049 72.740662 35.073135 72.349373 C 35.337833 72.211273 43.681534 67.688408 43.877174 67.435226 C 44.003765 67.262589 45.281219 67.987633 45.281219 68.045174 C 45.281219 68.114227 42.300507 72.464462 42.001282 72.809715 C 41.33379 73.592293 41.356804 73.810959 42.116364 74.225266 C 42.967999 74.697113 45.108589 75.583267 45.373287 75.583267 C 45.695526 75.583267 47.122589 70.738174 47.295216 70.082184 C 47.467842 69.437714 47.651981 68.8853 47.698013 68.850769 C 47.744049 68.827751 47.928181 68.839264 48.11232 68.896805 C 48.377014 68.965858 48.457577 69.069435 48.526627 69.437714 C 48.676235 70.151245 52.255394 79.991051 52.577641 80.244232 C 52.78479 80.405357 53.060993 80.531944 53.1991 80.531944 C 53.613407 80.531944 54.211853 79.806915 54.430515 79.070366 C 54.660683 78.276276 57.963634 69.633354 58.009674 69.414688 C 58.078724 69.011894 58.4585 68.712677 58.665661 68.896805 C 58.711693 68.942841 58.930355 69.67939 59.160526 70.531021 C 59.908585 73.385147 60.484009 75.168968 60.748703 75.376114 C 61.070942 75.640816 64.120712 74.04113 64.30484 73.937546 C 64.477478 73.822464 64.615578 73.638329 64.615578 73.523239 C 64.615578 73.396652 61.047928 68.125732 61.047928 68.079704 C 61.047928 67.97612 62.129726 67.412201 62.313866 67.412201 C 62.382919 67.412201 62.762703 67.607849 63.153992 67.861038 C 64.442955 68.666634 70.761139 72.084671 71.025841 72.280319 C 71.647301 72.729156 72.487419 72.832733 72.878716 72.51049 C 73.051346 72.383896 73.166428 72.130707 73.200958 71.843002 C 73.258492 71.440193 68.632057 61.243626 68.632057 61.243626 C 68.632057 61.243626 69.276543 60.138805 69.322571 60.115784 C 69.368607 60.081257 70.530975 61.117031 71.911995 62.417496 C 74.455383 64.788254 74.674049 64.949379 75.122887 64.627136 C 75.237968 64.546577 75.686798 63.775505 76.124123 62.92387 C 76.929718 61.358707 77.010277 61.036476 76.630501 60.725739 C 76.469383 60.587639 72.475914 58.861355 71.486183 58.504585 C 70.715103 58.216877 70.23175 57.791058 70.277779 57.422787 C 70.312309 57.158092 70.438904 57.07753 71.348076 56.766804 C 71.9235 56.559647 78.771088 53.75156 79.40406 53.532898 C 81.337502 52.865398 81.878395 52.428078 81.705772 51.657005 C 81.602188 51.150627 81.176369 50.839897 80.186638 50.552185 C 79.691772 50.402573 71.739365 47.37582 71.232986 47.191689 C 70.358337 46.880959 70.312309 46.846432 70.312309 46.524193 C 70.312309 46.236481 70.415886 46.109886 70.945282 45.764633 C 71.865967 45.166183 74.466896 44.026836 75.053825 43.957787 C 75.686798 43.888733 76.745583 43.267273 76.791618 42.945034 C 76.837654 42.645809 75.939987 40.585781 75.433609 39.791695 C 75.030815 39.158722 74.789131 39.078163 74.443871 39.457947 C 74.328789 39.596046 69.322571 43.704597 69.149948 43.704597 C 69.080894 43.704597 68.632057 42.956547 68.632057 42.956547 L 69.909508 39.964321 C 70.611534 38.3186 71.681824 35.959343 72.280273 34.716423 C 73.373581 32.483765 73.385086 32.449242 73.200958 32.103989 C 72.913239 31.551575 72.337814 31.125755 71.992561 31.217827 C 71.831436 31.25235 71.025841 31.655151 70.19722 32.103989 C 69.380112 32.552818 67.930038 33.323891 66.974831 33.807243 C 66.031128 34.290604 64.558037 35.073189 63.706406 35.522018 L 62.164253 36.362144 C 62.164253 36.362144 61.047928 35.786713 61.047928 35.717667 C 61.047928 35.533531 63.533775 32.47226 64.097694 31.758728 C 65.271561 30.239594 65.294579 30.066971 64.408424 29.618141 C 63.407185 29.111763 61.600338 28.398232 61.312626 28.398232 C 61.070942 28.398232 60.967369 28.536331 60.587585 29.341934 C 60.345905 29.871323 58.654148 35.061676 58.205318 34.773964 C 58.090229 34.70491 57.802517 34.164009 57.572346 33.565567 C 56.605629 31.102737 55.236107 27.431511 54.706715 25.866356 C 53.935646 23.587654 53.417759 23.115807 52.600655 23.932915 Z M 54.971413 34.50927 C 54.407497 34.555298 51.553375 34.486252 51.576389 34.417198 C 51.587902 34.37117 53.060993 30.527313 53.118542 30.377701 C 53.268147 29.974899 55.074993 34.497757 54.971413 34.50927 Z M 38.69833 36.442707 C 39.055092 36.626839 42.139385 37.927307 42.0243 38.20351 C 41.932232 38.468208 39.80315 40.367123 39.619011 40.367123 C 39.331299 40.367123 38.157425 36.718914 38.07687 36.546288 C 37.800663 36.005383 37.823681 35.993874 38.69833 36.442707 Z M 68.873741 36.154991 C 68.873741 36.258564 67.020859 40.413155 67.020859 40.413155 C 67.020859 40.413155 64.546524 37.858257 64.604065 37.800716 C 64.650101 37.754681 68.873741 36.051414 68.873741 36.154991 Z M 56.686188 37.363384 C 59.42522 37.984848 61.74995 39.296822 63.90205 41.425907 C 65.536255 43.048615 66.525993 44.533215 67.343102 46.593243 C 68.033615 48.296509 68.229263 49.539433 68.229263 51.990753 C 68.229263 53.786091 68.206245 54.131344 67.930038 55.224651 C 66.387894 61.358707 62.083694 65.501785 56.030201 66.675659 C 54.649174 66.940353 52.151821 66.940353 50.632694 66.675659 C 47.387283 66.11174 44.797855 64.765236 42.519169 62.475037 C 39.837673 59.78204 38.445141 56.52512 38.295528 52.681267 C 38.134411 48.365555 39.688061 44.441143 42.737831 41.402893 C 45.143116 39.009113 47.939693 37.593555 51.162083 37.144722 C 52.370483 36.972095 55.546841 37.09869 56.686188 37.363384 Z M 35.544987 50.471626 C 35.637054 50.621239 35.406883 53.164623 35.291798 53.279713 C 35.165207 53.406303 30.561787 52.036781 30.55028 51.864155 C 30.55028 51.726055 35.44141 50.310501 35.544987 50.471626 Z M 72.09613 50.828388 C 74.570473 51.564938 76.170158 52.220924 75.491158 52.220924 C 75.387581 52.220924 72.061607 53.325741 71.41713 53.406303 C 71.290535 53.429321 71.16394 51.633991 71.117905 51.265713 C 71.014328 50.49464 71.002823 50.506153 72.09613 50.828388 Z M 68.609047 67.676903 C 68.701111 67.861038 68.747139 68.033669 68.724129 68.068192 C 68.597534 68.194786 65.559273 66.526047 65.041389 66.054199 L 64.730659 65.754974 C 64.730659 65.754974 66.905777 63.614384 66.974831 63.614384 C 67.043884 63.614384 68.516968 67.504272 68.609047 67.676903 Z M 41.828655 65.812515 C 41.828655 65.870064 37.996307 67.872551 37.973289 67.872551 C 37.823681 67.872551 39.469398 63.729469 39.642029 63.729469 C 39.688061 63.729469 41.828655 65.754974 41.828655 65.812515 Z M 54.603146 69.921066 C 54.603146 70.611588 53.314186 74.087158 53.060993 74.087158 C 52.934402 74.087158 51.668461 69.921066 51.806561 69.794479 C 51.841091 69.748444 54.603146 69.736931 54.603146 69.921066 Z"/>
        </g>
    </g>
</svg>
