<?xml version="1.0" encoding="UTF-8"?>
<!-- Generated by Pixelmator Pro 3.7.1 -->
<svg width="1365" height="1365" viewBox="0 0 1365 1365" xmlns="http://www.w3.org/2000/svg">
    <g id="Group">
        <path id="Path" fill="#000000" stroke="none" d="M 304.884003 871.502014 C 299.645386 874.266846 286.40332 881.979248 275.198547 888.672974 C 251.479294 902.788086 252.206909 901.04187 262.10202 921.12323 C 269.086853 935.238403 276.362701 945.133545 279.709564 945.133545 C 280.873718 945.133545 289.168182 940.476929 298.335724 934.947388 C 307.503296 929.272217 315.361206 924.761169 315.79776 924.761169 C 317.25293 924.761169 329.767365 942.077637 329.767365 943.96936 C 329.767365 945.133545 324.092224 950.226624 317.107422 955.319702 C 299.790924 968.125183 294.843323 972.63623 294.843323 975.546509 C 294.843323 978.893433 319.872223 1012.071289 332.241119 1025.313232 C 342.572845 1036.227051 348.68454 1040.301514 352.759033 1038.991821 C 354.214203 1038.555298 357.852112 1035.062988 360.907959 1030.988403 C 363.963806 1027.059448 370.366547 1020.365723 375.023102 1016.29126 L 383.754089 1008.869873 L 393.358185 1017.455322 C 407.182312 1029.824219 407.036804 1029.09668 398.74234 1039.86499 C 394.813385 1044.958008 388.847168 1052.233887 385.500305 1056.162842 C 375.459625 1067.222168 376.187225 1069.11377 395.686493 1085.266235 C 419.696777 1105.202026 437.013245 1116.115723 443.561493 1115.097168 C 445.598724 1114.806152 449.236664 1110.149536 454.766327 1101.273071 C 459.277344 1093.851685 464.224915 1085.993774 465.9711 1083.811035 L 468.881439 1079.88208 L 481.541412 1088.176514 C 488.526215 1092.833008 494.201385 1097.198608 494.201385 1098.071655 C 494.201385 1098.944824 493.037231 1101.418579 491.436523 1103.455811 C 487.507599 1109.130981 476.739349 1130.958496 476.739349 1133.432251 C 476.739349 1136.633667 482.41449 1140.417114 498.85788 1148.56604 C 517.338501 1157.588135 537.856384 1164.863892 544.550171 1164.863892 C 549.934326 1164.863892 556.773621 1159.625244 556.773621 1155.550781 C 556.773621 1151.476318 565.504639 1126.010864 567.396362 1124.410156 C 569.288086 1122.80957 589.805908 1126.156372 592.279724 1128.484619 C 592.861755 1129.066772 591.406616 1137.506714 588.932861 1147.11084 C 583.403137 1168.065308 583.25769 1172.86731 587.768677 1175.63208 C 593.734863 1179.415527 618.181702 1184.072144 642.046448 1185.963867 C 654.124329 1186.982422 664.74707 1185.236328 666.92981 1181.889404 C 667.511902 1181.016235 668.38501 1171.266602 668.821533 1160.498413 L 669.549133 1140.853638 L 681.627014 1139.543945 C 688.757324 1138.816406 694.286987 1138.816406 695.014526 1139.543945 C 695.596619 1140.271606 697.051819 1150.312256 698.070435 1161.808105 C 700.54425 1188.292114 699.671082 1187.418945 723.826904 1186.109375 C 759.1875 1184.072144 777.522644 1181.016235 781.742554 1176.359741 C 784.070862 1173.885986 784.070862 1172.576294 782.615662 1164.28186 C 781.597107 1159.043213 779.268799 1149.584595 777.377075 1143.181885 C 775.048828 1134.741943 774.466797 1130.958496 775.63092 1130.085449 C 777.81366 1128.339111 800.223206 1124.119141 801.387329 1125.283325 C 801.969421 1125.865356 804.443176 1132.559204 807.0625 1140.126099 C 813.756287 1159.334229 816.521118 1164.572876 820.886658 1165.736938 C 825.834167 1167.046631 834.419678 1164.572876 856.247192 1156.132935 C 880.694031 1146.383301 892.044312 1140.271606 892.626404 1136.197144 C 892.91748 1134.596436 889.570496 1126.010864 885.205017 1117.279907 C 880.839539 1108.694336 876.910583 1099.526855 876.328552 1097.198608 C 875.455444 1092.978638 875.74646 1092.6875 887.387756 1086.721436 C 897.428467 1081.482788 899.756714 1080.900757 900.920837 1082.501343 C 901.793945 1083.665527 906.887024 1091.523438 912.271179 1099.963379 C 921.293213 1113.932983 922.602844 1115.388184 926.677307 1115.388184 C 933.953186 1115.388184 961.455872 1096.034424 982.119263 1076.244141 C 989.540588 1069.11377 990.995728 1063.584229 986.484741 1059.946289 C 982.555786 1056.599365 964.220642 1032.298096 964.220642 1030.260864 C 964.220642 1029.242188 968.149597 1024.294678 972.806152 1019.201538 L 981.391663 1009.888489 L 984.738525 1012.944336 C 986.630249 1014.545044 994.197144 1021.23877 1001.473022 1027.787109 C 1008.748779 1034.335327 1015.879089 1039.719482 1017.334351 1039.719482 C 1018.78949 1039.719482 1024.319092 1035.208496 1029.703247 1029.824219 C 1041.63562 1017.600891 1070.447998 979.329956 1070.447998 975.692017 C 1070.447998 973.945862 1064.918335 968.416199 1056.332886 961.431396 C 1048.474976 955.028687 1040.908081 948.480408 1039.307373 946.8797 C 1036.68811 943.823853 1036.68811 943.678345 1041.199097 936.693481 C 1043.672852 932.764587 1047.019653 928.399048 1048.765991 926.798401 C 1051.530762 924.324585 1051.821777 924.324585 1055.605225 926.652893 C 1057.787964 928.108032 1065.645874 932.328003 1073.067139 936.11145 C 1083.835449 941.495605 1087.036865 942.514221 1089.074097 941.350098 C 1095.476929 937.275635 1112.938965 901.187439 1109.883057 898.131592 C 1106.827148 895.075684 1052.112793 866.554443 1049.202515 866.554443 C 1044.836914 866.554443 1041.490112 870.919922 1031.012939 890.564697 C 989.831665 967.397583 930.606323 1025.749756 855.083069 1063.729736 C 818.849365 1081.919312 780.723938 1093.415161 733.576538 1100.254395 C 712.476563 1103.455811 660.672546 1103.892334 639.718201 1101.127563 C 574.963196 1092.6875 517.920593 1071.442139 465.097992 1036.372559 C 409.51059 999.556763 364.691376 947.6073 331.950104 882.706787 C 322.92807 864.517212 320.163269 863.353027 304.884003 871.502014 Z"/>
        <path id="path1" fill="#000000" stroke="none" d="M 651.505066 178.405396 C 565.35907 185.535645 478.194489 220.459717 408.200928 275.901733 C 390.302368 290.016846 360.616913 319.411255 346.647308 336.873169 C 297.17157 398.717896 266.467529 476.27832 258.027557 561.260193 L 256.281372 579.158691 L 244.640015 580.322876 C 207.969788 583.960815 185.414673 596.766296 173.4823 620.339966 C 164.023712 639.111633 163.587158 643.768188 164.169235 723.365906 C 164.89682 801.799438 164.89682 802.672607 174.355392 820.28009 C 179.88504 830.757263 192.690521 842.835205 203.604279 848.073792 C 236.05452 863.353027 285.821289 859.860657 305.466034 840.652466 C 315.361206 831.04834 317.107422 823.626953 317.834991 788.411865 C 318.417053 757.998901 318.417053 757.562317 314.633606 748.249268 C 310.995697 739.227234 310.850189 737.481018 310.850189 711.142456 C 310.850189 685.82251 311.141205 682.621216 314.34256 672.871582 C 317.834991 662.394348 317.980499 660.648132 318.562561 606.806946 C 319.290161 547.290588 320.163269 538.414001 329.185303 503.48999 C 343.154907 449.066711 374.586548 393.624756 415.622284 350.988342 C 472.519379 291.763062 548.624634 253.783081 638.263 239.958984 C 659.07196 236.612183 711.021423 236.321045 730.666199 239.231445 C 790.473572 248.108032 842.714172 267.170654 886.805725 296.12854 C 910.08844 311.262329 924.203552 322.903564 943.266235 341.820801 C 989.540588 388.386169 1022.718384 445.57428 1037.706665 504.945129 C 1046.292114 538.850586 1047.456299 550.637451 1048.183838 607.534485 C 1048.620361 653.372253 1049.057007 660.648132 1051.67627 671.852905 C 1054.295532 682.912231 1054.586548 687.859802 1054.150146 712.597595 C 1053.567993 734.279663 1052.985962 742.137573 1051.094238 747.085144 C 1049.057007 752.32373 1048.620361 758.872009 1048.620361 783.464294 C 1048.620361 823.044922 1050.803101 831.484863 1063.89978 842.980713 C 1078.596924 855.931763 1111.920288 861.315796 1138.404297 854.913086 C 1170.417969 847.200745 1191.954468 827.846985 1199.084717 800.19873 C 1201.12207 792.486389 1201.413086 780.117432 1201.413086 718.563843 C 1201.413086 650.607483 1201.267456 645.07782 1198.502686 634.455139 C 1190.062744 601.568298 1165.615967 583.524231 1126.471924 581.487 L 1110.465088 580.613892 L 1108.718872 561.696716 C 1097.077515 443.828064 1042.945313 341.966309 954.325562 271.099609 C 940.355957 260.040405 910.233948 240.104492 892.91748 230.645996 C 860.612671 212.747314 828.016968 199.941895 791.055664 190.628906 C 742.598572 178.405396 698.652527 174.621948 651.505066 178.405396 Z"/>
        <path id="iconmonstr-sound-wave-4" fill="#000000" stroke="none" d="M 789.375977 662.296021 C 766.35199 662.296021 767.776001 707.127991 756.911987 727.432007 C 755.088013 730.807983 750.112 730.375977 748.911987 726.727966 C 736.575989 688.903992 742.208008 597 708.752014 597 C 673.728027 597 682.384033 715.927979 668.752014 764.391968 C 667.744019 768.07196 662.656006 768.391968 661.167969 764.839966 C 646.768005 730.263977 648.384033 654.839966 621.135986 654.839966 C 592.94397 654.839966 595.343994 718.023987 584.304016 743.47998 C 582.848022 746.888 578.031982 747 576.416016 743.640015 C 568.367981 726.856018 565.791992 693 535.391968 693 L 499.984009 693 C 495.584015 693 492 696.583984 492 700.984009 C 492 705.383972 495.584015 709 499.984009 709 L 535.391968 709 C 560.544006 709 552 764.743958 581.05603 764.743958 C 608 764.743958 605.088013 704.104004 616.624023 677.223999 C 618.031982 673.895996 622.735962 673.992004 624.080017 677.320007 C 636.960022 710.072021 636.719971 789 666.335999 789 C 699.567993 789 687.728027 663.304016 705.424011 619.063965 C 706.752014 615.687988 711.567993 615.511963 713.088013 618.872009 C 729.552002 654.872009 720.880005 748.888 750.592041 748.888 C 776.81604 748.888 778.384033 705.59198 786.271973 684.279968 C 787.567993 680.888 792.23999 680.64801 793.855957 683.848022 C 802.112 699.864014 807.391968 725 832.255981 725 L 868.015991 725 C 872.416016 725 876 721.416016 876 717.015991 C 876 712.599976 872.416016 709.015991 868.015991 709.015991 L 832.255981 709.015991 C 811.088013 709.015991 814.384033 662.296021 789.375977 662.296021 Z"/>
        <path id="path2" fill="#000000" stroke="none" d="M 675.51532 353.171082 C 671.877441 356.954529 667.948425 365.685547 658.053284 392.169617 C 650.922974 410.941284 640.154724 438.735046 634.188477 454.014282 C 628.222351 469.14801 622.692688 483.845215 621.965149 486.31897 C 620.946533 490.247925 611.778931 490.247925 610.905823 489.22937 C 609.014099 486.901062 596.645203 433.059875 595.481079 422.000549 C 594.898987 417.343994 593.443787 412.250977 592.134155 410.795776 C 589.223877 407.594421 536.401245 425.201904 536.401245 429.567444 C 536.401245 430.731567 538.875 434.515015 541.930847 438.007446 C 548.042603 445.137756 582.966614 504.945129 582.966614 504.945129 L 579.910706 507.564453 C 573.21698 513.094055 468.444885 457.943237 463.933868 454.741821 C 445.598724 442.372925 433.229828 441.208801 430.90155 451.685974 C 429.446381 458.525269 481.104858 575.811829 483.287598 580.613892 C 486.779999 588.471802 486.925507 589.927002 485.324829 594.874573 C 481.68692 605.933777 483.287598 606.952454 436.867737 564.170471 C 415.040192 544.089172 415.622284 544.380188 407.473328 552.383606 C 402.525787 557.331177 386.664429 588.908325 386.518921 590.218018 C 386.373383 595.893188 400.19751 603.460022 435.267059 616.993103 C 453.020111 623.68689 458.11319 626.306152 462.624207 630.962708 C 468.153839 636.637878 469.317963 641.003357 466.262115 643.622681 C 465.2435 644.35022 459.131836 647.115051 452.729095 649.443359 C 427.409149 659.047424 366.437592 681.457031 358.870728 683.930786 C 347.95697 687.423218 328.021179 697.318359 325.692871 700.228699 C 319.144623 709.105286 329.330811 721.328613 347.520386 726.421753 C 353.341095 728.022461 468.008331 770.94989 468.008331 775.460938 C 468.008331 780.262939 462.915222 784.191956 449.091156 789.867126 C 427.700165 798.598083 388.847168 817.369751 385.500305 820.425659 C 383.608582 822.026245 411.111267 869.901367 416.058838 865.535828 C 435.267059 848.655884 446.180817 838.17865 446.180817 836.72345 C 446.180817 834.977295 464.806946 819.406982 475.866211 811.985657 L 483.724152 812.42218 C 489.981384 821.298706 438.03186 942.223145 435.703613 948.480408 C 433.520844 954.737671 431.62912 961.140381 431.62912 962.741028 C 431.62912 968.852783 443.85257 970.307922 453.893188 965.360352 C 457.240112 963.614136 562.739807 906.426025 565.213562 903.22467 C 566.814209 901.04187 582.966614 910.209473 582.966614 910.937073 C 582.966614 911.810181 545.277771 966.815552 541.494324 971.18103 C 533.054382 981.076172 533.345398 983.840942 542.949463 989.07959 C 553.717712 995.045776 580.783875 1006.250549 584.130737 1006.250549 C 588.2052 1006.250549 606.249329 944.987976 608.432068 936.693481 C 610.614807 928.544617 612.943115 921.559814 613.525146 921.12323 C 614.107239 920.832153 616.435425 920.977722 618.763733 921.705322 C 622.110596 922.578369 623.129272 923.888062 624.002319 928.544617 C 625.894043 937.56665 671.14978 1061.983521 675.224304 1065.184814 C 677.843567 1067.222168 681.335938 1068.822754 683.082214 1068.822754 C 688.320801 1068.822754 695.887695 1059.655273 698.652527 1050.342163 C 701.562805 1040.301514 743.326111 931.018372 743.908264 928.25354 C 744.781311 923.160461 749.583313 919.377075 752.202698 921.705322 C 752.784729 922.287354 755.549561 931.600464 758.4599 942.368652 C 767.918518 978.456909 775.194336 1001.011963 778.541199 1003.631226 C 782.615662 1006.978149 821.177673 986.751343 823.505859 985.44165 C 825.68866 983.986511 827.434875 981.658203 827.434875 980.203064 C 827.434875 978.602417 782.324646 911.955688 782.324646 911.373657 C 782.324646 910.063965 796.003174 902.933594 798.331482 902.933594 C 799.20459 902.933594 804.006653 905.40741 808.954224 908.608765 C 825.252136 918.794922 905.140808 962.013428 908.487732 964.487244 C 916.345642 970.162415 926.968323 971.472046 931.915955 967.397583 C 934.098694 965.796875 935.553833 962.59552 935.990417 958.957642 C 936.717957 953.864502 878.220215 824.936646 878.220215 824.936646 C 878.220215 824.936646 886.369202 810.967041 886.951233 810.675964 C 887.533325 810.23938 902.23053 823.335938 919.692505 839.779358 C 951.851746 869.755737 954.616577 871.793091 960.291748 867.718567 C 961.746887 866.699951 967.422058 856.950317 972.95166 846.182068 C 983.137817 826.391785 984.156433 822.317383 979.35437 818.388367 C 977.3172 816.642212 926.822815 794.814636 914.308411 790.303589 C 904.558716 786.66571 898.447083 781.281555 899.029114 776.625061 C 899.465698 773.278198 901.066406 772.259521 912.562195 768.330627 C 919.838013 765.711304 1006.420532 730.2052 1014.42395 727.440369 C 1038.87085 719.000366 1045.710083 713.470764 1043.527344 703.72113 C 1042.217651 697.318359 1036.833496 693.389404 1024.319092 689.751526 C 1018.06189 687.859802 917.509766 649.588806 911.106995 647.26062 C 900.047729 643.331665 899.465698 642.895081 899.465698 638.820618 C 899.465698 635.182739 900.77533 633.582031 907.469116 629.216553 C 919.110474 621.649658 951.997253 607.243469 959.418579 606.370361 C 967.422058 605.497253 980.80957 597.639343 981.391663 593.56488 C 981.973694 589.781433 970.623352 563.733948 964.220642 553.693298 C 959.127563 545.68988 956.071716 544.671265 951.706177 549.473328 C 950.251038 551.219482 886.951233 603.169006 884.768494 603.169006 C 883.895386 603.169006 878.220215 593.710449 878.220215 593.710449 L 894.37262 555.876038 C 903.249146 535.067139 916.782166 505.236145 924.34906 489.520386 C 938.173157 461.2901 938.318665 460.853577 935.990417 456.488098 C 932.352478 449.503235 925.07666 444.11908 920.711182 445.283264 C 918.673889 445.719788 908.487732 450.812927 898.010498 456.488098 C 887.678772 462.163269 869.343689 471.912842 857.265808 478.024536 C 845.333435 484.13623 826.707275 494.031372 815.939087 499.706543 L 796.439758 510.329285 C 796.439758 510.329285 782.324646 503.053406 782.324646 502.180298 C 782.324646 499.852112 813.756287 461.144592 820.886597 452.122559 C 835.729309 432.914307 836.020325 430.731567 824.815552 425.056458 C 812.15564 418.653687 789.309448 409.631653 785.67157 409.631653 C 782.615662 409.631653 781.30603 411.377808 776.503967 421.564026 C 773.44812 428.257751 752.057129 493.885864 746.382019 490.247925 C 744.926819 489.374817 741.288879 482.535522 738.37854 474.968628 C 726.155151 443.828064 708.838623 397.408203 702.144836 377.617981 C 692.395264 348.805603 685.846985 342.839417 675.51532 353.171082 Z M 705.49176 486.901062 C 698.36145 487.483093 662.273254 486.610046 662.56427 485.736938 C 662.709839 485.154907 681.335938 436.552246 682.063599 434.660522 C 683.955261 429.567444 706.801453 486.755554 705.49176 486.901062 Z M 499.731018 511.3479 C 504.242004 513.676147 543.24054 530.119568 541.785339 533.611938 C 540.621216 536.958862 513.700623 560.969177 511.372314 560.969177 C 507.734436 560.969177 492.891693 514.840332 491.873108 512.657593 C 488.380676 505.818298 488.671722 505.672729 499.731018 511.3479 Z M 881.276062 507.709961 C 881.276062 509.019592 857.847839 561.551208 857.847839 561.551208 C 857.847839 561.551208 826.561707 529.24646 827.289307 528.518921 C 827.871399 527.936829 881.276062 506.40033 881.276062 507.709961 Z M 727.173767 522.989197 C 761.806763 530.847107 791.201172 547.436035 818.412842 574.356689 C 839.076172 594.874573 851.590637 613.64624 861.922363 639.693726 C 870.65332 661.230225 873.127136 676.946045 873.127136 707.941101 C 873.127136 730.641785 872.836121 735.007263 869.343689 748.831299 C 849.844482 826.391785 795.421143 878.777832 718.879333 893.620605 C 701.417297 896.967407 669.840149 896.967407 650.631958 893.620605 C 609.596191 886.490234 576.854858 869.464722 548.042603 840.506897 C 514.137146 806.455994 496.529633 765.274719 494.637909 716.672119 C 492.600677 662.103271 512.245422 612.482056 550.807434 574.065674 C 581.220398 543.798157 616.580994 525.899536 657.325684 520.224365 C 672.60498 518.041626 712.767578 519.642334 727.173767 522.989197 Z M 459.859406 688.73291 C 461.023499 690.624634 458.11319 722.783813 456.65802 724.239014 C 455.057343 725.839661 396.850616 708.523132 396.705109 706.340393 C 396.705109 704.594238 458.549744 686.695618 459.859406 688.73291 Z M 922.020752 693.243896 C 953.306885 702.557007 973.533752 710.85144 964.948242 710.85144 C 963.638611 710.85144 921.584229 724.821045 913.435303 725.839661 C 911.834595 726.130737 910.233887 703.430115 909.651855 698.77356 C 908.342163 689.023926 908.196716 689.169495 922.020752 693.243896 Z M 877.929199 906.280518 C 879.093323 908.608765 879.675354 910.791565 879.384338 911.228088 C 877.78363 912.828796 839.367188 891.728882 832.81897 885.762634 L 828.890015 881.979248 C 828.890015 881.979248 856.3927 854.913086 857.265808 854.913086 C 858.138916 854.913086 876.765015 904.097778 877.929199 906.280518 Z M 539.311584 882.706787 C 539.311584 883.434448 490.854462 908.754333 490.563446 908.754333 C 488.671722 908.754333 509.480591 856.368225 511.663361 856.368225 C 512.245422 856.368225 539.311584 881.979248 539.311584 882.706787 Z M 700.835266 934.656311 C 700.835266 943.387329 684.537354 987.333374 681.335938 987.333374 C 679.735291 987.333374 663.728455 934.656311 665.474609 933.055664 C 665.911194 932.473572 700.835266 932.328003 700.835266 934.656311 Z"/>
    </g>
</svg>
